%TF.GenerationSoftware,KiCad,Pcbnew,10.0.4*%
%TF.CreationDate,2026-06-29T20:54:42+07:00*%
%TF.ProjectId,Control Unit,436f6e74-726f-46c2-9055-6e69742e6b69,rev?*%
%TF.SameCoordinates,Original*%
%TF.FileFunction,Legend,Top*%
%TF.FilePolarity,Positive*%
%FSLAX46Y46*%
G04 Gerber Fmt 4.6, Leading zero omitted, Abs format (unit mm)*
G04 Created by KiCad (PCBNEW 10.0.4) date 2026-06-29 20:54:42*
%MOMM*%
%LPD*%
G01*
G04 APERTURE LIST*
%ADD10C,0.250000*%
%ADD11C,0.100000*%
G04 APERTURE END LIST*
D10*
X197026403Y-129021615D02*
X198526403Y-129021615D01*
X198526403Y-129021615D02*
X197026403Y-129878758D01*
X197026403Y-129878758D02*
X198526403Y-129878758D01*
X197026403Y-131307330D02*
X197026403Y-130593044D01*
X197026403Y-130593044D02*
X198526403Y-130593044D01*
X198526403Y-131593045D02*
X197026403Y-132093045D01*
X197026403Y-132093045D02*
X198526403Y-132593045D01*
X197026403Y-133093044D02*
X198526403Y-133093044D01*
X197026403Y-133950187D02*
X197883546Y-133307330D01*
X198526403Y-133950187D02*
X197669260Y-133093044D01*
X194611487Y-129021615D02*
X195611487Y-129021615D01*
X195325773Y-129021615D02*
X195468630Y-129093044D01*
X195468630Y-129093044D02*
X195540058Y-129164473D01*
X195540058Y-129164473D02*
X195611487Y-129307330D01*
X195611487Y-129307330D02*
X195611487Y-129450187D01*
X194682916Y-130521615D02*
X194611487Y-130378758D01*
X194611487Y-130378758D02*
X194611487Y-130093044D01*
X194611487Y-130093044D02*
X194682916Y-129950186D01*
X194682916Y-129950186D02*
X194825773Y-129878758D01*
X194825773Y-129878758D02*
X195397201Y-129878758D01*
X195397201Y-129878758D02*
X195540058Y-129950186D01*
X195540058Y-129950186D02*
X195611487Y-130093044D01*
X195611487Y-130093044D02*
X195611487Y-130378758D01*
X195611487Y-130378758D02*
X195540058Y-130521615D01*
X195540058Y-130521615D02*
X195397201Y-130593044D01*
X195397201Y-130593044D02*
X195254344Y-130593044D01*
X195254344Y-130593044D02*
X195111487Y-129878758D01*
X195611487Y-131093043D02*
X194611487Y-131450186D01*
X194611487Y-131450186D02*
X195611487Y-131807329D01*
X194611487Y-133164472D02*
X194611487Y-132307329D01*
X194611487Y-132735900D02*
X196111487Y-132735900D01*
X196111487Y-132735900D02*
X195897201Y-132593043D01*
X195897201Y-132593043D02*
X195754344Y-132450186D01*
X195754344Y-132450186D02*
X195682916Y-132307329D01*
X194754344Y-133807328D02*
X194682916Y-133878757D01*
X194682916Y-133878757D02*
X194611487Y-133807328D01*
X194611487Y-133807328D02*
X194682916Y-133735900D01*
X194682916Y-133735900D02*
X194754344Y-133807328D01*
X194754344Y-133807328D02*
X194611487Y-133807328D01*
X194611487Y-135307329D02*
X194611487Y-134450186D01*
X194611487Y-134878757D02*
X196111487Y-134878757D01*
X196111487Y-134878757D02*
X195897201Y-134735900D01*
X195897201Y-134735900D02*
X195754344Y-134593043D01*
X195754344Y-134593043D02*
X195682916Y-134450186D01*
X193553714Y-128950187D02*
X193625142Y-129021615D01*
X193625142Y-129021615D02*
X193696571Y-129164473D01*
X193696571Y-129164473D02*
X193696571Y-129521615D01*
X193696571Y-129521615D02*
X193625142Y-129664473D01*
X193625142Y-129664473D02*
X193553714Y-129735901D01*
X193553714Y-129735901D02*
X193410857Y-129807330D01*
X193410857Y-129807330D02*
X193268000Y-129807330D01*
X193268000Y-129807330D02*
X193053714Y-129735901D01*
X193053714Y-129735901D02*
X192196571Y-128878758D01*
X192196571Y-128878758D02*
X192196571Y-129807330D01*
X192196571Y-130521615D02*
X192196571Y-130807329D01*
X192196571Y-130807329D02*
X192268000Y-130950186D01*
X192268000Y-130950186D02*
X192339428Y-131021615D01*
X192339428Y-131021615D02*
X192553714Y-131164472D01*
X192553714Y-131164472D02*
X192839428Y-131235901D01*
X192839428Y-131235901D02*
X193410857Y-131235901D01*
X193410857Y-131235901D02*
X193553714Y-131164472D01*
X193553714Y-131164472D02*
X193625142Y-131093044D01*
X193625142Y-131093044D02*
X193696571Y-130950186D01*
X193696571Y-130950186D02*
X193696571Y-130664472D01*
X193696571Y-130664472D02*
X193625142Y-130521615D01*
X193625142Y-130521615D02*
X193553714Y-130450186D01*
X193553714Y-130450186D02*
X193410857Y-130378758D01*
X193410857Y-130378758D02*
X193053714Y-130378758D01*
X193053714Y-130378758D02*
X192910857Y-130450186D01*
X192910857Y-130450186D02*
X192839428Y-130521615D01*
X192839428Y-130521615D02*
X192768000Y-130664472D01*
X192768000Y-130664472D02*
X192768000Y-130950186D01*
X192768000Y-130950186D02*
X192839428Y-131093044D01*
X192839428Y-131093044D02*
X192910857Y-131164472D01*
X192910857Y-131164472D02*
X193053714Y-131235901D01*
X193768000Y-132950186D02*
X191839428Y-131664472D01*
X193696571Y-133735901D02*
X193696571Y-133878758D01*
X193696571Y-133878758D02*
X193625142Y-134021615D01*
X193625142Y-134021615D02*
X193553714Y-134093044D01*
X193553714Y-134093044D02*
X193410857Y-134164472D01*
X193410857Y-134164472D02*
X193125142Y-134235901D01*
X193125142Y-134235901D02*
X192768000Y-134235901D01*
X192768000Y-134235901D02*
X192482285Y-134164472D01*
X192482285Y-134164472D02*
X192339428Y-134093044D01*
X192339428Y-134093044D02*
X192268000Y-134021615D01*
X192268000Y-134021615D02*
X192196571Y-133878758D01*
X192196571Y-133878758D02*
X192196571Y-133735901D01*
X192196571Y-133735901D02*
X192268000Y-133593044D01*
X192268000Y-133593044D02*
X192339428Y-133521615D01*
X192339428Y-133521615D02*
X192482285Y-133450186D01*
X192482285Y-133450186D02*
X192768000Y-133378758D01*
X192768000Y-133378758D02*
X193125142Y-133378758D01*
X193125142Y-133378758D02*
X193410857Y-133450186D01*
X193410857Y-133450186D02*
X193553714Y-133521615D01*
X193553714Y-133521615D02*
X193625142Y-133593044D01*
X193625142Y-133593044D02*
X193696571Y-133735901D01*
X193696571Y-135521615D02*
X193696571Y-135235900D01*
X193696571Y-135235900D02*
X193625142Y-135093043D01*
X193625142Y-135093043D02*
X193553714Y-135021615D01*
X193553714Y-135021615D02*
X193339428Y-134878757D01*
X193339428Y-134878757D02*
X193053714Y-134807329D01*
X193053714Y-134807329D02*
X192482285Y-134807329D01*
X192482285Y-134807329D02*
X192339428Y-134878757D01*
X192339428Y-134878757D02*
X192268000Y-134950186D01*
X192268000Y-134950186D02*
X192196571Y-135093043D01*
X192196571Y-135093043D02*
X192196571Y-135378757D01*
X192196571Y-135378757D02*
X192268000Y-135521615D01*
X192268000Y-135521615D02*
X192339428Y-135593043D01*
X192339428Y-135593043D02*
X192482285Y-135664472D01*
X192482285Y-135664472D02*
X192839428Y-135664472D01*
X192839428Y-135664472D02*
X192982285Y-135593043D01*
X192982285Y-135593043D02*
X193053714Y-135521615D01*
X193053714Y-135521615D02*
X193125142Y-135378757D01*
X193125142Y-135378757D02*
X193125142Y-135093043D01*
X193125142Y-135093043D02*
X193053714Y-134950186D01*
X193053714Y-134950186D02*
X192982285Y-134878757D01*
X192982285Y-134878757D02*
X192839428Y-134807329D01*
X193768000Y-137378757D02*
X191839428Y-136093043D01*
X193553714Y-137807329D02*
X193625142Y-137878757D01*
X193625142Y-137878757D02*
X193696571Y-138021615D01*
X193696571Y-138021615D02*
X193696571Y-138378757D01*
X193696571Y-138378757D02*
X193625142Y-138521615D01*
X193625142Y-138521615D02*
X193553714Y-138593043D01*
X193553714Y-138593043D02*
X193410857Y-138664472D01*
X193410857Y-138664472D02*
X193268000Y-138664472D01*
X193268000Y-138664472D02*
X193053714Y-138593043D01*
X193053714Y-138593043D02*
X192196571Y-137735900D01*
X192196571Y-137735900D02*
X192196571Y-138664472D01*
X193696571Y-139593043D02*
X193696571Y-139735900D01*
X193696571Y-139735900D02*
X193625142Y-139878757D01*
X193625142Y-139878757D02*
X193553714Y-139950186D01*
X193553714Y-139950186D02*
X193410857Y-140021614D01*
X193410857Y-140021614D02*
X193125142Y-140093043D01*
X193125142Y-140093043D02*
X192768000Y-140093043D01*
X192768000Y-140093043D02*
X192482285Y-140021614D01*
X192482285Y-140021614D02*
X192339428Y-139950186D01*
X192339428Y-139950186D02*
X192268000Y-139878757D01*
X192268000Y-139878757D02*
X192196571Y-139735900D01*
X192196571Y-139735900D02*
X192196571Y-139593043D01*
X192196571Y-139593043D02*
X192268000Y-139450186D01*
X192268000Y-139450186D02*
X192339428Y-139378757D01*
X192339428Y-139378757D02*
X192482285Y-139307328D01*
X192482285Y-139307328D02*
X192768000Y-139235900D01*
X192768000Y-139235900D02*
X193125142Y-139235900D01*
X193125142Y-139235900D02*
X193410857Y-139307328D01*
X193410857Y-139307328D02*
X193553714Y-139378757D01*
X193553714Y-139378757D02*
X193625142Y-139450186D01*
X193625142Y-139450186D02*
X193696571Y-139593043D01*
X193553714Y-140664471D02*
X193625142Y-140735899D01*
X193625142Y-140735899D02*
X193696571Y-140878757D01*
X193696571Y-140878757D02*
X193696571Y-141235899D01*
X193696571Y-141235899D02*
X193625142Y-141378757D01*
X193625142Y-141378757D02*
X193553714Y-141450185D01*
X193553714Y-141450185D02*
X193410857Y-141521614D01*
X193410857Y-141521614D02*
X193268000Y-141521614D01*
X193268000Y-141521614D02*
X193053714Y-141450185D01*
X193053714Y-141450185D02*
X192196571Y-140593042D01*
X192196571Y-140593042D02*
X192196571Y-141521614D01*
X193696571Y-142807328D02*
X193696571Y-142521613D01*
X193696571Y-142521613D02*
X193625142Y-142378756D01*
X193625142Y-142378756D02*
X193553714Y-142307328D01*
X193553714Y-142307328D02*
X193339428Y-142164470D01*
X193339428Y-142164470D02*
X193053714Y-142093042D01*
X193053714Y-142093042D02*
X192482285Y-142093042D01*
X192482285Y-142093042D02*
X192339428Y-142164470D01*
X192339428Y-142164470D02*
X192268000Y-142235899D01*
X192268000Y-142235899D02*
X192196571Y-142378756D01*
X192196571Y-142378756D02*
X192196571Y-142664470D01*
X192196571Y-142664470D02*
X192268000Y-142807328D01*
X192268000Y-142807328D02*
X192339428Y-142878756D01*
X192339428Y-142878756D02*
X192482285Y-142950185D01*
X192482285Y-142950185D02*
X192839428Y-142950185D01*
X192839428Y-142950185D02*
X192982285Y-142878756D01*
X192982285Y-142878756D02*
X193053714Y-142807328D01*
X193053714Y-142807328D02*
X193125142Y-142664470D01*
X193125142Y-142664470D02*
X193125142Y-142378756D01*
X193125142Y-142378756D02*
X193053714Y-142235899D01*
X193053714Y-142235899D02*
X192982285Y-142164470D01*
X192982285Y-142164470D02*
X192839428Y-142093042D01*
X193169619Y-118833333D02*
X193883904Y-118833333D01*
X193883904Y-118833333D02*
X194026761Y-118880952D01*
X194026761Y-118880952D02*
X194122000Y-118976190D01*
X194122000Y-118976190D02*
X194169619Y-119119047D01*
X194169619Y-119119047D02*
X194169619Y-119214285D01*
X194169619Y-117833333D02*
X194169619Y-118404761D01*
X194169619Y-118119047D02*
X193169619Y-118119047D01*
X193169619Y-118119047D02*
X193312476Y-118214285D01*
X193312476Y-118214285D02*
X193407714Y-118309523D01*
X193407714Y-118309523D02*
X193455333Y-118404761D01*
X175333333Y-117449619D02*
X175000000Y-116973428D01*
X174761905Y-117449619D02*
X174761905Y-116449619D01*
X174761905Y-116449619D02*
X175142857Y-116449619D01*
X175142857Y-116449619D02*
X175238095Y-116497238D01*
X175238095Y-116497238D02*
X175285714Y-116544857D01*
X175285714Y-116544857D02*
X175333333Y-116640095D01*
X175333333Y-116640095D02*
X175333333Y-116782952D01*
X175333333Y-116782952D02*
X175285714Y-116878190D01*
X175285714Y-116878190D02*
X175238095Y-116925809D01*
X175238095Y-116925809D02*
X175142857Y-116973428D01*
X175142857Y-116973428D02*
X174761905Y-116973428D01*
X175714286Y-116544857D02*
X175761905Y-116497238D01*
X175761905Y-116497238D02*
X175857143Y-116449619D01*
X175857143Y-116449619D02*
X176095238Y-116449619D01*
X176095238Y-116449619D02*
X176190476Y-116497238D01*
X176190476Y-116497238D02*
X176238095Y-116544857D01*
X176238095Y-116544857D02*
X176285714Y-116640095D01*
X176285714Y-116640095D02*
X176285714Y-116735333D01*
X176285714Y-116735333D02*
X176238095Y-116878190D01*
X176238095Y-116878190D02*
X175666667Y-117449619D01*
X175666667Y-117449619D02*
X176285714Y-117449619D01*
X179449619Y-91738094D02*
X178449619Y-91738094D01*
X178449619Y-91738094D02*
X178449619Y-91499999D01*
X178449619Y-91499999D02*
X178497238Y-91357142D01*
X178497238Y-91357142D02*
X178592476Y-91261904D01*
X178592476Y-91261904D02*
X178687714Y-91214285D01*
X178687714Y-91214285D02*
X178878190Y-91166666D01*
X178878190Y-91166666D02*
X179021047Y-91166666D01*
X179021047Y-91166666D02*
X179211523Y-91214285D01*
X179211523Y-91214285D02*
X179306761Y-91261904D01*
X179306761Y-91261904D02*
X179402000Y-91357142D01*
X179402000Y-91357142D02*
X179449619Y-91499999D01*
X179449619Y-91499999D02*
X179449619Y-91738094D01*
X179449619Y-90214285D02*
X179449619Y-90785713D01*
X179449619Y-90499999D02*
X178449619Y-90499999D01*
X178449619Y-90499999D02*
X178592476Y-90595237D01*
X178592476Y-90595237D02*
X178687714Y-90690475D01*
X178687714Y-90690475D02*
X178735333Y-90785713D01*
X176949619Y-86181904D02*
X175949619Y-86181904D01*
X176949619Y-85610476D02*
X176378190Y-86039047D01*
X175949619Y-85610476D02*
X176521047Y-86181904D01*
X189833333Y-107949619D02*
X189500000Y-107473428D01*
X189261905Y-107949619D02*
X189261905Y-106949619D01*
X189261905Y-106949619D02*
X189642857Y-106949619D01*
X189642857Y-106949619D02*
X189738095Y-106997238D01*
X189738095Y-106997238D02*
X189785714Y-107044857D01*
X189785714Y-107044857D02*
X189833333Y-107140095D01*
X189833333Y-107140095D02*
X189833333Y-107282952D01*
X189833333Y-107282952D02*
X189785714Y-107378190D01*
X189785714Y-107378190D02*
X189738095Y-107425809D01*
X189738095Y-107425809D02*
X189642857Y-107473428D01*
X189642857Y-107473428D02*
X189261905Y-107473428D01*
X190690476Y-107282952D02*
X190690476Y-107949619D01*
X190452381Y-106902000D02*
X190214286Y-107616285D01*
X190214286Y-107616285D02*
X190833333Y-107616285D01*
X114416666Y-134049619D02*
X114416666Y-134763904D01*
X114416666Y-134763904D02*
X114369047Y-134906761D01*
X114369047Y-134906761D02*
X114273809Y-135002000D01*
X114273809Y-135002000D02*
X114130952Y-135049619D01*
X114130952Y-135049619D02*
X114035714Y-135049619D01*
X114797619Y-134049619D02*
X115416666Y-134049619D01*
X115416666Y-134049619D02*
X115083333Y-134430571D01*
X115083333Y-134430571D02*
X115226190Y-134430571D01*
X115226190Y-134430571D02*
X115321428Y-134478190D01*
X115321428Y-134478190D02*
X115369047Y-134525809D01*
X115369047Y-134525809D02*
X115416666Y-134621047D01*
X115416666Y-134621047D02*
X115416666Y-134859142D01*
X115416666Y-134859142D02*
X115369047Y-134954380D01*
X115369047Y-134954380D02*
X115321428Y-135002000D01*
X115321428Y-135002000D02*
X115226190Y-135049619D01*
X115226190Y-135049619D02*
X114940476Y-135049619D01*
X114940476Y-135049619D02*
X114845238Y-135002000D01*
X114845238Y-135002000D02*
X114797619Y-134954380D01*
X187949619Y-122326666D02*
X187473428Y-122659999D01*
X187949619Y-122898094D02*
X186949619Y-122898094D01*
X186949619Y-122898094D02*
X186949619Y-122517142D01*
X186949619Y-122517142D02*
X186997238Y-122421904D01*
X186997238Y-122421904D02*
X187044857Y-122374285D01*
X187044857Y-122374285D02*
X187140095Y-122326666D01*
X187140095Y-122326666D02*
X187282952Y-122326666D01*
X187282952Y-122326666D02*
X187378190Y-122374285D01*
X187378190Y-122374285D02*
X187425809Y-122421904D01*
X187425809Y-122421904D02*
X187473428Y-122517142D01*
X187473428Y-122517142D02*
X187473428Y-122898094D01*
X187949619Y-121374285D02*
X187949619Y-121945713D01*
X187949619Y-121659999D02*
X186949619Y-121659999D01*
X186949619Y-121659999D02*
X187092476Y-121755237D01*
X187092476Y-121755237D02*
X187187714Y-121850475D01*
X187187714Y-121850475D02*
X187235333Y-121945713D01*
X185916666Y-134049619D02*
X185916666Y-134763904D01*
X185916666Y-134763904D02*
X185869047Y-134906761D01*
X185869047Y-134906761D02*
X185773809Y-135002000D01*
X185773809Y-135002000D02*
X185630952Y-135049619D01*
X185630952Y-135049619D02*
X185535714Y-135049619D01*
X186821428Y-134049619D02*
X186630952Y-134049619D01*
X186630952Y-134049619D02*
X186535714Y-134097238D01*
X186535714Y-134097238D02*
X186488095Y-134144857D01*
X186488095Y-134144857D02*
X186392857Y-134287714D01*
X186392857Y-134287714D02*
X186345238Y-134478190D01*
X186345238Y-134478190D02*
X186345238Y-134859142D01*
X186345238Y-134859142D02*
X186392857Y-134954380D01*
X186392857Y-134954380D02*
X186440476Y-135002000D01*
X186440476Y-135002000D02*
X186535714Y-135049619D01*
X186535714Y-135049619D02*
X186726190Y-135049619D01*
X186726190Y-135049619D02*
X186821428Y-135002000D01*
X186821428Y-135002000D02*
X186869047Y-134954380D01*
X186869047Y-134954380D02*
X186916666Y-134859142D01*
X186916666Y-134859142D02*
X186916666Y-134621047D01*
X186916666Y-134621047D02*
X186869047Y-134525809D01*
X186869047Y-134525809D02*
X186821428Y-134478190D01*
X186821428Y-134478190D02*
X186726190Y-134430571D01*
X186726190Y-134430571D02*
X186535714Y-134430571D01*
X186535714Y-134430571D02*
X186440476Y-134478190D01*
X186440476Y-134478190D02*
X186392857Y-134525809D01*
X186392857Y-134525809D02*
X186345238Y-134621047D01*
X177509374Y-100354380D02*
X177461755Y-100402000D01*
X177461755Y-100402000D02*
X177318898Y-100449619D01*
X177318898Y-100449619D02*
X177223660Y-100449619D01*
X177223660Y-100449619D02*
X177080803Y-100402000D01*
X177080803Y-100402000D02*
X176985565Y-100306761D01*
X176985565Y-100306761D02*
X176937946Y-100211523D01*
X176937946Y-100211523D02*
X176890327Y-100021047D01*
X176890327Y-100021047D02*
X176890327Y-99878190D01*
X176890327Y-99878190D02*
X176937946Y-99687714D01*
X176937946Y-99687714D02*
X176985565Y-99592476D01*
X176985565Y-99592476D02*
X177080803Y-99497238D01*
X177080803Y-99497238D02*
X177223660Y-99449619D01*
X177223660Y-99449619D02*
X177318898Y-99449619D01*
X177318898Y-99449619D02*
X177461755Y-99497238D01*
X177461755Y-99497238D02*
X177509374Y-99544857D01*
X178461755Y-100449619D02*
X177890327Y-100449619D01*
X178176041Y-100449619D02*
X178176041Y-99449619D01*
X178176041Y-99449619D02*
X178080803Y-99592476D01*
X178080803Y-99592476D02*
X177985565Y-99687714D01*
X177985565Y-99687714D02*
X177890327Y-99735333D01*
X157666667Y-138902000D02*
X157809524Y-138949619D01*
X157809524Y-138949619D02*
X158047619Y-138949619D01*
X158047619Y-138949619D02*
X158142857Y-138902000D01*
X158142857Y-138902000D02*
X158190476Y-138854380D01*
X158190476Y-138854380D02*
X158238095Y-138759142D01*
X158238095Y-138759142D02*
X158238095Y-138663904D01*
X158238095Y-138663904D02*
X158190476Y-138568666D01*
X158190476Y-138568666D02*
X158142857Y-138521047D01*
X158142857Y-138521047D02*
X158047619Y-138473428D01*
X158047619Y-138473428D02*
X157857143Y-138425809D01*
X157857143Y-138425809D02*
X157761905Y-138378190D01*
X157761905Y-138378190D02*
X157714286Y-138330571D01*
X157714286Y-138330571D02*
X157666667Y-138235333D01*
X157666667Y-138235333D02*
X157666667Y-138140095D01*
X157666667Y-138140095D02*
X157714286Y-138044857D01*
X157714286Y-138044857D02*
X157761905Y-137997238D01*
X157761905Y-137997238D02*
X157857143Y-137949619D01*
X157857143Y-137949619D02*
X158095238Y-137949619D01*
X158095238Y-137949619D02*
X158238095Y-137997238D01*
X158571429Y-137949619D02*
X158809524Y-138949619D01*
X158809524Y-138949619D02*
X159000000Y-138235333D01*
X159000000Y-138235333D02*
X159190476Y-138949619D01*
X159190476Y-138949619D02*
X159428572Y-137949619D01*
X160333333Y-138949619D02*
X159761905Y-138949619D01*
X160047619Y-138949619D02*
X160047619Y-137949619D01*
X160047619Y-137949619D02*
X159952381Y-138092476D01*
X159952381Y-138092476D02*
X159857143Y-138187714D01*
X159857143Y-138187714D02*
X159761905Y-138235333D01*
X177919619Y-129238094D02*
X176919619Y-129238094D01*
X176919619Y-129238094D02*
X176919619Y-128999999D01*
X176919619Y-128999999D02*
X176967238Y-128857142D01*
X176967238Y-128857142D02*
X177062476Y-128761904D01*
X177062476Y-128761904D02*
X177157714Y-128714285D01*
X177157714Y-128714285D02*
X177348190Y-128666666D01*
X177348190Y-128666666D02*
X177491047Y-128666666D01*
X177491047Y-128666666D02*
X177681523Y-128714285D01*
X177681523Y-128714285D02*
X177776761Y-128761904D01*
X177776761Y-128761904D02*
X177872000Y-128857142D01*
X177872000Y-128857142D02*
X177919619Y-128999999D01*
X177919619Y-128999999D02*
X177919619Y-129238094D01*
X177014857Y-128285713D02*
X176967238Y-128238094D01*
X176967238Y-128238094D02*
X176919619Y-128142856D01*
X176919619Y-128142856D02*
X176919619Y-127904761D01*
X176919619Y-127904761D02*
X176967238Y-127809523D01*
X176967238Y-127809523D02*
X177014857Y-127761904D01*
X177014857Y-127761904D02*
X177110095Y-127714285D01*
X177110095Y-127714285D02*
X177205333Y-127714285D01*
X177205333Y-127714285D02*
X177348190Y-127761904D01*
X177348190Y-127761904D02*
X177919619Y-128333332D01*
X177919619Y-128333332D02*
X177919619Y-127714285D01*
X177549619Y-123681904D02*
X176549619Y-123681904D01*
X177549619Y-123110476D02*
X176978190Y-123539047D01*
X176549619Y-123110476D02*
X177121047Y-123681904D01*
X161666666Y-105949619D02*
X161666666Y-106663904D01*
X161666666Y-106663904D02*
X161619047Y-106806761D01*
X161619047Y-106806761D02*
X161523809Y-106902000D01*
X161523809Y-106902000D02*
X161380952Y-106949619D01*
X161380952Y-106949619D02*
X161285714Y-106949619D01*
X162095238Y-106044857D02*
X162142857Y-105997238D01*
X162142857Y-105997238D02*
X162238095Y-105949619D01*
X162238095Y-105949619D02*
X162476190Y-105949619D01*
X162476190Y-105949619D02*
X162571428Y-105997238D01*
X162571428Y-105997238D02*
X162619047Y-106044857D01*
X162619047Y-106044857D02*
X162666666Y-106140095D01*
X162666666Y-106140095D02*
X162666666Y-106235333D01*
X162666666Y-106235333D02*
X162619047Y-106378190D01*
X162619047Y-106378190D02*
X162047619Y-106949619D01*
X162047619Y-106949619D02*
X162666666Y-106949619D01*
X192899619Y-90388094D02*
X191899619Y-90388094D01*
X192899619Y-89816666D02*
X192328190Y-90245237D01*
X191899619Y-89816666D02*
X192471047Y-90388094D01*
X192899619Y-88864285D02*
X192899619Y-89435713D01*
X192899619Y-89149999D02*
X191899619Y-89149999D01*
X191899619Y-89149999D02*
X192042476Y-89245237D01*
X192042476Y-89245237D02*
X192137714Y-89340475D01*
X192137714Y-89340475D02*
X192185333Y-89435713D01*
X144916666Y-134049619D02*
X144916666Y-134763904D01*
X144916666Y-134763904D02*
X144869047Y-134906761D01*
X144869047Y-134906761D02*
X144773809Y-135002000D01*
X144773809Y-135002000D02*
X144630952Y-135049619D01*
X144630952Y-135049619D02*
X144535714Y-135049619D01*
X145821428Y-134382952D02*
X145821428Y-135049619D01*
X145583333Y-134002000D02*
X145345238Y-134716285D01*
X145345238Y-134716285D02*
X145964285Y-134716285D01*
X131916666Y-134049619D02*
X131916666Y-134763904D01*
X131916666Y-134763904D02*
X131869047Y-134906761D01*
X131869047Y-134906761D02*
X131773809Y-135002000D01*
X131773809Y-135002000D02*
X131630952Y-135049619D01*
X131630952Y-135049619D02*
X131535714Y-135049619D01*
X132297619Y-134049619D02*
X132964285Y-134049619D01*
X132964285Y-134049619D02*
X132535714Y-135049619D01*
X136288095Y-107699619D02*
X136288095Y-108509142D01*
X136288095Y-108509142D02*
X136335714Y-108604380D01*
X136335714Y-108604380D02*
X136383333Y-108652000D01*
X136383333Y-108652000D02*
X136478571Y-108699619D01*
X136478571Y-108699619D02*
X136669047Y-108699619D01*
X136669047Y-108699619D02*
X136764285Y-108652000D01*
X136764285Y-108652000D02*
X136811904Y-108604380D01*
X136811904Y-108604380D02*
X136859523Y-108509142D01*
X136859523Y-108509142D02*
X136859523Y-107699619D01*
X137859523Y-108699619D02*
X137288095Y-108699619D01*
X137573809Y-108699619D02*
X137573809Y-107699619D01*
X137573809Y-107699619D02*
X137478571Y-107842476D01*
X137478571Y-107842476D02*
X137383333Y-107937714D01*
X137383333Y-107937714D02*
X137288095Y-107985333D01*
X173949619Y-90976666D02*
X173473428Y-91309999D01*
X173949619Y-91548094D02*
X172949619Y-91548094D01*
X172949619Y-91548094D02*
X172949619Y-91167142D01*
X172949619Y-91167142D02*
X172997238Y-91071904D01*
X172997238Y-91071904D02*
X173044857Y-91024285D01*
X173044857Y-91024285D02*
X173140095Y-90976666D01*
X173140095Y-90976666D02*
X173282952Y-90976666D01*
X173282952Y-90976666D02*
X173378190Y-91024285D01*
X173378190Y-91024285D02*
X173425809Y-91071904D01*
X173425809Y-91071904D02*
X173473428Y-91167142D01*
X173473428Y-91167142D02*
X173473428Y-91548094D01*
X172949619Y-90643332D02*
X172949619Y-90024285D01*
X172949619Y-90024285D02*
X173330571Y-90357618D01*
X173330571Y-90357618D02*
X173330571Y-90214761D01*
X173330571Y-90214761D02*
X173378190Y-90119523D01*
X173378190Y-90119523D02*
X173425809Y-90071904D01*
X173425809Y-90071904D02*
X173521047Y-90024285D01*
X173521047Y-90024285D02*
X173759142Y-90024285D01*
X173759142Y-90024285D02*
X173854380Y-90071904D01*
X173854380Y-90071904D02*
X173902000Y-90119523D01*
X173902000Y-90119523D02*
X173949619Y-90214761D01*
X173949619Y-90214761D02*
X173949619Y-90500475D01*
X173949619Y-90500475D02*
X173902000Y-90595713D01*
X173902000Y-90595713D02*
X173854380Y-90643332D01*
X172238095Y-138449619D02*
X172238095Y-139259142D01*
X172238095Y-139259142D02*
X172285714Y-139354380D01*
X172285714Y-139354380D02*
X172333333Y-139402000D01*
X172333333Y-139402000D02*
X172428571Y-139449619D01*
X172428571Y-139449619D02*
X172619047Y-139449619D01*
X172619047Y-139449619D02*
X172714285Y-139402000D01*
X172714285Y-139402000D02*
X172761904Y-139354380D01*
X172761904Y-139354380D02*
X172809523Y-139259142D01*
X172809523Y-139259142D02*
X172809523Y-138449619D01*
X173238095Y-138544857D02*
X173285714Y-138497238D01*
X173285714Y-138497238D02*
X173380952Y-138449619D01*
X173380952Y-138449619D02*
X173619047Y-138449619D01*
X173619047Y-138449619D02*
X173714285Y-138497238D01*
X173714285Y-138497238D02*
X173761904Y-138544857D01*
X173761904Y-138544857D02*
X173809523Y-138640095D01*
X173809523Y-138640095D02*
X173809523Y-138735333D01*
X173809523Y-138735333D02*
X173761904Y-138878190D01*
X173761904Y-138878190D02*
X173190476Y-139449619D01*
X173190476Y-139449619D02*
X173809523Y-139449619D01*
X119909619Y-85333333D02*
X120623904Y-85333333D01*
X120623904Y-85333333D02*
X120766761Y-85380952D01*
X120766761Y-85380952D02*
X120862000Y-85476190D01*
X120862000Y-85476190D02*
X120909619Y-85619047D01*
X120909619Y-85619047D02*
X120909619Y-85714285D01*
X119909619Y-84380952D02*
X119909619Y-84857142D01*
X119909619Y-84857142D02*
X120385809Y-84904761D01*
X120385809Y-84904761D02*
X120338190Y-84857142D01*
X120338190Y-84857142D02*
X120290571Y-84761904D01*
X120290571Y-84761904D02*
X120290571Y-84523809D01*
X120290571Y-84523809D02*
X120338190Y-84428571D01*
X120338190Y-84428571D02*
X120385809Y-84380952D01*
X120385809Y-84380952D02*
X120481047Y-84333333D01*
X120481047Y-84333333D02*
X120719142Y-84333333D01*
X120719142Y-84333333D02*
X120814380Y-84380952D01*
X120814380Y-84380952D02*
X120862000Y-84428571D01*
X120862000Y-84428571D02*
X120909619Y-84523809D01*
X120909619Y-84523809D02*
X120909619Y-84761904D01*
X120909619Y-84761904D02*
X120862000Y-84857142D01*
X120862000Y-84857142D02*
X120814380Y-84904761D01*
%TO.C,R2*%
D11*
X172230000Y-115630000D02*
X178770000Y-115630000D01*
X172230000Y-115960000D02*
X172230000Y-115630000D01*
X172230000Y-118040000D02*
X172230000Y-118370000D01*
X172230000Y-118370000D02*
X178770000Y-118370000D01*
X178770000Y-115630000D02*
X178770000Y-115960000D01*
X178770000Y-118370000D02*
X178770000Y-118040000D01*
%TO.C,D1*%
X179000000Y-87260000D02*
X179000000Y-88280000D01*
X179000000Y-94740000D02*
X179000000Y-93720000D01*
X180470000Y-89060000D02*
X177530000Y-89060000D01*
X180470000Y-89180000D02*
X177530000Y-89180000D01*
X180470000Y-89300000D02*
X177530000Y-89300000D01*
X177530000Y-88280000D02*
X180470000Y-88280000D01*
X180470000Y-93720000D01*
X177530000Y-93720000D01*
X177530000Y-88280000D01*
%TO.C,R4*%
X186730000Y-106130000D02*
X186730000Y-106460000D01*
X186730000Y-108870000D02*
X186730000Y-108540000D01*
X193270000Y-106130000D02*
X186730000Y-106130000D01*
X193270000Y-106460000D02*
X193270000Y-106130000D01*
X193270000Y-108540000D02*
X193270000Y-108870000D01*
X193270000Y-108870000D02*
X186730000Y-108870000D01*
%TO.C,J3*%
X103090000Y-135390000D02*
X103090000Y-136640000D01*
X103390000Y-135690000D02*
X103390000Y-142310000D01*
X103390000Y-139000000D02*
X104400000Y-139000000D01*
X103390000Y-142310000D02*
X126110000Y-142310000D01*
X104340000Y-135390000D02*
X103090000Y-135390000D01*
X104400000Y-137300000D02*
X104400000Y-141600000D01*
X104400000Y-141600000D02*
X125100000Y-141600000D01*
X105690000Y-135690000D02*
X103390000Y-135690000D01*
X105690000Y-136690000D02*
X105690000Y-135690000D01*
X109950000Y-135690000D02*
X109950000Y-136690000D01*
X109950000Y-136690000D02*
X105690000Y-136690000D01*
X112050000Y-135690000D02*
X109950000Y-135690000D01*
X112050000Y-136690000D02*
X112050000Y-135690000D01*
X113950000Y-136090000D02*
X113950000Y-136690000D01*
X113950000Y-136690000D02*
X112050000Y-136690000D01*
X115550000Y-136090000D02*
X113950000Y-136090000D01*
X115550000Y-136690000D02*
X115550000Y-136090000D01*
X117450000Y-135690000D02*
X117450000Y-136690000D01*
X117450000Y-136690000D02*
X115550000Y-136690000D01*
X119550000Y-135690000D02*
X117450000Y-135690000D01*
X119550000Y-136690000D02*
X119550000Y-135690000D01*
X123810000Y-135690000D02*
X123810000Y-136690000D01*
X123810000Y-136690000D02*
X119550000Y-136690000D01*
X125100000Y-137300000D02*
X104400000Y-137300000D01*
X125100000Y-141600000D02*
X125100000Y-137300000D01*
X126110000Y-135690000D02*
X123810000Y-135690000D01*
X126110000Y-139000000D02*
X125100000Y-139000000D01*
X126110000Y-142310000D02*
X126110000Y-135690000D01*
%TO.C,R1*%
X187500000Y-113440000D02*
X187500000Y-114290000D01*
X187500000Y-130880000D02*
X187500000Y-130030000D01*
X184880000Y-114290000D02*
X190120000Y-114290000D01*
X190120000Y-130030000D01*
X184880000Y-130030000D01*
X184880000Y-114290000D01*
%TO.C,J6*%
X182090000Y-135390000D02*
X182090000Y-136640000D01*
X182390000Y-135690000D02*
X182390000Y-142310000D01*
X182390000Y-139000000D02*
X183400000Y-139000000D01*
X182390000Y-142310000D02*
X190110000Y-142310000D01*
X183340000Y-135390000D02*
X182090000Y-135390000D01*
X183400000Y-137300000D02*
X183400000Y-141600000D01*
X183400000Y-141600000D02*
X189100000Y-141600000D01*
X184650000Y-135690000D02*
X182390000Y-135690000D01*
X184650000Y-136690000D02*
X184650000Y-135690000D01*
X185850000Y-136090000D02*
X185850000Y-136690000D01*
X185850000Y-136690000D02*
X184650000Y-136690000D01*
X186650000Y-136090000D02*
X185850000Y-136090000D01*
X186650000Y-136690000D02*
X186650000Y-136090000D01*
X187850000Y-135690000D02*
X187850000Y-136690000D01*
X187850000Y-136690000D02*
X186650000Y-136690000D01*
X189100000Y-137300000D02*
X183400000Y-137300000D01*
X189100000Y-141600000D02*
X189100000Y-137300000D01*
X190110000Y-135690000D02*
X187850000Y-135690000D01*
X190110000Y-139000000D02*
X189100000Y-139000000D01*
X190110000Y-142310000D02*
X190110000Y-135690000D01*
%TO.C,C1*%
X170858959Y-103925000D02*
X172108959Y-103925000D01*
X171483959Y-103300000D02*
X171483959Y-104550000D01*
X177676041Y-101170000D02*
X177676041Y-113830000D01*
X177716041Y-101170000D02*
X177716041Y-113830000D01*
X177756041Y-101171000D02*
X177756041Y-113829000D01*
X177796041Y-101171000D02*
X177796041Y-113829000D01*
X177836041Y-101172000D02*
X177836041Y-113828000D01*
X177876041Y-101173000D02*
X177876041Y-113827000D01*
X177916041Y-101175000D02*
X177916041Y-113825000D01*
X177956041Y-101176000D02*
X177956041Y-113824000D01*
X177996041Y-101178000D02*
X177996041Y-113822000D01*
X178036041Y-101180000D02*
X178036041Y-113820000D01*
X178076041Y-101183000D02*
X178076041Y-113817000D01*
X178116041Y-101185000D02*
X178116041Y-113815000D01*
X178156041Y-101188000D02*
X178156041Y-113812000D01*
X178196041Y-101191000D02*
X178196041Y-113809000D01*
X178236041Y-101195000D02*
X178236041Y-113805000D01*
X178276041Y-101198000D02*
X178276041Y-113802000D01*
X178316041Y-101202000D02*
X178316041Y-113798000D01*
X178356041Y-101206000D02*
X178356041Y-113794000D01*
X178396041Y-101211000D02*
X178396041Y-113789000D01*
X178436041Y-101216000D02*
X178436041Y-113784000D01*
X178476041Y-101220000D02*
X178476041Y-113780000D01*
X178516041Y-101226000D02*
X178516041Y-113774000D01*
X178556041Y-101231000D02*
X178556041Y-113769000D01*
X178596041Y-101237000D02*
X178596041Y-113763000D01*
X178636041Y-101243000D02*
X178636041Y-113757000D01*
X178676041Y-101249000D02*
X178676041Y-113751000D01*
X178716041Y-101255000D02*
X178716041Y-113745000D01*
X178756041Y-101262000D02*
X178756041Y-106060000D01*
X178756041Y-108940000D02*
X178756041Y-113738000D01*
X178796041Y-101269000D02*
X178796041Y-106060000D01*
X178796041Y-108940000D02*
X178796041Y-113731000D01*
X178836041Y-101277000D02*
X178836041Y-106060000D01*
X178836041Y-108940000D02*
X178836041Y-113723000D01*
X178876041Y-101284000D02*
X178876041Y-106060000D01*
X178876041Y-108940000D02*
X178876041Y-113716000D01*
X178916041Y-101292000D02*
X178916041Y-106060000D01*
X178916041Y-108940000D02*
X178916041Y-113708000D01*
X178956041Y-101300000D02*
X178956041Y-106060000D01*
X178956041Y-108940000D02*
X178956041Y-113700000D01*
X178996041Y-101308000D02*
X178996041Y-106060000D01*
X178996041Y-108940000D02*
X178996041Y-113692000D01*
X179036041Y-101317000D02*
X179036041Y-106060000D01*
X179036041Y-108940000D02*
X179036041Y-113683000D01*
X179076041Y-101326000D02*
X179076041Y-106060000D01*
X179076041Y-108940000D02*
X179076041Y-113674000D01*
X179116041Y-101335000D02*
X179116041Y-106060000D01*
X179116041Y-108940000D02*
X179116041Y-113665000D01*
X179156041Y-101344000D02*
X179156041Y-106060000D01*
X179156041Y-108940000D02*
X179156041Y-113656000D01*
X179196041Y-101354000D02*
X179196041Y-106060000D01*
X179196041Y-108940000D02*
X179196041Y-113646000D01*
X179236041Y-101364000D02*
X179236041Y-106060000D01*
X179236041Y-108940000D02*
X179236041Y-113636000D01*
X179276041Y-101374000D02*
X179276041Y-106060000D01*
X179276041Y-108940000D02*
X179276041Y-113626000D01*
X179316041Y-101385000D02*
X179316041Y-106060000D01*
X179316041Y-108940000D02*
X179316041Y-113615000D01*
X179356041Y-101396000D02*
X179356041Y-106060000D01*
X179356041Y-108940000D02*
X179356041Y-113604000D01*
X179396041Y-101407000D02*
X179396041Y-106060000D01*
X179396041Y-108940000D02*
X179396041Y-113593000D01*
X179436041Y-101418000D02*
X179436041Y-106060000D01*
X179436041Y-108940000D02*
X179436041Y-113582000D01*
X179476041Y-101430000D02*
X179476041Y-106060000D01*
X179476041Y-108940000D02*
X179476041Y-113570000D01*
X179516041Y-101442000D02*
X179516041Y-106060000D01*
X179516041Y-108940000D02*
X179516041Y-113558000D01*
X179556041Y-101454000D02*
X179556041Y-106060000D01*
X179556041Y-108940000D02*
X179556041Y-113546000D01*
X179596041Y-101466000D02*
X179596041Y-106060000D01*
X179596041Y-108940000D02*
X179596041Y-113534000D01*
X179636041Y-101479000D02*
X179636041Y-106060000D01*
X179636041Y-108940000D02*
X179636041Y-113521000D01*
X179676041Y-101492000D02*
X179676041Y-106060000D01*
X179676041Y-108940000D02*
X179676041Y-113508000D01*
X179716041Y-101505000D02*
X179716041Y-106060000D01*
X179716041Y-108940000D02*
X179716041Y-113495000D01*
X179756041Y-101519000D02*
X179756041Y-106060000D01*
X179756041Y-108940000D02*
X179756041Y-113481000D01*
X179796041Y-101533000D02*
X179796041Y-106060000D01*
X179796041Y-108940000D02*
X179796041Y-113467000D01*
X179836041Y-101547000D02*
X179836041Y-106060000D01*
X179836041Y-108940000D02*
X179836041Y-113453000D01*
X179876041Y-101562000D02*
X179876041Y-106060000D01*
X179876041Y-108940000D02*
X179876041Y-113438000D01*
X179916041Y-101577000D02*
X179916041Y-106060000D01*
X179916041Y-108940000D02*
X179916041Y-113423000D01*
X179956041Y-101592000D02*
X179956041Y-106060000D01*
X179956041Y-108940000D02*
X179956041Y-113408000D01*
X179996041Y-101608000D02*
X179996041Y-106060000D01*
X179996041Y-108940000D02*
X179996041Y-113392000D01*
X180036041Y-101623000D02*
X180036041Y-106060000D01*
X180036041Y-108940000D02*
X180036041Y-113377000D01*
X180076041Y-101639000D02*
X180076041Y-106060000D01*
X180076041Y-108940000D02*
X180076041Y-113361000D01*
X180116041Y-101656000D02*
X180116041Y-106060000D01*
X180116041Y-108940000D02*
X180116041Y-113344000D01*
X180156041Y-101673000D02*
X180156041Y-106060000D01*
X180156041Y-108940000D02*
X180156041Y-113327000D01*
X180196041Y-101690000D02*
X180196041Y-106060000D01*
X180196041Y-108940000D02*
X180196041Y-113310000D01*
X180236041Y-101707000D02*
X180236041Y-106060000D01*
X180236041Y-108940000D02*
X180236041Y-113293000D01*
X180276041Y-101725000D02*
X180276041Y-106060000D01*
X180276041Y-108940000D02*
X180276041Y-113275000D01*
X180316041Y-101743000D02*
X180316041Y-106060000D01*
X180316041Y-108940000D02*
X180316041Y-113257000D01*
X180356041Y-101761000D02*
X180356041Y-106060000D01*
X180356041Y-108940000D02*
X180356041Y-113239000D01*
X180396041Y-101780000D02*
X180396041Y-106060000D01*
X180396041Y-108940000D02*
X180396041Y-113220000D01*
X180436041Y-101799000D02*
X180436041Y-106060000D01*
X180436041Y-108940000D02*
X180436041Y-113201000D01*
X180476041Y-101818000D02*
X180476041Y-106060000D01*
X180476041Y-108940000D02*
X180476041Y-113182000D01*
X180516041Y-101838000D02*
X180516041Y-106060000D01*
X180516041Y-108940000D02*
X180516041Y-113162000D01*
X180556041Y-101858000D02*
X180556041Y-106060000D01*
X180556041Y-108940000D02*
X180556041Y-113142000D01*
X180596041Y-101879000D02*
X180596041Y-106060000D01*
X180596041Y-108940000D02*
X180596041Y-113121000D01*
X180636041Y-101899000D02*
X180636041Y-106060000D01*
X180636041Y-108940000D02*
X180636041Y-113101000D01*
X180676041Y-101921000D02*
X180676041Y-106060000D01*
X180676041Y-108940000D02*
X180676041Y-113079000D01*
X180716041Y-101942000D02*
X180716041Y-106060000D01*
X180716041Y-108940000D02*
X180716041Y-113058000D01*
X180756041Y-101964000D02*
X180756041Y-106060000D01*
X180756041Y-108940000D02*
X180756041Y-113036000D01*
X180796041Y-101986000D02*
X180796041Y-106060000D01*
X180796041Y-108940000D02*
X180796041Y-113014000D01*
X180836041Y-102009000D02*
X180836041Y-106060000D01*
X180836041Y-108940000D02*
X180836041Y-112991000D01*
X180876041Y-102032000D02*
X180876041Y-106060000D01*
X180876041Y-108940000D02*
X180876041Y-112968000D01*
X180916041Y-102056000D02*
X180916041Y-106060000D01*
X180916041Y-108940000D02*
X180916041Y-112944000D01*
X180956041Y-102079000D02*
X180956041Y-106060000D01*
X180956041Y-108940000D02*
X180956041Y-112921000D01*
X180996041Y-102104000D02*
X180996041Y-106060000D01*
X180996041Y-108940000D02*
X180996041Y-112896000D01*
X181036041Y-102128000D02*
X181036041Y-106060000D01*
X181036041Y-108940000D02*
X181036041Y-112872000D01*
X181076041Y-102153000D02*
X181076041Y-106060000D01*
X181076041Y-108940000D02*
X181076041Y-112847000D01*
X181116041Y-102179000D02*
X181116041Y-106060000D01*
X181116041Y-108940000D02*
X181116041Y-112821000D01*
X181156041Y-102205000D02*
X181156041Y-106060000D01*
X181156041Y-108940000D02*
X181156041Y-112795000D01*
X181196041Y-102231000D02*
X181196041Y-106060000D01*
X181196041Y-108940000D02*
X181196041Y-112769000D01*
X181236041Y-102258000D02*
X181236041Y-106060000D01*
X181236041Y-108940000D02*
X181236041Y-112742000D01*
X181276041Y-102285000D02*
X181276041Y-106060000D01*
X181276041Y-108940000D02*
X181276041Y-112715000D01*
X181316041Y-102312000D02*
X181316041Y-106060000D01*
X181316041Y-108940000D02*
X181316041Y-112688000D01*
X181356041Y-102341000D02*
X181356041Y-106060000D01*
X181356041Y-108940000D02*
X181356041Y-112659000D01*
X181396041Y-102369000D02*
X181396041Y-106060000D01*
X181396041Y-108940000D02*
X181396041Y-112631000D01*
X181436041Y-102398000D02*
X181436041Y-106060000D01*
X181436041Y-108940000D02*
X181436041Y-112602000D01*
X181476041Y-102428000D02*
X181476041Y-106060000D01*
X181476041Y-108940000D02*
X181476041Y-112572000D01*
X181516041Y-102458000D02*
X181516041Y-106060000D01*
X181516041Y-108940000D02*
X181516041Y-112542000D01*
X181556041Y-102488000D02*
X181556041Y-106060000D01*
X181556041Y-108940000D02*
X181556041Y-112512000D01*
X181596041Y-102519000D02*
X181596041Y-106060000D01*
X181596041Y-108940000D02*
X181596041Y-112481000D01*
X181636041Y-102550000D02*
X181636041Y-112450000D01*
X181676041Y-102582000D02*
X181676041Y-112418000D01*
X181716041Y-102615000D02*
X181716041Y-112385000D01*
X181756041Y-102648000D02*
X181756041Y-112352000D01*
X181796041Y-102682000D02*
X181796041Y-112318000D01*
X181836041Y-102716000D02*
X181836041Y-112284000D01*
X181876041Y-102751000D02*
X181876041Y-112249000D01*
X181916041Y-102786000D02*
X181916041Y-112214000D01*
X181956041Y-102822000D02*
X181956041Y-112178000D01*
X181996041Y-102859000D02*
X181996041Y-112141000D01*
X182036041Y-102896000D02*
X182036041Y-112104000D01*
X182076041Y-102934000D02*
X182076041Y-112066000D01*
X182116041Y-102972000D02*
X182116041Y-112028000D01*
X182156041Y-103012000D02*
X182156041Y-111988000D01*
X182196041Y-103052000D02*
X182196041Y-111948000D01*
X182236041Y-103092000D02*
X182236041Y-111908000D01*
X182276041Y-103134000D02*
X182276041Y-111866000D01*
X182316041Y-103176000D02*
X182316041Y-111824000D01*
X182356041Y-103219000D02*
X182356041Y-111781000D01*
X182396041Y-103262000D02*
X182396041Y-111738000D01*
X182436041Y-103307000D02*
X182436041Y-111693000D01*
X182476041Y-103352000D02*
X182476041Y-111648000D01*
X182516041Y-103399000D02*
X182516041Y-111601000D01*
X182556041Y-103446000D02*
X182556041Y-111554000D01*
X182596041Y-103494000D02*
X182596041Y-111506000D01*
X182636041Y-103543000D02*
X182636041Y-111457000D01*
X182676041Y-103593000D02*
X182676041Y-111407000D01*
X182716041Y-103644000D02*
X182716041Y-111356000D01*
X182756041Y-103697000D02*
X182756041Y-111303000D01*
X182796041Y-103750000D02*
X182796041Y-111250000D01*
X182836041Y-103805000D02*
X182836041Y-111195000D01*
X182876041Y-103861000D02*
X182876041Y-111139000D01*
X182916041Y-103918000D02*
X182916041Y-111082000D01*
X182956041Y-103977000D02*
X182956041Y-111023000D01*
X182996041Y-104037000D02*
X182996041Y-110963000D01*
X183036041Y-104098000D02*
X183036041Y-110902000D01*
X183076041Y-104161000D02*
X183076041Y-110839000D01*
X183116041Y-104226000D02*
X183116041Y-110774000D01*
X183156041Y-104292000D02*
X183156041Y-110708000D01*
X183196041Y-104361000D02*
X183196041Y-110639000D01*
X183236041Y-104431000D02*
X183236041Y-110569000D01*
X183276041Y-104504000D02*
X183276041Y-110496000D01*
X183316041Y-104579000D02*
X183316041Y-110421000D01*
X183356041Y-104657000D02*
X183356041Y-110343000D01*
X183396041Y-104737000D02*
X183396041Y-110263000D01*
X183436041Y-104820000D02*
X183436041Y-110180000D01*
X183476041Y-104906000D02*
X183476041Y-110094000D01*
X183516041Y-104996000D02*
X183516041Y-110004000D01*
X183556041Y-105090000D02*
X183556041Y-109910000D01*
X183596041Y-105188000D02*
X183596041Y-109812000D01*
X183636041Y-105292000D02*
X183636041Y-109708000D01*
X183676041Y-105401000D02*
X183676041Y-109599000D01*
X183716041Y-105516000D02*
X183716041Y-109484000D01*
X183756041Y-105640000D02*
X183756041Y-109360000D01*
X183796041Y-105773000D02*
X183796041Y-109227000D01*
X183836041Y-105918000D02*
X183836041Y-109082000D01*
X183876041Y-106078000D02*
X183876041Y-108922000D01*
X183916041Y-106260000D02*
X183916041Y-108740000D01*
X183956041Y-106473000D02*
X183956041Y-108527000D01*
X183996041Y-106743000D02*
X183996041Y-108257000D01*
X184036041Y-107183000D02*
X184036041Y-107817000D01*
X184046041Y-107500000D02*
G75*
G02*
X171306041Y-107500000I-6370000J0D01*
G01*
X171306041Y-107500000D02*
G75*
G02*
X184046041Y-107500000I6370000J0D01*
G01*
%TO.C,SW1*%
X154400000Y-136600000D02*
X155600000Y-136600000D01*
X154400000Y-138900000D02*
X154400000Y-136600000D01*
X158100000Y-136600000D02*
X157400000Y-136600000D01*
X160600000Y-136600000D02*
X159900000Y-136600000D01*
X162400000Y-136600000D02*
X163600000Y-136600000D01*
X163600000Y-136600000D02*
X163600000Y-138900000D01*
%TO.C,D2*%
X175000000Y-124760000D02*
X175000000Y-125780000D01*
X175000000Y-132240000D02*
X175000000Y-131220000D01*
X176470000Y-126560000D02*
X173530000Y-126560000D01*
X176470000Y-126680000D02*
X173530000Y-126680000D01*
X176470000Y-126800000D02*
X173530000Y-126800000D01*
X173530000Y-125780000D02*
X176470000Y-125780000D01*
X176470000Y-131220000D01*
X173530000Y-131220000D01*
X173530000Y-125780000D01*
%TO.C,J2*%
X154000000Y-130100000D02*
X159333334Y-130100000D01*
X154000001Y-82900000D02*
X154000000Y-130100000D01*
X159333334Y-129740000D02*
X164666666Y-129740000D01*
X159333334Y-130100000D02*
X159333334Y-129740000D01*
X164666666Y-129740000D02*
X164666666Y-130100000D01*
X164666666Y-130100000D02*
X169999999Y-130100000D01*
X169999999Y-130100000D02*
X170000000Y-82900000D01*
X170000000Y-82900000D02*
X154000001Y-82900000D01*
%TO.C,K1*%
X183150000Y-82750000D02*
X198750000Y-82750000D01*
X183150000Y-102550000D02*
X183150000Y-82750000D01*
X183150000Y-102550000D02*
X189750000Y-102550000D01*
X185000000Y-95100000D02*
X185000000Y-97600000D01*
X185000000Y-95100000D02*
X189200000Y-95100000D01*
X186750000Y-87000000D02*
X189250000Y-87000000D01*
X189200000Y-93100000D02*
X192800000Y-93100000D01*
X189200000Y-97100000D02*
X189200000Y-93100000D01*
X191000000Y-90200000D02*
X188500000Y-85600000D01*
X191000000Y-91700000D02*
X191000000Y-90200000D01*
X191000000Y-91700000D02*
X194600000Y-91700000D01*
X191000000Y-98500000D02*
X191000000Y-99300000D01*
X191000000Y-98500000D02*
X194600000Y-98500000D01*
X192150000Y-102550000D02*
X198750000Y-102550000D01*
X192800000Y-93100000D02*
X189200000Y-97100000D01*
X192800000Y-93100000D02*
X192800000Y-97100000D01*
X192800000Y-95100000D02*
X197000000Y-95100000D01*
X192800000Y-97100000D02*
X189200000Y-97100000D01*
X194600000Y-91700000D02*
X194600000Y-98500000D01*
X195150000Y-87000000D02*
X192700000Y-87000000D01*
X197000000Y-97600000D02*
X197000000Y-95100000D01*
X198750000Y-82750000D02*
X198750000Y-102550000D01*
%TO.C,J4*%
X138590000Y-135390000D02*
X138590000Y-136640000D01*
X138890000Y-135690000D02*
X138890000Y-142310000D01*
X138890000Y-139000000D02*
X139900000Y-139000000D01*
X138890000Y-142310000D02*
X151610000Y-142310000D01*
X139840000Y-135390000D02*
X138590000Y-135390000D01*
X139900000Y-137300000D02*
X139900000Y-141600000D01*
X139900000Y-141600000D02*
X150600000Y-141600000D01*
X142550000Y-135690000D02*
X138890000Y-135690000D01*
X142550000Y-136690000D02*
X142550000Y-135690000D01*
X144450000Y-136090000D02*
X144450000Y-136690000D01*
X144450000Y-136690000D02*
X142550000Y-136690000D01*
X146050000Y-136090000D02*
X144450000Y-136090000D01*
X146050000Y-136690000D02*
X146050000Y-136090000D01*
X147950000Y-135690000D02*
X147950000Y-136690000D01*
X147950000Y-136690000D02*
X146050000Y-136690000D01*
X150600000Y-137300000D02*
X139900000Y-137300000D01*
X150600000Y-141600000D02*
X150600000Y-137300000D01*
X151610000Y-135690000D02*
X147950000Y-135690000D01*
X151610000Y-139000000D02*
X150600000Y-139000000D01*
X151610000Y-142310000D02*
X151610000Y-135690000D01*
%TO.C,J7*%
X128090000Y-135390000D02*
X128090000Y-136640000D01*
X128390000Y-135690000D02*
X128390000Y-142310000D01*
X128390000Y-139000000D02*
X129400000Y-139000000D01*
X128390000Y-142310000D02*
X136110000Y-142310000D01*
X129340000Y-135390000D02*
X128090000Y-135390000D01*
X129400000Y-137300000D02*
X129400000Y-141600000D01*
X129400000Y-141600000D02*
X135100000Y-141600000D01*
X130650000Y-135690000D02*
X128390000Y-135690000D01*
X130650000Y-136690000D02*
X130650000Y-135690000D01*
X131850000Y-136090000D02*
X131850000Y-136690000D01*
X131850000Y-136690000D02*
X130650000Y-136690000D01*
X132650000Y-136090000D02*
X131850000Y-136090000D01*
X132650000Y-136690000D02*
X132650000Y-136090000D01*
X133850000Y-135690000D02*
X133850000Y-136690000D01*
X133850000Y-136690000D02*
X132650000Y-136690000D01*
X135100000Y-137300000D02*
X129400000Y-137300000D01*
X135100000Y-141600000D02*
X135100000Y-137300000D01*
X136110000Y-135690000D02*
X133850000Y-135690000D01*
X136110000Y-139000000D02*
X135100000Y-139000000D01*
X136110000Y-142310000D02*
X136110000Y-135690000D01*
%TO.C,U1*%
X122770000Y-82775000D02*
X133839000Y-82775000D01*
X122770000Y-82775000D02*
X151280000Y-82775000D01*
X122770000Y-133725000D02*
X122770000Y-82775000D01*
X122770000Y-133725000D02*
X122770000Y-82775000D01*
X122770000Y-133725000D02*
X128140000Y-133725000D01*
X128140000Y-133725000D02*
X145830000Y-133725000D01*
X133839000Y-82775000D02*
X140550000Y-82775000D01*
X140550000Y-82775000D02*
X151280000Y-82775000D01*
X145830000Y-133725000D02*
X151280000Y-133725000D01*
X151280000Y-82775000D02*
X151280000Y-133725000D01*
X151280000Y-82775000D02*
X151280000Y-133725000D01*
X151280000Y-133725000D02*
X122770000Y-133725000D01*
X122300000Y-92735000D02*
G75*
G02*
X122100000Y-92735000I-100000J0D01*
G01*
X122100000Y-92735000D02*
G75*
G02*
X122300000Y-92735000I100000J0D01*
G01*
%TO.C,R3*%
X172130000Y-87540000D02*
X172130000Y-94080000D01*
X172130000Y-94080000D02*
X172460000Y-94080000D01*
X172460000Y-87540000D02*
X172130000Y-87540000D01*
X174540000Y-87540000D02*
X174870000Y-87540000D01*
X174870000Y-87540000D02*
X174870000Y-94080000D01*
X174870000Y-94080000D02*
X174540000Y-94080000D01*
%TO.C,U2*%
X170345000Y-136405000D02*
X170345000Y-141605000D01*
X170345000Y-141605000D02*
X171995000Y-141605000D01*
X173995000Y-141605000D02*
X175645000Y-141605000D01*
X175645000Y-136405000D02*
X170345000Y-136405000D01*
X175645000Y-141605000D02*
X175645000Y-136405000D01*
X171995000Y-141605000D02*
G75*
G02*
X173995000Y-141605000I1000000J0D01*
G01*
%TO.C,J5*%
X104000000Y-83620000D02*
X104000000Y-86380000D01*
X116810000Y-83620000D02*
X104000000Y-83620000D01*
X116810000Y-83620000D02*
X116810000Y-86380000D01*
X116810000Y-86380000D02*
X104000000Y-86380000D01*
X118080000Y-83620000D02*
X119460000Y-83620000D01*
X119460000Y-83620000D02*
X119460000Y-85000000D01*
%TD*%
M02*
