%TF.GenerationSoftware,KiCad,Pcbnew,10.0.4*%
%TF.CreationDate,2026-06-30T16:14:24+07:00*%
%TF.ProjectId,Control Unit,436f6e74-726f-46c2-9055-6e69742e6b69,rev?*%
%TF.SameCoordinates,Original*%
%TF.FileFunction,Copper,L2,Bot*%
%TF.FilePolarity,Positive*%
%FSLAX46Y46*%
G04 Gerber Fmt 4.6, Leading zero omitted, Abs format (unit mm)*
G04 Created by KiCad (PCBNEW 10.0.4) date 2026-06-30 16:14:24*
%MOMM*%
%LPD*%
G01*
G04 APERTURE LIST*
G04 Aperture macros list*
%AMRoundRect*
0 Rectangle with rounded corners*
0 $1 Rounding radius*
0 $2 $3 $4 $5 $6 $7 $8 $9 X,Y pos of 4 corners*
0 Add a 4 corners polygon primitive as box body*
4,1,4,$2,$3,$4,$5,$6,$7,$8,$9,$2,$3,0*
0 Add four circle primitives for the rounded corners*
1,1,$1+$1,$2,$3*
1,1,$1+$1,$4,$5*
1,1,$1+$1,$6,$7*
1,1,$1+$1,$8,$9*
0 Add four rect primitives between the rounded corners*
20,1,$1+$1,$2,$3,$4,$5,0*
20,1,$1+$1,$4,$5,$6,$7,0*
20,1,$1+$1,$6,$7,$8,$9,0*
20,1,$1+$1,$8,$9,$2,$3,0*%
G04 Aperture macros list end*
%TA.AperFunction,ComponentPad*%
%ADD10C,1.600000*%
%TD*%
%TA.AperFunction,ComponentPad*%
%ADD11RoundRect,0.250000X1.325000X-1.325000X1.325000X1.325000X-1.325000X1.325000X-1.325000X-1.325000X0*%
%TD*%
%TA.AperFunction,ComponentPad*%
%ADD12C,3.150000*%
%TD*%
%TA.AperFunction,ComponentPad*%
%ADD13RoundRect,0.249999X-0.850001X0.850001X-0.850001X-0.850001X0.850001X-0.850001X0.850001X0.850001X0*%
%TD*%
%TA.AperFunction,ComponentPad*%
%ADD14C,2.200000*%
%TD*%
%TA.AperFunction,ComponentPad*%
%ADD15RoundRect,0.250000X-0.600000X-0.725000X0.600000X-0.725000X0.600000X0.725000X-0.600000X0.725000X0*%
%TD*%
%TA.AperFunction,ComponentPad*%
%ADD16O,1.700000X1.950000*%
%TD*%
%TA.AperFunction,ComponentPad*%
%ADD17C,2.400000*%
%TD*%
%TA.AperFunction,ComponentPad*%
%ADD18RoundRect,0.250001X-0.949999X-0.949999X0.949999X-0.949999X0.949999X0.949999X-0.949999X0.949999X0*%
%TD*%
%TA.AperFunction,ComponentPad*%
%ADD19RoundRect,0.249999X-0.850001X-0.850001X0.850001X-0.850001X0.850001X0.850001X-0.850001X0.850001X0*%
%TD*%
%TA.AperFunction,ComponentPad*%
%ADD20C,3.000000*%
%TD*%
%TA.AperFunction,ComponentPad*%
%ADD21C,2.500000*%
%TD*%
%TA.AperFunction,ComponentPad*%
%ADD22R,2.500000X2.500000*%
%TD*%
%TA.AperFunction,ComponentPad*%
%ADD23R,2.000000X2.000000*%
%TD*%
%TA.AperFunction,ComponentPad*%
%ADD24C,2.000000*%
%TD*%
%TA.AperFunction,ComponentPad*%
%ADD25RoundRect,0.250000X0.550000X0.550000X-0.550000X0.550000X-0.550000X-0.550000X0.550000X-0.550000X0*%
%TD*%
%TA.AperFunction,ComponentPad*%
%ADD26R,1.700000X1.700000*%
%TD*%
%TA.AperFunction,ComponentPad*%
%ADD27C,1.700000*%
%TD*%
%TA.AperFunction,ViaPad*%
%ADD28C,0.600000*%
%TD*%
%TA.AperFunction,Conductor*%
%ADD29C,0.200000*%
%TD*%
G04 APERTURE END LIST*
D10*
%TO.P,R3,1*%
%TO.N,/12V_PWR*%
X126880000Y-52000000D03*
%TO.P,R3,2*%
%TO.N,Net-(U1-D34)*%
X134500000Y-52000000D03*
%TD*%
D11*
%TO.P,J1,1,12V_PWR_1*%
%TO.N,/12V_PWR_Relay*%
X147846497Y-72000000D03*
D12*
%TO.P,J1,2,GND_2*%
%TO.N,/12V_GND*%
X147846497Y-66000000D03*
%TO.P,J1,3,12V_SWITCH_3*%
%TO.N,Net-(J1-12V_SWITCH)*%
X147846497Y-60000000D03*
%TD*%
D10*
%TO.P,R2,1*%
%TO.N,Net-(U1-D14)*%
X120810000Y-79500000D03*
%TO.P,R2,2*%
%TO.N,GNDREF*%
X113190000Y-79500000D03*
%TD*%
D13*
%TO.P,D1,1,K_1*%
%TO.N,/12V_PWR*%
X130346497Y-33420000D03*
D14*
%TO.P,D1,2,A_2*%
%TO.N,/12V_PWR_BATT*%
X130346497Y-43580000D03*
%TD*%
D10*
%TO.P,R4,1*%
%TO.N,GNDREF*%
X145156497Y-55000000D03*
%TO.P,R4,2*%
%TO.N,Net-(U1-D34)*%
X137536497Y-55000000D03*
%TD*%
D15*
%TO.P,J3,1,GND_1*%
%TO.N,GNDREF*%
X57346497Y-86500000D03*
D16*
%TO.P,J3,2,Vcc_2*%
%TO.N,/3.3V_PWR*%
X59846497Y-86500000D03*
%TO.P,J3,3,SCL_3*%
%TO.N,Net-(J3-SCL)*%
X62346497Y-86500000D03*
%TO.P,J3,4,SDA_4*%
%TO.N,Net-(J3-SDA)*%
X64846497Y-86500000D03*
%TO.P,J3,5,RES_5*%
%TO.N,Net-(J3-RES)*%
X67346497Y-86500000D03*
%TO.P,J3,6,DC_6*%
%TO.N,Net-(J3-DC)*%
X69846497Y-86500000D03*
%TO.P,J3,7,CS_7*%
%TO.N,Net-(J3-CS)*%
X72346497Y-86500000D03*
%TO.P,J3,8,Pin_8_8*%
%TO.N,/3.3V_PWR*%
X74846497Y-86500000D03*
%TD*%
D17*
%TO.P,R1,1*%
%TO.N,/RPM_PWR_RESISTOR*%
X142500000Y-60340000D03*
%TO.P,R1,2*%
%TO.N,/RPM_PWR*%
X142500000Y-80660000D03*
%TD*%
D15*
%TO.P,J6,1,RPM_IN_1*%
%TO.N,/RPM_PWR_DIODE*%
X136346497Y-86500000D03*
D16*
%TO.P,J6,2,Pin_2_2*%
%TO.N,/RPM_GND*%
X138846497Y-86500000D03*
%TD*%
D18*
%TO.P,C1,1*%
%TO.N,/3.3V_PWR_SW*%
X130000000Y-63500000D03*
D17*
%TO.P,C1,2*%
%TO.N,GNDREF*%
X135000000Y-63500000D03*
%TD*%
D19*
%TO.P,D2,1,K_1*%
%TO.N,/RPM_PWR_RESISTOR*%
X124920000Y-80000000D03*
D14*
%TO.P,D2,2,A_2*%
%TO.N,/RPM_PWR_DIODE*%
X135080000Y-80000000D03*
%TD*%
D20*
%TO.P,K1,1*%
%TO.N,/12V_PWR_Relay*%
X142296497Y-48650000D03*
D21*
%TO.P,K1,2*%
%TO.N,/12V_GND*%
X148346497Y-46700000D03*
D20*
%TO.P,K1,3*%
%TO.N,/12V_PWR_BATT*%
X148346497Y-34500000D03*
%TO.P,K1,4*%
%TO.N,unconnected-(K1-Pad4)*%
X136296497Y-34450000D03*
D21*
%TO.P,K1,5*%
%TO.N,Net-(J1-12V_SWITCH)*%
X136346497Y-46700000D03*
%TD*%
D22*
%TO.P,J2,1,12V_in_1*%
%TO.N,/12V_PWR*%
X123440000Y-32560000D03*
%TO.P,J2,2,12V_GND_2*%
%TO.N,/12V_GND*%
X105440000Y-32560000D03*
%TO.P,J2,3,3.3V_out_3*%
%TO.N,/3.3V_PWR_SW*%
X105440000Y-73560000D03*
%TO.P,J2,4,3.3V_GND_4*%
%TO.N,GNDREF*%
X123440000Y-73560000D03*
%TD*%
D15*
%TO.P,J4,1,Vcc_1*%
%TO.N,/3.3V_PWR*%
X92846497Y-86500000D03*
D16*
%TO.P,J4,2,SDA_2*%
%TO.N,Net-(J4-SDA)*%
X95346497Y-86500000D03*
%TO.P,J4,3,GND_3*%
%TO.N,GNDREF*%
X97846497Y-86500000D03*
%TO.P,J4,4,SCL_4*%
%TO.N,Net-(J4-SCL)*%
X100346497Y-86500000D03*
%TD*%
D15*
%TO.P,J7,1,SIG_1*%
%TO.N,Net-(J7-SIG)*%
X82346497Y-86500000D03*
D16*
%TO.P,J7,2,Pin_2_2*%
%TO.N,GNDREF*%
X84846497Y-86500000D03*
%TD*%
D23*
%TO.P,U1,1,3V3_1*%
%TO.N,/3.3V_PWR*%
X75696497Y-40235000D03*
D24*
%TO.P,U1,2,GND_2*%
%TO.N,GNDREF*%
X75696497Y-42775000D03*
%TO.P,U1,3,D15_3*%
%TO.N,Net-(J3-CS)*%
X75696497Y-45315000D03*
%TO.P,U1,4,D2_4*%
%TO.N,Net-(J3-DC)*%
X75696497Y-47855000D03*
%TO.P,U1,5,D4_5*%
%TO.N,Net-(J7-SIG)*%
X75696497Y-50395000D03*
%TO.P,U1,6,RX2_6*%
%TO.N,unconnected-(U1-RX2-Pad6)*%
X75696497Y-52935000D03*
%TO.P,U1,7,TX2_7*%
%TO.N,unconnected-(U1-TX2-Pad7)*%
X75696497Y-55475000D03*
%TO.P,U1,8,D5_8*%
%TO.N,unconnected-(U1-D5-Pad8)*%
X75696497Y-58015000D03*
%TO.P,U1,9,D18_9*%
%TO.N,Net-(J3-SCL)*%
X75696497Y-60555000D03*
%TO.P,U1,10,D19_10*%
%TO.N,unconnected-(U1-D19-Pad10)*%
X75696497Y-63095000D03*
%TO.P,U1,11,D21_11*%
%TO.N,Net-(J4-SDA)*%
X75696497Y-65635000D03*
%TO.P,U1,12,RX0_12*%
%TO.N,unconnected-(U1-RX0-Pad12)*%
X75696497Y-68175000D03*
%TO.P,U1,13,TX0_13*%
%TO.N,unconnected-(U1-TX0-Pad13)*%
X75696497Y-70715000D03*
%TO.P,U1,14,D22_14*%
%TO.N,Net-(J3-RES)*%
X75696497Y-73255000D03*
%TO.P,U1,15,D23_15*%
%TO.N,Net-(J3-SDA)*%
X75696497Y-75795000D03*
%TO.P,U1,16,EN_16*%
%TO.N,unconnected-(U1-EN-Pad16)*%
X101096497Y-75795000D03*
%TO.P,U1,17,VP_17*%
%TO.N,unconnected-(U1-VP-Pad17)*%
X101096497Y-73255000D03*
%TO.P,U1,18,VN_18*%
%TO.N,unconnected-(U1-VN-Pad18)*%
X101096497Y-70715000D03*
%TO.P,U1,19,D34_19*%
%TO.N,Net-(U1-D34)*%
X101096497Y-68175000D03*
%TO.P,U1,20,D35_20*%
%TO.N,unconnected-(U1-D35-Pad20)*%
X101096497Y-65635000D03*
%TO.P,U1,21,D32_21*%
%TO.N,unconnected-(U1-D32-Pad21)*%
X101096497Y-63095000D03*
%TO.P,U1,22,D33_22*%
%TO.N,unconnected-(U1-D33-Pad22)*%
X101096497Y-60555000D03*
%TO.P,U1,23,D25_23*%
%TO.N,unconnected-(U1-D25-Pad23)*%
X101096497Y-58015000D03*
%TO.P,U1,24,D26_24*%
%TO.N,Net-(J4-SCL)*%
X101096497Y-55475000D03*
%TO.P,U1,25,D27_25*%
%TO.N,unconnected-(U1-D27-Pad25)*%
X101096497Y-52935000D03*
%TO.P,U1,26,D14_26*%
%TO.N,Net-(U1-D14)*%
X101096497Y-50395000D03*
%TO.P,U1,27,D12_27*%
%TO.N,unconnected-(U1-D12-Pad27)*%
X101096497Y-47855000D03*
%TO.P,U1,28,D13_28*%
%TO.N,unconnected-(U1-D13-Pad28)*%
X101096497Y-45315000D03*
%TO.P,U1,29,GND_29*%
%TO.N,GNDREF*%
X101096497Y-42775000D03*
%TO.P,U1,30,VIN_30*%
%TO.N,unconnected-(U1-VIN-Pad30)*%
X101096497Y-40235000D03*
%TD*%
D25*
%TO.P,U2,1*%
%TO.N,/RPM_PWR*%
X128151497Y-87775000D03*
D10*
%TO.P,U2,2*%
%TO.N,/RPM_GND*%
X128151497Y-85235000D03*
%TO.P,U2,3*%
%TO.N,Net-(U1-D14)*%
X120531497Y-85235000D03*
%TO.P,U2,4*%
%TO.N,/3.3V_PWR*%
X120531497Y-87775000D03*
%TD*%
D26*
%TO.P,J5,1,GND_1*%
%TO.N,GNDREF*%
X69426497Y-32500000D03*
D27*
%TO.P,J5,2,Vcc_2*%
%TO.N,/3.3V_PWR*%
X66886497Y-32500000D03*
%TO.P,J5,3,SDA_3*%
%TO.N,Net-(J4-SDA)*%
X64346497Y-32500000D03*
%TO.P,J5,4,SCL_4*%
%TO.N,Net-(J4-SCL)*%
X61806497Y-32500000D03*
%TO.P,J5,5*%
%TO.N,N/C*%
X59266497Y-32500000D03*
%TO.P,J5,6*%
X56726497Y-32500000D03*
%TD*%
D28*
%TO.N,Net-(U1-D14)*%
X111000000Y-60500000D03*
X108500000Y-58000000D03*
X118000000Y-73500000D03*
X114000000Y-69420000D03*
%TO.N,Net-(J3-SCL)*%
X71746497Y-64500000D03*
%TO.N,Net-(J3-RES)*%
X71746497Y-74000000D03*
%TO.N,Net-(J3-DC)*%
X73346497Y-83000000D03*
%TO.N,Net-(J4-SDA)*%
X67846497Y-65000000D03*
%TO.N,Net-(J4-SCL)*%
X76346497Y-35000000D03*
X65846497Y-35000000D03*
X68346497Y-35000000D03*
X80346497Y-35000000D03*
%TO.N,Net-(J7-SIG)*%
X78846497Y-67000000D03*
X78846497Y-64000000D03*
%TD*%
%TO.N,Net-(U1-D14)*%
D29*
X118000000Y-73500000D02*
X114000000Y-69500000D01*
X111000000Y-60500000D02*
X108500000Y-58000000D01*
X114000000Y-69500000D02*
X114000000Y-69420000D01*
%TO.N,Net-(J3-SCL)*%
X71751497Y-64500000D02*
X71746497Y-64500000D01*
X75696497Y-60555000D02*
X71751497Y-64500000D01*
%TO.N,Net-(J3-SDA)*%
X64991497Y-86500000D02*
X64846497Y-86500000D01*
X75696497Y-75795000D02*
X64991497Y-86500000D01*
%TO.N,Net-(J3-RES)*%
X75696497Y-73255000D02*
X72591497Y-73255000D01*
X72591497Y-73255000D02*
X71846497Y-74000000D01*
X71846497Y-74000000D02*
X71746497Y-74000000D01*
%TO.N,Net-(J3-DC)*%
X73346497Y-83000000D02*
X69846497Y-86500000D01*
%TO.N,Net-(J4-SDA)*%
X67846497Y-65000000D02*
X68481497Y-65635000D01*
X68481497Y-65635000D02*
X75696497Y-65635000D01*
%TO.N,Net-(J4-SCL)*%
X65846497Y-35000000D02*
X68346497Y-35000000D01*
X76346497Y-35000000D02*
X80346497Y-35000000D01*
%TO.N,Net-(J7-SIG)*%
X78846497Y-67000000D02*
X78846497Y-64000000D01*
%TD*%
%TA.AperFunction,Conductor*%
%TO.N,GNDREF*%
G36*
X150789036Y-29020185D02*
G01*
X150834791Y-29072989D01*
X150845997Y-29124500D01*
X150845997Y-90375500D01*
X150826312Y-90442539D01*
X150773508Y-90488294D01*
X150721997Y-90499500D01*
X53470997Y-90499500D01*
X53403958Y-90479815D01*
X53358203Y-90427011D01*
X53346997Y-90375500D01*
X53346997Y-85725013D01*
X55996497Y-85725013D01*
X55996497Y-86250000D01*
X56942351Y-86250000D01*
X56903867Y-86316657D01*
X56871497Y-86437465D01*
X56871497Y-86562535D01*
X56903867Y-86683343D01*
X56942351Y-86750000D01*
X55996498Y-86750000D01*
X55996498Y-87274986D01*
X56006991Y-87377697D01*
X56062138Y-87544119D01*
X56062140Y-87544124D01*
X56154181Y-87693345D01*
X56278151Y-87817315D01*
X56427372Y-87909356D01*
X56427377Y-87909358D01*
X56593799Y-87964505D01*
X56593806Y-87964506D01*
X56696516Y-87974999D01*
X57096496Y-87974999D01*
X57096497Y-87974998D01*
X57096497Y-86904145D01*
X57163154Y-86942630D01*
X57283962Y-86975000D01*
X57409032Y-86975000D01*
X57529840Y-86942630D01*
X57596497Y-86904145D01*
X57596497Y-87974999D01*
X57996469Y-87974999D01*
X57996483Y-87974998D01*
X58099194Y-87964505D01*
X58265616Y-87909358D01*
X58265621Y-87909356D01*
X58414842Y-87817315D01*
X58538814Y-87693343D01*
X58634312Y-87538516D01*
X58686260Y-87491791D01*
X58755222Y-87480568D01*
X58819305Y-87508412D01*
X58827532Y-87515931D01*
X58966710Y-87655109D01*
X59138676Y-87780048D01*
X59138678Y-87780049D01*
X59138681Y-87780051D01*
X59328085Y-87876557D01*
X59530254Y-87942246D01*
X59740210Y-87975500D01*
X59740211Y-87975500D01*
X59952783Y-87975500D01*
X59952784Y-87975500D01*
X60162740Y-87942246D01*
X60364909Y-87876557D01*
X60554313Y-87780051D01*
X60576286Y-87764086D01*
X60726283Y-87655109D01*
X60726285Y-87655106D01*
X60726289Y-87655104D01*
X60876601Y-87504792D01*
X60996180Y-87340204D01*
X61051508Y-87297540D01*
X61121121Y-87291561D01*
X61182917Y-87324166D01*
X61196810Y-87340199D01*
X61291453Y-87470465D01*
X61316393Y-87504792D01*
X61466710Y-87655109D01*
X61638676Y-87780048D01*
X61638678Y-87780049D01*
X61638681Y-87780051D01*
X61828085Y-87876557D01*
X62030254Y-87942246D01*
X62240210Y-87975500D01*
X62240211Y-87975500D01*
X62452783Y-87975500D01*
X62452784Y-87975500D01*
X62662740Y-87942246D01*
X62864909Y-87876557D01*
X63054313Y-87780051D01*
X63076286Y-87764086D01*
X63226283Y-87655109D01*
X63226285Y-87655106D01*
X63226289Y-87655104D01*
X63376601Y-87504792D01*
X63496180Y-87340204D01*
X63551508Y-87297540D01*
X63621121Y-87291561D01*
X63682917Y-87324166D01*
X63696810Y-87340199D01*
X63791453Y-87470465D01*
X63816393Y-87504792D01*
X63966710Y-87655109D01*
X64138676Y-87780048D01*
X64138678Y-87780049D01*
X64138681Y-87780051D01*
X64328085Y-87876557D01*
X64530254Y-87942246D01*
X64740210Y-87975500D01*
X64740211Y-87975500D01*
X64952783Y-87975500D01*
X64952784Y-87975500D01*
X65162740Y-87942246D01*
X65364909Y-87876557D01*
X65554313Y-87780051D01*
X65576286Y-87764086D01*
X65726283Y-87655109D01*
X65726285Y-87655106D01*
X65726289Y-87655104D01*
X65876601Y-87504792D01*
X65996180Y-87340204D01*
X66051508Y-87297540D01*
X66121121Y-87291561D01*
X66182917Y-87324166D01*
X66196810Y-87340199D01*
X66291453Y-87470465D01*
X66316393Y-87504792D01*
X66466710Y-87655109D01*
X66638676Y-87780048D01*
X66638678Y-87780049D01*
X66638681Y-87780051D01*
X66828085Y-87876557D01*
X67030254Y-87942246D01*
X67240210Y-87975500D01*
X67240211Y-87975500D01*
X67452783Y-87975500D01*
X67452784Y-87975500D01*
X67662740Y-87942246D01*
X67864909Y-87876557D01*
X68054313Y-87780051D01*
X68076286Y-87764086D01*
X68226283Y-87655109D01*
X68226285Y-87655106D01*
X68226289Y-87655104D01*
X68376601Y-87504792D01*
X68496180Y-87340204D01*
X68551508Y-87297540D01*
X68621121Y-87291561D01*
X68682917Y-87324166D01*
X68696810Y-87340199D01*
X68791453Y-87470465D01*
X68816393Y-87504792D01*
X68966710Y-87655109D01*
X69138676Y-87780048D01*
X69138678Y-87780049D01*
X69138681Y-87780051D01*
X69328085Y-87876557D01*
X69530254Y-87942246D01*
X69740210Y-87975500D01*
X69740211Y-87975500D01*
X69952783Y-87975500D01*
X69952784Y-87975500D01*
X70162740Y-87942246D01*
X70364909Y-87876557D01*
X70554313Y-87780051D01*
X70576286Y-87764086D01*
X70726283Y-87655109D01*
X70726285Y-87655106D01*
X70726289Y-87655104D01*
X70876601Y-87504792D01*
X70996180Y-87340204D01*
X71051508Y-87297540D01*
X71121121Y-87291561D01*
X71182917Y-87324166D01*
X71196810Y-87340199D01*
X71291453Y-87470465D01*
X71316393Y-87504792D01*
X71466710Y-87655109D01*
X71638676Y-87780048D01*
X71638678Y-87780049D01*
X71638681Y-87780051D01*
X71828085Y-87876557D01*
X72030254Y-87942246D01*
X72240210Y-87975500D01*
X72240211Y-87975500D01*
X72452783Y-87975500D01*
X72452784Y-87975500D01*
X72662740Y-87942246D01*
X72864909Y-87876557D01*
X73054313Y-87780051D01*
X73076286Y-87764086D01*
X73226283Y-87655109D01*
X73226285Y-87655106D01*
X73226289Y-87655104D01*
X73376601Y-87504792D01*
X73496180Y-87340204D01*
X73551508Y-87297540D01*
X73621121Y-87291561D01*
X73682917Y-87324166D01*
X73696810Y-87340199D01*
X73791453Y-87470465D01*
X73816393Y-87504792D01*
X73966710Y-87655109D01*
X74138676Y-87780048D01*
X74138678Y-87780049D01*
X74138681Y-87780051D01*
X74328085Y-87876557D01*
X74530254Y-87942246D01*
X74740210Y-87975500D01*
X74740211Y-87975500D01*
X74952783Y-87975500D01*
X74952784Y-87975500D01*
X75162740Y-87942246D01*
X75364909Y-87876557D01*
X75554313Y-87780051D01*
X75576286Y-87764086D01*
X75726283Y-87655109D01*
X75726285Y-87655106D01*
X75726289Y-87655104D01*
X75876601Y-87504792D01*
X75876603Y-87504788D01*
X75876606Y-87504786D01*
X76001545Y-87332820D01*
X76001544Y-87332820D01*
X76001548Y-87332816D01*
X76098054Y-87143412D01*
X76163743Y-86941243D01*
X76196997Y-86731287D01*
X76196997Y-86268713D01*
X76163743Y-86058757D01*
X76098054Y-85856588D01*
X76030998Y-85724983D01*
X80995997Y-85724983D01*
X80995997Y-87275001D01*
X80995998Y-87275018D01*
X81006497Y-87377796D01*
X81006498Y-87377799D01*
X81052246Y-87515856D01*
X81061683Y-87544334D01*
X81153785Y-87693656D01*
X81277841Y-87817712D01*
X81427163Y-87909814D01*
X81593700Y-87964999D01*
X81696488Y-87975500D01*
X82996505Y-87975499D01*
X83099294Y-87964999D01*
X83265831Y-87909814D01*
X83415153Y-87817712D01*
X83539209Y-87693656D01*
X83631311Y-87544334D01*
X83631311Y-87544331D01*
X83634945Y-87538441D01*
X83686892Y-87491716D01*
X83755855Y-87480493D01*
X83819937Y-87508336D01*
X83828165Y-87515856D01*
X83967032Y-87654723D01*
X83967037Y-87654727D01*
X84138939Y-87779620D01*
X84328279Y-87876095D01*
X84530368Y-87941757D01*
X84596497Y-87952231D01*
X84596497Y-86904145D01*
X84663154Y-86942630D01*
X84783962Y-86975000D01*
X84909032Y-86975000D01*
X85029840Y-86942630D01*
X85096497Y-86904145D01*
X85096497Y-87952230D01*
X85162623Y-87941757D01*
X85162626Y-87941757D01*
X85364714Y-87876095D01*
X85554054Y-87779620D01*
X85725956Y-87654727D01*
X85725961Y-87654723D01*
X85876220Y-87504464D01*
X85876224Y-87504459D01*
X86001117Y-87332557D01*
X86097592Y-87143217D01*
X86163254Y-86941130D01*
X86163254Y-86941127D01*
X86193527Y-86750000D01*
X85250643Y-86750000D01*
X85289127Y-86683343D01*
X85321497Y-86562535D01*
X85321497Y-86437465D01*
X85289127Y-86316657D01*
X85250643Y-86250000D01*
X86193527Y-86250000D01*
X86163254Y-86058872D01*
X86163254Y-86058869D01*
X86097592Y-85856782D01*
X86057516Y-85778129D01*
X86030436Y-85724983D01*
X91495997Y-85724983D01*
X91495997Y-87275001D01*
X91495998Y-87275018D01*
X91506497Y-87377796D01*
X91506498Y-87377799D01*
X91552246Y-87515856D01*
X91561683Y-87544334D01*
X91653785Y-87693656D01*
X91777841Y-87817712D01*
X91927163Y-87909814D01*
X92093700Y-87964999D01*
X92196488Y-87975500D01*
X93496505Y-87975499D01*
X93599294Y-87964999D01*
X93765831Y-87909814D01*
X93915153Y-87817712D01*
X94039209Y-87693656D01*
X94131311Y-87544334D01*
X94131311Y-87544331D01*
X94134675Y-87538879D01*
X94186623Y-87492154D01*
X94255585Y-87480931D01*
X94319667Y-87508774D01*
X94327895Y-87516294D01*
X94466710Y-87655109D01*
X94638676Y-87780048D01*
X94638678Y-87780049D01*
X94638681Y-87780051D01*
X94828085Y-87876557D01*
X95030254Y-87942246D01*
X95240210Y-87975500D01*
X95240211Y-87975500D01*
X95452783Y-87975500D01*
X95452784Y-87975500D01*
X95662740Y-87942246D01*
X95864909Y-87876557D01*
X96054313Y-87780051D01*
X96076286Y-87764086D01*
X96226283Y-87655109D01*
X96226285Y-87655106D01*
X96226289Y-87655104D01*
X96376601Y-87504792D01*
X96496488Y-87339779D01*
X96551817Y-87297115D01*
X96621430Y-87291136D01*
X96683226Y-87323741D01*
X96697124Y-87339781D01*
X96816769Y-87504459D01*
X96816773Y-87504464D01*
X96967032Y-87654723D01*
X96967037Y-87654727D01*
X97138939Y-87779620D01*
X97328279Y-87876095D01*
X97530368Y-87941757D01*
X97596497Y-87952231D01*
X97596497Y-86904145D01*
X97663154Y-86942630D01*
X97783962Y-86975000D01*
X97909032Y-86975000D01*
X98029840Y-86942630D01*
X98096497Y-86904145D01*
X98096497Y-87952230D01*
X98162623Y-87941757D01*
X98162626Y-87941757D01*
X98364714Y-87876095D01*
X98554054Y-87779620D01*
X98725956Y-87654727D01*
X98725961Y-87654723D01*
X98876218Y-87504466D01*
X98995868Y-87339781D01*
X99051198Y-87297115D01*
X99120811Y-87291136D01*
X99182607Y-87323741D01*
X99196505Y-87339781D01*
X99316387Y-87504785D01*
X99316391Y-87504790D01*
X99466710Y-87655109D01*
X99638676Y-87780048D01*
X99638678Y-87780049D01*
X99638681Y-87780051D01*
X99828085Y-87876557D01*
X100030254Y-87942246D01*
X100240210Y-87975500D01*
X100240211Y-87975500D01*
X100452783Y-87975500D01*
X100452784Y-87975500D01*
X100662740Y-87942246D01*
X100864909Y-87876557D01*
X101054313Y-87780051D01*
X101076286Y-87764086D01*
X101226283Y-87655109D01*
X101226285Y-87655106D01*
X101226289Y-87655104D01*
X101376601Y-87504792D01*
X101376603Y-87504788D01*
X101376606Y-87504786D01*
X101501545Y-87332820D01*
X101501544Y-87332820D01*
X101501548Y-87332816D01*
X101598054Y-87143412D01*
X101663743Y-86941243D01*
X101696997Y-86731287D01*
X101696997Y-86268713D01*
X101665365Y-86068995D01*
X106245996Y-86068995D01*
X106272915Y-86204322D01*
X106272918Y-86204332D01*
X106325718Y-86331804D01*
X106325725Y-86331817D01*
X106402382Y-86446541D01*
X106402385Y-86446545D01*
X106499951Y-86544111D01*
X106499955Y-86544114D01*
X106614679Y-86620771D01*
X106614692Y-86620778D01*
X106715938Y-86662715D01*
X106742169Y-86673580D01*
X106742173Y-86673580D01*
X106742174Y-86673581D01*
X106877501Y-86700500D01*
X106877504Y-86700500D01*
X107015492Y-86700500D01*
X107106538Y-86682389D01*
X107150825Y-86673580D01*
X107278308Y-86620775D01*
X107393039Y-86544114D01*
X107490611Y-86446542D01*
X107567272Y-86331811D01*
X107620077Y-86204328D01*
X107636870Y-86119905D01*
X107646997Y-86068995D01*
X113045996Y-86068995D01*
X113072915Y-86204322D01*
X113072918Y-86204332D01*
X113125718Y-86331804D01*
X113125725Y-86331817D01*
X113202382Y-86446541D01*
X113202385Y-86446545D01*
X113299951Y-86544111D01*
X113299955Y-86544114D01*
X113414679Y-86620771D01*
X113414692Y-86620778D01*
X113515938Y-86662715D01*
X113542169Y-86673580D01*
X113542173Y-86673580D01*
X113542174Y-86673581D01*
X113677501Y-86700500D01*
X113677504Y-86700500D01*
X113815492Y-86700500D01*
X113906538Y-86682389D01*
X113950825Y-86673580D01*
X114078308Y-86620775D01*
X114193039Y-86544114D01*
X114290611Y-86446542D01*
X114367272Y-86331811D01*
X114420077Y-86204328D01*
X114436870Y-86119905D01*
X114446997Y-86068995D01*
X114446997Y-85931004D01*
X114420078Y-85795677D01*
X114420077Y-85795676D01*
X114420077Y-85795672D01*
X114420075Y-85795667D01*
X114367275Y-85668195D01*
X114367268Y-85668182D01*
X114290611Y-85553458D01*
X114290608Y-85553454D01*
X114193042Y-85455888D01*
X114193038Y-85455885D01*
X114078314Y-85379228D01*
X114078301Y-85379221D01*
X113950829Y-85326421D01*
X113950819Y-85326418D01*
X113815492Y-85299500D01*
X113815490Y-85299500D01*
X113677504Y-85299500D01*
X113677502Y-85299500D01*
X113542174Y-85326418D01*
X113542164Y-85326421D01*
X113414692Y-85379221D01*
X113414679Y-85379228D01*
X113299955Y-85455885D01*
X113299951Y-85455888D01*
X113202385Y-85553454D01*
X113202382Y-85553458D01*
X113125725Y-85668182D01*
X113125718Y-85668195D01*
X113072918Y-85795667D01*
X113072915Y-85795677D01*
X113045997Y-85931004D01*
X113045997Y-85931007D01*
X113045997Y-86068993D01*
X113045997Y-86068995D01*
X113045996Y-86068995D01*
X107646997Y-86068995D01*
X107646997Y-85931004D01*
X107620078Y-85795677D01*
X107620077Y-85795676D01*
X107620077Y-85795672D01*
X107620075Y-85795667D01*
X107567275Y-85668195D01*
X107567268Y-85668182D01*
X107490611Y-85553458D01*
X107490608Y-85553454D01*
X107393042Y-85455888D01*
X107393038Y-85455885D01*
X107278314Y-85379228D01*
X107278301Y-85379221D01*
X107150829Y-85326421D01*
X107150819Y-85326418D01*
X107015492Y-85299500D01*
X107015490Y-85299500D01*
X106877504Y-85299500D01*
X106877502Y-85299500D01*
X106742174Y-85326418D01*
X106742164Y-85326421D01*
X106614692Y-85379221D01*
X106614679Y-85379228D01*
X106499955Y-85455885D01*
X106499951Y-85455888D01*
X106402385Y-85553454D01*
X106402382Y-85553458D01*
X106325725Y-85668182D01*
X106325718Y-85668195D01*
X106272918Y-85795667D01*
X106272915Y-85795677D01*
X106245997Y-85931004D01*
X106245997Y-85931007D01*
X106245997Y-86068993D01*
X106245997Y-86068995D01*
X106245996Y-86068995D01*
X101665365Y-86068995D01*
X101663743Y-86058757D01*
X101598054Y-85856588D01*
X101501548Y-85667184D01*
X101501546Y-85667181D01*
X101501545Y-85667179D01*
X101376606Y-85495213D01*
X101226287Y-85344894D01*
X101226282Y-85344890D01*
X101065525Y-85228094D01*
X101054315Y-85219950D01*
X100882975Y-85132648D01*
X119230997Y-85132648D01*
X119230997Y-85337352D01*
X119232252Y-85345276D01*
X119263019Y-85539534D01*
X119326278Y-85734223D01*
X119419212Y-85916613D01*
X119539525Y-86082213D01*
X119684283Y-86226971D01*
X119807728Y-86316657D01*
X119849887Y-86347287D01*
X119941337Y-86393883D01*
X119942577Y-86394515D01*
X119993373Y-86442490D01*
X120010168Y-86510311D01*
X119987631Y-86576446D01*
X119942577Y-86615485D01*
X119849883Y-86662715D01*
X119684283Y-86783028D01*
X119539525Y-86927786D01*
X119419212Y-87093386D01*
X119326278Y-87275776D01*
X119263019Y-87470465D01*
X119230997Y-87672648D01*
X119230997Y-87877351D01*
X119263019Y-88079534D01*
X119326278Y-88274223D01*
X119419212Y-88456613D01*
X119539525Y-88622213D01*
X119684283Y-88766971D01*
X119839246Y-88879556D01*
X119849887Y-88887287D01*
X119966104Y-88946503D01*
X120032273Y-88980218D01*
X120032275Y-88980218D01*
X120032278Y-88980220D01*
X120123353Y-89009812D01*
X120226962Y-89043477D01*
X120328054Y-89059488D01*
X120429145Y-89075500D01*
X120429146Y-89075500D01*
X120633848Y-89075500D01*
X120633849Y-89075500D01*
X120836031Y-89043477D01*
X121030716Y-88980220D01*
X121213107Y-88887287D01*
X121341979Y-88793657D01*
X121378710Y-88766971D01*
X121378712Y-88766968D01*
X121378716Y-88766966D01*
X121523463Y-88622219D01*
X121523465Y-88622215D01*
X121523468Y-88622213D01*
X121628389Y-88477799D01*
X121643784Y-88456610D01*
X121736717Y-88274219D01*
X121799974Y-88079534D01*
X121831997Y-87877352D01*
X121831997Y-87672648D01*
X121811673Y-87544331D01*
X121799974Y-87470465D01*
X121755249Y-87332816D01*
X121736717Y-87275781D01*
X121736715Y-87275778D01*
X121736715Y-87275776D01*
X121685362Y-87174991D01*
X121643784Y-87093390D01*
X121628389Y-87072200D01*
X121523468Y-86927786D01*
X121378710Y-86783028D01*
X121213111Y-86662715D01*
X121206503Y-86659348D01*
X121120414Y-86615483D01*
X121069620Y-86567511D01*
X121052825Y-86499690D01*
X121075362Y-86433555D01*
X121120414Y-86394516D01*
X121213107Y-86347287D01*
X121321256Y-86268713D01*
X121378710Y-86226971D01*
X121378712Y-86226968D01*
X121378716Y-86226966D01*
X121523463Y-86082219D01*
X121523465Y-86082215D01*
X121523468Y-86082213D01*
X121576229Y-86009590D01*
X121643784Y-85916610D01*
X121736717Y-85734219D01*
X121799974Y-85539534D01*
X121831997Y-85337352D01*
X121831997Y-85132648D01*
X126850997Y-85132648D01*
X126850997Y-85337352D01*
X126852252Y-85345276D01*
X126883019Y-85539534D01*
X126946278Y-85734223D01*
X127039212Y-85916613D01*
X127159525Y-86082213D01*
X127159531Y-86082219D01*
X127304278Y-86226966D01*
X127397949Y-86295021D01*
X127440614Y-86350350D01*
X127446593Y-86419963D01*
X127413988Y-86481759D01*
X127364068Y-86513045D01*
X127282163Y-86540186D01*
X127282160Y-86540187D01*
X127132839Y-86632289D01*
X127008786Y-86756342D01*
X126916684Y-86905663D01*
X126916683Y-86905666D01*
X126861498Y-87072203D01*
X126861498Y-87072204D01*
X126861497Y-87072204D01*
X126850997Y-87174983D01*
X126850997Y-88375001D01*
X126850998Y-88375018D01*
X126861497Y-88477796D01*
X126861498Y-88477799D01*
X126909353Y-88622213D01*
X126916683Y-88644334D01*
X127008785Y-88793656D01*
X127132841Y-88917712D01*
X127282163Y-89009814D01*
X127448700Y-89064999D01*
X127551488Y-89075500D01*
X128751505Y-89075499D01*
X128854294Y-89064999D01*
X129020831Y-89009814D01*
X129170153Y-88917712D01*
X129294209Y-88793656D01*
X129386311Y-88644334D01*
X129441496Y-88477797D01*
X129451997Y-88375009D01*
X129451996Y-87174992D01*
X129441496Y-87072203D01*
X129386311Y-86905666D01*
X129294209Y-86756344D01*
X129170153Y-86632288D01*
X129057065Y-86562535D01*
X129020833Y-86540187D01*
X129020832Y-86540186D01*
X129020831Y-86540186D01*
X128938924Y-86513044D01*
X128881481Y-86473272D01*
X128854658Y-86408756D01*
X128866973Y-86339980D01*
X128905044Y-86295021D01*
X128998716Y-86226966D01*
X129143463Y-86082219D01*
X129143465Y-86082215D01*
X129143468Y-86082213D01*
X129196229Y-86009590D01*
X129263784Y-85916610D01*
X129356717Y-85734219D01*
X129359718Y-85724983D01*
X134995997Y-85724983D01*
X134995997Y-87275001D01*
X134995998Y-87275018D01*
X135006497Y-87377796D01*
X135006498Y-87377799D01*
X135052246Y-87515856D01*
X135061683Y-87544334D01*
X135153785Y-87693656D01*
X135277841Y-87817712D01*
X135427163Y-87909814D01*
X135593700Y-87964999D01*
X135696488Y-87975500D01*
X136996505Y-87975499D01*
X137099294Y-87964999D01*
X137265831Y-87909814D01*
X137415153Y-87817712D01*
X137539209Y-87693656D01*
X137631311Y-87544334D01*
X137631311Y-87544331D01*
X137634675Y-87538879D01*
X137686623Y-87492154D01*
X137755585Y-87480931D01*
X137819667Y-87508774D01*
X137827895Y-87516294D01*
X137966710Y-87655109D01*
X138138676Y-87780048D01*
X138138678Y-87780049D01*
X138138681Y-87780051D01*
X138328085Y-87876557D01*
X138530254Y-87942246D01*
X138740210Y-87975500D01*
X138740211Y-87975500D01*
X138952783Y-87975500D01*
X138952784Y-87975500D01*
X139162740Y-87942246D01*
X139364909Y-87876557D01*
X139554313Y-87780051D01*
X139576286Y-87764086D01*
X139726283Y-87655109D01*
X139726285Y-87655106D01*
X139726289Y-87655104D01*
X139876601Y-87504792D01*
X139876603Y-87504788D01*
X139876606Y-87504786D01*
X140001545Y-87332820D01*
X140001544Y-87332820D01*
X140001548Y-87332816D01*
X140098054Y-87143412D01*
X140163743Y-86941243D01*
X140196997Y-86731287D01*
X140196997Y-86268713D01*
X140163743Y-86058757D01*
X140098054Y-85856588D01*
X140001548Y-85667184D01*
X140001546Y-85667181D01*
X140001545Y-85667179D01*
X139876606Y-85495213D01*
X139726283Y-85344890D01*
X139554317Y-85219951D01*
X139364911Y-85123444D01*
X139364910Y-85123443D01*
X139364909Y-85123443D01*
X139162740Y-85057754D01*
X139162738Y-85057753D01*
X139162737Y-85057753D01*
X139001454Y-85032208D01*
X138952784Y-85024500D01*
X138740210Y-85024500D01*
X138691539Y-85032208D01*
X138530257Y-85057753D01*
X138328082Y-85123444D01*
X138138676Y-85219951D01*
X137966712Y-85344889D01*
X137827895Y-85483706D01*
X137766572Y-85517190D01*
X137696880Y-85512206D01*
X137640947Y-85470334D01*
X137634675Y-85461120D01*
X137539209Y-85306344D01*
X137415154Y-85182289D01*
X137415153Y-85182288D01*
X137290466Y-85105381D01*
X137265833Y-85090187D01*
X137265828Y-85090185D01*
X137264359Y-85089698D01*
X137099294Y-85035001D01*
X137099292Y-85035000D01*
X136996507Y-85024500D01*
X135696495Y-85024500D01*
X135696478Y-85024501D01*
X135593700Y-85035000D01*
X135593697Y-85035001D01*
X135427165Y-85090185D01*
X135427160Y-85090187D01*
X135277839Y-85182289D01*
X135153786Y-85306342D01*
X135061684Y-85455663D01*
X135061682Y-85455668D01*
X135056822Y-85470334D01*
X135006498Y-85622203D01*
X135006498Y-85622204D01*
X135006497Y-85622204D01*
X134995997Y-85724983D01*
X129359718Y-85724983D01*
X129419974Y-85539534D01*
X129451997Y-85337352D01*
X129451997Y-85132648D01*
X129419974Y-84930466D01*
X129356717Y-84735781D01*
X129356715Y-84735778D01*
X129356715Y-84735776D01*
X129323000Y-84669607D01*
X129263784Y-84553390D01*
X129256053Y-84542749D01*
X129143468Y-84387786D01*
X128998710Y-84243028D01*
X128833110Y-84122715D01*
X128833109Y-84122714D01*
X128833107Y-84122713D01*
X128776150Y-84093691D01*
X128650720Y-84029781D01*
X128456031Y-83966522D01*
X128281492Y-83938878D01*
X128253849Y-83934500D01*
X128049145Y-83934500D01*
X128024826Y-83938351D01*
X127846962Y-83966522D01*
X127652273Y-84029781D01*
X127469883Y-84122715D01*
X127304283Y-84243028D01*
X127159525Y-84387786D01*
X127039212Y-84553386D01*
X126946278Y-84735776D01*
X126883019Y-84930465D01*
X126857722Y-85090186D01*
X126850997Y-85132648D01*
X121831997Y-85132648D01*
X121799974Y-84930466D01*
X121736717Y-84735781D01*
X121736715Y-84735778D01*
X121736715Y-84735776D01*
X121703000Y-84669607D01*
X121643784Y-84553390D01*
X121636053Y-84542749D01*
X121523468Y-84387786D01*
X121378710Y-84243028D01*
X121213110Y-84122715D01*
X121213109Y-84122714D01*
X121213107Y-84122713D01*
X121156150Y-84093691D01*
X121030720Y-84029781D01*
X120836031Y-83966522D01*
X120661492Y-83938878D01*
X120633849Y-83934500D01*
X120429145Y-83934500D01*
X120404826Y-83938351D01*
X120226962Y-83966522D01*
X120032273Y-84029781D01*
X119849883Y-84122715D01*
X119684283Y-84243028D01*
X119539525Y-84387786D01*
X119419212Y-84553386D01*
X119326278Y-84735776D01*
X119263019Y-84930465D01*
X119237722Y-85090186D01*
X119230997Y-85132648D01*
X100882975Y-85132648D01*
X100864911Y-85123444D01*
X100864910Y-85123443D01*
X100864909Y-85123443D01*
X100662740Y-85057754D01*
X100662738Y-85057753D01*
X100662737Y-85057753D01*
X100501454Y-85032208D01*
X100452784Y-85024500D01*
X100240210Y-85024500D01*
X100191539Y-85032208D01*
X100030257Y-85057753D01*
X99828082Y-85123444D01*
X99638676Y-85219951D01*
X99466710Y-85344890D01*
X99316391Y-85495209D01*
X99316387Y-85495214D01*
X99196505Y-85660218D01*
X99141175Y-85702884D01*
X99071562Y-85708863D01*
X99009767Y-85676257D01*
X98995869Y-85660218D01*
X98876224Y-85495540D01*
X98876220Y-85495535D01*
X98725961Y-85345276D01*
X98725956Y-85345272D01*
X98554054Y-85220379D01*
X98364712Y-85123903D01*
X98162621Y-85058241D01*
X98096497Y-85047768D01*
X98096497Y-86095854D01*
X98029840Y-86057370D01*
X97909032Y-86025000D01*
X97783962Y-86025000D01*
X97663154Y-86057370D01*
X97596497Y-86095854D01*
X97596497Y-85047768D01*
X97596496Y-85047768D01*
X97530372Y-85058241D01*
X97328281Y-85123903D01*
X97138939Y-85220379D01*
X96967037Y-85345272D01*
X96967032Y-85345276D01*
X96816773Y-85495535D01*
X96816769Y-85495540D01*
X96697124Y-85660218D01*
X96641794Y-85702884D01*
X96572181Y-85708863D01*
X96510386Y-85676257D01*
X96496488Y-85660218D01*
X96376606Y-85495214D01*
X96376602Y-85495209D01*
X96226283Y-85344890D01*
X96054317Y-85219951D01*
X95864911Y-85123444D01*
X95864910Y-85123443D01*
X95864909Y-85123443D01*
X95662740Y-85057754D01*
X95662738Y-85057753D01*
X95662737Y-85057753D01*
X95501454Y-85032208D01*
X95452784Y-85024500D01*
X95240210Y-85024500D01*
X95191539Y-85032208D01*
X95030257Y-85057753D01*
X94828082Y-85123444D01*
X94638676Y-85219951D01*
X94466712Y-85344889D01*
X94327895Y-85483706D01*
X94266572Y-85517190D01*
X94196880Y-85512206D01*
X94140947Y-85470334D01*
X94134675Y-85461120D01*
X94039209Y-85306344D01*
X93915154Y-85182289D01*
X93915153Y-85182288D01*
X93790466Y-85105381D01*
X93765833Y-85090187D01*
X93765828Y-85090185D01*
X93764359Y-85089698D01*
X93599294Y-85035001D01*
X93599292Y-85035000D01*
X93496507Y-85024500D01*
X92196495Y-85024500D01*
X92196478Y-85024501D01*
X92093700Y-85035000D01*
X92093697Y-85035001D01*
X91927165Y-85090185D01*
X91927160Y-85090187D01*
X91777839Y-85182289D01*
X91653786Y-85306342D01*
X91561684Y-85455663D01*
X91561682Y-85455668D01*
X91556822Y-85470334D01*
X91506498Y-85622203D01*
X91506498Y-85622204D01*
X91506497Y-85622204D01*
X91495997Y-85724983D01*
X86030436Y-85724983D01*
X86001117Y-85667442D01*
X85876224Y-85495540D01*
X85876220Y-85495535D01*
X85725961Y-85345276D01*
X85725956Y-85345272D01*
X85554054Y-85220379D01*
X85364712Y-85123903D01*
X85162621Y-85058241D01*
X85096497Y-85047768D01*
X85096497Y-86095854D01*
X85029840Y-86057370D01*
X84909032Y-86025000D01*
X84783962Y-86025000D01*
X84663154Y-86057370D01*
X84596497Y-86095854D01*
X84596497Y-85047768D01*
X84596496Y-85047768D01*
X84530372Y-85058241D01*
X84328281Y-85123903D01*
X84138939Y-85220379D01*
X83967038Y-85345271D01*
X83828165Y-85484144D01*
X83766842Y-85517628D01*
X83697150Y-85512644D01*
X83641217Y-85470772D01*
X83634945Y-85461558D01*
X83551592Y-85326421D01*
X83539209Y-85306344D01*
X83415153Y-85182288D01*
X83290466Y-85105381D01*
X83265833Y-85090187D01*
X83265828Y-85090185D01*
X83264359Y-85089698D01*
X83099294Y-85035001D01*
X83099292Y-85035000D01*
X82996507Y-85024500D01*
X81696495Y-85024500D01*
X81696478Y-85024501D01*
X81593700Y-85035000D01*
X81593697Y-85035001D01*
X81427165Y-85090185D01*
X81427160Y-85090187D01*
X81277839Y-85182289D01*
X81153786Y-85306342D01*
X81061684Y-85455663D01*
X81061682Y-85455668D01*
X81056822Y-85470334D01*
X81006498Y-85622203D01*
X81006498Y-85622204D01*
X81006497Y-85622204D01*
X80995997Y-85724983D01*
X76030998Y-85724983D01*
X76001548Y-85667184D01*
X76001546Y-85667181D01*
X76001545Y-85667179D01*
X75876606Y-85495213D01*
X75726283Y-85344890D01*
X75554317Y-85219951D01*
X75364911Y-85123444D01*
X75364910Y-85123443D01*
X75364909Y-85123443D01*
X75162740Y-85057754D01*
X75162738Y-85057753D01*
X75162737Y-85057753D01*
X75001454Y-85032208D01*
X74952784Y-85024500D01*
X74740210Y-85024500D01*
X74691539Y-85032208D01*
X74530257Y-85057753D01*
X74328082Y-85123444D01*
X74138676Y-85219951D01*
X73966710Y-85344890D01*
X73816391Y-85495209D01*
X73816387Y-85495214D01*
X73696815Y-85659793D01*
X73641486Y-85702459D01*
X73571872Y-85708438D01*
X73510077Y-85675833D01*
X73496179Y-85659793D01*
X73376606Y-85495214D01*
X73376602Y-85495209D01*
X73226283Y-85344890D01*
X73054317Y-85219951D01*
X72864911Y-85123444D01*
X72864910Y-85123443D01*
X72864909Y-85123443D01*
X72662740Y-85057754D01*
X72662738Y-85057753D01*
X72662736Y-85057753D01*
X72450094Y-85024074D01*
X72386959Y-84994145D01*
X72350028Y-84934833D01*
X72351026Y-84864971D01*
X72381811Y-84813920D01*
X72642345Y-84553386D01*
X73361159Y-83834572D01*
X73422480Y-83801089D01*
X73424647Y-83800638D01*
X73482582Y-83789113D01*
X73579994Y-83769737D01*
X73725676Y-83709394D01*
X73856786Y-83621789D01*
X73968286Y-83510289D01*
X74055891Y-83379179D01*
X74116234Y-83233497D01*
X74146997Y-83078842D01*
X74146997Y-82921158D01*
X74146997Y-82921155D01*
X74146996Y-82921153D01*
X74116235Y-82766510D01*
X74116235Y-82766508D01*
X74116234Y-82766503D01*
X74116232Y-82766498D01*
X74055894Y-82620827D01*
X74055887Y-82620814D01*
X73968286Y-82489711D01*
X73968283Y-82489707D01*
X73856789Y-82378213D01*
X73856785Y-82378210D01*
X73725682Y-82290609D01*
X73725669Y-82290602D01*
X73579998Y-82230264D01*
X73579986Y-82230261D01*
X73425342Y-82199500D01*
X73425339Y-82199500D01*
X73267655Y-82199500D01*
X73267652Y-82199500D01*
X73113007Y-82230261D01*
X73112995Y-82230264D01*
X72967324Y-82290602D01*
X72967311Y-82290609D01*
X72836208Y-82378210D01*
X72836204Y-82378213D01*
X72724710Y-82489707D01*
X72724707Y-82489711D01*
X72637106Y-82620814D01*
X72637099Y-82620827D01*
X72576761Y-82766498D01*
X72576758Y-82766508D01*
X72545858Y-82921850D01*
X72513473Y-82983761D01*
X72511922Y-82985339D01*
X70425364Y-85071896D01*
X70364041Y-85105381D01*
X70299365Y-85102146D01*
X70162737Y-85057753D01*
X70001454Y-85032208D01*
X69952784Y-85024500D01*
X69740210Y-85024500D01*
X69691539Y-85032208D01*
X69530257Y-85057753D01*
X69328082Y-85123444D01*
X69138676Y-85219951D01*
X68966710Y-85344890D01*
X68816391Y-85495209D01*
X68816387Y-85495214D01*
X68696815Y-85659793D01*
X68641486Y-85702459D01*
X68571872Y-85708438D01*
X68510077Y-85675833D01*
X68496179Y-85659793D01*
X68376606Y-85495214D01*
X68376602Y-85495209D01*
X68226283Y-85344890D01*
X68054317Y-85219951D01*
X67864911Y-85123444D01*
X67864910Y-85123443D01*
X67864909Y-85123443D01*
X67662740Y-85057754D01*
X67662738Y-85057753D01*
X67575268Y-85043899D01*
X67512134Y-85013969D01*
X67475203Y-84954657D01*
X67476201Y-84884795D01*
X67506984Y-84833747D01*
X71115731Y-81225000D01*
X79486497Y-81225000D01*
X97176497Y-81225000D01*
X97176497Y-79110258D01*
X98875997Y-79110258D01*
X98875997Y-79339741D01*
X98897097Y-79499999D01*
X98905949Y-79567238D01*
X98921484Y-79625215D01*
X98965339Y-79788887D01*
X99053147Y-80000876D01*
X99053153Y-80000888D01*
X99157342Y-80181350D01*
X99167889Y-80199617D01*
X99307578Y-80381661D01*
X99307586Y-80381670D01*
X99469827Y-80543911D01*
X99469835Y-80543918D01*
X99651879Y-80683607D01*
X99651882Y-80683608D01*
X99651885Y-80683611D01*
X99850609Y-80798344D01*
X99850614Y-80798346D01*
X99850620Y-80798349D01*
X99941977Y-80836190D01*
X100062610Y-80886158D01*
X100284259Y-80945548D01*
X100511763Y-80975500D01*
X100511770Y-80975500D01*
X100741224Y-80975500D01*
X100741231Y-80975500D01*
X100968735Y-80945548D01*
X101190384Y-80886158D01*
X101402385Y-80798344D01*
X101601109Y-80683611D01*
X101783158Y-80543919D01*
X101783162Y-80543914D01*
X101783167Y-80543911D01*
X101945408Y-80381670D01*
X101945411Y-80381665D01*
X101945416Y-80381661D01*
X102085108Y-80199612D01*
X102199841Y-80000888D01*
X102287655Y-79788887D01*
X102347045Y-79567238D01*
X102369368Y-79397682D01*
X111890000Y-79397682D01*
X111890000Y-79602317D01*
X111922009Y-79804417D01*
X111985244Y-79999031D01*
X112078141Y-80181350D01*
X112078147Y-80181359D01*
X112110523Y-80225921D01*
X112110524Y-80225922D01*
X112790000Y-79546446D01*
X112790000Y-79552661D01*
X112817259Y-79654394D01*
X112869920Y-79745606D01*
X112944394Y-79820080D01*
X113035606Y-79872741D01*
X113137339Y-79900000D01*
X113143553Y-79900000D01*
X112464076Y-80579474D01*
X112508650Y-80611859D01*
X112690968Y-80704755D01*
X112885582Y-80767990D01*
X113087683Y-80800000D01*
X113292317Y-80800000D01*
X113494417Y-80767990D01*
X113689031Y-80704755D01*
X113871349Y-80611859D01*
X113915921Y-80579474D01*
X113236447Y-79900000D01*
X113242661Y-79900000D01*
X113344394Y-79872741D01*
X113435606Y-79820080D01*
X113510080Y-79745606D01*
X113562741Y-79654394D01*
X113590000Y-79552661D01*
X113590000Y-79546447D01*
X114269474Y-80225921D01*
X114301859Y-80181349D01*
X114394755Y-79999031D01*
X114457990Y-79804417D01*
X114490000Y-79602317D01*
X114490000Y-79397682D01*
X114489995Y-79397648D01*
X119509500Y-79397648D01*
X119509500Y-79602351D01*
X119541522Y-79804534D01*
X119604781Y-79999223D01*
X119662351Y-80112209D01*
X119697585Y-80181359D01*
X119697715Y-80181613D01*
X119818028Y-80347213D01*
X119962786Y-80491971D01*
X120040661Y-80548549D01*
X120128390Y-80612287D01*
X120244607Y-80671503D01*
X120310776Y-80705218D01*
X120310778Y-80705218D01*
X120310781Y-80705220D01*
X120415137Y-80739127D01*
X120505465Y-80768477D01*
X120524337Y-80771466D01*
X120707648Y-80800500D01*
X120707649Y-80800500D01*
X120912351Y-80800500D01*
X120912352Y-80800500D01*
X121114534Y-80768477D01*
X121309219Y-80705220D01*
X121491610Y-80612287D01*
X121637676Y-80506165D01*
X121657213Y-80491971D01*
X121657215Y-80491968D01*
X121657219Y-80491966D01*
X121801966Y-80347219D01*
X121801968Y-80347215D01*
X121801971Y-80347213D01*
X121854732Y-80274590D01*
X121922287Y-80181610D01*
X122015220Y-79999219D01*
X122078477Y-79804534D01*
X122110500Y-79602352D01*
X122110500Y-79397648D01*
X122078477Y-79195466D01*
X122078476Y-79195462D01*
X122078476Y-79195461D01*
X122058880Y-79135151D01*
X122047453Y-79099982D01*
X123319500Y-79099982D01*
X123319500Y-80900017D01*
X123330000Y-81002796D01*
X123385185Y-81169332D01*
X123385186Y-81169335D01*
X123477288Y-81318656D01*
X123601344Y-81442712D01*
X123750665Y-81534814D01*
X123917202Y-81589999D01*
X124019990Y-81600500D01*
X124019995Y-81600500D01*
X125820005Y-81600500D01*
X125820010Y-81600500D01*
X125922798Y-81589999D01*
X126089335Y-81534814D01*
X126238656Y-81442712D01*
X126362712Y-81318656D01*
X126454814Y-81169335D01*
X126509999Y-81002798D01*
X126520500Y-80900010D01*
X126520500Y-79874038D01*
X133479500Y-79874038D01*
X133479500Y-80125961D01*
X133518910Y-80374785D01*
X133596760Y-80614383D01*
X133711132Y-80838848D01*
X133859201Y-81042649D01*
X133859205Y-81042654D01*
X134037345Y-81220794D01*
X134037350Y-81220798D01*
X134215117Y-81349952D01*
X134241155Y-81368870D01*
X134384184Y-81441747D01*
X134465616Y-81483239D01*
X134465618Y-81483239D01*
X134465621Y-81483241D01*
X134705215Y-81561090D01*
X134954038Y-81600500D01*
X134954039Y-81600500D01*
X135205961Y-81600500D01*
X135205962Y-81600500D01*
X135454785Y-81561090D01*
X135694379Y-81483241D01*
X135918845Y-81368870D01*
X136122656Y-81220793D01*
X136300793Y-81042656D01*
X136448870Y-80838845D01*
X136563241Y-80614379D01*
X136584631Y-80548549D01*
X140799500Y-80548549D01*
X140799500Y-80771450D01*
X140799501Y-80771466D01*
X140828594Y-80992452D01*
X140828595Y-80992457D01*
X140828596Y-80992463D01*
X140875989Y-81169337D01*
X140886290Y-81207780D01*
X140886293Y-81207790D01*
X140953015Y-81368870D01*
X140971595Y-81413726D01*
X141083052Y-81606774D01*
X141083057Y-81606780D01*
X141083058Y-81606782D01*
X141218751Y-81783622D01*
X141218757Y-81783629D01*
X141376370Y-81941242D01*
X141376376Y-81941247D01*
X141553226Y-82076948D01*
X141746274Y-82188405D01*
X141952219Y-82273710D01*
X142167537Y-82331404D01*
X142388543Y-82360500D01*
X142388550Y-82360500D01*
X142611450Y-82360500D01*
X142611457Y-82360500D01*
X142832463Y-82331404D01*
X143047781Y-82273710D01*
X143253726Y-82188405D01*
X143446774Y-82076948D01*
X143623624Y-81941247D01*
X143781247Y-81783624D01*
X143916948Y-81606774D01*
X144028405Y-81413726D01*
X144113710Y-81207781D01*
X144171404Y-80992463D01*
X144200500Y-80771457D01*
X144200500Y-80548543D01*
X144171404Y-80327537D01*
X144113710Y-80112219D01*
X144028405Y-79906274D01*
X143916948Y-79713226D01*
X143781247Y-79536376D01*
X143781242Y-79536370D01*
X143623629Y-79378757D01*
X143623622Y-79378751D01*
X143446782Y-79243058D01*
X143446780Y-79243057D01*
X143446774Y-79243052D01*
X143253726Y-79131595D01*
X143253722Y-79131593D01*
X143047790Y-79046293D01*
X143047783Y-79046291D01*
X143047781Y-79046290D01*
X142832463Y-78988596D01*
X142832457Y-78988595D01*
X142832452Y-78988594D01*
X142611466Y-78959501D01*
X142611463Y-78959500D01*
X142611457Y-78959500D01*
X142388543Y-78959500D01*
X142388537Y-78959500D01*
X142388533Y-78959501D01*
X142167547Y-78988594D01*
X142167540Y-78988595D01*
X142167537Y-78988596D01*
X142122062Y-79000781D01*
X141952219Y-79046290D01*
X141952209Y-79046293D01*
X141746277Y-79131593D01*
X141746273Y-79131595D01*
X141553226Y-79243052D01*
X141553217Y-79243058D01*
X141376377Y-79378751D01*
X141376370Y-79378757D01*
X141218757Y-79536370D01*
X141218751Y-79536377D01*
X141083058Y-79713217D01*
X141083052Y-79713226D01*
X140971595Y-79906273D01*
X140971593Y-79906277D01*
X140886293Y-80112209D01*
X140886290Y-80112219D01*
X140867767Y-80181350D01*
X140828597Y-80327534D01*
X140828594Y-80327547D01*
X140799501Y-80548533D01*
X140799500Y-80548549D01*
X136584631Y-80548549D01*
X136641090Y-80374785D01*
X136680500Y-80125962D01*
X136680500Y-79874038D01*
X136641090Y-79625215D01*
X136563241Y-79385621D01*
X136563239Y-79385618D01*
X136563239Y-79385616D01*
X136521747Y-79304184D01*
X136448870Y-79161155D01*
X136424243Y-79127259D01*
X136300798Y-78957350D01*
X136300794Y-78957345D01*
X136122654Y-78779205D01*
X136122649Y-78779201D01*
X135918848Y-78631132D01*
X135918847Y-78631131D01*
X135918845Y-78631130D01*
X135848747Y-78595413D01*
X135694383Y-78516760D01*
X135454785Y-78438910D01*
X135338701Y-78420524D01*
X135205962Y-78399500D01*
X134954038Y-78399500D01*
X134887738Y-78410001D01*
X134705214Y-78438910D01*
X134465616Y-78516760D01*
X134241151Y-78631132D01*
X134037350Y-78779201D01*
X134037345Y-78779205D01*
X133859205Y-78957345D01*
X133859201Y-78957350D01*
X133711132Y-79161151D01*
X133596760Y-79385616D01*
X133518910Y-79625214D01*
X133479500Y-79874038D01*
X126520500Y-79874038D01*
X126520500Y-79099990D01*
X126509999Y-78997202D01*
X126454814Y-78830665D01*
X126362712Y-78681344D01*
X126238656Y-78557288D01*
X126089335Y-78465186D01*
X125922798Y-78410001D01*
X125922796Y-78410000D01*
X125820017Y-78399500D01*
X125820010Y-78399500D01*
X124019990Y-78399500D01*
X124019982Y-78399500D01*
X123917203Y-78410000D01*
X123917202Y-78410001D01*
X123885449Y-78420523D01*
X123750667Y-78465185D01*
X123750662Y-78465187D01*
X123601342Y-78557289D01*
X123477289Y-78681342D01*
X123385187Y-78830662D01*
X123385186Y-78830665D01*
X123330001Y-78997202D01*
X123330001Y-78997203D01*
X123330000Y-78997203D01*
X123319500Y-79099982D01*
X122047453Y-79099982D01*
X122030007Y-79046290D01*
X122015220Y-79000781D01*
X122015218Y-79000778D01*
X122015218Y-79000776D01*
X121955086Y-78882762D01*
X121922287Y-78818390D01*
X121890092Y-78774077D01*
X121801971Y-78652786D01*
X121657213Y-78508028D01*
X121491613Y-78387715D01*
X121491612Y-78387714D01*
X121491610Y-78387713D01*
X121434653Y-78358691D01*
X121309223Y-78294781D01*
X121114534Y-78231522D01*
X120939995Y-78203878D01*
X120912352Y-78199500D01*
X120707648Y-78199500D01*
X120683329Y-78203351D01*
X120505465Y-78231522D01*
X120310776Y-78294781D01*
X120128386Y-78387715D01*
X119962786Y-78508028D01*
X119818028Y-78652786D01*
X119697715Y-78818386D01*
X119604781Y-79000776D01*
X119541522Y-79195465D01*
X119509500Y-79397648D01*
X114489995Y-79397648D01*
X114457990Y-79195582D01*
X114394755Y-79000968D01*
X114301859Y-78818650D01*
X114269474Y-78774077D01*
X114269474Y-78774076D01*
X113590000Y-79453551D01*
X113590000Y-79447339D01*
X113562741Y-79345606D01*
X113510080Y-79254394D01*
X113435606Y-79179920D01*
X113344394Y-79127259D01*
X113242661Y-79100000D01*
X113236446Y-79100000D01*
X113915922Y-78420524D01*
X113915921Y-78420523D01*
X113871359Y-78388147D01*
X113871350Y-78388141D01*
X113689031Y-78295244D01*
X113494417Y-78232009D01*
X113292317Y-78200000D01*
X113087683Y-78200000D01*
X112885582Y-78232009D01*
X112690968Y-78295244D01*
X112508644Y-78388143D01*
X112464077Y-78420523D01*
X112464077Y-78420524D01*
X113143554Y-79100000D01*
X113137339Y-79100000D01*
X113035606Y-79127259D01*
X112944394Y-79179920D01*
X112869920Y-79254394D01*
X112817259Y-79345606D01*
X112790000Y-79447339D01*
X112790000Y-79453553D01*
X112110524Y-78774077D01*
X112110523Y-78774077D01*
X112078143Y-78818644D01*
X111985244Y-79000968D01*
X111922009Y-79195582D01*
X111890000Y-79397682D01*
X102369368Y-79397682D01*
X102376997Y-79339734D01*
X102376997Y-79110266D01*
X102347045Y-78882762D01*
X102287655Y-78661113D01*
X102244650Y-78557289D01*
X102227231Y-78515235D01*
X102199844Y-78449118D01*
X102199839Y-78449109D01*
X102193951Y-78438910D01*
X102085108Y-78250388D01*
X102085105Y-78250385D01*
X102085104Y-78250382D01*
X101945415Y-78068338D01*
X101945408Y-78068330D01*
X101783167Y-77906089D01*
X101783158Y-77906081D01*
X101601114Y-77766392D01*
X101402387Y-77651657D01*
X101402373Y-77651650D01*
X101190384Y-77563842D01*
X101098694Y-77539274D01*
X101039035Y-77502910D01*
X101008506Y-77440063D01*
X101016801Y-77370688D01*
X101061286Y-77316810D01*
X101127838Y-77295535D01*
X101130789Y-77295500D01*
X101214594Y-77295500D01*
X101447865Y-77258553D01*
X101527835Y-77232569D01*
X101672489Y-77185568D01*
X101882930Y-77078343D01*
X102074007Y-76939517D01*
X102241014Y-76772510D01*
X102379840Y-76581433D01*
X102487065Y-76370992D01*
X102560050Y-76146368D01*
X102596997Y-75913097D01*
X102596997Y-75676902D01*
X102560050Y-75443631D01*
X102514549Y-75303596D01*
X102487065Y-75219008D01*
X102487063Y-75219005D01*
X102487063Y-75219003D01*
X102402137Y-75052328D01*
X102379840Y-75008567D01*
X102241014Y-74817490D01*
X102074007Y-74650483D01*
X102039369Y-74625317D01*
X101996704Y-74569989D01*
X101990725Y-74500375D01*
X102023330Y-74438580D01*
X102039370Y-74424682D01*
X102074007Y-74399517D01*
X102241014Y-74232510D01*
X102379840Y-74041433D01*
X102487065Y-73830992D01*
X102560050Y-73606368D01*
X102564410Y-73578842D01*
X102596997Y-73373097D01*
X102596997Y-73136902D01*
X102560050Y-72903631D01*
X102523326Y-72790609D01*
X102487065Y-72679008D01*
X102487063Y-72679005D01*
X102487063Y-72679003D01*
X102379839Y-72468566D01*
X102280394Y-72331692D01*
X102241014Y-72277490D01*
X102225659Y-72262135D01*
X103689500Y-72262135D01*
X103689500Y-74857870D01*
X103689501Y-74857876D01*
X103695908Y-74917483D01*
X103746202Y-75052328D01*
X103746206Y-75052335D01*
X103832452Y-75167544D01*
X103832455Y-75167547D01*
X103947664Y-75253793D01*
X103947671Y-75253797D01*
X104082517Y-75304091D01*
X104082516Y-75304091D01*
X104089444Y-75304835D01*
X104142127Y-75310500D01*
X106737872Y-75310499D01*
X106797483Y-75304091D01*
X106932331Y-75253796D01*
X107047546Y-75167546D01*
X107133796Y-75052331D01*
X107184091Y-74917483D01*
X107190500Y-74857873D01*
X107190499Y-72262128D01*
X107184091Y-72202517D01*
X107149765Y-72110485D01*
X107133797Y-72067671D01*
X107133793Y-72067664D01*
X107047547Y-71952455D01*
X107047544Y-71952452D01*
X106932335Y-71866206D01*
X106932328Y-71866202D01*
X106797482Y-71815908D01*
X106797483Y-71815908D01*
X106737883Y-71809501D01*
X106737881Y-71809500D01*
X106737873Y-71809500D01*
X106737864Y-71809500D01*
X104142129Y-71809500D01*
X104142123Y-71809501D01*
X104082516Y-71815908D01*
X103947671Y-71866202D01*
X103947664Y-71866206D01*
X103832455Y-71952452D01*
X103832452Y-71952455D01*
X103746206Y-72067664D01*
X103746202Y-72067671D01*
X103695908Y-72202517D01*
X103689501Y-72262116D01*
X103689501Y-72262123D01*
X103689500Y-72262135D01*
X102225659Y-72262135D01*
X102074007Y-72110483D01*
X102039369Y-72085317D01*
X101996704Y-72029989D01*
X101990725Y-71960375D01*
X102023330Y-71898580D01*
X102039370Y-71884682D01*
X102074007Y-71859517D01*
X102241014Y-71692510D01*
X102379840Y-71501433D01*
X102487065Y-71290992D01*
X102560050Y-71066368D01*
X102596997Y-70833097D01*
X102596997Y-70596902D01*
X102560050Y-70363631D01*
X102503548Y-70189737D01*
X102487065Y-70139008D01*
X102487063Y-70139005D01*
X102487063Y-70139003D01*
X102383118Y-69935001D01*
X102379840Y-69928567D01*
X102241014Y-69737490D01*
X102074007Y-69570483D01*
X102039369Y-69545317D01*
X102026103Y-69528113D01*
X102009384Y-69514236D01*
X102005188Y-69500991D01*
X101996704Y-69489989D01*
X101994844Y-69468341D01*
X101988283Y-69447629D01*
X101991913Y-69434217D01*
X101990725Y-69420375D01*
X102000864Y-69401158D01*
X102006542Y-69380187D01*
X102019090Y-69366615D01*
X102023330Y-69358580D01*
X102029084Y-69353029D01*
X102033996Y-69348586D01*
X102044227Y-69341153D01*
X113199500Y-69341153D01*
X113199500Y-69498846D01*
X113230261Y-69653489D01*
X113230264Y-69653501D01*
X113290602Y-69799172D01*
X113290609Y-69799185D01*
X113378210Y-69930288D01*
X113378213Y-69930292D01*
X113489707Y-70041786D01*
X113489711Y-70041789D01*
X113620814Y-70129390D01*
X113620827Y-70129397D01*
X113644019Y-70139003D01*
X113766503Y-70189737D01*
X113821984Y-70200772D01*
X113883893Y-70233155D01*
X113885473Y-70234708D01*
X117165425Y-73514660D01*
X117198910Y-73575983D01*
X117199361Y-73578149D01*
X117230261Y-73733491D01*
X117230264Y-73733501D01*
X117290602Y-73879172D01*
X117290609Y-73879185D01*
X117378210Y-74010288D01*
X117378213Y-74010292D01*
X117489707Y-74121786D01*
X117489711Y-74121789D01*
X117620814Y-74209390D01*
X117620827Y-74209397D01*
X117766498Y-74269735D01*
X117766503Y-74269737D01*
X117921153Y-74300499D01*
X117921156Y-74300500D01*
X117921158Y-74300500D01*
X118078844Y-74300500D01*
X118078845Y-74300499D01*
X118233497Y-74269737D01*
X118379179Y-74209394D01*
X118510289Y-74121789D01*
X118621789Y-74010289D01*
X118709394Y-73879179D01*
X118769737Y-73733497D01*
X118769738Y-73733490D01*
X118769740Y-73733485D01*
X118800499Y-73578846D01*
X118800500Y-73578844D01*
X118800500Y-73421155D01*
X118800499Y-73421153D01*
X118774531Y-73290606D01*
X118769737Y-73266503D01*
X118769735Y-73266498D01*
X118709397Y-73120827D01*
X118709390Y-73120814D01*
X118621789Y-72989711D01*
X118621786Y-72989707D01*
X118510292Y-72878213D01*
X118510288Y-72878210D01*
X118379185Y-72790609D01*
X118379172Y-72790602D01*
X118233501Y-72730264D01*
X118233491Y-72730261D01*
X118078149Y-72699361D01*
X118016238Y-72666976D01*
X118014660Y-72665425D01*
X117611390Y-72262155D01*
X121690000Y-72262155D01*
X121690000Y-73310000D01*
X122731759Y-73310000D01*
X122718822Y-73341233D01*
X122690000Y-73486131D01*
X122690000Y-73633869D01*
X122718822Y-73778767D01*
X122731759Y-73810000D01*
X121690000Y-73810000D01*
X121690000Y-74857844D01*
X121696401Y-74917372D01*
X121696403Y-74917379D01*
X121746645Y-75052086D01*
X121746649Y-75052093D01*
X121832809Y-75167187D01*
X121832812Y-75167190D01*
X121947906Y-75253350D01*
X121947913Y-75253354D01*
X122082620Y-75303596D01*
X122082627Y-75303598D01*
X122142155Y-75309999D01*
X122142172Y-75310000D01*
X123190000Y-75310000D01*
X123190000Y-74268240D01*
X123221233Y-74281178D01*
X123366131Y-74310000D01*
X123513869Y-74310000D01*
X123658767Y-74281178D01*
X123690000Y-74268240D01*
X123690000Y-75310000D01*
X124737828Y-75310000D01*
X124737844Y-75309999D01*
X124797372Y-75303598D01*
X124797379Y-75303596D01*
X124932086Y-75253354D01*
X124932093Y-75253350D01*
X125047187Y-75167190D01*
X125047190Y-75167187D01*
X125133350Y-75052093D01*
X125133354Y-75052086D01*
X125183596Y-74917379D01*
X125183598Y-74917372D01*
X125189999Y-74857844D01*
X125190000Y-74857827D01*
X125190000Y-73810000D01*
X124148241Y-73810000D01*
X124161178Y-73778767D01*
X124190000Y-73633869D01*
X124190000Y-73486131D01*
X124161178Y-73341233D01*
X124148241Y-73310000D01*
X125190000Y-73310000D01*
X125190000Y-72262172D01*
X125189999Y-72262155D01*
X125183598Y-72202627D01*
X125183596Y-72202620D01*
X125133354Y-72067913D01*
X125133350Y-72067906D01*
X125047190Y-71952812D01*
X125047187Y-71952809D01*
X124932093Y-71866649D01*
X124932086Y-71866645D01*
X124797379Y-71816403D01*
X124797372Y-71816401D01*
X124737844Y-71810000D01*
X123690000Y-71810000D01*
X123690000Y-72851759D01*
X123658767Y-72838822D01*
X123513869Y-72810000D01*
X123366131Y-72810000D01*
X123221233Y-72838822D01*
X123190000Y-72851759D01*
X123190000Y-71810000D01*
X122142155Y-71810000D01*
X122082627Y-71816401D01*
X122082620Y-71816403D01*
X121947913Y-71866645D01*
X121947906Y-71866649D01*
X121832812Y-71952809D01*
X121832809Y-71952812D01*
X121746649Y-72067906D01*
X121746645Y-72067913D01*
X121696403Y-72202620D01*
X121696401Y-72202627D01*
X121690000Y-72262155D01*
X117611390Y-72262155D01*
X115974218Y-70624983D01*
X145770997Y-70624983D01*
X145770997Y-73375001D01*
X145770998Y-73375018D01*
X145781497Y-73477796D01*
X145781498Y-73477799D01*
X145833215Y-73633869D01*
X145836683Y-73644334D01*
X145928785Y-73793656D01*
X146052841Y-73917712D01*
X146202163Y-74009814D01*
X146368700Y-74064999D01*
X146471488Y-74075500D01*
X149221505Y-74075499D01*
X149324294Y-74064999D01*
X149490831Y-74009814D01*
X149640153Y-73917712D01*
X149764209Y-73793656D01*
X149856311Y-73644334D01*
X149911496Y-73477797D01*
X149921997Y-73375009D01*
X149921996Y-70624992D01*
X149911496Y-70522203D01*
X149856311Y-70355666D01*
X149764209Y-70206344D01*
X149640153Y-70082288D01*
X149490831Y-69990186D01*
X149324294Y-69935001D01*
X149324292Y-69935000D01*
X149221507Y-69924500D01*
X146471495Y-69924500D01*
X146471478Y-69924501D01*
X146368700Y-69935000D01*
X146368697Y-69935001D01*
X146202165Y-69990185D01*
X146202160Y-69990187D01*
X146052839Y-70082289D01*
X145928786Y-70206342D01*
X145836684Y-70355663D01*
X145836682Y-70355668D01*
X145834043Y-70363632D01*
X145781498Y-70522203D01*
X145781498Y-70522204D01*
X145781497Y-70522204D01*
X145770997Y-70624983D01*
X115974218Y-70624983D01*
X114836819Y-69487584D01*
X114803334Y-69426261D01*
X114800500Y-69399903D01*
X114800500Y-69341155D01*
X114800499Y-69341153D01*
X114769738Y-69186510D01*
X114769737Y-69186503D01*
X114755657Y-69152510D01*
X114709397Y-69040827D01*
X114709390Y-69040814D01*
X114621789Y-68909711D01*
X114621786Y-68909707D01*
X114510292Y-68798213D01*
X114510288Y-68798210D01*
X114379185Y-68710609D01*
X114379172Y-68710602D01*
X114233501Y-68650264D01*
X114233489Y-68650261D01*
X114078845Y-68619500D01*
X114078842Y-68619500D01*
X113921158Y-68619500D01*
X113921155Y-68619500D01*
X113766510Y-68650261D01*
X113766498Y-68650264D01*
X113620827Y-68710602D01*
X113620814Y-68710609D01*
X113489711Y-68798210D01*
X113489707Y-68798213D01*
X113378213Y-68909707D01*
X113378210Y-68909711D01*
X113290609Y-69040814D01*
X113290602Y-69040827D01*
X113230264Y-69186498D01*
X113230261Y-69186510D01*
X113199500Y-69341153D01*
X102044227Y-69341153D01*
X102074007Y-69319517D01*
X102241014Y-69152510D01*
X102379840Y-68961433D01*
X102487065Y-68750992D01*
X102560050Y-68526368D01*
X102596997Y-68293097D01*
X102596997Y-68056902D01*
X102560050Y-67823631D01*
X102487063Y-67599003D01*
X102379839Y-67388566D01*
X102241014Y-67197490D01*
X102074007Y-67030483D01*
X102039369Y-67005317D01*
X101996704Y-66949989D01*
X101990725Y-66880375D01*
X102023330Y-66818580D01*
X102039370Y-66804682D01*
X102074007Y-66779517D01*
X102241014Y-66612510D01*
X102379840Y-66421433D01*
X102487065Y-66210992D01*
X102560050Y-65986368D01*
X102579438Y-65863957D01*
X145770997Y-65863957D01*
X145770997Y-66136042D01*
X145798618Y-66345835D01*
X145806510Y-66405779D01*
X145841718Y-66537179D01*
X145876927Y-66668581D01*
X145974856Y-66905000D01*
X145981044Y-66919940D01*
X146117079Y-67155560D01*
X146117082Y-67155564D01*
X146117086Y-67155570D01*
X146282706Y-67371408D01*
X146282714Y-67371417D01*
X146475080Y-67563783D01*
X146475088Y-67563790D01*
X146475089Y-67563791D01*
X146549672Y-67621020D01*
X146690926Y-67729410D01*
X146690929Y-67729412D01*
X146690937Y-67729418D01*
X146926557Y-67865453D01*
X147094131Y-67934864D01*
X147177915Y-67969569D01*
X147177916Y-67969569D01*
X147177918Y-67969570D01*
X147440718Y-68039987D01*
X147710462Y-68075500D01*
X147710469Y-68075500D01*
X147982525Y-68075500D01*
X147982532Y-68075500D01*
X148252276Y-68039987D01*
X148515076Y-67969570D01*
X148766437Y-67865453D01*
X149002057Y-67729418D01*
X149217905Y-67563791D01*
X149217909Y-67563786D01*
X149217914Y-67563783D01*
X149410280Y-67371417D01*
X149410283Y-67371412D01*
X149410288Y-67371408D01*
X149575915Y-67155560D01*
X149711950Y-66919940D01*
X149816067Y-66668579D01*
X149886484Y-66405779D01*
X149921997Y-66136035D01*
X149921997Y-65863965D01*
X149886484Y-65594221D01*
X149816067Y-65331421D01*
X149711950Y-65080060D01*
X149575915Y-64844440D01*
X149516111Y-64766503D01*
X149410287Y-64628591D01*
X149410280Y-64628583D01*
X149217914Y-64436217D01*
X149217905Y-64436209D01*
X149002067Y-64270589D01*
X149002061Y-64270585D01*
X149002057Y-64270582D01*
X148766437Y-64134547D01*
X148733314Y-64120827D01*
X148515078Y-64030430D01*
X148383676Y-63995221D01*
X148252276Y-63960013D01*
X148192332Y-63952121D01*
X147982539Y-63924500D01*
X147982532Y-63924500D01*
X147710462Y-63924500D01*
X147710454Y-63924500D01*
X147470689Y-63956067D01*
X147440718Y-63960013D01*
X147375018Y-63977617D01*
X147177915Y-64030430D01*
X146926563Y-64134544D01*
X146926554Y-64134548D01*
X146690943Y-64270578D01*
X146690926Y-64270589D01*
X146475088Y-64436209D01*
X146282706Y-64628591D01*
X146117086Y-64844429D01*
X146117075Y-64844446D01*
X145981045Y-65080057D01*
X145981041Y-65080066D01*
X145876927Y-65331418D01*
X145806510Y-65594222D01*
X145770997Y-65863957D01*
X102579438Y-65863957D01*
X102584092Y-65834573D01*
X102596997Y-65753096D01*
X102596997Y-65516902D01*
X102560050Y-65283631D01*
X102511696Y-65134814D01*
X102487065Y-65059008D01*
X102487063Y-65059005D01*
X102487063Y-65059003D01*
X102416824Y-64921153D01*
X102379840Y-64848567D01*
X102241014Y-64657490D01*
X102074007Y-64490483D01*
X102072944Y-64489711D01*
X102039370Y-64465318D01*
X101996704Y-64409989D01*
X101990725Y-64340375D01*
X102023330Y-64278580D01*
X102039370Y-64264682D01*
X102074007Y-64239517D01*
X102241014Y-64072510D01*
X102379840Y-63881433D01*
X102487065Y-63670992D01*
X102560050Y-63446368D01*
X102596997Y-63213097D01*
X102596997Y-62976902D01*
X102575502Y-62841197D01*
X102560050Y-62743632D01*
X102560049Y-62743628D01*
X102560049Y-62743627D01*
X102492311Y-62535153D01*
X102492310Y-62535152D01*
X102487065Y-62519008D01*
X102477372Y-62499984D01*
X128299500Y-62499984D01*
X128299500Y-64500015D01*
X128310000Y-64602795D01*
X128310001Y-64602797D01*
X128337593Y-64686065D01*
X128365186Y-64769335D01*
X128365187Y-64769337D01*
X128457286Y-64918651D01*
X128457289Y-64918655D01*
X128581344Y-65042710D01*
X128581348Y-65042713D01*
X128730662Y-65134812D01*
X128730664Y-65134813D01*
X128730666Y-65134814D01*
X128897203Y-65189999D01*
X128999992Y-65200500D01*
X128999997Y-65200500D01*
X131000003Y-65200500D01*
X131000008Y-65200500D01*
X131102797Y-65189999D01*
X131269334Y-65134814D01*
X131418655Y-65042711D01*
X131542711Y-64918655D01*
X131634814Y-64769334D01*
X131689999Y-64602797D01*
X131700500Y-64500008D01*
X131700500Y-63388575D01*
X133300000Y-63388575D01*
X133300000Y-63611424D01*
X133329085Y-63832354D01*
X133329088Y-63832367D01*
X133386763Y-64047618D01*
X133472045Y-64253502D01*
X133472054Y-64253520D01*
X133583464Y-64446491D01*
X133583473Y-64446504D01*
X133634040Y-64512403D01*
X133634043Y-64512403D01*
X134435387Y-63711059D01*
X134440889Y-63731591D01*
X134519881Y-63868408D01*
X134631592Y-63980119D01*
X134768409Y-64059111D01*
X134788940Y-64064612D01*
X133987595Y-64865955D01*
X133987595Y-64865956D01*
X134053507Y-64916533D01*
X134246485Y-65027949D01*
X134246497Y-65027954D01*
X134452381Y-65113236D01*
X134667632Y-65170911D01*
X134667645Y-65170914D01*
X134888575Y-65200000D01*
X135111425Y-65200000D01*
X135332354Y-65170914D01*
X135332367Y-65170911D01*
X135547618Y-65113236D01*
X135753502Y-65027954D01*
X135753514Y-65027949D01*
X135946498Y-64916530D01*
X136012403Y-64865957D01*
X136012404Y-64865956D01*
X135211059Y-64064612D01*
X135231591Y-64059111D01*
X135368408Y-63980119D01*
X135480119Y-63868408D01*
X135559111Y-63731591D01*
X135564612Y-63711059D01*
X136365956Y-64512404D01*
X136365957Y-64512403D01*
X136416530Y-64446498D01*
X136527949Y-64253514D01*
X136527954Y-64253502D01*
X136613236Y-64047618D01*
X136670911Y-63832367D01*
X136670914Y-63832354D01*
X136700000Y-63611424D01*
X136700000Y-63388575D01*
X136670914Y-63167645D01*
X136670911Y-63167632D01*
X136613236Y-62952381D01*
X136527954Y-62746497D01*
X136527949Y-62746485D01*
X136416533Y-62553507D01*
X136365956Y-62487595D01*
X136365955Y-62487595D01*
X135564612Y-63288939D01*
X135559111Y-63268409D01*
X135480119Y-63131592D01*
X135368408Y-63019881D01*
X135231591Y-62940889D01*
X135211058Y-62935387D01*
X136012403Y-62134043D01*
X136012403Y-62134040D01*
X135946504Y-62083473D01*
X135946491Y-62083464D01*
X135753520Y-61972054D01*
X135753502Y-61972045D01*
X135547618Y-61886763D01*
X135332367Y-61829088D01*
X135332354Y-61829085D01*
X135111425Y-61800000D01*
X134888575Y-61800000D01*
X134667645Y-61829085D01*
X134667632Y-61829088D01*
X134452381Y-61886763D01*
X134246497Y-61972045D01*
X134246479Y-61972054D01*
X134053511Y-62083462D01*
X133987595Y-62134042D01*
X134788941Y-62935387D01*
X134768409Y-62940889D01*
X134631592Y-63019881D01*
X134519881Y-63131592D01*
X134440889Y-63268409D01*
X134435387Y-63288940D01*
X133634042Y-62487595D01*
X133583462Y-62553511D01*
X133472054Y-62746479D01*
X133472045Y-62746497D01*
X133386763Y-62952381D01*
X133329088Y-63167632D01*
X133329085Y-63167645D01*
X133300000Y-63388575D01*
X131700500Y-63388575D01*
X131700500Y-62499992D01*
X131689999Y-62397203D01*
X131634814Y-62230666D01*
X131565006Y-62117490D01*
X131542713Y-62081348D01*
X131542710Y-62081344D01*
X131418655Y-61957289D01*
X131418651Y-61957286D01*
X131269337Y-61865187D01*
X131269335Y-61865186D01*
X131186065Y-61837593D01*
X131102797Y-61810001D01*
X131102795Y-61810000D01*
X131000015Y-61799500D01*
X131000008Y-61799500D01*
X128999992Y-61799500D01*
X128999984Y-61799500D01*
X128897204Y-61810000D01*
X128897203Y-61810001D01*
X128730664Y-61865186D01*
X128730662Y-61865187D01*
X128581348Y-61957286D01*
X128581344Y-61957289D01*
X128457289Y-62081344D01*
X128457286Y-62081348D01*
X128365187Y-62230662D01*
X128365186Y-62230664D01*
X128310001Y-62397203D01*
X128310000Y-62397204D01*
X128299500Y-62499984D01*
X102477372Y-62499984D01*
X102379840Y-62308567D01*
X102241014Y-62117490D01*
X102074007Y-61950483D01*
X102039369Y-61925317D01*
X101996704Y-61869989D01*
X101990725Y-61800375D01*
X102023330Y-61738580D01*
X102039370Y-61724682D01*
X102074007Y-61699517D01*
X102241014Y-61532510D01*
X102379840Y-61341433D01*
X102487065Y-61130992D01*
X102560050Y-60906368D01*
X102596997Y-60673097D01*
X102596997Y-60436902D01*
X102560050Y-60203631D01*
X102496335Y-60007538D01*
X102487065Y-59979008D01*
X102487063Y-59979005D01*
X102487063Y-59979003D01*
X102379839Y-59768566D01*
X102352010Y-59730263D01*
X102241014Y-59577490D01*
X102074007Y-59410483D01*
X102039369Y-59385317D01*
X101996704Y-59329989D01*
X101990725Y-59260375D01*
X102023330Y-59198580D01*
X102039370Y-59184682D01*
X102074007Y-59159517D01*
X102241014Y-58992510D01*
X102379840Y-58801433D01*
X102487065Y-58590992D01*
X102560050Y-58366368D01*
X102581096Y-58233489D01*
X102596997Y-58133097D01*
X102596997Y-57921153D01*
X107699500Y-57921153D01*
X107699500Y-58078846D01*
X107730261Y-58233489D01*
X107730264Y-58233501D01*
X107790602Y-58379172D01*
X107790609Y-58379185D01*
X107878210Y-58510288D01*
X107878213Y-58510292D01*
X107989707Y-58621786D01*
X107989711Y-58621789D01*
X108120814Y-58709390D01*
X108120827Y-58709397D01*
X108266498Y-58769735D01*
X108266503Y-58769737D01*
X108331147Y-58782595D01*
X108421849Y-58800638D01*
X108483760Y-58833023D01*
X108485339Y-58834574D01*
X110165425Y-60514660D01*
X110198910Y-60575983D01*
X110199361Y-60578149D01*
X110230261Y-60733491D01*
X110230264Y-60733501D01*
X110290602Y-60879172D01*
X110290609Y-60879185D01*
X110378210Y-61010288D01*
X110378213Y-61010292D01*
X110489707Y-61121786D01*
X110489711Y-61121789D01*
X110620814Y-61209390D01*
X110620827Y-61209397D01*
X110766498Y-61269735D01*
X110766503Y-61269737D01*
X110921153Y-61300499D01*
X110921156Y-61300500D01*
X110921158Y-61300500D01*
X111078844Y-61300500D01*
X111078845Y-61300499D01*
X111233497Y-61269737D01*
X111379179Y-61209394D01*
X111510289Y-61121789D01*
X111621789Y-61010289D01*
X111709394Y-60879179D01*
X111769737Y-60733497D01*
X111800500Y-60578842D01*
X111800500Y-60421158D01*
X111800500Y-60421155D01*
X111800499Y-60421153D01*
X111797441Y-60405779D01*
X111769737Y-60266503D01*
X111754016Y-60228549D01*
X140799500Y-60228549D01*
X140799500Y-60451450D01*
X140799501Y-60451466D01*
X140828594Y-60672452D01*
X140828595Y-60672457D01*
X140828596Y-60672463D01*
X140883985Y-60879179D01*
X140886290Y-60887780D01*
X140886293Y-60887790D01*
X140971593Y-61093722D01*
X140971595Y-61093726D01*
X141083052Y-61286774D01*
X141083057Y-61286780D01*
X141083058Y-61286782D01*
X141218751Y-61463622D01*
X141218757Y-61463629D01*
X141376370Y-61621242D01*
X141376376Y-61621247D01*
X141553226Y-61756948D01*
X141746274Y-61868405D01*
X141850124Y-61911421D01*
X141944430Y-61950484D01*
X141952219Y-61953710D01*
X142167537Y-62011404D01*
X142388543Y-62040500D01*
X142388550Y-62040500D01*
X142611450Y-62040500D01*
X142611457Y-62040500D01*
X142832463Y-62011404D01*
X143047781Y-61953710D01*
X143253726Y-61868405D01*
X143446774Y-61756948D01*
X143623624Y-61621247D01*
X143781247Y-61463624D01*
X143916948Y-61286774D01*
X144028405Y-61093726D01*
X144113710Y-60887781D01*
X144171404Y-60672463D01*
X144200500Y-60451457D01*
X144200500Y-60228543D01*
X144171404Y-60007537D01*
X144132932Y-59863957D01*
X145770997Y-59863957D01*
X145770997Y-60136042D01*
X145798618Y-60345835D01*
X145806510Y-60405779D01*
X145818752Y-60451466D01*
X145876927Y-60668581D01*
X145964157Y-60879172D01*
X145981044Y-60919940D01*
X146117079Y-61155560D01*
X146117082Y-61155564D01*
X146117086Y-61155570D01*
X146282706Y-61371408D01*
X146282714Y-61371417D01*
X146475080Y-61563783D01*
X146475088Y-61563790D01*
X146690926Y-61729410D01*
X146690929Y-61729412D01*
X146690937Y-61729418D01*
X146926557Y-61865453D01*
X147037534Y-61911421D01*
X147177915Y-61969569D01*
X147177916Y-61969569D01*
X147177918Y-61969570D01*
X147440718Y-62039987D01*
X147710462Y-62075500D01*
X147710469Y-62075500D01*
X147982525Y-62075500D01*
X147982532Y-62075500D01*
X148252276Y-62039987D01*
X148515076Y-61969570D01*
X148766437Y-61865453D01*
X149002057Y-61729418D01*
X149217905Y-61563791D01*
X149217909Y-61563786D01*
X149217914Y-61563783D01*
X149410280Y-61371417D01*
X149410283Y-61371412D01*
X149410288Y-61371408D01*
X149575915Y-61155560D01*
X149711950Y-60919940D01*
X149816067Y-60668579D01*
X149886484Y-60405779D01*
X149921997Y-60136035D01*
X149921997Y-59863965D01*
X149886484Y-59594221D01*
X149816067Y-59331421D01*
X149711950Y-59080060D01*
X149575915Y-58844440D01*
X149567154Y-58833023D01*
X149410287Y-58628591D01*
X149410280Y-58628583D01*
X149217914Y-58436217D01*
X149217905Y-58436209D01*
X149002067Y-58270589D01*
X149002061Y-58270585D01*
X149002057Y-58270582D01*
X148766437Y-58134547D01*
X148766430Y-58134544D01*
X148515078Y-58030430D01*
X148383676Y-57995221D01*
X148252276Y-57960013D01*
X148192332Y-57952121D01*
X147982539Y-57924500D01*
X147982532Y-57924500D01*
X147710462Y-57924500D01*
X147710454Y-57924500D01*
X147470689Y-57956067D01*
X147440718Y-57960013D01*
X147375018Y-57977617D01*
X147177915Y-58030430D01*
X146926563Y-58134544D01*
X146926554Y-58134548D01*
X146690943Y-58270578D01*
X146690926Y-58270589D01*
X146475088Y-58436209D01*
X146282706Y-58628591D01*
X146117086Y-58844429D01*
X146117075Y-58844446D01*
X145981045Y-59080057D01*
X145981041Y-59080066D01*
X145876927Y-59331418D01*
X145824114Y-59528521D01*
X145808640Y-59586274D01*
X145806510Y-59594222D01*
X145770997Y-59863957D01*
X144132932Y-59863957D01*
X144113710Y-59792219D01*
X144028405Y-59586274D01*
X143916948Y-59393226D01*
X143833904Y-59285000D01*
X143781248Y-59216377D01*
X143781242Y-59216370D01*
X143623629Y-59058757D01*
X143623622Y-59058751D01*
X143446782Y-58923058D01*
X143446780Y-58923057D01*
X143446774Y-58923052D01*
X143253726Y-58811595D01*
X143253722Y-58811593D01*
X143047790Y-58726293D01*
X143047783Y-58726291D01*
X143047781Y-58726290D01*
X142832463Y-58668596D01*
X142832457Y-58668595D01*
X142832452Y-58668594D01*
X142611466Y-58639501D01*
X142611463Y-58639500D01*
X142611457Y-58639500D01*
X142388543Y-58639500D01*
X142388537Y-58639500D01*
X142388533Y-58639501D01*
X142167547Y-58668594D01*
X142167540Y-58668595D01*
X142167537Y-58668596D01*
X142015291Y-58709390D01*
X141952219Y-58726290D01*
X141952209Y-58726293D01*
X141746277Y-58811593D01*
X141746273Y-58811595D01*
X141553226Y-58923052D01*
X141553217Y-58923058D01*
X141376377Y-59058751D01*
X141376370Y-59058757D01*
X141218757Y-59216370D01*
X141218751Y-59216377D01*
X141083058Y-59393217D01*
X141083052Y-59393226D01*
X140971595Y-59586273D01*
X140971593Y-59586277D01*
X140886293Y-59792209D01*
X140886290Y-59792219D01*
X140833373Y-59989711D01*
X140828597Y-60007534D01*
X140828594Y-60007547D01*
X140799501Y-60228533D01*
X140799500Y-60228549D01*
X111754016Y-60228549D01*
X111754014Y-60228543D01*
X111709397Y-60120827D01*
X111709390Y-60120814D01*
X111621789Y-59989711D01*
X111621786Y-59989707D01*
X111510292Y-59878213D01*
X111510288Y-59878210D01*
X111379185Y-59790609D01*
X111379172Y-59790602D01*
X111233501Y-59730264D01*
X111233491Y-59730261D01*
X111078149Y-59699361D01*
X111016238Y-59666976D01*
X111014660Y-59665425D01*
X109334574Y-57985339D01*
X109301089Y-57924016D01*
X109300638Y-57921849D01*
X109269738Y-57766510D01*
X109269737Y-57766503D01*
X109227127Y-57663632D01*
X109209397Y-57620827D01*
X109209390Y-57620814D01*
X109121789Y-57489711D01*
X109121786Y-57489707D01*
X109010292Y-57378213D01*
X109010288Y-57378210D01*
X108879185Y-57290609D01*
X108879172Y-57290602D01*
X108733501Y-57230264D01*
X108733489Y-57230261D01*
X108578845Y-57199500D01*
X108578842Y-57199500D01*
X108421158Y-57199500D01*
X108421155Y-57199500D01*
X108266510Y-57230261D01*
X108266498Y-57230264D01*
X108120827Y-57290602D01*
X108120814Y-57290609D01*
X107989711Y-57378210D01*
X107989707Y-57378213D01*
X107878213Y-57489707D01*
X107878210Y-57489711D01*
X107790609Y-57620814D01*
X107790602Y-57620827D01*
X107730264Y-57766498D01*
X107730261Y-57766510D01*
X107699500Y-57921153D01*
X102596997Y-57921153D01*
X102596997Y-57896902D01*
X102560050Y-57663631D01*
X102487063Y-57439003D01*
X102411448Y-57290602D01*
X102379840Y-57228567D01*
X102241014Y-57037490D01*
X102074007Y-56870483D01*
X102039369Y-56845317D01*
X101996704Y-56789989D01*
X101990725Y-56720375D01*
X102023330Y-56658580D01*
X102039370Y-56644682D01*
X102074007Y-56619517D01*
X102241014Y-56452510D01*
X102379840Y-56261433D01*
X102487065Y-56050992D01*
X102560050Y-55826368D01*
X102582977Y-55681613D01*
X102596997Y-55593097D01*
X102596997Y-55356902D01*
X102560050Y-55123631D01*
X102536990Y-55052661D01*
X102487065Y-54899008D01*
X102486372Y-54897648D01*
X136235997Y-54897648D01*
X136235997Y-55102352D01*
X136240375Y-55129995D01*
X136268019Y-55304534D01*
X136331278Y-55499223D01*
X136379110Y-55593097D01*
X136424082Y-55681359D01*
X136424212Y-55681613D01*
X136544525Y-55847213D01*
X136689283Y-55991971D01*
X136770526Y-56050996D01*
X136854887Y-56112287D01*
X136971104Y-56171503D01*
X137037273Y-56205218D01*
X137037275Y-56205218D01*
X137037278Y-56205220D01*
X137141634Y-56239127D01*
X137231962Y-56268477D01*
X137333054Y-56284488D01*
X137434145Y-56300500D01*
X137434146Y-56300500D01*
X137638848Y-56300500D01*
X137638849Y-56300500D01*
X137841031Y-56268477D01*
X138035716Y-56205220D01*
X138218107Y-56112287D01*
X138311087Y-56044732D01*
X138383710Y-55991971D01*
X138383712Y-55991968D01*
X138383716Y-55991966D01*
X138528463Y-55847219D01*
X138528465Y-55847215D01*
X138528468Y-55847213D01*
X138581229Y-55774590D01*
X138648784Y-55681610D01*
X138741717Y-55499219D01*
X138804974Y-55304534D01*
X138836997Y-55102352D01*
X138836997Y-54897682D01*
X143856497Y-54897682D01*
X143856497Y-55102317D01*
X143888506Y-55304417D01*
X143951741Y-55499031D01*
X144044638Y-55681350D01*
X144044644Y-55681359D01*
X144077020Y-55725921D01*
X144077021Y-55725922D01*
X144756497Y-55046446D01*
X144756497Y-55052661D01*
X144783756Y-55154394D01*
X144836417Y-55245606D01*
X144910891Y-55320080D01*
X145002103Y-55372741D01*
X145103836Y-55400000D01*
X145110050Y-55400000D01*
X144430573Y-56079474D01*
X144475147Y-56111859D01*
X144657465Y-56204755D01*
X144852079Y-56267990D01*
X145054180Y-56300000D01*
X145258814Y-56300000D01*
X145460914Y-56267990D01*
X145655528Y-56204755D01*
X145837846Y-56111859D01*
X145882418Y-56079474D01*
X145202944Y-55400000D01*
X145209158Y-55400000D01*
X145310891Y-55372741D01*
X145402103Y-55320080D01*
X145476577Y-55245606D01*
X145529238Y-55154394D01*
X145556497Y-55052661D01*
X145556497Y-55046447D01*
X146235971Y-55725921D01*
X146268356Y-55681349D01*
X146361252Y-55499031D01*
X146424487Y-55304417D01*
X146456497Y-55102317D01*
X146456497Y-54897682D01*
X146424487Y-54695582D01*
X146361252Y-54500968D01*
X146268356Y-54318650D01*
X146235971Y-54274077D01*
X146235971Y-54274076D01*
X145556497Y-54953551D01*
X145556497Y-54947339D01*
X145529238Y-54845606D01*
X145476577Y-54754394D01*
X145402103Y-54679920D01*
X145310891Y-54627259D01*
X145209158Y-54600000D01*
X145202943Y-54600000D01*
X145882419Y-53920524D01*
X145882418Y-53920523D01*
X145837856Y-53888147D01*
X145837847Y-53888141D01*
X145655528Y-53795244D01*
X145460914Y-53732009D01*
X145258814Y-53700000D01*
X145054180Y-53700000D01*
X144852079Y-53732009D01*
X144657465Y-53795244D01*
X144475141Y-53888143D01*
X144430574Y-53920523D01*
X144430574Y-53920524D01*
X145110051Y-54600000D01*
X145103836Y-54600000D01*
X145002103Y-54627259D01*
X144910891Y-54679920D01*
X144836417Y-54754394D01*
X144783756Y-54845606D01*
X144756497Y-54947339D01*
X144756497Y-54953553D01*
X144077021Y-54274077D01*
X144077020Y-54274077D01*
X144044640Y-54318644D01*
X143951741Y-54500968D01*
X143888506Y-54695582D01*
X143856497Y-54897682D01*
X138836997Y-54897682D01*
X138836997Y-54897648D01*
X138828754Y-54845606D01*
X138804974Y-54695465D01*
X138773955Y-54600000D01*
X138741717Y-54500781D01*
X138741715Y-54500778D01*
X138741715Y-54500776D01*
X138708000Y-54434607D01*
X138648784Y-54318390D01*
X138616589Y-54274077D01*
X138528468Y-54152786D01*
X138383710Y-54008028D01*
X138218110Y-53887715D01*
X138218109Y-53887714D01*
X138218107Y-53887713D01*
X138161150Y-53858691D01*
X138035720Y-53794781D01*
X137841031Y-53731522D01*
X137666492Y-53703878D01*
X137638849Y-53699500D01*
X137434145Y-53699500D01*
X137409826Y-53703351D01*
X137231962Y-53731522D01*
X137037273Y-53794781D01*
X136854883Y-53887715D01*
X136689283Y-54008028D01*
X136544525Y-54152786D01*
X136424212Y-54318386D01*
X136331278Y-54500776D01*
X136268019Y-54695465D01*
X136235997Y-54897648D01*
X102486372Y-54897648D01*
X102379840Y-54688567D01*
X102241014Y-54497490D01*
X102074007Y-54330483D01*
X102039369Y-54305317D01*
X101996704Y-54249989D01*
X101990725Y-54180375D01*
X102023330Y-54118580D01*
X102039370Y-54104682D01*
X102074007Y-54079517D01*
X102241014Y-53912510D01*
X102379840Y-53721433D01*
X102487065Y-53510992D01*
X102560050Y-53286368D01*
X102562884Y-53268477D01*
X102596997Y-53053097D01*
X102596997Y-52816902D01*
X102560050Y-52583631D01*
X102487063Y-52359003D01*
X102379839Y-52148566D01*
X102241014Y-51957490D01*
X102181172Y-51897648D01*
X125579500Y-51897648D01*
X125579500Y-52102351D01*
X125611522Y-52304534D01*
X125674781Y-52499223D01*
X125767715Y-52681613D01*
X125888028Y-52847213D01*
X126032786Y-52991971D01*
X126187749Y-53104556D01*
X126198390Y-53112287D01*
X126314607Y-53171503D01*
X126380776Y-53205218D01*
X126380778Y-53205218D01*
X126380781Y-53205220D01*
X126485137Y-53239127D01*
X126575465Y-53268477D01*
X126676557Y-53284488D01*
X126777648Y-53300500D01*
X126777649Y-53300500D01*
X126982351Y-53300500D01*
X126982352Y-53300500D01*
X127184534Y-53268477D01*
X127379219Y-53205220D01*
X127561610Y-53112287D01*
X127654590Y-53044732D01*
X127727213Y-52991971D01*
X127727215Y-52991968D01*
X127727219Y-52991966D01*
X127871966Y-52847219D01*
X127871968Y-52847215D01*
X127871971Y-52847213D01*
X127924732Y-52774590D01*
X127992287Y-52681610D01*
X128085220Y-52499219D01*
X128148477Y-52304534D01*
X128180500Y-52102352D01*
X128180500Y-51897648D01*
X133199500Y-51897648D01*
X133199500Y-52102351D01*
X133231522Y-52304534D01*
X133294781Y-52499223D01*
X133387715Y-52681613D01*
X133508028Y-52847213D01*
X133652786Y-52991971D01*
X133807749Y-53104556D01*
X133818390Y-53112287D01*
X133934607Y-53171503D01*
X134000776Y-53205218D01*
X134000778Y-53205218D01*
X134000781Y-53205220D01*
X134105137Y-53239127D01*
X134195465Y-53268477D01*
X134296557Y-53284488D01*
X134397648Y-53300500D01*
X134397649Y-53300500D01*
X134602351Y-53300500D01*
X134602352Y-53300500D01*
X134804534Y-53268477D01*
X134999219Y-53205220D01*
X135181610Y-53112287D01*
X135274590Y-53044732D01*
X135347213Y-52991971D01*
X135347215Y-52991968D01*
X135347219Y-52991966D01*
X135491966Y-52847219D01*
X135491968Y-52847215D01*
X135491971Y-52847213D01*
X135544732Y-52774590D01*
X135612287Y-52681610D01*
X135705220Y-52499219D01*
X135768477Y-52304534D01*
X135800500Y-52102352D01*
X135800500Y-51897648D01*
X135783527Y-51790484D01*
X135768477Y-51695465D01*
X135705218Y-51500776D01*
X135671503Y-51434607D01*
X135612287Y-51318390D01*
X135604556Y-51307749D01*
X135491971Y-51152786D01*
X135347213Y-51008028D01*
X135181613Y-50887715D01*
X135181612Y-50887714D01*
X135181610Y-50887713D01*
X135124653Y-50858691D01*
X134999223Y-50794781D01*
X134804534Y-50731522D01*
X134629995Y-50703878D01*
X134602352Y-50699500D01*
X134397648Y-50699500D01*
X134373329Y-50703351D01*
X134195465Y-50731522D01*
X134000776Y-50794781D01*
X133818386Y-50887715D01*
X133652786Y-51008028D01*
X133508028Y-51152786D01*
X133387715Y-51318386D01*
X133294781Y-51500776D01*
X133231522Y-51695465D01*
X133199500Y-51897648D01*
X128180500Y-51897648D01*
X128163527Y-51790484D01*
X128148477Y-51695465D01*
X128085218Y-51500776D01*
X128051503Y-51434607D01*
X127992287Y-51318390D01*
X127984556Y-51307749D01*
X127871971Y-51152786D01*
X127727213Y-51008028D01*
X127561613Y-50887715D01*
X127561612Y-50887714D01*
X127561610Y-50887713D01*
X127504653Y-50858691D01*
X127379223Y-50794781D01*
X127184534Y-50731522D01*
X127009995Y-50703878D01*
X126982352Y-50699500D01*
X126777648Y-50699500D01*
X126753329Y-50703351D01*
X126575465Y-50731522D01*
X126380776Y-50794781D01*
X126198386Y-50887715D01*
X126032786Y-51008028D01*
X125888028Y-51152786D01*
X125767715Y-51318386D01*
X125674781Y-51500776D01*
X125611522Y-51695465D01*
X125579500Y-51897648D01*
X102181172Y-51897648D01*
X102074007Y-51790483D01*
X102039369Y-51765317D01*
X101996704Y-51709989D01*
X101990725Y-51640375D01*
X102023330Y-51578580D01*
X102039370Y-51564682D01*
X102074007Y-51539517D01*
X102241014Y-51372510D01*
X102379840Y-51181433D01*
X102487065Y-50970992D01*
X102560050Y-50746368D01*
X102575234Y-50650499D01*
X102596997Y-50513097D01*
X102596997Y-50276902D01*
X102560050Y-50043631D01*
X102487063Y-49819003D01*
X102379839Y-49608566D01*
X102327625Y-49536700D01*
X102241014Y-49417490D01*
X102074007Y-49250483D01*
X102039369Y-49225317D01*
X101996704Y-49169989D01*
X101990725Y-49100375D01*
X102023330Y-49038580D01*
X102039370Y-49024682D01*
X102074007Y-48999517D01*
X102241014Y-48832510D01*
X102379840Y-48641433D01*
X102442288Y-48518872D01*
X140295997Y-48518872D01*
X140295997Y-48781127D01*
X140322620Y-48983339D01*
X140330227Y-49041116D01*
X140386327Y-49250484D01*
X140398099Y-49294418D01*
X140398102Y-49294428D01*
X140498450Y-49536690D01*
X140498455Y-49536700D01*
X140629572Y-49763803D01*
X140789215Y-49971851D01*
X140789223Y-49971860D01*
X140974637Y-50157274D01*
X140974645Y-50157281D01*
X141182693Y-50316924D01*
X141409796Y-50448041D01*
X141409806Y-50448046D01*
X141652068Y-50548394D01*
X141652078Y-50548398D01*
X141905381Y-50616270D01*
X142165377Y-50650500D01*
X142165384Y-50650500D01*
X142427610Y-50650500D01*
X142427617Y-50650500D01*
X142687613Y-50616270D01*
X142940916Y-50548398D01*
X143183194Y-50448043D01*
X143410300Y-50316924D01*
X143618348Y-50157282D01*
X143618352Y-50157277D01*
X143618357Y-50157274D01*
X143803771Y-49971860D01*
X143803774Y-49971855D01*
X143803779Y-49971851D01*
X143963421Y-49763803D01*
X144094540Y-49536697D01*
X144194895Y-49294419D01*
X144262767Y-49041116D01*
X144296997Y-48781120D01*
X144296997Y-48518880D01*
X144262767Y-48258884D01*
X144194895Y-48005581D01*
X144133214Y-47856670D01*
X144094543Y-47763309D01*
X144094538Y-47763299D01*
X143963421Y-47536196D01*
X143803778Y-47328148D01*
X143803771Y-47328140D01*
X143618357Y-47142726D01*
X143618348Y-47142718D01*
X143410300Y-46983075D01*
X143183197Y-46851958D01*
X143183187Y-46851953D01*
X142940925Y-46751605D01*
X142940918Y-46751603D01*
X142940916Y-46751602D01*
X142687613Y-46683730D01*
X142687612Y-46683729D01*
X142687609Y-46683729D01*
X142427624Y-46649500D01*
X142427617Y-46649500D01*
X142165377Y-46649500D01*
X142165369Y-46649500D01*
X141934269Y-46679926D01*
X141905381Y-46683730D01*
X141652078Y-46751602D01*
X141652068Y-46751605D01*
X141409806Y-46851953D01*
X141409796Y-46851958D01*
X141182693Y-46983075D01*
X140974645Y-47142718D01*
X140789215Y-47328148D01*
X140629572Y-47536196D01*
X140498455Y-47763299D01*
X140498450Y-47763309D01*
X140398102Y-48005571D01*
X140398099Y-48005581D01*
X140330227Y-48258885D01*
X140295997Y-48518872D01*
X102442288Y-48518872D01*
X102487065Y-48430992D01*
X102560050Y-48206368D01*
X102589739Y-48018919D01*
X102596997Y-47973097D01*
X102596997Y-47736902D01*
X102560050Y-47503631D01*
X102503032Y-47328149D01*
X102487065Y-47279008D01*
X102487063Y-47279005D01*
X102487063Y-47279003D01*
X102379839Y-47068566D01*
X102360712Y-47042240D01*
X102241014Y-46877490D01*
X102074007Y-46710483D01*
X102039369Y-46685317D01*
X102022191Y-46663040D01*
X102002583Y-46642863D01*
X102001140Y-46635742D01*
X101996704Y-46629989D01*
X101994296Y-46601960D01*
X101990913Y-46585258D01*
X134595997Y-46585258D01*
X134595997Y-46814741D01*
X134604259Y-46877490D01*
X134625949Y-47042238D01*
X134685339Y-47263887D01*
X134773147Y-47475876D01*
X134773154Y-47475890D01*
X134887889Y-47674617D01*
X135027578Y-47856661D01*
X135027586Y-47856670D01*
X135189827Y-48018911D01*
X135189835Y-48018918D01*
X135371879Y-48158607D01*
X135371882Y-48158608D01*
X135371885Y-48158611D01*
X135570609Y-48273344D01*
X135570614Y-48273346D01*
X135570620Y-48273349D01*
X135661977Y-48311190D01*
X135782610Y-48361158D01*
X136004259Y-48420548D01*
X136231763Y-48450500D01*
X136231770Y-48450500D01*
X136461224Y-48450500D01*
X136461231Y-48450500D01*
X136688735Y-48420548D01*
X136910384Y-48361158D01*
X137122385Y-48273344D01*
X137321109Y-48158611D01*
X137503158Y-48018919D01*
X137503162Y-48018914D01*
X137503167Y-48018911D01*
X137665408Y-47856670D01*
X137665411Y-47856665D01*
X137665416Y-47856661D01*
X137805108Y-47674612D01*
X137919841Y-47475888D01*
X138007655Y-47263887D01*
X138067045Y-47042238D01*
X138096997Y-46814734D01*
X138096997Y-46585266D01*
X138096996Y-46585258D01*
X146595997Y-46585258D01*
X146595997Y-46814741D01*
X146604259Y-46877490D01*
X146625949Y-47042238D01*
X146685339Y-47263887D01*
X146773147Y-47475876D01*
X146773154Y-47475890D01*
X146887889Y-47674617D01*
X147027578Y-47856661D01*
X147027586Y-47856670D01*
X147189827Y-48018911D01*
X147189835Y-48018918D01*
X147371879Y-48158607D01*
X147371882Y-48158608D01*
X147371885Y-48158611D01*
X147570609Y-48273344D01*
X147570614Y-48273346D01*
X147570620Y-48273349D01*
X147661977Y-48311190D01*
X147782610Y-48361158D01*
X148004259Y-48420548D01*
X148231763Y-48450500D01*
X148231770Y-48450500D01*
X148461224Y-48450500D01*
X148461231Y-48450500D01*
X148688735Y-48420548D01*
X148910384Y-48361158D01*
X149122385Y-48273344D01*
X149321109Y-48158611D01*
X149503158Y-48018919D01*
X149503162Y-48018914D01*
X149503167Y-48018911D01*
X149665408Y-47856670D01*
X149665411Y-47856665D01*
X149665416Y-47856661D01*
X149805108Y-47674612D01*
X149919841Y-47475888D01*
X150007655Y-47263887D01*
X150067045Y-47042238D01*
X150096997Y-46814734D01*
X150096997Y-46585266D01*
X150067045Y-46357762D01*
X150007655Y-46136113D01*
X149919841Y-45924112D01*
X149805108Y-45725388D01*
X149805105Y-45725385D01*
X149805104Y-45725382D01*
X149665415Y-45543338D01*
X149665408Y-45543330D01*
X149503167Y-45381089D01*
X149503158Y-45381081D01*
X149321114Y-45241392D01*
X149122387Y-45126657D01*
X149122373Y-45126650D01*
X148910384Y-45038842D01*
X148688735Y-44979452D01*
X148650712Y-44974446D01*
X148461238Y-44949500D01*
X148461231Y-44949500D01*
X148231763Y-44949500D01*
X148231755Y-44949500D01*
X148015212Y-44978009D01*
X148004259Y-44979452D01*
X147910573Y-45004554D01*
X147782609Y-45038842D01*
X147570620Y-45126650D01*
X147570606Y-45126657D01*
X147371879Y-45241392D01*
X147189835Y-45381081D01*
X147027578Y-45543338D01*
X146887889Y-45725382D01*
X146773154Y-45924109D01*
X146773147Y-45924123D01*
X146685339Y-46136112D01*
X146685339Y-46136113D01*
X146643433Y-46292512D01*
X146625950Y-46357759D01*
X146625948Y-46357770D01*
X146595997Y-46585258D01*
X138096996Y-46585258D01*
X138067045Y-46357762D01*
X138007655Y-46136113D01*
X137919841Y-45924112D01*
X137805108Y-45725388D01*
X137805105Y-45725385D01*
X137805104Y-45725382D01*
X137665415Y-45543338D01*
X137665408Y-45543330D01*
X137503167Y-45381089D01*
X137503158Y-45381081D01*
X137321114Y-45241392D01*
X137122387Y-45126657D01*
X137122373Y-45126650D01*
X136910384Y-45038842D01*
X136688735Y-44979452D01*
X136650712Y-44974446D01*
X136461238Y-44949500D01*
X136461231Y-44949500D01*
X136231763Y-44949500D01*
X136231755Y-44949500D01*
X136015212Y-44978009D01*
X136004259Y-44979452D01*
X135910573Y-45004554D01*
X135782609Y-45038842D01*
X135570620Y-45126650D01*
X135570606Y-45126657D01*
X135371879Y-45241392D01*
X135189835Y-45381081D01*
X135027578Y-45543338D01*
X134887889Y-45725382D01*
X134773154Y-45924109D01*
X134773147Y-45924123D01*
X134685339Y-46136112D01*
X134685339Y-46136113D01*
X134643433Y-46292512D01*
X134625950Y-46357759D01*
X134625948Y-46357770D01*
X134595997Y-46585258D01*
X101990913Y-46585258D01*
X101988710Y-46574384D01*
X101991346Y-46567612D01*
X101990725Y-46560375D01*
X102003853Y-46535493D01*
X102014062Y-46509276D01*
X102021500Y-46502047D01*
X102023330Y-46498580D01*
X102039370Y-46484682D01*
X102074007Y-46459517D01*
X102241014Y-46292510D01*
X102379840Y-46101433D01*
X102487065Y-45890992D01*
X102560050Y-45666368D01*
X102579536Y-45543338D01*
X102596997Y-45433097D01*
X102596997Y-45196902D01*
X102560050Y-44963631D01*
X102507142Y-44800798D01*
X102487065Y-44739008D01*
X102487063Y-44739005D01*
X102487063Y-44739003D01*
X102379839Y-44528566D01*
X102241014Y-44337490D01*
X102074007Y-44170483D01*
X102014779Y-44127451D01*
X101972114Y-44072122D01*
X101964047Y-44017404D01*
X101965601Y-43997657D01*
X101234071Y-43266128D01*
X101293350Y-43250245D01*
X101409644Y-43183102D01*
X101504599Y-43088147D01*
X101571742Y-42971853D01*
X101587625Y-42912575D01*
X102319155Y-43644105D01*
X102319155Y-43644104D01*
X102379411Y-43561169D01*
X102379415Y-43561163D01*
X102433999Y-43454038D01*
X128745997Y-43454038D01*
X128745997Y-43705961D01*
X128785407Y-43954785D01*
X128863257Y-44194383D01*
X128977629Y-44418848D01*
X129125698Y-44622649D01*
X129125702Y-44622654D01*
X129303842Y-44800794D01*
X129303847Y-44800798D01*
X129481614Y-44929952D01*
X129507652Y-44948870D01*
X129650681Y-45021747D01*
X129732113Y-45063239D01*
X129732115Y-45063239D01*
X129732118Y-45063241D01*
X129971712Y-45141090D01*
X130220535Y-45180500D01*
X130220536Y-45180500D01*
X130472458Y-45180500D01*
X130472459Y-45180500D01*
X130721282Y-45141090D01*
X130960876Y-45063241D01*
X131185342Y-44948870D01*
X131389153Y-44800793D01*
X131567290Y-44622656D01*
X131715367Y-44418845D01*
X131829738Y-44194379D01*
X131907587Y-43954785D01*
X131946997Y-43705962D01*
X131946997Y-43454038D01*
X131907587Y-43205215D01*
X131829738Y-42965621D01*
X131829736Y-42965618D01*
X131829736Y-42965616D01*
X131732612Y-42775001D01*
X131715367Y-42741155D01*
X131654518Y-42657403D01*
X131567295Y-42537350D01*
X131567291Y-42537345D01*
X131389151Y-42359205D01*
X131389146Y-42359201D01*
X131185345Y-42211132D01*
X131185344Y-42211131D01*
X131185342Y-42211130D01*
X131115244Y-42175413D01*
X130960880Y-42096760D01*
X130721282Y-42018910D01*
X130472459Y-41979500D01*
X130220535Y-41979500D01*
X130096123Y-41999205D01*
X129971711Y-42018910D01*
X129732113Y-42096760D01*
X129507648Y-42211132D01*
X129303847Y-42359201D01*
X129303842Y-42359205D01*
X129125702Y-42537345D01*
X129125698Y-42537350D01*
X128977629Y-42741151D01*
X128863257Y-42965616D01*
X128785407Y-43205214D01*
X128745997Y-43454038D01*
X102433999Y-43454038D01*
X102465165Y-43392871D01*
X102486599Y-43350802D01*
X102559562Y-43126247D01*
X102596497Y-42893052D01*
X102596497Y-42656947D01*
X102559562Y-42423752D01*
X102486599Y-42199197D01*
X102379411Y-41988828D01*
X102319155Y-41905894D01*
X102319155Y-41905893D01*
X101587625Y-42637424D01*
X101571742Y-42578147D01*
X101504599Y-42461853D01*
X101409644Y-42366898D01*
X101293350Y-42299755D01*
X101234071Y-42283871D01*
X101965602Y-41552340D01*
X101964048Y-41532594D01*
X101978412Y-41464216D01*
X102014781Y-41422547D01*
X102074007Y-41379517D01*
X102241014Y-41212510D01*
X102379840Y-41021433D01*
X102487065Y-40810992D01*
X102560050Y-40586368D01*
X102596997Y-40353097D01*
X102596997Y-40116902D01*
X102560050Y-39883631D01*
X102487063Y-39659003D01*
X102379839Y-39448566D01*
X102241014Y-39257490D01*
X102074007Y-39090483D01*
X101882930Y-38951657D01*
X101672493Y-38844433D01*
X101447865Y-38771446D01*
X101214594Y-38734500D01*
X101214589Y-38734500D01*
X100978405Y-38734500D01*
X100978400Y-38734500D01*
X100745128Y-38771446D01*
X100520500Y-38844433D01*
X100310063Y-38951657D01*
X100253616Y-38992669D01*
X100118987Y-39090483D01*
X100118985Y-39090485D01*
X100118984Y-39090485D01*
X99951982Y-39257487D01*
X99951982Y-39257488D01*
X99951980Y-39257490D01*
X99892359Y-39339550D01*
X99813154Y-39448566D01*
X99705930Y-39659003D01*
X99632943Y-39883631D01*
X99595997Y-40116902D01*
X99595997Y-40353097D01*
X99632943Y-40586368D01*
X99705930Y-40810996D01*
X99813154Y-41021433D01*
X99951980Y-41212510D01*
X100118987Y-41379517D01*
X100178213Y-41422547D01*
X100220878Y-41477875D01*
X100228945Y-41532593D01*
X100227390Y-41552340D01*
X100958922Y-42283871D01*
X100899644Y-42299755D01*
X100783350Y-42366898D01*
X100688395Y-42461853D01*
X100621252Y-42578147D01*
X100605368Y-42637425D01*
X99873837Y-41905894D01*
X99813581Y-41988830D01*
X99706394Y-42199197D01*
X99633431Y-42423752D01*
X99596497Y-42656947D01*
X99596497Y-42893052D01*
X99633431Y-43126247D01*
X99706394Y-43350802D01*
X99813584Y-43561174D01*
X99873835Y-43644104D01*
X99873837Y-43644105D01*
X100605368Y-42912574D01*
X100621252Y-42971853D01*
X100688395Y-43088147D01*
X100783350Y-43183102D01*
X100899644Y-43250245D01*
X100958922Y-43266128D01*
X100227390Y-43997658D01*
X100228945Y-44017405D01*
X100214581Y-44085783D01*
X100178214Y-44127451D01*
X100118987Y-44170482D01*
X99951982Y-44337487D01*
X99951982Y-44337488D01*
X99951980Y-44337490D01*
X99892872Y-44418845D01*
X99813154Y-44528566D01*
X99705930Y-44739003D01*
X99632943Y-44963631D01*
X99595997Y-45196902D01*
X99595997Y-45433097D01*
X99632943Y-45666368D01*
X99705930Y-45890996D01*
X99813154Y-46101433D01*
X99951980Y-46292510D01*
X100118987Y-46459517D01*
X100153624Y-46484683D01*
X100196289Y-46540013D01*
X100202268Y-46609626D01*
X100169662Y-46671421D01*
X100153627Y-46685315D01*
X100135862Y-46698222D01*
X100118985Y-46710484D01*
X99951982Y-46877487D01*
X99951982Y-46877488D01*
X99951980Y-46877490D01*
X99892359Y-46959550D01*
X99813154Y-47068566D01*
X99705930Y-47279003D01*
X99632943Y-47503631D01*
X99595997Y-47736902D01*
X99595997Y-47973097D01*
X99632943Y-48206368D01*
X99705930Y-48430996D01*
X99750710Y-48518880D01*
X99813154Y-48641433D01*
X99951980Y-48832510D01*
X100118987Y-48999517D01*
X100153624Y-49024683D01*
X100196289Y-49080013D01*
X100202268Y-49149626D01*
X100169662Y-49211421D01*
X100153627Y-49225315D01*
X100135862Y-49238222D01*
X100118985Y-49250484D01*
X99951982Y-49417487D01*
X99951982Y-49417488D01*
X99951980Y-49417490D01*
X99892359Y-49499550D01*
X99813154Y-49608566D01*
X99705930Y-49819003D01*
X99632943Y-50043631D01*
X99595997Y-50276902D01*
X99595997Y-50513097D01*
X99632943Y-50746368D01*
X99705930Y-50970996D01*
X99813154Y-51181433D01*
X99951980Y-51372510D01*
X100118987Y-51539517D01*
X100153624Y-51564683D01*
X100196289Y-51620013D01*
X100202268Y-51689626D01*
X100169662Y-51751421D01*
X100153627Y-51765315D01*
X100135862Y-51778222D01*
X100118985Y-51790484D01*
X99951982Y-51957487D01*
X99951982Y-51957488D01*
X99951980Y-51957490D01*
X99946043Y-51965662D01*
X99813154Y-52148566D01*
X99705930Y-52359003D01*
X99632943Y-52583631D01*
X99595997Y-52816902D01*
X99595997Y-53053097D01*
X99632943Y-53286368D01*
X99705930Y-53510996D01*
X99802233Y-53700000D01*
X99813154Y-53721433D01*
X99951980Y-53912510D01*
X100118987Y-54079517D01*
X100153624Y-54104683D01*
X100196289Y-54160013D01*
X100202268Y-54229626D01*
X100169662Y-54291421D01*
X100153627Y-54305315D01*
X100135862Y-54318222D01*
X100118985Y-54330484D01*
X99951982Y-54497487D01*
X99951982Y-54497488D01*
X99951980Y-54497490D01*
X99892359Y-54579550D01*
X99813154Y-54688566D01*
X99705930Y-54899003D01*
X99632943Y-55123631D01*
X99595997Y-55356902D01*
X99595997Y-55593097D01*
X99632943Y-55826368D01*
X99705930Y-56050996D01*
X99737160Y-56112287D01*
X99813154Y-56261433D01*
X99951980Y-56452510D01*
X100118987Y-56619517D01*
X100153624Y-56644683D01*
X100196289Y-56700013D01*
X100202268Y-56769626D01*
X100169662Y-56831421D01*
X100153627Y-56845315D01*
X100135862Y-56858222D01*
X100118985Y-56870484D01*
X99951982Y-57037487D01*
X99951982Y-57037488D01*
X99951980Y-57037490D01*
X99892359Y-57119550D01*
X99813154Y-57228566D01*
X99705930Y-57439003D01*
X99632943Y-57663631D01*
X99595997Y-57896902D01*
X99595997Y-58133097D01*
X99632943Y-58366368D01*
X99705930Y-58590996D01*
X99812679Y-58800500D01*
X99813154Y-58801433D01*
X99951980Y-58992510D01*
X100118987Y-59159517D01*
X100153624Y-59184683D01*
X100196289Y-59240013D01*
X100202268Y-59309626D01*
X100169662Y-59371421D01*
X100153627Y-59385315D01*
X100142739Y-59393226D01*
X100118985Y-59410484D01*
X99951982Y-59577487D01*
X99951982Y-59577488D01*
X99951980Y-59577490D01*
X99892359Y-59659550D01*
X99813154Y-59768566D01*
X99705930Y-59979003D01*
X99632943Y-60203631D01*
X99595997Y-60436902D01*
X99595997Y-60673097D01*
X99632943Y-60906368D01*
X99705930Y-61130996D01*
X99813154Y-61341433D01*
X99951980Y-61532510D01*
X100118987Y-61699517D01*
X100153624Y-61724683D01*
X100196289Y-61780013D01*
X100202268Y-61849626D01*
X100169662Y-61911421D01*
X100153627Y-61925315D01*
X100135862Y-61938222D01*
X100118985Y-61950484D01*
X99951982Y-62117487D01*
X99951982Y-62117488D01*
X99951980Y-62117490D01*
X99939954Y-62134043D01*
X99813154Y-62308566D01*
X99705930Y-62519003D01*
X99632943Y-62743631D01*
X99595997Y-62976902D01*
X99595997Y-63213097D01*
X99632943Y-63446368D01*
X99705930Y-63670996D01*
X99798948Y-63853553D01*
X99813154Y-63881433D01*
X99951980Y-64072510D01*
X100118987Y-64239517D01*
X100153624Y-64264683D01*
X100196289Y-64320013D01*
X100202268Y-64389626D01*
X100169662Y-64451421D01*
X100153627Y-64465315D01*
X100135862Y-64478222D01*
X100118985Y-64490484D01*
X99951982Y-64657487D01*
X99951982Y-64657488D01*
X99951980Y-64657490D01*
X99896763Y-64733489D01*
X99813154Y-64848566D01*
X99705930Y-65059003D01*
X99632943Y-65283631D01*
X99595997Y-65516902D01*
X99595997Y-65753097D01*
X99632943Y-65986368D01*
X99705930Y-66210996D01*
X99805177Y-66405777D01*
X99813154Y-66421433D01*
X99951980Y-66612510D01*
X100118987Y-66779517D01*
X100153624Y-66804683D01*
X100196289Y-66860013D01*
X100202268Y-66929626D01*
X100169662Y-66991421D01*
X100153627Y-67005315D01*
X100135862Y-67018222D01*
X100118985Y-67030484D01*
X99951982Y-67197487D01*
X99951982Y-67197488D01*
X99951980Y-67197490D01*
X99892359Y-67279550D01*
X99813154Y-67388566D01*
X99705930Y-67599003D01*
X99632943Y-67823631D01*
X99595997Y-68056902D01*
X99595997Y-68293097D01*
X99632943Y-68526368D01*
X99705930Y-68750996D01*
X99786798Y-68909707D01*
X99813154Y-68961433D01*
X99951980Y-69152510D01*
X100118987Y-69319517D01*
X100153624Y-69344683D01*
X100196289Y-69400013D01*
X100202268Y-69469626D01*
X100169662Y-69531421D01*
X100153627Y-69545315D01*
X100135862Y-69558222D01*
X100118985Y-69570484D01*
X99951982Y-69737487D01*
X99951982Y-69737488D01*
X99951980Y-69737490D01*
X99907165Y-69799172D01*
X99813154Y-69928566D01*
X99705930Y-70139003D01*
X99632943Y-70363631D01*
X99595997Y-70596902D01*
X99595997Y-70833097D01*
X99632943Y-71066368D01*
X99705930Y-71290996D01*
X99813154Y-71501433D01*
X99951980Y-71692510D01*
X100118987Y-71859517D01*
X100153624Y-71884683D01*
X100196289Y-71940013D01*
X100202268Y-72009626D01*
X100169662Y-72071421D01*
X100153627Y-72085315D01*
X100135862Y-72098222D01*
X100118985Y-72110484D01*
X99951982Y-72277487D01*
X99951982Y-72277488D01*
X99951980Y-72277490D01*
X99912600Y-72331692D01*
X99813154Y-72468566D01*
X99705930Y-72679003D01*
X99632943Y-72903631D01*
X99595997Y-73136902D01*
X99595997Y-73373097D01*
X99632943Y-73606368D01*
X99705930Y-73830996D01*
X99797042Y-74009812D01*
X99813154Y-74041433D01*
X99951980Y-74232510D01*
X100118987Y-74399517D01*
X100153624Y-74424683D01*
X100196289Y-74480013D01*
X100202268Y-74549626D01*
X100169662Y-74611421D01*
X100153627Y-74625315D01*
X100135862Y-74638222D01*
X100118985Y-74650484D01*
X99951982Y-74817487D01*
X99951982Y-74817488D01*
X99951980Y-74817490D01*
X99922642Y-74857870D01*
X99813154Y-75008566D01*
X99705930Y-75219003D01*
X99632943Y-75443631D01*
X99595997Y-75676902D01*
X99595997Y-75913097D01*
X99632943Y-76146368D01*
X99705930Y-76370996D01*
X99813154Y-76581433D01*
X99951980Y-76772510D01*
X100118987Y-76939517D01*
X100310064Y-77078343D01*
X100409488Y-77129002D01*
X100520500Y-77185566D01*
X100520502Y-77185566D01*
X100520505Y-77185568D01*
X100665159Y-77232569D01*
X100722834Y-77272007D01*
X100750032Y-77336366D01*
X100738117Y-77405212D01*
X100690873Y-77456688D01*
X100626840Y-77474500D01*
X100511755Y-77474500D01*
X100295971Y-77502910D01*
X100284259Y-77504452D01*
X100190573Y-77529554D01*
X100062609Y-77563842D01*
X99850620Y-77651650D01*
X99850606Y-77651657D01*
X99651879Y-77766392D01*
X99469835Y-77906081D01*
X99307578Y-78068338D01*
X99167889Y-78250382D01*
X99053154Y-78449109D01*
X99053147Y-78449123D01*
X98965339Y-78661112D01*
X98905950Y-78882759D01*
X98905948Y-78882770D01*
X98875997Y-79110258D01*
X97176497Y-79110258D01*
X97176497Y-74735000D01*
X79486497Y-74735000D01*
X79486497Y-81225000D01*
X71115731Y-81225000D01*
X75092934Y-77247796D01*
X75154255Y-77214313D01*
X75218930Y-77217547D01*
X75345129Y-77258553D01*
X75430075Y-77272007D01*
X75578400Y-77295500D01*
X75612205Y-77295500D01*
X75679244Y-77315185D01*
X75724999Y-77367989D01*
X75734943Y-77437147D01*
X75705918Y-77500703D01*
X75647140Y-77538477D01*
X75644332Y-77539265D01*
X75586915Y-77554649D01*
X75552609Y-77563842D01*
X75340620Y-77651650D01*
X75340606Y-77651657D01*
X75141879Y-77766392D01*
X74959835Y-77906081D01*
X74797578Y-78068338D01*
X74657889Y-78250382D01*
X74543154Y-78449109D01*
X74543147Y-78449123D01*
X74455339Y-78661112D01*
X74395950Y-78882759D01*
X74395948Y-78882770D01*
X74365997Y-79110258D01*
X74365997Y-79339741D01*
X74387097Y-79499999D01*
X74395949Y-79567238D01*
X74411484Y-79625215D01*
X74455339Y-79788887D01*
X74543147Y-80000876D01*
X74543153Y-80000888D01*
X74647342Y-80181350D01*
X74657889Y-80199617D01*
X74797578Y-80381661D01*
X74797586Y-80381670D01*
X74959827Y-80543911D01*
X74959835Y-80543918D01*
X75141879Y-80683607D01*
X75141882Y-80683608D01*
X75141885Y-80683611D01*
X75340609Y-80798344D01*
X75340614Y-80798346D01*
X75340620Y-80798349D01*
X75431977Y-80836190D01*
X75552610Y-80886158D01*
X75774259Y-80945548D01*
X76001763Y-80975500D01*
X76001770Y-80975500D01*
X76231224Y-80975500D01*
X76231231Y-80975500D01*
X76458735Y-80945548D01*
X76680384Y-80886158D01*
X76892385Y-80798344D01*
X77091109Y-80683611D01*
X77273158Y-80543919D01*
X77273162Y-80543914D01*
X77273167Y-80543911D01*
X77435408Y-80381670D01*
X77435411Y-80381665D01*
X77435416Y-80381661D01*
X77575108Y-80199612D01*
X77689841Y-80000888D01*
X77777655Y-79788887D01*
X77837045Y-79567238D01*
X77866997Y-79339734D01*
X77866997Y-79110266D01*
X77837045Y-78882762D01*
X77777655Y-78661113D01*
X77717862Y-78516760D01*
X77689846Y-78449123D01*
X77689843Y-78449117D01*
X77689841Y-78449112D01*
X77575108Y-78250388D01*
X77575105Y-78250385D01*
X77575104Y-78250382D01*
X77435415Y-78068338D01*
X77435408Y-78068330D01*
X77273167Y-77906089D01*
X77273158Y-77906081D01*
X77091114Y-77766392D01*
X76892387Y-77651657D01*
X76892373Y-77651650D01*
X76680384Y-77563842D01*
X76458735Y-77504452D01*
X76420712Y-77499446D01*
X76231238Y-77474500D01*
X76231231Y-77474500D01*
X76166154Y-77474500D01*
X76099115Y-77454815D01*
X76053360Y-77402011D01*
X76043416Y-77332853D01*
X76072441Y-77269297D01*
X76127835Y-77232569D01*
X76272489Y-77185568D01*
X76482930Y-77078343D01*
X76674007Y-76939517D01*
X76841014Y-76772510D01*
X76979840Y-76581433D01*
X77087065Y-76370992D01*
X77160050Y-76146368D01*
X77196997Y-75913097D01*
X77196997Y-75676902D01*
X77160050Y-75443631D01*
X77114549Y-75303596D01*
X77087065Y-75219008D01*
X77087063Y-75219005D01*
X77087063Y-75219003D01*
X77002137Y-75052328D01*
X76979840Y-75008567D01*
X76841014Y-74817490D01*
X76674007Y-74650483D01*
X76633252Y-74620872D01*
X76627727Y-74615725D01*
X76613608Y-74591911D01*
X76596704Y-74569989D01*
X76596041Y-74562279D01*
X76592096Y-74555624D01*
X76593093Y-74527954D01*
X76590725Y-74500375D01*
X76594335Y-74493532D01*
X76594614Y-74485799D01*
X76610411Y-74463063D01*
X76623330Y-74438580D01*
X76633618Y-74429665D01*
X76634483Y-74428421D01*
X76635577Y-74427968D01*
X76639370Y-74424682D01*
X76674007Y-74399517D01*
X76841014Y-74232510D01*
X76979840Y-74041433D01*
X77087065Y-73830992D01*
X77160050Y-73606368D01*
X77164410Y-73578842D01*
X77196997Y-73373097D01*
X77196997Y-73136902D01*
X77160050Y-72903631D01*
X77123326Y-72790609D01*
X77087065Y-72679008D01*
X77087063Y-72679005D01*
X77087063Y-72679003D01*
X76979839Y-72468566D01*
X76841014Y-72277490D01*
X76674007Y-72110483D01*
X76639369Y-72085317D01*
X76596704Y-72029989D01*
X76590725Y-71960375D01*
X76623330Y-71898580D01*
X76639370Y-71884682D01*
X76674007Y-71859517D01*
X76841014Y-71692510D01*
X76979840Y-71501433D01*
X77087065Y-71290992D01*
X77160050Y-71066368D01*
X77196997Y-70833097D01*
X77196997Y-70596902D01*
X77160050Y-70363631D01*
X77103548Y-70189737D01*
X77087065Y-70139008D01*
X77087063Y-70139005D01*
X77087063Y-70139003D01*
X76983118Y-69935001D01*
X76979840Y-69928567D01*
X76841014Y-69737490D01*
X76674007Y-69570483D01*
X76639369Y-69545317D01*
X76596704Y-69489989D01*
X76590725Y-69420375D01*
X76623330Y-69358580D01*
X76639370Y-69344682D01*
X76674007Y-69319517D01*
X76841014Y-69152510D01*
X76979840Y-68961433D01*
X77087065Y-68750992D01*
X77160050Y-68526368D01*
X77196997Y-68293097D01*
X77196997Y-68056902D01*
X77160050Y-67823631D01*
X77087063Y-67599003D01*
X76979839Y-67388566D01*
X76841014Y-67197490D01*
X76674007Y-67030483D01*
X76639369Y-67005317D01*
X76596704Y-66949989D01*
X76590725Y-66880375D01*
X76623330Y-66818580D01*
X76639370Y-66804682D01*
X76674007Y-66779517D01*
X76841014Y-66612510D01*
X76979840Y-66421433D01*
X77087065Y-66210992D01*
X77160050Y-65986368D01*
X77184092Y-65834573D01*
X77196997Y-65753097D01*
X77196997Y-65516902D01*
X77160050Y-65283631D01*
X77111696Y-65134814D01*
X77087065Y-65059008D01*
X77087063Y-65059005D01*
X77087063Y-65059003D01*
X77016824Y-64921153D01*
X76979840Y-64848567D01*
X76841014Y-64657490D01*
X76674007Y-64490483D01*
X76672944Y-64489711D01*
X76639370Y-64465318D01*
X76596704Y-64409989D01*
X76590725Y-64340375D01*
X76623330Y-64278580D01*
X76639370Y-64264682D01*
X76674007Y-64239517D01*
X76841014Y-64072510D01*
X76950982Y-63921153D01*
X78045997Y-63921153D01*
X78045997Y-64078846D01*
X78076758Y-64233489D01*
X78076761Y-64233501D01*
X78137099Y-64379172D01*
X78137106Y-64379185D01*
X78225099Y-64510874D01*
X78245977Y-64577551D01*
X78245997Y-64579765D01*
X78245997Y-66420234D01*
X78226312Y-66487273D01*
X78225099Y-66489125D01*
X78137106Y-66620814D01*
X78137099Y-66620827D01*
X78076761Y-66766498D01*
X78076758Y-66766510D01*
X78045997Y-66921153D01*
X78045997Y-67078846D01*
X78076758Y-67233489D01*
X78076761Y-67233501D01*
X78137099Y-67379172D01*
X78137106Y-67379185D01*
X78224707Y-67510288D01*
X78224710Y-67510292D01*
X78336204Y-67621786D01*
X78336208Y-67621789D01*
X78467311Y-67709390D01*
X78467324Y-67709397D01*
X78612995Y-67769735D01*
X78613000Y-67769737D01*
X78767650Y-67800499D01*
X78767653Y-67800500D01*
X78767655Y-67800500D01*
X78925341Y-67800500D01*
X78925342Y-67800499D01*
X79079994Y-67769737D01*
X79225676Y-67709394D01*
X79356786Y-67621789D01*
X79468286Y-67510289D01*
X79555891Y-67379179D01*
X79616234Y-67233497D01*
X79646997Y-67078842D01*
X79646997Y-66921158D01*
X79646997Y-66921155D01*
X79646996Y-66921153D01*
X79618823Y-66779519D01*
X79616234Y-66766503D01*
X79575673Y-66668579D01*
X79555894Y-66620827D01*
X79555887Y-66620814D01*
X79467895Y-66489125D01*
X79447017Y-66422447D01*
X79446997Y-66420234D01*
X79446997Y-64579765D01*
X79466682Y-64512726D01*
X79467895Y-64510874D01*
X79475156Y-64500008D01*
X79555891Y-64379179D01*
X79616234Y-64233497D01*
X79646997Y-64078842D01*
X79646997Y-63921158D01*
X79646997Y-63921155D01*
X79646996Y-63921153D01*
X79639095Y-63881433D01*
X79616234Y-63766503D01*
X79601773Y-63731591D01*
X79555894Y-63620827D01*
X79555887Y-63620814D01*
X79468286Y-63489711D01*
X79468283Y-63489707D01*
X79356789Y-63378213D01*
X79356785Y-63378210D01*
X79225682Y-63290609D01*
X79225669Y-63290602D01*
X79079998Y-63230264D01*
X79079986Y-63230261D01*
X78925342Y-63199500D01*
X78925339Y-63199500D01*
X78767655Y-63199500D01*
X78767652Y-63199500D01*
X78613007Y-63230261D01*
X78612995Y-63230264D01*
X78467324Y-63290602D01*
X78467311Y-63290609D01*
X78336208Y-63378210D01*
X78336204Y-63378213D01*
X78224710Y-63489707D01*
X78224707Y-63489711D01*
X78137106Y-63620814D01*
X78137099Y-63620827D01*
X78076761Y-63766498D01*
X78076758Y-63766510D01*
X78045997Y-63921153D01*
X76950982Y-63921153D01*
X76979840Y-63881433D01*
X76986477Y-63868408D01*
X76991388Y-63858770D01*
X77087063Y-63670996D01*
X77087063Y-63670995D01*
X77087065Y-63670992D01*
X77160050Y-63446368D01*
X77196997Y-63213097D01*
X77196997Y-62976902D01*
X77160050Y-62743631D01*
X77126186Y-62639412D01*
X77087065Y-62519008D01*
X77087063Y-62519005D01*
X77087063Y-62519003D01*
X76979839Y-62308566D01*
X76923241Y-62230666D01*
X76841014Y-62117490D01*
X76674007Y-61950483D01*
X76639369Y-61925317D01*
X76596704Y-61869989D01*
X76590725Y-61800375D01*
X76623330Y-61738580D01*
X76639370Y-61724682D01*
X76674007Y-61699517D01*
X76841014Y-61532510D01*
X76979840Y-61341433D01*
X77087065Y-61130992D01*
X77160050Y-60906368D01*
X77196997Y-60673097D01*
X77196997Y-60436902D01*
X77160050Y-60203631D01*
X77096335Y-60007538D01*
X77087065Y-59979008D01*
X77087063Y-59979005D01*
X77087063Y-59979003D01*
X76979839Y-59768566D01*
X76952010Y-59730263D01*
X76841014Y-59577490D01*
X76674007Y-59410483D01*
X76639369Y-59385317D01*
X76596704Y-59329989D01*
X76590725Y-59260375D01*
X76623330Y-59198580D01*
X76639370Y-59184682D01*
X76674007Y-59159517D01*
X76841014Y-58992510D01*
X76979840Y-58801433D01*
X77087065Y-58590992D01*
X77160050Y-58366368D01*
X77181096Y-58233489D01*
X77196997Y-58133097D01*
X77196997Y-57896902D01*
X77160050Y-57663631D01*
X77087063Y-57439003D01*
X77011448Y-57290602D01*
X76979840Y-57228567D01*
X76841014Y-57037490D01*
X76674007Y-56870483D01*
X76639369Y-56845317D01*
X76596704Y-56789989D01*
X76590725Y-56720375D01*
X76623330Y-56658580D01*
X76639370Y-56644682D01*
X76674007Y-56619517D01*
X76841014Y-56452510D01*
X76979840Y-56261433D01*
X77087065Y-56050992D01*
X77160050Y-55826368D01*
X77182977Y-55681613D01*
X77196997Y-55593097D01*
X77196997Y-55356902D01*
X77160050Y-55123631D01*
X77102769Y-54947339D01*
X77087065Y-54899008D01*
X77087063Y-54899005D01*
X77087063Y-54899003D01*
X77030499Y-54787991D01*
X76979840Y-54688567D01*
X76841014Y-54497490D01*
X76674007Y-54330483D01*
X76639369Y-54305317D01*
X76596704Y-54249989D01*
X76590725Y-54180375D01*
X76623330Y-54118580D01*
X76639370Y-54104682D01*
X76674007Y-54079517D01*
X76841014Y-53912510D01*
X76979840Y-53721433D01*
X77087065Y-53510992D01*
X77160050Y-53286368D01*
X77162884Y-53268477D01*
X77196997Y-53053097D01*
X77196997Y-52816902D01*
X77160050Y-52583631D01*
X77087063Y-52359003D01*
X76979839Y-52148566D01*
X76841014Y-51957490D01*
X76674007Y-51790483D01*
X76639369Y-51765317D01*
X76596704Y-51709989D01*
X76590725Y-51640375D01*
X76623330Y-51578580D01*
X76639370Y-51564682D01*
X76674007Y-51539517D01*
X76841014Y-51372510D01*
X76979840Y-51181433D01*
X77087065Y-50970992D01*
X77160050Y-50746368D01*
X77175234Y-50650499D01*
X77196997Y-50513097D01*
X77196997Y-50276902D01*
X77160050Y-50043631D01*
X77087063Y-49819003D01*
X76979839Y-49608566D01*
X76927625Y-49536700D01*
X76841014Y-49417490D01*
X76674007Y-49250483D01*
X76639369Y-49225317D01*
X76596704Y-49169989D01*
X76590725Y-49100375D01*
X76623330Y-49038580D01*
X76639370Y-49024682D01*
X76674007Y-48999517D01*
X76841014Y-48832510D01*
X76979840Y-48641433D01*
X77087065Y-48430992D01*
X77160050Y-48206368D01*
X77189739Y-48018919D01*
X77196997Y-47973097D01*
X77196997Y-47736902D01*
X77160050Y-47503631D01*
X77103032Y-47328149D01*
X77087065Y-47279008D01*
X77087063Y-47279005D01*
X77087063Y-47279003D01*
X76979839Y-47068566D01*
X76960712Y-47042240D01*
X76841014Y-46877490D01*
X76674007Y-46710483D01*
X76639369Y-46685317D01*
X76596704Y-46629989D01*
X76590725Y-46560375D01*
X76623330Y-46498580D01*
X76639370Y-46484682D01*
X76674007Y-46459517D01*
X76841014Y-46292510D01*
X76979840Y-46101433D01*
X77087065Y-45890992D01*
X77160050Y-45666368D01*
X77179536Y-45543338D01*
X77196997Y-45433097D01*
X77196997Y-45196902D01*
X77160050Y-44963631D01*
X77107142Y-44800798D01*
X77087065Y-44739008D01*
X77087063Y-44739005D01*
X77087063Y-44739003D01*
X76979839Y-44528566D01*
X76841014Y-44337490D01*
X76674007Y-44170483D01*
X76614779Y-44127451D01*
X76572114Y-44072122D01*
X76564047Y-44017404D01*
X76565601Y-43997657D01*
X75834071Y-43266128D01*
X75893350Y-43250245D01*
X76009644Y-43183102D01*
X76104599Y-43088147D01*
X76171742Y-42971853D01*
X76187625Y-42912575D01*
X76919155Y-43644105D01*
X76919155Y-43644104D01*
X76979411Y-43561169D01*
X76979415Y-43561163D01*
X77086599Y-43350802D01*
X77159562Y-43126247D01*
X77196497Y-42893052D01*
X77196497Y-42656947D01*
X77159562Y-42423752D01*
X77086599Y-42199197D01*
X76979411Y-41988828D01*
X76889461Y-41865023D01*
X76865981Y-41799216D01*
X76881806Y-41731162D01*
X76931137Y-41683220D01*
X76931043Y-41683047D01*
X76931666Y-41682706D01*
X76931912Y-41682468D01*
X76932977Y-41681990D01*
X76938823Y-41678797D01*
X76938828Y-41678796D01*
X77054043Y-41592546D01*
X77140293Y-41477331D01*
X77190588Y-41342483D01*
X77196997Y-41282873D01*
X77196996Y-39187128D01*
X77190588Y-39127517D01*
X77176775Y-39090483D01*
X77140294Y-38992671D01*
X77140290Y-38992664D01*
X77054044Y-38877455D01*
X77054041Y-38877452D01*
X76938832Y-38791206D01*
X76938825Y-38791202D01*
X76803979Y-38740908D01*
X76803980Y-38740908D01*
X76744380Y-38734501D01*
X76744378Y-38734500D01*
X76744370Y-38734500D01*
X76744361Y-38734500D01*
X74648626Y-38734500D01*
X74648620Y-38734501D01*
X74589013Y-38740908D01*
X74454168Y-38791202D01*
X74454161Y-38791206D01*
X74338952Y-38877452D01*
X74338949Y-38877455D01*
X74252703Y-38992664D01*
X74252699Y-38992671D01*
X74202405Y-39127517D01*
X74195998Y-39187116D01*
X74195998Y-39187123D01*
X74195997Y-39187135D01*
X74195997Y-41282870D01*
X74195998Y-41282876D01*
X74202405Y-41342483D01*
X74252699Y-41477328D01*
X74252703Y-41477335D01*
X74338949Y-41592544D01*
X74338952Y-41592547D01*
X74454161Y-41678793D01*
X74461951Y-41683047D01*
X74460222Y-41686211D01*
X74502412Y-41717734D01*
X74526890Y-41783175D01*
X74512101Y-41851462D01*
X74503533Y-41865021D01*
X74413581Y-41988829D01*
X74306394Y-42199197D01*
X74233431Y-42423752D01*
X74196497Y-42656947D01*
X74196497Y-42893052D01*
X74233431Y-43126247D01*
X74306394Y-43350802D01*
X74413584Y-43561174D01*
X74473835Y-43644104D01*
X74473837Y-43644105D01*
X75205368Y-42912574D01*
X75221252Y-42971853D01*
X75288395Y-43088147D01*
X75383350Y-43183102D01*
X75499644Y-43250245D01*
X75558922Y-43266128D01*
X74827390Y-43997658D01*
X74828945Y-44017405D01*
X74814581Y-44085783D01*
X74778214Y-44127451D01*
X74718987Y-44170482D01*
X74551982Y-44337487D01*
X74551982Y-44337488D01*
X74551980Y-44337490D01*
X74492872Y-44418845D01*
X74413154Y-44528566D01*
X74305930Y-44739003D01*
X74232943Y-44963631D01*
X74195997Y-45196902D01*
X74195997Y-45433097D01*
X74232943Y-45666368D01*
X74305930Y-45890996D01*
X74413154Y-46101433D01*
X74551980Y-46292510D01*
X74718987Y-46459517D01*
X74753624Y-46484683D01*
X74796289Y-46540013D01*
X74802268Y-46609626D01*
X74769662Y-46671421D01*
X74753627Y-46685315D01*
X74735862Y-46698222D01*
X74718985Y-46710484D01*
X74551982Y-46877487D01*
X74551982Y-46877488D01*
X74551980Y-46877490D01*
X74492359Y-46959550D01*
X74413154Y-47068566D01*
X74305930Y-47279003D01*
X74232943Y-47503631D01*
X74195997Y-47736902D01*
X74195997Y-47973097D01*
X74232943Y-48206368D01*
X74305930Y-48430996D01*
X74350710Y-48518880D01*
X74413154Y-48641433D01*
X74551980Y-48832510D01*
X74718987Y-48999517D01*
X74753624Y-49024683D01*
X74796289Y-49080013D01*
X74802268Y-49149626D01*
X74769662Y-49211421D01*
X74753627Y-49225315D01*
X74735862Y-49238222D01*
X74718985Y-49250484D01*
X74551982Y-49417487D01*
X74551982Y-49417488D01*
X74551980Y-49417490D01*
X74492359Y-49499550D01*
X74413154Y-49608566D01*
X74305930Y-49819003D01*
X74232943Y-50043631D01*
X74195997Y-50276902D01*
X74195997Y-50513097D01*
X74232943Y-50746368D01*
X74305930Y-50970996D01*
X74413154Y-51181433D01*
X74551980Y-51372510D01*
X74718987Y-51539517D01*
X74753624Y-51564683D01*
X74796289Y-51620013D01*
X74802268Y-51689626D01*
X74769662Y-51751421D01*
X74753627Y-51765315D01*
X74735862Y-51778222D01*
X74718985Y-51790484D01*
X74551982Y-51957487D01*
X74551982Y-51957488D01*
X74551980Y-51957490D01*
X74546043Y-51965662D01*
X74413154Y-52148566D01*
X74305930Y-52359003D01*
X74232943Y-52583631D01*
X74195997Y-52816902D01*
X74195997Y-53053097D01*
X74232943Y-53286368D01*
X74305930Y-53510996D01*
X74402233Y-53700000D01*
X74413154Y-53721433D01*
X74551980Y-53912510D01*
X74718987Y-54079517D01*
X74753624Y-54104683D01*
X74796289Y-54160013D01*
X74802268Y-54229626D01*
X74769662Y-54291421D01*
X74753627Y-54305315D01*
X74735862Y-54318222D01*
X74718985Y-54330484D01*
X74551982Y-54497487D01*
X74551982Y-54497488D01*
X74551980Y-54497490D01*
X74492359Y-54579550D01*
X74413154Y-54688566D01*
X74305930Y-54899003D01*
X74232943Y-55123631D01*
X74195997Y-55356902D01*
X74195997Y-55593097D01*
X74232943Y-55826368D01*
X74305930Y-56050996D01*
X74337160Y-56112287D01*
X74413154Y-56261433D01*
X74551980Y-56452510D01*
X74718987Y-56619517D01*
X74753624Y-56644683D01*
X74796289Y-56700013D01*
X74802268Y-56769626D01*
X74769662Y-56831421D01*
X74753627Y-56845315D01*
X74735862Y-56858222D01*
X74718985Y-56870484D01*
X74551982Y-57037487D01*
X74551982Y-57037488D01*
X74551980Y-57037490D01*
X74492359Y-57119550D01*
X74413154Y-57228566D01*
X74305930Y-57439003D01*
X74232943Y-57663631D01*
X74195997Y-57896902D01*
X74195997Y-58133097D01*
X74232943Y-58366368D01*
X74305930Y-58590996D01*
X74412679Y-58800500D01*
X74413154Y-58801433D01*
X74551980Y-58992510D01*
X74718987Y-59159517D01*
X74753624Y-59184683D01*
X74796289Y-59240013D01*
X74802268Y-59309626D01*
X74769662Y-59371421D01*
X74753627Y-59385315D01*
X74742739Y-59393226D01*
X74718985Y-59410484D01*
X74551982Y-59577487D01*
X74551982Y-59577488D01*
X74551980Y-59577490D01*
X74492359Y-59659550D01*
X74413154Y-59768566D01*
X74305930Y-59979003D01*
X74232943Y-60203631D01*
X74195997Y-60436902D01*
X74195997Y-60673097D01*
X74232944Y-60906369D01*
X74232944Y-60906372D01*
X74273947Y-61032564D01*
X74275942Y-61102405D01*
X74243697Y-61158563D01*
X71737970Y-63664291D01*
X71676647Y-63697776D01*
X71673617Y-63698253D01*
X71673629Y-63698311D01*
X71513007Y-63730261D01*
X71512995Y-63730264D01*
X71367324Y-63790602D01*
X71367311Y-63790609D01*
X71236208Y-63878210D01*
X71236204Y-63878213D01*
X71124710Y-63989707D01*
X71124707Y-63989711D01*
X71037106Y-64120814D01*
X71037099Y-64120827D01*
X70976761Y-64266498D01*
X70976758Y-64266510D01*
X70945997Y-64421153D01*
X70945997Y-64578846D01*
X70976758Y-64733489D01*
X70976761Y-64733501D01*
X71030421Y-64863048D01*
X71037890Y-64932517D01*
X71006615Y-64994996D01*
X70946526Y-65030648D01*
X70915860Y-65034500D01*
X68781595Y-65034500D01*
X68752154Y-65025855D01*
X68722168Y-65019332D01*
X68717152Y-65015577D01*
X68714556Y-65014815D01*
X68693914Y-64998181D01*
X68681070Y-64985337D01*
X68647585Y-64924014D01*
X68647134Y-64921847D01*
X68636017Y-64865957D01*
X68616234Y-64766503D01*
X68616231Y-64766496D01*
X68616230Y-64766492D01*
X68555894Y-64620827D01*
X68555887Y-64620814D01*
X68468286Y-64489711D01*
X68468283Y-64489707D01*
X68356789Y-64378213D01*
X68356785Y-64378210D01*
X68225682Y-64290609D01*
X68225669Y-64290602D01*
X68079998Y-64230264D01*
X68079986Y-64230261D01*
X67925342Y-64199500D01*
X67925339Y-64199500D01*
X67767655Y-64199500D01*
X67767652Y-64199500D01*
X67613007Y-64230261D01*
X67612995Y-64230264D01*
X67467324Y-64290602D01*
X67467311Y-64290609D01*
X67336208Y-64378210D01*
X67336204Y-64378213D01*
X67224710Y-64489707D01*
X67224707Y-64489711D01*
X67137106Y-64620814D01*
X67137099Y-64620827D01*
X67076764Y-64766492D01*
X67076758Y-64766510D01*
X67045997Y-64921153D01*
X67045997Y-65078846D01*
X67076758Y-65233489D01*
X67076761Y-65233501D01*
X67137099Y-65379172D01*
X67137106Y-65379185D01*
X67224707Y-65510288D01*
X67224710Y-65510292D01*
X67336204Y-65621786D01*
X67336208Y-65621789D01*
X67467311Y-65709390D01*
X67467324Y-65709397D01*
X67572827Y-65753097D01*
X67613000Y-65769737D01*
X67767655Y-65800500D01*
X67768344Y-65800637D01*
X67830255Y-65833022D01*
X67831834Y-65834573D01*
X68112781Y-66115520D01*
X68112783Y-66115521D01*
X68112787Y-66115524D01*
X68148302Y-66136028D01*
X68249713Y-66194577D01*
X68402440Y-66235501D01*
X68402442Y-66235501D01*
X68568151Y-66235501D01*
X68568167Y-66235500D01*
X74242429Y-66235500D01*
X74309468Y-66255185D01*
X74352913Y-66303203D01*
X74413154Y-66421433D01*
X74551980Y-66612510D01*
X74718987Y-66779517D01*
X74753624Y-66804683D01*
X74796289Y-66860013D01*
X74802268Y-66929626D01*
X74769662Y-66991421D01*
X74753627Y-67005315D01*
X74735862Y-67018222D01*
X74718985Y-67030484D01*
X74551982Y-67197487D01*
X74551982Y-67197488D01*
X74551980Y-67197490D01*
X74492359Y-67279550D01*
X74413154Y-67388566D01*
X74305930Y-67599003D01*
X74232943Y-67823631D01*
X74195997Y-68056902D01*
X74195997Y-68293097D01*
X74232943Y-68526368D01*
X74305930Y-68750996D01*
X74386798Y-68909707D01*
X74413154Y-68961433D01*
X74551980Y-69152510D01*
X74718987Y-69319517D01*
X74753624Y-69344683D01*
X74796289Y-69400013D01*
X74802268Y-69469626D01*
X74769662Y-69531421D01*
X74753627Y-69545315D01*
X74735862Y-69558222D01*
X74718985Y-69570484D01*
X74551982Y-69737487D01*
X74551982Y-69737488D01*
X74551980Y-69737490D01*
X74507165Y-69799172D01*
X74413154Y-69928566D01*
X74305930Y-70139003D01*
X74232943Y-70363631D01*
X74195997Y-70596902D01*
X74195997Y-70833097D01*
X74232943Y-71066368D01*
X74305930Y-71290996D01*
X74413154Y-71501433D01*
X74551980Y-71692510D01*
X74718987Y-71859517D01*
X74753624Y-71884683D01*
X74796289Y-71940013D01*
X74802268Y-72009626D01*
X74769662Y-72071421D01*
X74753627Y-72085315D01*
X74735862Y-72098222D01*
X74718985Y-72110484D01*
X74551982Y-72277487D01*
X74551982Y-72277488D01*
X74551980Y-72277490D01*
X74512600Y-72331692D01*
X74413154Y-72468566D01*
X74352914Y-72586795D01*
X74304939Y-72637591D01*
X74242429Y-72654500D01*
X72512440Y-72654500D01*
X72359717Y-72695421D01*
X72359712Y-72695422D01*
X72359712Y-72695423D01*
X72352651Y-72699500D01*
X72352646Y-72699503D01*
X72352645Y-72699502D01*
X72222784Y-72774477D01*
X72222779Y-72774481D01*
X72110975Y-72886286D01*
X71834081Y-73163181D01*
X71772758Y-73196666D01*
X71746400Y-73199500D01*
X71667652Y-73199500D01*
X71513007Y-73230261D01*
X71512995Y-73230264D01*
X71367324Y-73290602D01*
X71367311Y-73290609D01*
X71236208Y-73378210D01*
X71236204Y-73378213D01*
X71124710Y-73489707D01*
X71124707Y-73489711D01*
X71037106Y-73620814D01*
X71037099Y-73620827D01*
X70976761Y-73766498D01*
X70976758Y-73766510D01*
X70945997Y-73921153D01*
X70945997Y-74078846D01*
X70976758Y-74233489D01*
X70976761Y-74233501D01*
X71037099Y-74379172D01*
X71037106Y-74379185D01*
X71124707Y-74510288D01*
X71124710Y-74510292D01*
X71236204Y-74621786D01*
X71236208Y-74621789D01*
X71367311Y-74709390D01*
X71367324Y-74709397D01*
X71512995Y-74769735D01*
X71513000Y-74769737D01*
X71667650Y-74800499D01*
X71667653Y-74800500D01*
X71667655Y-74800500D01*
X71825341Y-74800500D01*
X71825342Y-74800499D01*
X71979994Y-74769737D01*
X72125676Y-74709394D01*
X72256786Y-74621789D01*
X72368286Y-74510289D01*
X72455891Y-74379179D01*
X72516234Y-74233497D01*
X72522304Y-74202979D01*
X72554688Y-74141070D01*
X72556240Y-74139491D01*
X72803913Y-73891819D01*
X72865236Y-73858334D01*
X72891594Y-73855500D01*
X74242429Y-73855500D01*
X74309468Y-73875185D01*
X74352913Y-73923203D01*
X74413154Y-74041433D01*
X74551980Y-74232510D01*
X74718987Y-74399517D01*
X74753624Y-74424683D01*
X74796289Y-74480013D01*
X74802268Y-74549626D01*
X74769662Y-74611421D01*
X74753627Y-74625315D01*
X74735862Y-74638222D01*
X74718985Y-74650484D01*
X74551982Y-74817487D01*
X74551982Y-74817488D01*
X74551980Y-74817490D01*
X74522642Y-74857870D01*
X74413154Y-75008566D01*
X74305930Y-75219003D01*
X74232943Y-75443631D01*
X74195997Y-75676902D01*
X74195997Y-75913097D01*
X74232944Y-76146369D01*
X74232944Y-76146372D01*
X74273947Y-76272564D01*
X74275942Y-76342405D01*
X74243697Y-76398563D01*
X65530571Y-85111689D01*
X65469248Y-85145174D01*
X65399556Y-85140190D01*
X65386603Y-85134496D01*
X65364909Y-85123443D01*
X65162740Y-85057754D01*
X65162738Y-85057753D01*
X65162737Y-85057753D01*
X65001454Y-85032208D01*
X64952784Y-85024500D01*
X64740210Y-85024500D01*
X64691539Y-85032208D01*
X64530257Y-85057753D01*
X64328082Y-85123444D01*
X64138676Y-85219951D01*
X63966710Y-85344890D01*
X63816391Y-85495209D01*
X63816387Y-85495214D01*
X63696815Y-85659793D01*
X63641486Y-85702459D01*
X63571872Y-85708438D01*
X63510077Y-85675833D01*
X63496179Y-85659793D01*
X63376606Y-85495214D01*
X63376602Y-85495209D01*
X63226283Y-85344890D01*
X63054317Y-85219951D01*
X62864911Y-85123444D01*
X62864910Y-85123443D01*
X62864909Y-85123443D01*
X62662740Y-85057754D01*
X62662738Y-85057753D01*
X62662737Y-85057753D01*
X62501454Y-85032208D01*
X62452784Y-85024500D01*
X62240210Y-85024500D01*
X62191539Y-85032208D01*
X62030257Y-85057753D01*
X61828082Y-85123444D01*
X61638676Y-85219951D01*
X61466710Y-85344890D01*
X61316391Y-85495209D01*
X61316387Y-85495214D01*
X61196815Y-85659793D01*
X61141486Y-85702459D01*
X61071872Y-85708438D01*
X61010077Y-85675833D01*
X60996179Y-85659793D01*
X60876606Y-85495214D01*
X60876602Y-85495209D01*
X60726283Y-85344890D01*
X60554317Y-85219951D01*
X60364911Y-85123444D01*
X60364910Y-85123443D01*
X60364909Y-85123443D01*
X60162740Y-85057754D01*
X60162738Y-85057753D01*
X60162737Y-85057753D01*
X60001454Y-85032208D01*
X59952784Y-85024500D01*
X59740210Y-85024500D01*
X59691539Y-85032208D01*
X59530257Y-85057753D01*
X59328082Y-85123444D01*
X59138676Y-85219951D01*
X58966712Y-85344889D01*
X58827532Y-85484069D01*
X58766209Y-85517553D01*
X58696517Y-85512569D01*
X58640584Y-85470697D01*
X58634312Y-85461484D01*
X58538812Y-85306654D01*
X58414842Y-85182684D01*
X58265621Y-85090643D01*
X58265616Y-85090641D01*
X58099194Y-85035494D01*
X58099187Y-85035493D01*
X57996483Y-85025000D01*
X57596497Y-85025000D01*
X57596497Y-86095854D01*
X57529840Y-86057370D01*
X57409032Y-86025000D01*
X57283962Y-86025000D01*
X57163154Y-86057370D01*
X57096497Y-86095854D01*
X57096497Y-85025000D01*
X56696525Y-85025000D01*
X56696509Y-85025001D01*
X56593799Y-85035494D01*
X56427377Y-85090641D01*
X56427372Y-85090643D01*
X56278151Y-85182684D01*
X56154181Y-85306654D01*
X56062140Y-85455875D01*
X56062138Y-85455880D01*
X56006991Y-85622302D01*
X56006990Y-85622309D01*
X55996497Y-85725013D01*
X53346997Y-85725013D01*
X53346997Y-34921153D01*
X65045997Y-34921153D01*
X65045997Y-35078846D01*
X65076758Y-35233489D01*
X65076761Y-35233501D01*
X65137099Y-35379172D01*
X65137106Y-35379185D01*
X65224707Y-35510288D01*
X65224710Y-35510292D01*
X65336204Y-35621786D01*
X65336208Y-35621789D01*
X65467311Y-35709390D01*
X65467324Y-35709397D01*
X65612995Y-35769735D01*
X65613000Y-35769737D01*
X65767650Y-35800499D01*
X65767653Y-35800500D01*
X65767655Y-35800500D01*
X65925341Y-35800500D01*
X65925342Y-35800499D01*
X66079994Y-35769737D01*
X66225676Y-35709394D01*
X66225682Y-35709390D01*
X66357372Y-35621398D01*
X66424050Y-35600520D01*
X66426263Y-35600500D01*
X67766731Y-35600500D01*
X67833770Y-35620185D01*
X67835622Y-35621398D01*
X67967311Y-35709390D01*
X67967324Y-35709397D01*
X68112995Y-35769735D01*
X68113000Y-35769737D01*
X68267650Y-35800499D01*
X68267653Y-35800500D01*
X68267655Y-35800500D01*
X68425341Y-35800500D01*
X68425342Y-35800499D01*
X68579994Y-35769737D01*
X68725676Y-35709394D01*
X68856786Y-35621789D01*
X68968286Y-35510289D01*
X69055891Y-35379179D01*
X69116234Y-35233497D01*
X69146997Y-35078842D01*
X69146997Y-34921158D01*
X69146997Y-34921155D01*
X69146996Y-34921153D01*
X69135371Y-34862710D01*
X69116234Y-34766503D01*
X69104700Y-34738657D01*
X69055894Y-34620827D01*
X69055887Y-34620814D01*
X68968286Y-34489711D01*
X68968283Y-34489707D01*
X68856789Y-34378213D01*
X68856785Y-34378210D01*
X68725682Y-34290609D01*
X68725669Y-34290602D01*
X68579998Y-34230264D01*
X68579986Y-34230261D01*
X68425342Y-34199500D01*
X68425339Y-34199500D01*
X68267655Y-34199500D01*
X68267652Y-34199500D01*
X68113007Y-34230261D01*
X68112995Y-34230264D01*
X67967324Y-34290602D01*
X67967311Y-34290609D01*
X67835622Y-34378602D01*
X67768944Y-34399480D01*
X67766731Y-34399500D01*
X66426263Y-34399500D01*
X66359224Y-34379815D01*
X66357372Y-34378602D01*
X66225682Y-34290609D01*
X66225669Y-34290602D01*
X66079998Y-34230264D01*
X66079986Y-34230261D01*
X65925342Y-34199500D01*
X65925339Y-34199500D01*
X65767655Y-34199500D01*
X65767652Y-34199500D01*
X65613007Y-34230261D01*
X65612995Y-34230264D01*
X65467324Y-34290602D01*
X65467311Y-34290609D01*
X65336208Y-34378210D01*
X65336204Y-34378213D01*
X65224710Y-34489707D01*
X65224707Y-34489711D01*
X65137106Y-34620814D01*
X65137099Y-34620827D01*
X65076761Y-34766498D01*
X65076758Y-34766510D01*
X65045997Y-34921153D01*
X53346997Y-34921153D01*
X53346997Y-32393713D01*
X55375997Y-32393713D01*
X55375997Y-32606287D01*
X55383231Y-32651958D01*
X55403997Y-32783075D01*
X55409251Y-32816243D01*
X55466591Y-32992718D01*
X55474941Y-33018414D01*
X55571448Y-33207820D01*
X55696387Y-33379786D01*
X55846710Y-33530109D01*
X56018676Y-33655048D01*
X56018678Y-33655049D01*
X56018681Y-33655051D01*
X56208085Y-33751557D01*
X56410254Y-33817246D01*
X56620210Y-33850500D01*
X56620211Y-33850500D01*
X56832783Y-33850500D01*
X56832784Y-33850500D01*
X57042740Y-33817246D01*
X57244909Y-33751557D01*
X57434313Y-33655051D01*
X57456286Y-33639086D01*
X57606283Y-33530109D01*
X57606285Y-33530106D01*
X57606289Y-33530104D01*
X57756601Y-33379792D01*
X57756603Y-33379788D01*
X57756606Y-33379786D01*
X57881545Y-33207820D01*
X57881544Y-33207820D01*
X57881548Y-33207816D01*
X57886011Y-33199054D01*
X57933985Y-33148259D01*
X58001805Y-33131463D01*
X58067941Y-33153999D01*
X58106983Y-33199056D01*
X58111448Y-33207820D01*
X58236387Y-33379786D01*
X58386710Y-33530109D01*
X58558676Y-33655048D01*
X58558678Y-33655049D01*
X58558681Y-33655051D01*
X58748085Y-33751557D01*
X58950254Y-33817246D01*
X59160210Y-33850500D01*
X59160211Y-33850500D01*
X59372783Y-33850500D01*
X59372784Y-33850500D01*
X59582740Y-33817246D01*
X59784909Y-33751557D01*
X59974313Y-33655051D01*
X59996286Y-33639086D01*
X60146283Y-33530109D01*
X60146285Y-33530106D01*
X60146289Y-33530104D01*
X60296601Y-33379792D01*
X60296603Y-33379788D01*
X60296606Y-33379786D01*
X60421545Y-33207820D01*
X60421544Y-33207820D01*
X60421548Y-33207816D01*
X60426011Y-33199054D01*
X60473985Y-33148259D01*
X60541805Y-33131463D01*
X60607941Y-33153999D01*
X60646983Y-33199056D01*
X60651448Y-33207820D01*
X60776387Y-33379786D01*
X60926710Y-33530109D01*
X61098676Y-33655048D01*
X61098678Y-33655049D01*
X61098681Y-33655051D01*
X61288085Y-33751557D01*
X61490254Y-33817246D01*
X61700210Y-33850500D01*
X61700211Y-33850500D01*
X61912783Y-33850500D01*
X61912784Y-33850500D01*
X62122740Y-33817246D01*
X62324909Y-33751557D01*
X62514313Y-33655051D01*
X62536286Y-33639086D01*
X62686283Y-33530109D01*
X62686285Y-33530106D01*
X62686289Y-33530104D01*
X62836601Y-33379792D01*
X62836603Y-33379788D01*
X62836606Y-33379786D01*
X62961545Y-33207820D01*
X62961544Y-33207820D01*
X62961548Y-33207816D01*
X62966011Y-33199054D01*
X63013985Y-33148259D01*
X63081805Y-33131463D01*
X63147941Y-33153999D01*
X63186983Y-33199056D01*
X63191448Y-33207820D01*
X63316387Y-33379786D01*
X63466710Y-33530109D01*
X63638676Y-33655048D01*
X63638678Y-33655049D01*
X63638681Y-33655051D01*
X63828085Y-33751557D01*
X64030254Y-33817246D01*
X64240210Y-33850500D01*
X64240211Y-33850500D01*
X64452783Y-33850500D01*
X64452784Y-33850500D01*
X64662740Y-33817246D01*
X64864909Y-33751557D01*
X65054313Y-33655051D01*
X65076286Y-33639086D01*
X65226283Y-33530109D01*
X65226285Y-33530106D01*
X65226289Y-33530104D01*
X65376601Y-33379792D01*
X65376603Y-33379788D01*
X65376606Y-33379786D01*
X65501545Y-33207820D01*
X65501544Y-33207820D01*
X65501548Y-33207816D01*
X65506011Y-33199054D01*
X65553985Y-33148259D01*
X65621805Y-33131463D01*
X65687941Y-33153999D01*
X65726983Y-33199056D01*
X65731448Y-33207820D01*
X65856387Y-33379786D01*
X66006710Y-33530109D01*
X66178676Y-33655048D01*
X66178678Y-33655049D01*
X66178681Y-33655051D01*
X66368085Y-33751557D01*
X66570254Y-33817246D01*
X66780210Y-33850500D01*
X66780211Y-33850500D01*
X66992783Y-33850500D01*
X66992784Y-33850500D01*
X67202740Y-33817246D01*
X67404909Y-33751557D01*
X67594313Y-33655051D01*
X67680975Y-33592088D01*
X67766281Y-33530110D01*
X67766281Y-33530109D01*
X67766289Y-33530104D01*
X67880214Y-33416178D01*
X67941533Y-33382696D01*
X68011225Y-33387680D01*
X68067159Y-33429551D01*
X68084074Y-33460528D01*
X68133143Y-33592088D01*
X68133146Y-33592093D01*
X68219306Y-33707187D01*
X68219309Y-33707190D01*
X68334403Y-33793350D01*
X68334410Y-33793354D01*
X68469117Y-33843596D01*
X68469124Y-33843598D01*
X68528652Y-33849999D01*
X68528669Y-33850000D01*
X69176497Y-33850000D01*
X69176497Y-32933012D01*
X69233504Y-32965925D01*
X69360671Y-33000000D01*
X69492323Y-33000000D01*
X69619490Y-32965925D01*
X69676497Y-32933012D01*
X69676497Y-33850000D01*
X70324325Y-33850000D01*
X70324341Y-33849999D01*
X70383869Y-33843598D01*
X70383876Y-33843596D01*
X70518583Y-33793354D01*
X70518590Y-33793350D01*
X70633684Y-33707190D01*
X70633687Y-33707187D01*
X70719847Y-33592093D01*
X70719851Y-33592086D01*
X70770093Y-33457379D01*
X70770095Y-33457372D01*
X70776496Y-33397844D01*
X70776497Y-33397827D01*
X70776497Y-32750000D01*
X69859509Y-32750000D01*
X69892422Y-32692993D01*
X69926497Y-32565826D01*
X69926497Y-32434174D01*
X69892422Y-32307007D01*
X69859509Y-32250000D01*
X70776497Y-32250000D01*
X70776497Y-32160258D01*
X74365997Y-32160258D01*
X74365997Y-32389741D01*
X74383146Y-32519990D01*
X74395949Y-32617238D01*
X74440385Y-32783076D01*
X74455339Y-32838887D01*
X74543147Y-33050876D01*
X74543154Y-33050890D01*
X74589673Y-33131463D01*
X74633757Y-33207820D01*
X74657889Y-33249617D01*
X74797578Y-33431661D01*
X74797586Y-33431670D01*
X74959827Y-33593911D01*
X74959835Y-33593918D01*
X74959836Y-33593919D01*
X75010459Y-33632764D01*
X75141879Y-33733607D01*
X75141882Y-33733608D01*
X75141885Y-33733611D01*
X75340609Y-33848344D01*
X75340614Y-33848346D01*
X75340620Y-33848349D01*
X75431977Y-33886190D01*
X75552610Y-33936158D01*
X75774259Y-33995548D01*
X76001763Y-34025500D01*
X76001765Y-34025500D01*
X76002471Y-34025593D01*
X76066368Y-34053860D01*
X76104839Y-34112184D01*
X76105670Y-34182049D01*
X76068598Y-34241272D01*
X76033739Y-34263093D01*
X75967321Y-34290604D01*
X75967311Y-34290609D01*
X75836208Y-34378210D01*
X75836204Y-34378213D01*
X75724710Y-34489707D01*
X75724707Y-34489711D01*
X75637106Y-34620814D01*
X75637099Y-34620827D01*
X75576761Y-34766498D01*
X75576758Y-34766510D01*
X75545997Y-34921153D01*
X75545997Y-35078846D01*
X75576758Y-35233489D01*
X75576761Y-35233501D01*
X75637099Y-35379172D01*
X75637106Y-35379185D01*
X75724707Y-35510288D01*
X75724710Y-35510292D01*
X75836204Y-35621786D01*
X75836208Y-35621789D01*
X75967311Y-35709390D01*
X75967324Y-35709397D01*
X76112995Y-35769735D01*
X76113000Y-35769737D01*
X76267650Y-35800499D01*
X76267653Y-35800500D01*
X76267655Y-35800500D01*
X76425341Y-35800500D01*
X76425342Y-35800499D01*
X76579994Y-35769737D01*
X76725676Y-35709394D01*
X76725682Y-35709390D01*
X76857372Y-35621398D01*
X76924050Y-35600520D01*
X76926263Y-35600500D01*
X79766731Y-35600500D01*
X79833770Y-35620185D01*
X79835622Y-35621398D01*
X79967311Y-35709390D01*
X79967324Y-35709397D01*
X80112995Y-35769735D01*
X80113000Y-35769737D01*
X80267650Y-35800499D01*
X80267653Y-35800500D01*
X80267655Y-35800500D01*
X80425341Y-35800500D01*
X80425342Y-35800499D01*
X80579994Y-35769737D01*
X80725676Y-35709394D01*
X80856786Y-35621789D01*
X80968286Y-35510289D01*
X81055891Y-35379179D01*
X81116234Y-35233497D01*
X81146997Y-35078842D01*
X81146997Y-34921158D01*
X81146997Y-34921155D01*
X81146996Y-34921153D01*
X81135371Y-34862710D01*
X81116234Y-34766503D01*
X81104700Y-34738657D01*
X81055894Y-34620827D01*
X81055887Y-34620814D01*
X80968286Y-34489711D01*
X80968283Y-34489707D01*
X80856789Y-34378213D01*
X80856785Y-34378210D01*
X80725682Y-34290609D01*
X80725669Y-34290602D01*
X80579998Y-34230264D01*
X80579986Y-34230261D01*
X80425342Y-34199500D01*
X80425339Y-34199500D01*
X80267655Y-34199500D01*
X80267652Y-34199500D01*
X80113007Y-34230261D01*
X80112995Y-34230264D01*
X79967324Y-34290602D01*
X79967311Y-34290609D01*
X79835622Y-34378602D01*
X79768944Y-34399480D01*
X79766731Y-34399500D01*
X76926263Y-34399500D01*
X76859224Y-34379815D01*
X76857372Y-34378602D01*
X76725682Y-34290609D01*
X76725669Y-34290602D01*
X76579998Y-34230264D01*
X76579986Y-34230261D01*
X76529236Y-34220166D01*
X76467325Y-34187781D01*
X76432751Y-34127065D01*
X76436490Y-34057296D01*
X76477357Y-34000624D01*
X76521330Y-33978775D01*
X76680384Y-33936158D01*
X76888387Y-33850000D01*
X76892373Y-33848349D01*
X76892373Y-33848348D01*
X76892385Y-33848344D01*
X77091109Y-33733611D01*
X77273158Y-33593919D01*
X77273162Y-33593914D01*
X77273167Y-33593911D01*
X77435408Y-33431670D01*
X77435411Y-33431665D01*
X77435416Y-33431661D01*
X77575108Y-33249612D01*
X77689841Y-33050888D01*
X77777655Y-32838887D01*
X77837045Y-32617238D01*
X77866997Y-32389734D01*
X77866997Y-32160266D01*
X77866996Y-32160258D01*
X98875997Y-32160258D01*
X98875997Y-32389741D01*
X98893146Y-32519990D01*
X98905949Y-32617238D01*
X98950385Y-32783076D01*
X98965339Y-32838887D01*
X99053147Y-33050876D01*
X99053154Y-33050890D01*
X99099673Y-33131463D01*
X99143757Y-33207820D01*
X99167889Y-33249617D01*
X99307578Y-33431661D01*
X99307586Y-33431670D01*
X99469827Y-33593911D01*
X99469835Y-33593918D01*
X99469836Y-33593919D01*
X99520459Y-33632764D01*
X99651879Y-33733607D01*
X99651882Y-33733608D01*
X99651885Y-33733611D01*
X99850609Y-33848344D01*
X99850614Y-33848346D01*
X99850620Y-33848349D01*
X99941977Y-33886190D01*
X100062610Y-33936158D01*
X100284259Y-33995548D01*
X100511763Y-34025500D01*
X100511770Y-34025500D01*
X100741224Y-34025500D01*
X100741231Y-34025500D01*
X100968735Y-33995548D01*
X101190384Y-33936158D01*
X101398387Y-33850000D01*
X101402373Y-33848349D01*
X101402373Y-33848348D01*
X101402385Y-33848344D01*
X101601109Y-33733611D01*
X101783158Y-33593919D01*
X101783162Y-33593914D01*
X101783167Y-33593911D01*
X101945408Y-33431670D01*
X101945411Y-33431665D01*
X101945416Y-33431661D01*
X102085108Y-33249612D01*
X102199841Y-33050888D01*
X102287655Y-32838887D01*
X102347045Y-32617238D01*
X102376997Y-32389734D01*
X102376997Y-32160266D01*
X102347045Y-31932762D01*
X102287655Y-31711113D01*
X102237687Y-31590480D01*
X102199846Y-31499123D01*
X102199843Y-31499117D01*
X102199841Y-31499112D01*
X102085108Y-31300388D01*
X102085104Y-31300383D01*
X102085102Y-31300379D01*
X102055756Y-31262135D01*
X103689500Y-31262135D01*
X103689500Y-33857870D01*
X103689501Y-33857876D01*
X103695908Y-33917483D01*
X103746202Y-34052328D01*
X103746206Y-34052335D01*
X103832452Y-34167544D01*
X103832455Y-34167547D01*
X103947664Y-34253793D01*
X103947671Y-34253797D01*
X104082517Y-34304091D01*
X104082516Y-34304091D01*
X104089444Y-34304835D01*
X104142127Y-34310500D01*
X106737872Y-34310499D01*
X106797483Y-34304091D01*
X106932331Y-34253796D01*
X107047546Y-34167546D01*
X107133796Y-34052331D01*
X107184091Y-33917483D01*
X107190500Y-33857873D01*
X107190499Y-31262135D01*
X121689500Y-31262135D01*
X121689500Y-33857870D01*
X121689501Y-33857876D01*
X121695908Y-33917483D01*
X121746202Y-34052328D01*
X121746206Y-34052335D01*
X121832452Y-34167544D01*
X121832455Y-34167547D01*
X121947664Y-34253793D01*
X121947671Y-34253797D01*
X122082517Y-34304091D01*
X122082516Y-34304091D01*
X122089444Y-34304835D01*
X122142127Y-34310500D01*
X124737872Y-34310499D01*
X124797483Y-34304091D01*
X124932331Y-34253796D01*
X125047546Y-34167546D01*
X125133796Y-34052331D01*
X125184091Y-33917483D01*
X125190500Y-33857873D01*
X125190499Y-32519982D01*
X128745997Y-32519982D01*
X128745997Y-34320017D01*
X128756497Y-34422796D01*
X128811682Y-34589332D01*
X128811684Y-34589337D01*
X128846567Y-34645890D01*
X128903785Y-34738656D01*
X129027841Y-34862712D01*
X129177162Y-34954814D01*
X129343699Y-35009999D01*
X129446487Y-35020500D01*
X129446492Y-35020500D01*
X131246502Y-35020500D01*
X131246507Y-35020500D01*
X131349295Y-35009999D01*
X131515832Y-34954814D01*
X131665153Y-34862712D01*
X131789209Y-34738656D01*
X131881311Y-34589335D01*
X131936496Y-34422798D01*
X131946997Y-34320010D01*
X131946997Y-34318872D01*
X134295997Y-34318872D01*
X134295997Y-34581127D01*
X134320403Y-34766498D01*
X134330227Y-34841116D01*
X134398099Y-35094418D01*
X134398102Y-35094428D01*
X134498450Y-35336690D01*
X134498455Y-35336700D01*
X134629572Y-35563803D01*
X134789215Y-35771851D01*
X134789223Y-35771860D01*
X134974637Y-35957274D01*
X134974645Y-35957281D01*
X135182693Y-36116924D01*
X135409796Y-36248041D01*
X135409806Y-36248046D01*
X135652068Y-36348394D01*
X135652078Y-36348398D01*
X135905381Y-36416270D01*
X136165377Y-36450500D01*
X136165384Y-36450500D01*
X136427610Y-36450500D01*
X136427617Y-36450500D01*
X136687613Y-36416270D01*
X136940916Y-36348398D01*
X137183194Y-36248043D01*
X137410300Y-36116924D01*
X137618348Y-35957282D01*
X137618352Y-35957277D01*
X137618357Y-35957274D01*
X137803771Y-35771860D01*
X137803774Y-35771855D01*
X137803779Y-35771851D01*
X137963421Y-35563803D01*
X138094540Y-35336697D01*
X138194895Y-35094419D01*
X138262767Y-34841116D01*
X138296997Y-34581120D01*
X138296997Y-34368872D01*
X146345997Y-34368872D01*
X146345997Y-34631127D01*
X146363820Y-34766498D01*
X146380227Y-34891116D01*
X146434702Y-35094419D01*
X146448099Y-35144418D01*
X146448102Y-35144428D01*
X146548450Y-35386690D01*
X146548455Y-35386700D01*
X146679572Y-35613803D01*
X146839215Y-35821851D01*
X146839223Y-35821860D01*
X147024637Y-36007274D01*
X147024645Y-36007281D01*
X147232693Y-36166924D01*
X147459796Y-36298041D01*
X147459806Y-36298046D01*
X147702068Y-36398394D01*
X147702078Y-36398398D01*
X147955381Y-36466270D01*
X148215377Y-36500500D01*
X148215384Y-36500500D01*
X148477610Y-36500500D01*
X148477617Y-36500500D01*
X148737613Y-36466270D01*
X148990916Y-36398398D01*
X149233194Y-36298043D01*
X149460300Y-36166924D01*
X149668348Y-36007282D01*
X149668352Y-36007277D01*
X149668357Y-36007274D01*
X149853771Y-35821860D01*
X149853774Y-35821855D01*
X149853779Y-35821851D01*
X150013421Y-35613803D01*
X150144540Y-35386697D01*
X150244895Y-35144419D01*
X150312767Y-34891116D01*
X150346997Y-34631120D01*
X150346997Y-34368880D01*
X150312767Y-34108884D01*
X150244895Y-33855581D01*
X150244891Y-33855571D01*
X150144543Y-33613309D01*
X150144538Y-33613299D01*
X150013421Y-33386196D01*
X149890921Y-33226554D01*
X149853779Y-33178149D01*
X149853778Y-33178148D01*
X149853771Y-33178140D01*
X149668357Y-32992726D01*
X149668348Y-32992718D01*
X149460300Y-32833075D01*
X149233197Y-32701958D01*
X149233187Y-32701953D01*
X148990925Y-32601605D01*
X148990918Y-32601603D01*
X148990916Y-32601602D01*
X148737613Y-32533730D01*
X148679836Y-32526123D01*
X148477624Y-32499500D01*
X148477617Y-32499500D01*
X148215377Y-32499500D01*
X148215369Y-32499500D01*
X147984269Y-32529926D01*
X147955381Y-32533730D01*
X147835597Y-32565826D01*
X147702078Y-32601602D01*
X147702068Y-32601605D01*
X147459806Y-32701953D01*
X147459796Y-32701958D01*
X147232693Y-32833075D01*
X147024645Y-32992718D01*
X146839215Y-33178148D01*
X146679572Y-33386196D01*
X146548455Y-33613299D01*
X146548450Y-33613309D01*
X146448102Y-33855571D01*
X146448099Y-33855581D01*
X146393625Y-34058884D01*
X146380227Y-34108885D01*
X146345997Y-34368872D01*
X138296997Y-34368872D01*
X138296997Y-34318880D01*
X138262767Y-34058884D01*
X138194895Y-33805581D01*
X138194891Y-33805571D01*
X138094543Y-33563309D01*
X138094538Y-33563299D01*
X137963421Y-33336196D01*
X137840921Y-33176554D01*
X137803779Y-33128149D01*
X137803778Y-33128148D01*
X137803771Y-33128140D01*
X137618357Y-32942726D01*
X137618348Y-32942718D01*
X137410300Y-32783075D01*
X137183197Y-32651958D01*
X137183187Y-32651953D01*
X136940925Y-32551605D01*
X136940918Y-32551603D01*
X136940916Y-32551602D01*
X136687613Y-32483730D01*
X136629836Y-32476123D01*
X136427624Y-32449500D01*
X136427617Y-32449500D01*
X136165377Y-32449500D01*
X136165369Y-32449500D01*
X135934269Y-32479926D01*
X135905381Y-32483730D01*
X135770038Y-32519995D01*
X135652078Y-32551602D01*
X135652068Y-32551605D01*
X135409806Y-32651953D01*
X135409796Y-32651958D01*
X135182693Y-32783075D01*
X134974645Y-32942718D01*
X134789215Y-33128148D01*
X134629572Y-33336196D01*
X134498455Y-33563299D01*
X134498450Y-33563309D01*
X134398102Y-33805571D01*
X134398099Y-33805581D01*
X134339173Y-34025499D01*
X134330227Y-34058885D01*
X134295997Y-34318872D01*
X131946997Y-34318872D01*
X131946997Y-32519990D01*
X131936496Y-32417202D01*
X131881311Y-32250665D01*
X131789209Y-32101344D01*
X131665153Y-31977288D01*
X131515832Y-31885186D01*
X131349295Y-31830001D01*
X131349293Y-31830000D01*
X131246514Y-31819500D01*
X131246507Y-31819500D01*
X129446487Y-31819500D01*
X129446479Y-31819500D01*
X129343700Y-31830000D01*
X129343699Y-31830001D01*
X129278089Y-31851742D01*
X129177164Y-31885185D01*
X129177159Y-31885187D01*
X129027839Y-31977289D01*
X128903786Y-32101342D01*
X128811684Y-32250662D01*
X128811683Y-32250665D01*
X128756498Y-32417202D01*
X128756498Y-32417203D01*
X128756497Y-32417203D01*
X128745997Y-32519982D01*
X125190499Y-32519982D01*
X125190499Y-31262128D01*
X125184091Y-31202517D01*
X125164503Y-31150000D01*
X125133797Y-31067671D01*
X125133793Y-31067664D01*
X125047547Y-30952455D01*
X125047544Y-30952452D01*
X124932335Y-30866206D01*
X124932328Y-30866202D01*
X124797482Y-30815908D01*
X124797483Y-30815908D01*
X124737883Y-30809501D01*
X124737881Y-30809500D01*
X124737873Y-30809500D01*
X124737864Y-30809500D01*
X122142129Y-30809500D01*
X122142123Y-30809501D01*
X122082516Y-30815908D01*
X121947671Y-30866202D01*
X121947664Y-30866206D01*
X121832455Y-30952452D01*
X121832452Y-30952455D01*
X121746206Y-31067664D01*
X121746202Y-31067671D01*
X121695908Y-31202517D01*
X121690971Y-31248443D01*
X121689501Y-31262123D01*
X121689500Y-31262135D01*
X107190499Y-31262135D01*
X107190499Y-31262128D01*
X107184091Y-31202517D01*
X107164503Y-31150000D01*
X107133797Y-31067671D01*
X107133793Y-31067664D01*
X107047547Y-30952455D01*
X107047544Y-30952452D01*
X106932335Y-30866206D01*
X106932328Y-30866202D01*
X106797482Y-30815908D01*
X106797483Y-30815908D01*
X106737883Y-30809501D01*
X106737881Y-30809500D01*
X106737873Y-30809500D01*
X106737864Y-30809500D01*
X104142129Y-30809500D01*
X104142123Y-30809501D01*
X104082516Y-30815908D01*
X103947671Y-30866202D01*
X103947664Y-30866206D01*
X103832455Y-30952452D01*
X103832452Y-30952455D01*
X103746206Y-31067664D01*
X103746202Y-31067671D01*
X103695908Y-31202517D01*
X103690971Y-31248443D01*
X103689501Y-31262123D01*
X103689500Y-31262135D01*
X102055756Y-31262135D01*
X101945415Y-31118338D01*
X101945408Y-31118330D01*
X101783167Y-30956089D01*
X101783158Y-30956081D01*
X101601114Y-30816392D01*
X101600277Y-30815909D01*
X101402385Y-30701656D01*
X101402373Y-30701650D01*
X101190384Y-30613842D01*
X100968735Y-30554452D01*
X100930712Y-30549446D01*
X100741238Y-30524500D01*
X100741231Y-30524500D01*
X100511763Y-30524500D01*
X100511755Y-30524500D01*
X100295212Y-30553009D01*
X100284259Y-30554452D01*
X100190573Y-30579554D01*
X100062609Y-30613842D01*
X99850620Y-30701650D01*
X99850606Y-30701657D01*
X99651879Y-30816392D01*
X99469835Y-30956081D01*
X99307578Y-31118338D01*
X99167889Y-31300382D01*
X99053154Y-31499109D01*
X99053147Y-31499123D01*
X98965339Y-31711112D01*
X98905950Y-31932759D01*
X98905948Y-31932770D01*
X98875997Y-32160258D01*
X77866996Y-32160258D01*
X77837045Y-31932762D01*
X77777655Y-31711113D01*
X77727687Y-31590480D01*
X77689846Y-31499123D01*
X77689843Y-31499117D01*
X77689841Y-31499112D01*
X77575108Y-31300388D01*
X77575105Y-31300385D01*
X77575104Y-31300382D01*
X77435415Y-31118338D01*
X77435408Y-31118330D01*
X77273167Y-30956089D01*
X77273158Y-30956081D01*
X77091114Y-30816392D01*
X77090277Y-30815909D01*
X76892385Y-30701656D01*
X76892373Y-30701650D01*
X76680384Y-30613842D01*
X76458735Y-30554452D01*
X76420712Y-30549446D01*
X76231238Y-30524500D01*
X76231231Y-30524500D01*
X76001763Y-30524500D01*
X76001755Y-30524500D01*
X75785212Y-30553009D01*
X75774259Y-30554452D01*
X75680573Y-30579554D01*
X75552609Y-30613842D01*
X75340620Y-30701650D01*
X75340606Y-30701657D01*
X75141879Y-30816392D01*
X74959835Y-30956081D01*
X74797578Y-31118338D01*
X74657889Y-31300382D01*
X74543154Y-31499109D01*
X74543147Y-31499123D01*
X74455339Y-31711112D01*
X74395950Y-31932759D01*
X74395948Y-31932770D01*
X74365997Y-32160258D01*
X70776497Y-32160258D01*
X70776497Y-31602172D01*
X70776496Y-31602155D01*
X70770095Y-31542627D01*
X70770093Y-31542620D01*
X70719851Y-31407913D01*
X70719847Y-31407906D01*
X70633687Y-31292812D01*
X70633684Y-31292809D01*
X70518590Y-31206649D01*
X70518583Y-31206645D01*
X70383876Y-31156403D01*
X70383869Y-31156401D01*
X70324341Y-31150000D01*
X69676497Y-31150000D01*
X69676497Y-32066988D01*
X69619490Y-32034075D01*
X69492323Y-32000000D01*
X69360671Y-32000000D01*
X69233504Y-32034075D01*
X69176497Y-32066988D01*
X69176497Y-31150000D01*
X68528652Y-31150000D01*
X68469124Y-31156401D01*
X68469117Y-31156403D01*
X68334410Y-31206645D01*
X68334403Y-31206649D01*
X68219309Y-31292809D01*
X68219306Y-31292812D01*
X68133146Y-31407906D01*
X68133143Y-31407912D01*
X68084074Y-31539471D01*
X68042202Y-31595404D01*
X67976738Y-31619821D01*
X67908465Y-31604969D01*
X67880211Y-31583818D01*
X67766283Y-31469890D01*
X67594317Y-31344951D01*
X67404911Y-31248444D01*
X67404910Y-31248443D01*
X67404909Y-31248443D01*
X67202740Y-31182754D01*
X67202738Y-31182753D01*
X67202737Y-31182753D01*
X67041454Y-31157208D01*
X66992784Y-31149500D01*
X66780210Y-31149500D01*
X66731539Y-31157208D01*
X66570257Y-31182753D01*
X66368082Y-31248444D01*
X66178676Y-31344951D01*
X66006710Y-31469890D01*
X65856387Y-31620213D01*
X65731446Y-31792182D01*
X65726981Y-31800946D01*
X65679006Y-31851742D01*
X65611185Y-31868536D01*
X65545050Y-31845998D01*
X65506013Y-31800946D01*
X65501547Y-31792182D01*
X65376606Y-31620213D01*
X65226283Y-31469890D01*
X65054317Y-31344951D01*
X64864911Y-31248444D01*
X64864910Y-31248443D01*
X64864909Y-31248443D01*
X64662740Y-31182754D01*
X64662738Y-31182753D01*
X64662737Y-31182753D01*
X64501454Y-31157208D01*
X64452784Y-31149500D01*
X64240210Y-31149500D01*
X64191539Y-31157208D01*
X64030257Y-31182753D01*
X63828082Y-31248444D01*
X63638676Y-31344951D01*
X63466710Y-31469890D01*
X63316387Y-31620213D01*
X63191446Y-31792182D01*
X63186981Y-31800946D01*
X63139006Y-31851742D01*
X63071185Y-31868536D01*
X63005050Y-31845998D01*
X62966013Y-31800946D01*
X62961547Y-31792182D01*
X62836606Y-31620213D01*
X62686283Y-31469890D01*
X62514317Y-31344951D01*
X62324911Y-31248444D01*
X62324910Y-31248443D01*
X62324909Y-31248443D01*
X62122740Y-31182754D01*
X62122738Y-31182753D01*
X62122737Y-31182753D01*
X61961454Y-31157208D01*
X61912784Y-31149500D01*
X61700210Y-31149500D01*
X61651539Y-31157208D01*
X61490257Y-31182753D01*
X61288082Y-31248444D01*
X61098676Y-31344951D01*
X60926710Y-31469890D01*
X60776387Y-31620213D01*
X60651446Y-31792182D01*
X60646981Y-31800946D01*
X60599006Y-31851742D01*
X60531185Y-31868536D01*
X60465050Y-31845998D01*
X60426013Y-31800946D01*
X60421547Y-31792182D01*
X60296606Y-31620213D01*
X60146283Y-31469890D01*
X59974317Y-31344951D01*
X59784911Y-31248444D01*
X59784910Y-31248443D01*
X59784909Y-31248443D01*
X59582740Y-31182754D01*
X59582738Y-31182753D01*
X59582737Y-31182753D01*
X59421454Y-31157208D01*
X59372784Y-31149500D01*
X59160210Y-31149500D01*
X59111539Y-31157208D01*
X58950257Y-31182753D01*
X58748082Y-31248444D01*
X58558676Y-31344951D01*
X58386710Y-31469890D01*
X58236387Y-31620213D01*
X58111446Y-31792182D01*
X58106981Y-31800946D01*
X58059006Y-31851742D01*
X57991185Y-31868536D01*
X57925050Y-31845998D01*
X57886013Y-31800946D01*
X57881547Y-31792182D01*
X57756606Y-31620213D01*
X57606283Y-31469890D01*
X57434317Y-31344951D01*
X57244911Y-31248444D01*
X57244910Y-31248443D01*
X57244909Y-31248443D01*
X57042740Y-31182754D01*
X57042738Y-31182753D01*
X57042737Y-31182753D01*
X56881454Y-31157208D01*
X56832784Y-31149500D01*
X56620210Y-31149500D01*
X56571539Y-31157208D01*
X56410257Y-31182753D01*
X56208082Y-31248444D01*
X56018676Y-31344951D01*
X55846710Y-31469890D01*
X55696387Y-31620213D01*
X55571448Y-31792179D01*
X55474941Y-31981585D01*
X55409250Y-32183760D01*
X55398653Y-32250667D01*
X55375997Y-32393713D01*
X53346997Y-32393713D01*
X53346997Y-29124500D01*
X53366682Y-29057461D01*
X53419486Y-29011706D01*
X53470997Y-29000500D01*
X150721997Y-29000500D01*
X150789036Y-29020185D01*
G37*
%TD.AperFunction*%
%TD*%
M02*
