%TF.GenerationSoftware,KiCad,Pcbnew,10.0.4*%
%TF.CreationDate,2026-06-27T18:38:54+07:00*%
%TF.ProjectId,Control Unit,436f6e74-726f-46c2-9055-6e69742e6b69,rev?*%
%TF.SameCoordinates,Original*%
%TF.FileFunction,Legend,Top*%
%TF.FilePolarity,Positive*%
%FSLAX46Y46*%
G04 Gerber Fmt 4.6, Leading zero omitted, Abs format (unit mm)*
G04 Created by KiCad (PCBNEW 10.0.4) date 2026-06-27 18:38:54*
%MOMM*%
%LPD*%
G01*
G04 APERTURE LIST*
%ADD10C,0.100000*%
%ADD11C,0.150000*%
%ADD12C,0.120000*%
%ADD13C,0.127000*%
%ADD14C,0.200000*%
G04 APERTURE END LIST*
D10*
X165303884Y-148542587D02*
X165303884Y-147542587D01*
X165303884Y-147542587D02*
X165637217Y-148256872D01*
X165637217Y-148256872D02*
X165970550Y-147542587D01*
X165970550Y-147542587D02*
X165970550Y-148542587D01*
X166589598Y-148542587D02*
X166494360Y-148494968D01*
X166494360Y-148494968D02*
X166446741Y-148447348D01*
X166446741Y-148447348D02*
X166399122Y-148352110D01*
X166399122Y-148352110D02*
X166399122Y-148066396D01*
X166399122Y-148066396D02*
X166446741Y-147971158D01*
X166446741Y-147971158D02*
X166494360Y-147923539D01*
X166494360Y-147923539D02*
X166589598Y-147875920D01*
X166589598Y-147875920D02*
X166732455Y-147875920D01*
X166732455Y-147875920D02*
X166827693Y-147923539D01*
X166827693Y-147923539D02*
X166875312Y-147971158D01*
X166875312Y-147971158D02*
X166922931Y-148066396D01*
X166922931Y-148066396D02*
X166922931Y-148352110D01*
X166922931Y-148352110D02*
X166875312Y-148447348D01*
X166875312Y-148447348D02*
X166827693Y-148494968D01*
X166827693Y-148494968D02*
X166732455Y-148542587D01*
X166732455Y-148542587D02*
X166589598Y-148542587D01*
X167208646Y-147875920D02*
X167589598Y-147875920D01*
X167351503Y-147542587D02*
X167351503Y-148399729D01*
X167351503Y-148399729D02*
X167399122Y-148494968D01*
X167399122Y-148494968D02*
X167494360Y-148542587D01*
X167494360Y-148542587D02*
X167589598Y-148542587D01*
X168065789Y-148542587D02*
X167970551Y-148494968D01*
X167970551Y-148494968D02*
X167922932Y-148447348D01*
X167922932Y-148447348D02*
X167875313Y-148352110D01*
X167875313Y-148352110D02*
X167875313Y-148066396D01*
X167875313Y-148066396D02*
X167922932Y-147971158D01*
X167922932Y-147971158D02*
X167970551Y-147923539D01*
X167970551Y-147923539D02*
X168065789Y-147875920D01*
X168065789Y-147875920D02*
X168208646Y-147875920D01*
X168208646Y-147875920D02*
X168303884Y-147923539D01*
X168303884Y-147923539D02*
X168351503Y-147971158D01*
X168351503Y-147971158D02*
X168399122Y-148066396D01*
X168399122Y-148066396D02*
X168399122Y-148352110D01*
X168399122Y-148352110D02*
X168351503Y-148447348D01*
X168351503Y-148447348D02*
X168303884Y-148494968D01*
X168303884Y-148494968D02*
X168208646Y-148542587D01*
X168208646Y-148542587D02*
X168065789Y-148542587D01*
X168827694Y-148542587D02*
X168827694Y-147875920D01*
X168827694Y-148066396D02*
X168875313Y-147971158D01*
X168875313Y-147971158D02*
X168922932Y-147923539D01*
X168922932Y-147923539D02*
X169018170Y-147875920D01*
X169018170Y-147875920D02*
X169113408Y-147875920D01*
X169875313Y-148494968D02*
X169780075Y-148542587D01*
X169780075Y-148542587D02*
X169589599Y-148542587D01*
X169589599Y-148542587D02*
X169494361Y-148494968D01*
X169494361Y-148494968D02*
X169446742Y-148447348D01*
X169446742Y-148447348D02*
X169399123Y-148352110D01*
X169399123Y-148352110D02*
X169399123Y-148066396D01*
X169399123Y-148066396D02*
X169446742Y-147971158D01*
X169446742Y-147971158D02*
X169494361Y-147923539D01*
X169494361Y-147923539D02*
X169589599Y-147875920D01*
X169589599Y-147875920D02*
X169780075Y-147875920D01*
X169780075Y-147875920D02*
X169875313Y-147923539D01*
X170208647Y-147875920D02*
X170446742Y-148542587D01*
X170684837Y-147875920D02*
X170446742Y-148542587D01*
X170446742Y-148542587D02*
X170351504Y-148780682D01*
X170351504Y-148780682D02*
X170303885Y-148828301D01*
X170303885Y-148828301D02*
X170208647Y-148875920D01*
X171494361Y-148494968D02*
X171399123Y-148542587D01*
X171399123Y-148542587D02*
X171208647Y-148542587D01*
X171208647Y-148542587D02*
X171113409Y-148494968D01*
X171113409Y-148494968D02*
X171065790Y-148447348D01*
X171065790Y-148447348D02*
X171018171Y-148352110D01*
X171018171Y-148352110D02*
X171018171Y-148066396D01*
X171018171Y-148066396D02*
X171065790Y-147971158D01*
X171065790Y-147971158D02*
X171113409Y-147923539D01*
X171113409Y-147923539D02*
X171208647Y-147875920D01*
X171208647Y-147875920D02*
X171399123Y-147875920D01*
X171399123Y-147875920D02*
X171494361Y-147923539D01*
X172065790Y-148542587D02*
X171970552Y-148494968D01*
X171970552Y-148494968D02*
X171922933Y-148399729D01*
X171922933Y-148399729D02*
X171922933Y-147542587D01*
X172827695Y-148494968D02*
X172732457Y-148542587D01*
X172732457Y-148542587D02*
X172541981Y-148542587D01*
X172541981Y-148542587D02*
X172446743Y-148494968D01*
X172446743Y-148494968D02*
X172399124Y-148399729D01*
X172399124Y-148399729D02*
X172399124Y-148018777D01*
X172399124Y-148018777D02*
X172446743Y-147923539D01*
X172446743Y-147923539D02*
X172541981Y-147875920D01*
X172541981Y-147875920D02*
X172732457Y-147875920D01*
X172732457Y-147875920D02*
X172827695Y-147923539D01*
X172827695Y-147923539D02*
X172875314Y-148018777D01*
X172875314Y-148018777D02*
X172875314Y-148114015D01*
X172875314Y-148114015D02*
X172399124Y-148209253D01*
X173922934Y-147542587D02*
X174494362Y-147542587D01*
X174208648Y-148542587D02*
X174208648Y-147542587D01*
X175208648Y-148494968D02*
X175113410Y-148542587D01*
X175113410Y-148542587D02*
X174922934Y-148542587D01*
X174922934Y-148542587D02*
X174827696Y-148494968D01*
X174827696Y-148494968D02*
X174780077Y-148399729D01*
X174780077Y-148399729D02*
X174780077Y-148018777D01*
X174780077Y-148018777D02*
X174827696Y-147923539D01*
X174827696Y-147923539D02*
X174922934Y-147875920D01*
X174922934Y-147875920D02*
X175113410Y-147875920D01*
X175113410Y-147875920D02*
X175208648Y-147923539D01*
X175208648Y-147923539D02*
X175256267Y-148018777D01*
X175256267Y-148018777D02*
X175256267Y-148114015D01*
X175256267Y-148114015D02*
X174780077Y-148209253D01*
X175827696Y-148542587D02*
X175732458Y-148494968D01*
X175732458Y-148494968D02*
X175684839Y-148399729D01*
X175684839Y-148399729D02*
X175684839Y-147542587D01*
X176589601Y-148494968D02*
X176494363Y-148542587D01*
X176494363Y-148542587D02*
X176303887Y-148542587D01*
X176303887Y-148542587D02*
X176208649Y-148494968D01*
X176208649Y-148494968D02*
X176161030Y-148399729D01*
X176161030Y-148399729D02*
X176161030Y-148018777D01*
X176161030Y-148018777D02*
X176208649Y-147923539D01*
X176208649Y-147923539D02*
X176303887Y-147875920D01*
X176303887Y-147875920D02*
X176494363Y-147875920D01*
X176494363Y-147875920D02*
X176589601Y-147923539D01*
X176589601Y-147923539D02*
X176637220Y-148018777D01*
X176637220Y-148018777D02*
X176637220Y-148114015D01*
X176637220Y-148114015D02*
X176161030Y-148209253D01*
X177065792Y-148542587D02*
X177065792Y-147875920D01*
X177065792Y-147971158D02*
X177113411Y-147923539D01*
X177113411Y-147923539D02*
X177208649Y-147875920D01*
X177208649Y-147875920D02*
X177351506Y-147875920D01*
X177351506Y-147875920D02*
X177446744Y-147923539D01*
X177446744Y-147923539D02*
X177494363Y-148018777D01*
X177494363Y-148018777D02*
X177494363Y-148542587D01*
X177494363Y-148018777D02*
X177541982Y-147923539D01*
X177541982Y-147923539D02*
X177637220Y-147875920D01*
X177637220Y-147875920D02*
X177780077Y-147875920D01*
X177780077Y-147875920D02*
X177875316Y-147923539D01*
X177875316Y-147923539D02*
X177922935Y-148018777D01*
X177922935Y-148018777D02*
X177922935Y-148542587D01*
X178780077Y-148494968D02*
X178684839Y-148542587D01*
X178684839Y-148542587D02*
X178494363Y-148542587D01*
X178494363Y-148542587D02*
X178399125Y-148494968D01*
X178399125Y-148494968D02*
X178351506Y-148399729D01*
X178351506Y-148399729D02*
X178351506Y-148018777D01*
X178351506Y-148018777D02*
X178399125Y-147923539D01*
X178399125Y-147923539D02*
X178494363Y-147875920D01*
X178494363Y-147875920D02*
X178684839Y-147875920D01*
X178684839Y-147875920D02*
X178780077Y-147923539D01*
X178780077Y-147923539D02*
X178827696Y-148018777D01*
X178827696Y-148018777D02*
X178827696Y-148114015D01*
X178827696Y-148114015D02*
X178351506Y-148209253D01*
X179113411Y-147875920D02*
X179494363Y-147875920D01*
X179256268Y-147542587D02*
X179256268Y-148399729D01*
X179256268Y-148399729D02*
X179303887Y-148494968D01*
X179303887Y-148494968D02*
X179399125Y-148542587D01*
X179399125Y-148542587D02*
X179494363Y-148542587D01*
X179827697Y-148542587D02*
X179827697Y-147875920D01*
X179827697Y-148066396D02*
X179875316Y-147971158D01*
X179875316Y-147971158D02*
X179922935Y-147923539D01*
X179922935Y-147923539D02*
X180018173Y-147875920D01*
X180018173Y-147875920D02*
X180113411Y-147875920D01*
X180351507Y-147875920D02*
X180589602Y-148542587D01*
X180827697Y-147875920D02*
X180589602Y-148542587D01*
X180589602Y-148542587D02*
X180494364Y-148780682D01*
X180494364Y-148780682D02*
X180446745Y-148828301D01*
X180446745Y-148828301D02*
X180351507Y-148875920D01*
X181922936Y-148494968D02*
X182018174Y-148542587D01*
X182018174Y-148542587D02*
X182208650Y-148542587D01*
X182208650Y-148542587D02*
X182303888Y-148494968D01*
X182303888Y-148494968D02*
X182351507Y-148399729D01*
X182351507Y-148399729D02*
X182351507Y-148352110D01*
X182351507Y-148352110D02*
X182303888Y-148256872D01*
X182303888Y-148256872D02*
X182208650Y-148209253D01*
X182208650Y-148209253D02*
X182065793Y-148209253D01*
X182065793Y-148209253D02*
X181970555Y-148161634D01*
X181970555Y-148161634D02*
X181922936Y-148066396D01*
X181922936Y-148066396D02*
X181922936Y-148018777D01*
X181922936Y-148018777D02*
X181970555Y-147923539D01*
X181970555Y-147923539D02*
X182065793Y-147875920D01*
X182065793Y-147875920D02*
X182208650Y-147875920D01*
X182208650Y-147875920D02*
X182303888Y-147923539D01*
X183161031Y-148494968D02*
X183065793Y-148542587D01*
X183065793Y-148542587D02*
X182875317Y-148542587D01*
X182875317Y-148542587D02*
X182780079Y-148494968D01*
X182780079Y-148494968D02*
X182732460Y-148399729D01*
X182732460Y-148399729D02*
X182732460Y-148018777D01*
X182732460Y-148018777D02*
X182780079Y-147923539D01*
X182780079Y-147923539D02*
X182875317Y-147875920D01*
X182875317Y-147875920D02*
X183065793Y-147875920D01*
X183065793Y-147875920D02*
X183161031Y-147923539D01*
X183161031Y-147923539D02*
X183208650Y-148018777D01*
X183208650Y-148018777D02*
X183208650Y-148114015D01*
X183208650Y-148114015D02*
X182732460Y-148209253D01*
X183637222Y-147875920D02*
X183637222Y-148542587D01*
X183637222Y-147971158D02*
X183684841Y-147923539D01*
X183684841Y-147923539D02*
X183780079Y-147875920D01*
X183780079Y-147875920D02*
X183922936Y-147875920D01*
X183922936Y-147875920D02*
X184018174Y-147923539D01*
X184018174Y-147923539D02*
X184065793Y-148018777D01*
X184065793Y-148018777D02*
X184065793Y-148542587D01*
X184494365Y-148494968D02*
X184589603Y-148542587D01*
X184589603Y-148542587D02*
X184780079Y-148542587D01*
X184780079Y-148542587D02*
X184875317Y-148494968D01*
X184875317Y-148494968D02*
X184922936Y-148399729D01*
X184922936Y-148399729D02*
X184922936Y-148352110D01*
X184922936Y-148352110D02*
X184875317Y-148256872D01*
X184875317Y-148256872D02*
X184780079Y-148209253D01*
X184780079Y-148209253D02*
X184637222Y-148209253D01*
X184637222Y-148209253D02*
X184541984Y-148161634D01*
X184541984Y-148161634D02*
X184494365Y-148066396D01*
X184494365Y-148066396D02*
X184494365Y-148018777D01*
X184494365Y-148018777D02*
X184541984Y-147923539D01*
X184541984Y-147923539D02*
X184637222Y-147875920D01*
X184637222Y-147875920D02*
X184780079Y-147875920D01*
X184780079Y-147875920D02*
X184875317Y-147923539D01*
X185494365Y-148542587D02*
X185399127Y-148494968D01*
X185399127Y-148494968D02*
X185351508Y-148447348D01*
X185351508Y-148447348D02*
X185303889Y-148352110D01*
X185303889Y-148352110D02*
X185303889Y-148066396D01*
X185303889Y-148066396D02*
X185351508Y-147971158D01*
X185351508Y-147971158D02*
X185399127Y-147923539D01*
X185399127Y-147923539D02*
X185494365Y-147875920D01*
X185494365Y-147875920D02*
X185637222Y-147875920D01*
X185637222Y-147875920D02*
X185732460Y-147923539D01*
X185732460Y-147923539D02*
X185780079Y-147971158D01*
X185780079Y-147971158D02*
X185827698Y-148066396D01*
X185827698Y-148066396D02*
X185827698Y-148352110D01*
X185827698Y-148352110D02*
X185780079Y-148447348D01*
X185780079Y-148447348D02*
X185732460Y-148494968D01*
X185732460Y-148494968D02*
X185637222Y-148542587D01*
X185637222Y-148542587D02*
X185494365Y-148542587D01*
X186256270Y-148542587D02*
X186256270Y-147875920D01*
X186256270Y-148066396D02*
X186303889Y-147971158D01*
X186303889Y-147971158D02*
X186351508Y-147923539D01*
X186351508Y-147923539D02*
X186446746Y-147875920D01*
X186446746Y-147875920D02*
X186541984Y-147875920D01*
X165303884Y-150152531D02*
X165303884Y-149485864D01*
X165303884Y-149676340D02*
X165351503Y-149581102D01*
X165351503Y-149581102D02*
X165399122Y-149533483D01*
X165399122Y-149533483D02*
X165494360Y-149485864D01*
X165494360Y-149485864D02*
X165589598Y-149485864D01*
X166303884Y-150104912D02*
X166208646Y-150152531D01*
X166208646Y-150152531D02*
X166018170Y-150152531D01*
X166018170Y-150152531D02*
X165922932Y-150104912D01*
X165922932Y-150104912D02*
X165875313Y-150009673D01*
X165875313Y-150009673D02*
X165875313Y-149628721D01*
X165875313Y-149628721D02*
X165922932Y-149533483D01*
X165922932Y-149533483D02*
X166018170Y-149485864D01*
X166018170Y-149485864D02*
X166208646Y-149485864D01*
X166208646Y-149485864D02*
X166303884Y-149533483D01*
X166303884Y-149533483D02*
X166351503Y-149628721D01*
X166351503Y-149628721D02*
X166351503Y-149723959D01*
X166351503Y-149723959D02*
X165875313Y-149819197D01*
X166684837Y-149485864D02*
X166922932Y-150152531D01*
X166922932Y-150152531D02*
X167161027Y-149485864D01*
X168827694Y-150152531D02*
X168256266Y-150152531D01*
X168541980Y-150152531D02*
X168541980Y-149152531D01*
X168541980Y-149152531D02*
X168446742Y-149295388D01*
X168446742Y-149295388D02*
X168351504Y-149390626D01*
X168351504Y-149390626D02*
X168256266Y-149438245D01*
X169256266Y-150057292D02*
X169303885Y-150104912D01*
X169303885Y-150104912D02*
X169256266Y-150152531D01*
X169256266Y-150152531D02*
X169208647Y-150104912D01*
X169208647Y-150104912D02*
X169256266Y-150057292D01*
X169256266Y-150057292D02*
X169256266Y-150152531D01*
X169922932Y-149152531D02*
X170018170Y-149152531D01*
X170018170Y-149152531D02*
X170113408Y-149200150D01*
X170113408Y-149200150D02*
X170161027Y-149247769D01*
X170161027Y-149247769D02*
X170208646Y-149343007D01*
X170208646Y-149343007D02*
X170256265Y-149533483D01*
X170256265Y-149533483D02*
X170256265Y-149771578D01*
X170256265Y-149771578D02*
X170208646Y-149962054D01*
X170208646Y-149962054D02*
X170161027Y-150057292D01*
X170161027Y-150057292D02*
X170113408Y-150104912D01*
X170113408Y-150104912D02*
X170018170Y-150152531D01*
X170018170Y-150152531D02*
X169922932Y-150152531D01*
X169922932Y-150152531D02*
X169827694Y-150104912D01*
X169827694Y-150104912D02*
X169780075Y-150057292D01*
X169780075Y-150057292D02*
X169732456Y-149962054D01*
X169732456Y-149962054D02*
X169684837Y-149771578D01*
X169684837Y-149771578D02*
X169684837Y-149533483D01*
X169684837Y-149533483D02*
X169732456Y-149343007D01*
X169732456Y-149343007D02*
X169780075Y-149247769D01*
X169780075Y-149247769D02*
X169827694Y-149200150D01*
X169827694Y-149200150D02*
X169922932Y-149152531D01*
X170875313Y-149152531D02*
X170970551Y-149152531D01*
X170970551Y-149152531D02*
X171065789Y-149200150D01*
X171065789Y-149200150D02*
X171113408Y-149247769D01*
X171113408Y-149247769D02*
X171161027Y-149343007D01*
X171161027Y-149343007D02*
X171208646Y-149533483D01*
X171208646Y-149533483D02*
X171208646Y-149771578D01*
X171208646Y-149771578D02*
X171161027Y-149962054D01*
X171161027Y-149962054D02*
X171113408Y-150057292D01*
X171113408Y-150057292D02*
X171065789Y-150104912D01*
X171065789Y-150104912D02*
X170970551Y-150152531D01*
X170970551Y-150152531D02*
X170875313Y-150152531D01*
X170875313Y-150152531D02*
X170780075Y-150104912D01*
X170780075Y-150104912D02*
X170732456Y-150057292D01*
X170732456Y-150057292D02*
X170684837Y-149962054D01*
X170684837Y-149962054D02*
X170637218Y-149771578D01*
X170637218Y-149771578D02*
X170637218Y-149533483D01*
X170637218Y-149533483D02*
X170684837Y-149343007D01*
X170684837Y-149343007D02*
X170732456Y-149247769D01*
X170732456Y-149247769D02*
X170780075Y-149200150D01*
X170780075Y-149200150D02*
X170875313Y-149152531D01*
X165303884Y-151762475D02*
X165303884Y-150762475D01*
X165303884Y-150762475D02*
X165637217Y-151476760D01*
X165637217Y-151476760D02*
X165970550Y-150762475D01*
X165970550Y-150762475D02*
X165970550Y-151762475D01*
X166875312Y-151762475D02*
X166875312Y-151238665D01*
X166875312Y-151238665D02*
X166827693Y-151143427D01*
X166827693Y-151143427D02*
X166732455Y-151095808D01*
X166732455Y-151095808D02*
X166541979Y-151095808D01*
X166541979Y-151095808D02*
X166446741Y-151143427D01*
X166875312Y-151714856D02*
X166780074Y-151762475D01*
X166780074Y-151762475D02*
X166541979Y-151762475D01*
X166541979Y-151762475D02*
X166446741Y-151714856D01*
X166446741Y-151714856D02*
X166399122Y-151619617D01*
X166399122Y-151619617D02*
X166399122Y-151524379D01*
X166399122Y-151524379D02*
X166446741Y-151429141D01*
X166446741Y-151429141D02*
X166541979Y-151381522D01*
X166541979Y-151381522D02*
X166780074Y-151381522D01*
X166780074Y-151381522D02*
X166875312Y-151333903D01*
X167780074Y-151762475D02*
X167780074Y-150762475D01*
X167780074Y-151714856D02*
X167684836Y-151762475D01*
X167684836Y-151762475D02*
X167494360Y-151762475D01*
X167494360Y-151762475D02*
X167399122Y-151714856D01*
X167399122Y-151714856D02*
X167351503Y-151667236D01*
X167351503Y-151667236D02*
X167303884Y-151571998D01*
X167303884Y-151571998D02*
X167303884Y-151286284D01*
X167303884Y-151286284D02*
X167351503Y-151191046D01*
X167351503Y-151191046D02*
X167399122Y-151143427D01*
X167399122Y-151143427D02*
X167494360Y-151095808D01*
X167494360Y-151095808D02*
X167684836Y-151095808D01*
X167684836Y-151095808D02*
X167780074Y-151143427D01*
X168637217Y-151714856D02*
X168541979Y-151762475D01*
X168541979Y-151762475D02*
X168351503Y-151762475D01*
X168351503Y-151762475D02*
X168256265Y-151714856D01*
X168256265Y-151714856D02*
X168208646Y-151619617D01*
X168208646Y-151619617D02*
X168208646Y-151238665D01*
X168208646Y-151238665D02*
X168256265Y-151143427D01*
X168256265Y-151143427D02*
X168351503Y-151095808D01*
X168351503Y-151095808D02*
X168541979Y-151095808D01*
X168541979Y-151095808D02*
X168637217Y-151143427D01*
X168637217Y-151143427D02*
X168684836Y-151238665D01*
X168684836Y-151238665D02*
X168684836Y-151333903D01*
X168684836Y-151333903D02*
X168208646Y-151429141D01*
X169875313Y-151762475D02*
X169875313Y-150762475D01*
X169875313Y-151143427D02*
X169970551Y-151095808D01*
X169970551Y-151095808D02*
X170161027Y-151095808D01*
X170161027Y-151095808D02*
X170256265Y-151143427D01*
X170256265Y-151143427D02*
X170303884Y-151191046D01*
X170303884Y-151191046D02*
X170351503Y-151286284D01*
X170351503Y-151286284D02*
X170351503Y-151571998D01*
X170351503Y-151571998D02*
X170303884Y-151667236D01*
X170303884Y-151667236D02*
X170256265Y-151714856D01*
X170256265Y-151714856D02*
X170161027Y-151762475D01*
X170161027Y-151762475D02*
X169970551Y-151762475D01*
X169970551Y-151762475D02*
X169875313Y-151714856D01*
X170684837Y-151095808D02*
X170922932Y-151762475D01*
X171161027Y-151095808D02*
X170922932Y-151762475D01*
X170922932Y-151762475D02*
X170827694Y-152000570D01*
X170827694Y-152000570D02*
X170780075Y-152048189D01*
X170780075Y-152048189D02*
X170684837Y-152095808D01*
X171541980Y-151667236D02*
X171589599Y-151714856D01*
X171589599Y-151714856D02*
X171541980Y-151762475D01*
X171541980Y-151762475D02*
X171494361Y-151714856D01*
X171494361Y-151714856D02*
X171541980Y-151667236D01*
X171541980Y-151667236D02*
X171541980Y-151762475D01*
X171541980Y-151143427D02*
X171589599Y-151191046D01*
X171589599Y-151191046D02*
X171541980Y-151238665D01*
X171541980Y-151238665D02*
X171494361Y-151191046D01*
X171494361Y-151191046D02*
X171541980Y-151143427D01*
X171541980Y-151143427D02*
X171541980Y-151238665D01*
X172780075Y-151762475D02*
X172780075Y-150762475D01*
X172780075Y-150762475D02*
X173351503Y-151762475D01*
X173351503Y-151762475D02*
X173351503Y-150762475D01*
X174256265Y-151095808D02*
X174256265Y-151905332D01*
X174256265Y-151905332D02*
X174208646Y-152000570D01*
X174208646Y-152000570D02*
X174161027Y-152048189D01*
X174161027Y-152048189D02*
X174065789Y-152095808D01*
X174065789Y-152095808D02*
X173922932Y-152095808D01*
X173922932Y-152095808D02*
X173827694Y-152048189D01*
X174256265Y-151714856D02*
X174161027Y-151762475D01*
X174161027Y-151762475D02*
X173970551Y-151762475D01*
X173970551Y-151762475D02*
X173875313Y-151714856D01*
X173875313Y-151714856D02*
X173827694Y-151667236D01*
X173827694Y-151667236D02*
X173780075Y-151571998D01*
X173780075Y-151571998D02*
X173780075Y-151286284D01*
X173780075Y-151286284D02*
X173827694Y-151191046D01*
X173827694Y-151191046D02*
X173875313Y-151143427D01*
X173875313Y-151143427D02*
X173970551Y-151095808D01*
X173970551Y-151095808D02*
X174161027Y-151095808D01*
X174161027Y-151095808D02*
X174256265Y-151143427D01*
X175161027Y-151095808D02*
X175161027Y-151762475D01*
X174732456Y-151095808D02*
X174732456Y-151619617D01*
X174732456Y-151619617D02*
X174780075Y-151714856D01*
X174780075Y-151714856D02*
X174875313Y-151762475D01*
X174875313Y-151762475D02*
X175018170Y-151762475D01*
X175018170Y-151762475D02*
X175113408Y-151714856D01*
X175113408Y-151714856D02*
X175161027Y-151667236D01*
X175541980Y-151095808D02*
X175780075Y-151762475D01*
X176018170Y-151095808D02*
X175780075Y-151762475D01*
X175780075Y-151762475D02*
X175684837Y-152000570D01*
X175684837Y-152000570D02*
X175637218Y-152048189D01*
X175637218Y-152048189D02*
X175541980Y-152095808D01*
X176780075Y-151714856D02*
X176684837Y-151762475D01*
X176684837Y-151762475D02*
X176494361Y-151762475D01*
X176494361Y-151762475D02*
X176399123Y-151714856D01*
X176399123Y-151714856D02*
X176351504Y-151619617D01*
X176351504Y-151619617D02*
X176351504Y-151238665D01*
X176351504Y-151238665D02*
X176399123Y-151143427D01*
X176399123Y-151143427D02*
X176494361Y-151095808D01*
X176494361Y-151095808D02*
X176684837Y-151095808D01*
X176684837Y-151095808D02*
X176780075Y-151143427D01*
X176780075Y-151143427D02*
X176827694Y-151238665D01*
X176827694Y-151238665D02*
X176827694Y-151333903D01*
X176827694Y-151333903D02*
X176351504Y-151429141D01*
X177256266Y-151095808D02*
X177256266Y-151762475D01*
X177256266Y-151191046D02*
X177303885Y-151143427D01*
X177303885Y-151143427D02*
X177399123Y-151095808D01*
X177399123Y-151095808D02*
X177541980Y-151095808D01*
X177541980Y-151095808D02*
X177637218Y-151143427D01*
X177637218Y-151143427D02*
X177684837Y-151238665D01*
X177684837Y-151238665D02*
X177684837Y-151762475D01*
X179399123Y-151762475D02*
X178922933Y-151762475D01*
X178922933Y-151762475D02*
X178922933Y-150762475D01*
X180161028Y-151762475D02*
X180161028Y-151238665D01*
X180161028Y-151238665D02*
X180113409Y-151143427D01*
X180113409Y-151143427D02*
X180018171Y-151095808D01*
X180018171Y-151095808D02*
X179827695Y-151095808D01*
X179827695Y-151095808D02*
X179732457Y-151143427D01*
X180161028Y-151714856D02*
X180065790Y-151762475D01*
X180065790Y-151762475D02*
X179827695Y-151762475D01*
X179827695Y-151762475D02*
X179732457Y-151714856D01*
X179732457Y-151714856D02*
X179684838Y-151619617D01*
X179684838Y-151619617D02*
X179684838Y-151524379D01*
X179684838Y-151524379D02*
X179732457Y-151429141D01*
X179732457Y-151429141D02*
X179827695Y-151381522D01*
X179827695Y-151381522D02*
X180065790Y-151381522D01*
X180065790Y-151381522D02*
X180161028Y-151333903D01*
X180637219Y-151762475D02*
X180637219Y-151095808D01*
X180637219Y-151191046D02*
X180684838Y-151143427D01*
X180684838Y-151143427D02*
X180780076Y-151095808D01*
X180780076Y-151095808D02*
X180922933Y-151095808D01*
X180922933Y-151095808D02*
X181018171Y-151143427D01*
X181018171Y-151143427D02*
X181065790Y-151238665D01*
X181065790Y-151238665D02*
X181065790Y-151762475D01*
X181065790Y-151238665D02*
X181113409Y-151143427D01*
X181113409Y-151143427D02*
X181208647Y-151095808D01*
X181208647Y-151095808D02*
X181351504Y-151095808D01*
X181351504Y-151095808D02*
X181446743Y-151143427D01*
X181446743Y-151143427D02*
X181494362Y-151238665D01*
X181494362Y-151238665D02*
X181494362Y-151762475D01*
X182589600Y-150762475D02*
X182922933Y-151762475D01*
X182922933Y-151762475D02*
X183256266Y-150762475D01*
X183589600Y-151762475D02*
X183589600Y-151095808D01*
X183589600Y-150762475D02*
X183541981Y-150810094D01*
X183541981Y-150810094D02*
X183589600Y-150857713D01*
X183589600Y-150857713D02*
X183637219Y-150810094D01*
X183637219Y-150810094D02*
X183589600Y-150762475D01*
X183589600Y-150762475D02*
X183589600Y-150857713D01*
X184065790Y-151095808D02*
X184065790Y-151762475D01*
X184065790Y-151191046D02*
X184113409Y-151143427D01*
X184113409Y-151143427D02*
X184208647Y-151095808D01*
X184208647Y-151095808D02*
X184351504Y-151095808D01*
X184351504Y-151095808D02*
X184446742Y-151143427D01*
X184446742Y-151143427D02*
X184494361Y-151238665D01*
X184494361Y-151238665D02*
X184494361Y-151762475D01*
X184970552Y-151762475D02*
X184970552Y-150762475D01*
X185399123Y-151762475D02*
X185399123Y-151238665D01*
X185399123Y-151238665D02*
X185351504Y-151143427D01*
X185351504Y-151143427D02*
X185256266Y-151095808D01*
X185256266Y-151095808D02*
X185113409Y-151095808D01*
X185113409Y-151095808D02*
X185018171Y-151143427D01*
X185018171Y-151143427D02*
X184970552Y-151191046D01*
X186637219Y-151762475D02*
X186637219Y-150762475D01*
X187208647Y-151762475D02*
X186780076Y-151191046D01*
X187208647Y-150762475D02*
X186637219Y-151333903D01*
X187637219Y-151762475D02*
X187637219Y-150762475D01*
X188065790Y-151762475D02*
X188065790Y-151238665D01*
X188065790Y-151238665D02*
X188018171Y-151143427D01*
X188018171Y-151143427D02*
X187922933Y-151095808D01*
X187922933Y-151095808D02*
X187780076Y-151095808D01*
X187780076Y-151095808D02*
X187684838Y-151143427D01*
X187684838Y-151143427D02*
X187637219Y-151191046D01*
X188970552Y-151762475D02*
X188970552Y-151238665D01*
X188970552Y-151238665D02*
X188922933Y-151143427D01*
X188922933Y-151143427D02*
X188827695Y-151095808D01*
X188827695Y-151095808D02*
X188637219Y-151095808D01*
X188637219Y-151095808D02*
X188541981Y-151143427D01*
X188970552Y-151714856D02*
X188875314Y-151762475D01*
X188875314Y-151762475D02*
X188637219Y-151762475D01*
X188637219Y-151762475D02*
X188541981Y-151714856D01*
X188541981Y-151714856D02*
X188494362Y-151619617D01*
X188494362Y-151619617D02*
X188494362Y-151524379D01*
X188494362Y-151524379D02*
X188541981Y-151429141D01*
X188541981Y-151429141D02*
X188637219Y-151381522D01*
X188637219Y-151381522D02*
X188875314Y-151381522D01*
X188875314Y-151381522D02*
X188970552Y-151333903D01*
X189446743Y-151095808D02*
X189446743Y-151762475D01*
X189446743Y-151191046D02*
X189494362Y-151143427D01*
X189494362Y-151143427D02*
X189589600Y-151095808D01*
X189589600Y-151095808D02*
X189732457Y-151095808D01*
X189732457Y-151095808D02*
X189827695Y-151143427D01*
X189827695Y-151143427D02*
X189875314Y-151238665D01*
X189875314Y-151238665D02*
X189875314Y-151762475D01*
X190780076Y-151095808D02*
X190780076Y-151905332D01*
X190780076Y-151905332D02*
X190732457Y-152000570D01*
X190732457Y-152000570D02*
X190684838Y-152048189D01*
X190684838Y-152048189D02*
X190589600Y-152095808D01*
X190589600Y-152095808D02*
X190446743Y-152095808D01*
X190446743Y-152095808D02*
X190351505Y-152048189D01*
X190780076Y-151714856D02*
X190684838Y-151762475D01*
X190684838Y-151762475D02*
X190494362Y-151762475D01*
X190494362Y-151762475D02*
X190399124Y-151714856D01*
X190399124Y-151714856D02*
X190351505Y-151667236D01*
X190351505Y-151667236D02*
X190303886Y-151571998D01*
X190303886Y-151571998D02*
X190303886Y-151286284D01*
X190303886Y-151286284D02*
X190351505Y-151191046D01*
X190351505Y-151191046D02*
X190399124Y-151143427D01*
X190399124Y-151143427D02*
X190494362Y-151095808D01*
X190494362Y-151095808D02*
X190684838Y-151095808D01*
X190684838Y-151095808D02*
X190780076Y-151143427D01*
X165256265Y-152467657D02*
X165303884Y-152420038D01*
X165303884Y-152420038D02*
X165399122Y-152372419D01*
X165399122Y-152372419D02*
X165637217Y-152372419D01*
X165637217Y-152372419D02*
X165732455Y-152420038D01*
X165732455Y-152420038D02*
X165780074Y-152467657D01*
X165780074Y-152467657D02*
X165827693Y-152562895D01*
X165827693Y-152562895D02*
X165827693Y-152658133D01*
X165827693Y-152658133D02*
X165780074Y-152800990D01*
X165780074Y-152800990D02*
X165208646Y-153372419D01*
X165208646Y-153372419D02*
X165827693Y-153372419D01*
X166161027Y-152372419D02*
X166827693Y-152372419D01*
X166827693Y-152372419D02*
X166399122Y-153372419D01*
X167922931Y-152324800D02*
X167065789Y-153610514D01*
X168446741Y-152372419D02*
X168541979Y-152372419D01*
X168541979Y-152372419D02*
X168637217Y-152420038D01*
X168637217Y-152420038D02*
X168684836Y-152467657D01*
X168684836Y-152467657D02*
X168732455Y-152562895D01*
X168732455Y-152562895D02*
X168780074Y-152753371D01*
X168780074Y-152753371D02*
X168780074Y-152991466D01*
X168780074Y-152991466D02*
X168732455Y-153181942D01*
X168732455Y-153181942D02*
X168684836Y-153277180D01*
X168684836Y-153277180D02*
X168637217Y-153324800D01*
X168637217Y-153324800D02*
X168541979Y-153372419D01*
X168541979Y-153372419D02*
X168446741Y-153372419D01*
X168446741Y-153372419D02*
X168351503Y-153324800D01*
X168351503Y-153324800D02*
X168303884Y-153277180D01*
X168303884Y-153277180D02*
X168256265Y-153181942D01*
X168256265Y-153181942D02*
X168208646Y-152991466D01*
X168208646Y-152991466D02*
X168208646Y-152753371D01*
X168208646Y-152753371D02*
X168256265Y-152562895D01*
X168256265Y-152562895D02*
X168303884Y-152467657D01*
X168303884Y-152467657D02*
X168351503Y-152420038D01*
X168351503Y-152420038D02*
X168446741Y-152372419D01*
X169637217Y-152372419D02*
X169446741Y-152372419D01*
X169446741Y-152372419D02*
X169351503Y-152420038D01*
X169351503Y-152420038D02*
X169303884Y-152467657D01*
X169303884Y-152467657D02*
X169208646Y-152610514D01*
X169208646Y-152610514D02*
X169161027Y-152800990D01*
X169161027Y-152800990D02*
X169161027Y-153181942D01*
X169161027Y-153181942D02*
X169208646Y-153277180D01*
X169208646Y-153277180D02*
X169256265Y-153324800D01*
X169256265Y-153324800D02*
X169351503Y-153372419D01*
X169351503Y-153372419D02*
X169541979Y-153372419D01*
X169541979Y-153372419D02*
X169637217Y-153324800D01*
X169637217Y-153324800D02*
X169684836Y-153277180D01*
X169684836Y-153277180D02*
X169732455Y-153181942D01*
X169732455Y-153181942D02*
X169732455Y-152943847D01*
X169732455Y-152943847D02*
X169684836Y-152848609D01*
X169684836Y-152848609D02*
X169637217Y-152800990D01*
X169637217Y-152800990D02*
X169541979Y-152753371D01*
X169541979Y-152753371D02*
X169351503Y-152753371D01*
X169351503Y-152753371D02*
X169256265Y-152800990D01*
X169256265Y-152800990D02*
X169208646Y-152848609D01*
X169208646Y-152848609D02*
X169161027Y-152943847D01*
X170875312Y-152324800D02*
X170018170Y-153610514D01*
X171161027Y-152467657D02*
X171208646Y-152420038D01*
X171208646Y-152420038D02*
X171303884Y-152372419D01*
X171303884Y-152372419D02*
X171541979Y-152372419D01*
X171541979Y-152372419D02*
X171637217Y-152420038D01*
X171637217Y-152420038D02*
X171684836Y-152467657D01*
X171684836Y-152467657D02*
X171732455Y-152562895D01*
X171732455Y-152562895D02*
X171732455Y-152658133D01*
X171732455Y-152658133D02*
X171684836Y-152800990D01*
X171684836Y-152800990D02*
X171113408Y-153372419D01*
X171113408Y-153372419D02*
X171732455Y-153372419D01*
X172351503Y-152372419D02*
X172446741Y-152372419D01*
X172446741Y-152372419D02*
X172541979Y-152420038D01*
X172541979Y-152420038D02*
X172589598Y-152467657D01*
X172589598Y-152467657D02*
X172637217Y-152562895D01*
X172637217Y-152562895D02*
X172684836Y-152753371D01*
X172684836Y-152753371D02*
X172684836Y-152991466D01*
X172684836Y-152991466D02*
X172637217Y-153181942D01*
X172637217Y-153181942D02*
X172589598Y-153277180D01*
X172589598Y-153277180D02*
X172541979Y-153324800D01*
X172541979Y-153324800D02*
X172446741Y-153372419D01*
X172446741Y-153372419D02*
X172351503Y-153372419D01*
X172351503Y-153372419D02*
X172256265Y-153324800D01*
X172256265Y-153324800D02*
X172208646Y-153277180D01*
X172208646Y-153277180D02*
X172161027Y-153181942D01*
X172161027Y-153181942D02*
X172113408Y-152991466D01*
X172113408Y-152991466D02*
X172113408Y-152753371D01*
X172113408Y-152753371D02*
X172161027Y-152562895D01*
X172161027Y-152562895D02*
X172208646Y-152467657D01*
X172208646Y-152467657D02*
X172256265Y-152420038D01*
X172256265Y-152420038D02*
X172351503Y-152372419D01*
X173065789Y-152467657D02*
X173113408Y-152420038D01*
X173113408Y-152420038D02*
X173208646Y-152372419D01*
X173208646Y-152372419D02*
X173446741Y-152372419D01*
X173446741Y-152372419D02*
X173541979Y-152420038D01*
X173541979Y-152420038D02*
X173589598Y-152467657D01*
X173589598Y-152467657D02*
X173637217Y-152562895D01*
X173637217Y-152562895D02*
X173637217Y-152658133D01*
X173637217Y-152658133D02*
X173589598Y-152800990D01*
X173589598Y-152800990D02*
X173018170Y-153372419D01*
X173018170Y-153372419D02*
X173637217Y-153372419D01*
X174494360Y-152372419D02*
X174303884Y-152372419D01*
X174303884Y-152372419D02*
X174208646Y-152420038D01*
X174208646Y-152420038D02*
X174161027Y-152467657D01*
X174161027Y-152467657D02*
X174065789Y-152610514D01*
X174065789Y-152610514D02*
X174018170Y-152800990D01*
X174018170Y-152800990D02*
X174018170Y-153181942D01*
X174018170Y-153181942D02*
X174065789Y-153277180D01*
X174065789Y-153277180D02*
X174113408Y-153324800D01*
X174113408Y-153324800D02*
X174208646Y-153372419D01*
X174208646Y-153372419D02*
X174399122Y-153372419D01*
X174399122Y-153372419D02*
X174494360Y-153324800D01*
X174494360Y-153324800D02*
X174541979Y-153277180D01*
X174541979Y-153277180D02*
X174589598Y-153181942D01*
X174589598Y-153181942D02*
X174589598Y-152943847D01*
X174589598Y-152943847D02*
X174541979Y-152848609D01*
X174541979Y-152848609D02*
X174494360Y-152800990D01*
X174494360Y-152800990D02*
X174399122Y-152753371D01*
X174399122Y-152753371D02*
X174208646Y-152753371D01*
X174208646Y-152753371D02*
X174113408Y-152800990D01*
X174113408Y-152800990D02*
X174065789Y-152848609D01*
X174065789Y-152848609D02*
X174018170Y-152943847D01*
D11*
X162924819Y-113238094D02*
X161924819Y-113238094D01*
X161924819Y-113238094D02*
X161924819Y-112999999D01*
X161924819Y-112999999D02*
X161972438Y-112857142D01*
X161972438Y-112857142D02*
X162067676Y-112761904D01*
X162067676Y-112761904D02*
X162162914Y-112714285D01*
X162162914Y-112714285D02*
X162353390Y-112666666D01*
X162353390Y-112666666D02*
X162496247Y-112666666D01*
X162496247Y-112666666D02*
X162686723Y-112714285D01*
X162686723Y-112714285D02*
X162781961Y-112761904D01*
X162781961Y-112761904D02*
X162877200Y-112857142D01*
X162877200Y-112857142D02*
X162924819Y-112999999D01*
X162924819Y-112999999D02*
X162924819Y-113238094D01*
X162924819Y-111714285D02*
X162924819Y-112285713D01*
X162924819Y-111999999D02*
X161924819Y-111999999D01*
X161924819Y-111999999D02*
X162067676Y-112095237D01*
X162067676Y-112095237D02*
X162162914Y-112190475D01*
X162162914Y-112190475D02*
X162210533Y-112285713D01*
X162554819Y-107681904D02*
X161554819Y-107681904D01*
X162554819Y-107110476D02*
X161983390Y-107539047D01*
X161554819Y-107110476D02*
X162126247Y-107681904D01*
X137354819Y-89833333D02*
X138069104Y-89833333D01*
X138069104Y-89833333D02*
X138211961Y-89880952D01*
X138211961Y-89880952D02*
X138307200Y-89976190D01*
X138307200Y-89976190D02*
X138354819Y-90119047D01*
X138354819Y-90119047D02*
X138354819Y-90214285D01*
X137450057Y-89404761D02*
X137402438Y-89357142D01*
X137402438Y-89357142D02*
X137354819Y-89261904D01*
X137354819Y-89261904D02*
X137354819Y-89023809D01*
X137354819Y-89023809D02*
X137402438Y-88928571D01*
X137402438Y-88928571D02*
X137450057Y-88880952D01*
X137450057Y-88880952D02*
X137545295Y-88833333D01*
X137545295Y-88833333D02*
X137640533Y-88833333D01*
X137640533Y-88833333D02*
X137783390Y-88880952D01*
X137783390Y-88880952D02*
X138354819Y-89452380D01*
X138354819Y-89452380D02*
X138354819Y-88833333D01*
X104833333Y-155574819D02*
X104500000Y-155098628D01*
X104261905Y-155574819D02*
X104261905Y-154574819D01*
X104261905Y-154574819D02*
X104642857Y-154574819D01*
X104642857Y-154574819D02*
X104738095Y-154622438D01*
X104738095Y-154622438D02*
X104785714Y-154670057D01*
X104785714Y-154670057D02*
X104833333Y-154765295D01*
X104833333Y-154765295D02*
X104833333Y-154908152D01*
X104833333Y-154908152D02*
X104785714Y-155003390D01*
X104785714Y-155003390D02*
X104738095Y-155051009D01*
X104738095Y-155051009D02*
X104642857Y-155098628D01*
X104642857Y-155098628D02*
X104261905Y-155098628D01*
X105785714Y-155574819D02*
X105214286Y-155574819D01*
X105500000Y-155574819D02*
X105500000Y-154574819D01*
X105500000Y-154574819D02*
X105404762Y-154717676D01*
X105404762Y-154717676D02*
X105309524Y-154812914D01*
X105309524Y-154812914D02*
X105214286Y-154860533D01*
X122509374Y-85359580D02*
X122461755Y-85407200D01*
X122461755Y-85407200D02*
X122318898Y-85454819D01*
X122318898Y-85454819D02*
X122223660Y-85454819D01*
X122223660Y-85454819D02*
X122080803Y-85407200D01*
X122080803Y-85407200D02*
X121985565Y-85311961D01*
X121985565Y-85311961D02*
X121937946Y-85216723D01*
X121937946Y-85216723D02*
X121890327Y-85026247D01*
X121890327Y-85026247D02*
X121890327Y-84883390D01*
X121890327Y-84883390D02*
X121937946Y-84692914D01*
X121937946Y-84692914D02*
X121985565Y-84597676D01*
X121985565Y-84597676D02*
X122080803Y-84502438D01*
X122080803Y-84502438D02*
X122223660Y-84454819D01*
X122223660Y-84454819D02*
X122318898Y-84454819D01*
X122318898Y-84454819D02*
X122461755Y-84502438D01*
X122461755Y-84502438D02*
X122509374Y-84550057D01*
X123461755Y-85454819D02*
X122890327Y-85454819D01*
X123176041Y-85454819D02*
X123176041Y-84454819D01*
X123176041Y-84454819D02*
X123080803Y-84597676D01*
X123080803Y-84597676D02*
X122985565Y-84692914D01*
X122985565Y-84692914D02*
X122890327Y-84740533D01*
X159833333Y-104324819D02*
X159500000Y-103848628D01*
X159261905Y-104324819D02*
X159261905Y-103324819D01*
X159261905Y-103324819D02*
X159642857Y-103324819D01*
X159642857Y-103324819D02*
X159738095Y-103372438D01*
X159738095Y-103372438D02*
X159785714Y-103420057D01*
X159785714Y-103420057D02*
X159833333Y-103515295D01*
X159833333Y-103515295D02*
X159833333Y-103658152D01*
X159833333Y-103658152D02*
X159785714Y-103753390D01*
X159785714Y-103753390D02*
X159738095Y-103801009D01*
X159738095Y-103801009D02*
X159642857Y-103848628D01*
X159642857Y-103848628D02*
X159261905Y-103848628D01*
X160166667Y-103324819D02*
X160785714Y-103324819D01*
X160785714Y-103324819D02*
X160452381Y-103705771D01*
X160452381Y-103705771D02*
X160595238Y-103705771D01*
X160595238Y-103705771D02*
X160690476Y-103753390D01*
X160690476Y-103753390D02*
X160738095Y-103801009D01*
X160738095Y-103801009D02*
X160785714Y-103896247D01*
X160785714Y-103896247D02*
X160785714Y-104134342D01*
X160785714Y-104134342D02*
X160738095Y-104229580D01*
X160738095Y-104229580D02*
X160690476Y-104277200D01*
X160690476Y-104277200D02*
X160595238Y-104324819D01*
X160595238Y-104324819D02*
X160309524Y-104324819D01*
X160309524Y-104324819D02*
X160214286Y-104277200D01*
X160214286Y-104277200D02*
X160166667Y-104229580D01*
X101261905Y-147924819D02*
X101261905Y-146924819D01*
X101261905Y-146924819D02*
X101500000Y-146924819D01*
X101500000Y-146924819D02*
X101642857Y-146972438D01*
X101642857Y-146972438D02*
X101738095Y-147067676D01*
X101738095Y-147067676D02*
X101785714Y-147162914D01*
X101785714Y-147162914D02*
X101833333Y-147353390D01*
X101833333Y-147353390D02*
X101833333Y-147496247D01*
X101833333Y-147496247D02*
X101785714Y-147686723D01*
X101785714Y-147686723D02*
X101738095Y-147781961D01*
X101738095Y-147781961D02*
X101642857Y-147877200D01*
X101642857Y-147877200D02*
X101500000Y-147924819D01*
X101500000Y-147924819D02*
X101261905Y-147924819D01*
X102214286Y-147020057D02*
X102261905Y-146972438D01*
X102261905Y-146972438D02*
X102357143Y-146924819D01*
X102357143Y-146924819D02*
X102595238Y-146924819D01*
X102595238Y-146924819D02*
X102690476Y-146972438D01*
X102690476Y-146972438D02*
X102738095Y-147020057D01*
X102738095Y-147020057D02*
X102785714Y-147115295D01*
X102785714Y-147115295D02*
X102785714Y-147210533D01*
X102785714Y-147210533D02*
X102738095Y-147353390D01*
X102738095Y-147353390D02*
X102166667Y-147924819D01*
X102166667Y-147924819D02*
X102785714Y-147924819D01*
X106818095Y-147554819D02*
X106818095Y-146554819D01*
X107389523Y-147554819D02*
X106960952Y-146983390D01*
X107389523Y-146554819D02*
X106818095Y-147126247D01*
X147333333Y-99084819D02*
X147000000Y-98608628D01*
X146761905Y-99084819D02*
X146761905Y-98084819D01*
X146761905Y-98084819D02*
X147142857Y-98084819D01*
X147142857Y-98084819D02*
X147238095Y-98132438D01*
X147238095Y-98132438D02*
X147285714Y-98180057D01*
X147285714Y-98180057D02*
X147333333Y-98275295D01*
X147333333Y-98275295D02*
X147333333Y-98418152D01*
X147333333Y-98418152D02*
X147285714Y-98513390D01*
X147285714Y-98513390D02*
X147238095Y-98561009D01*
X147238095Y-98561009D02*
X147142857Y-98608628D01*
X147142857Y-98608628D02*
X146761905Y-98608628D01*
X148190476Y-98418152D02*
X148190476Y-99084819D01*
X147952381Y-98037200D02*
X147714286Y-98751485D01*
X147714286Y-98751485D02*
X148333333Y-98751485D01*
X101854819Y-95583333D02*
X102569104Y-95583333D01*
X102569104Y-95583333D02*
X102711961Y-95630952D01*
X102711961Y-95630952D02*
X102807200Y-95726190D01*
X102807200Y-95726190D02*
X102854819Y-95869047D01*
X102854819Y-95869047D02*
X102854819Y-95964285D01*
X101854819Y-95202380D02*
X101854819Y-94583333D01*
X101854819Y-94583333D02*
X102235771Y-94916666D01*
X102235771Y-94916666D02*
X102235771Y-94773809D01*
X102235771Y-94773809D02*
X102283390Y-94678571D01*
X102283390Y-94678571D02*
X102331009Y-94630952D01*
X102331009Y-94630952D02*
X102426247Y-94583333D01*
X102426247Y-94583333D02*
X102664342Y-94583333D01*
X102664342Y-94583333D02*
X102759580Y-94630952D01*
X102759580Y-94630952D02*
X102807200Y-94678571D01*
X102807200Y-94678571D02*
X102854819Y-94773809D01*
X102854819Y-94773809D02*
X102854819Y-95059523D01*
X102854819Y-95059523D02*
X102807200Y-95154761D01*
X102807200Y-95154761D02*
X102759580Y-95202380D01*
X141738095Y-135454819D02*
X141738095Y-136264342D01*
X141738095Y-136264342D02*
X141785714Y-136359580D01*
X141785714Y-136359580D02*
X141833333Y-136407200D01*
X141833333Y-136407200D02*
X141928571Y-136454819D01*
X141928571Y-136454819D02*
X142119047Y-136454819D01*
X142119047Y-136454819D02*
X142214285Y-136407200D01*
X142214285Y-136407200D02*
X142261904Y-136359580D01*
X142261904Y-136359580D02*
X142309523Y-136264342D01*
X142309523Y-136264342D02*
X142309523Y-135454819D01*
X143309523Y-136454819D02*
X142738095Y-136454819D01*
X143023809Y-136454819D02*
X143023809Y-135454819D01*
X143023809Y-135454819D02*
X142928571Y-135597676D01*
X142928571Y-135597676D02*
X142833333Y-135692914D01*
X142833333Y-135692914D02*
X142738095Y-135740533D01*
X122584819Y-148166666D02*
X122108628Y-148499999D01*
X122584819Y-148738094D02*
X121584819Y-148738094D01*
X121584819Y-148738094D02*
X121584819Y-148357142D01*
X121584819Y-148357142D02*
X121632438Y-148261904D01*
X121632438Y-148261904D02*
X121680057Y-148214285D01*
X121680057Y-148214285D02*
X121775295Y-148166666D01*
X121775295Y-148166666D02*
X121918152Y-148166666D01*
X121918152Y-148166666D02*
X122013390Y-148214285D01*
X122013390Y-148214285D02*
X122061009Y-148261904D01*
X122061009Y-148261904D02*
X122108628Y-148357142D01*
X122108628Y-148357142D02*
X122108628Y-148738094D01*
X121680057Y-147785713D02*
X121632438Y-147738094D01*
X121632438Y-147738094D02*
X121584819Y-147642856D01*
X121584819Y-147642856D02*
X121584819Y-147404761D01*
X121584819Y-147404761D02*
X121632438Y-147309523D01*
X121632438Y-147309523D02*
X121680057Y-147261904D01*
X121680057Y-147261904D02*
X121775295Y-147214285D01*
X121775295Y-147214285D02*
X121870533Y-147214285D01*
X121870533Y-147214285D02*
X122013390Y-147261904D01*
X122013390Y-147261904D02*
X122584819Y-147833332D01*
X122584819Y-147833332D02*
X122584819Y-147214285D01*
X164954819Y-113333333D02*
X165669104Y-113333333D01*
X165669104Y-113333333D02*
X165811961Y-113380952D01*
X165811961Y-113380952D02*
X165907200Y-113476190D01*
X165907200Y-113476190D02*
X165954819Y-113619047D01*
X165954819Y-113619047D02*
X165954819Y-113714285D01*
X165954819Y-112333333D02*
X165954819Y-112904761D01*
X165954819Y-112619047D02*
X164954819Y-112619047D01*
X164954819Y-112619047D02*
X165097676Y-112714285D01*
X165097676Y-112714285D02*
X165192914Y-112809523D01*
X165192914Y-112809523D02*
X165240533Y-112904761D01*
X101854819Y-115583333D02*
X102569104Y-115583333D01*
X102569104Y-115583333D02*
X102711961Y-115630952D01*
X102711961Y-115630952D02*
X102807200Y-115726190D01*
X102807200Y-115726190D02*
X102854819Y-115869047D01*
X102854819Y-115869047D02*
X102854819Y-115964285D01*
X102188152Y-114678571D02*
X102854819Y-114678571D01*
X101807200Y-114916666D02*
X102521485Y-115154761D01*
X102521485Y-115154761D02*
X102521485Y-114535714D01*
X111238095Y-135354819D02*
X111238095Y-136164342D01*
X111238095Y-136164342D02*
X111285714Y-136259580D01*
X111285714Y-136259580D02*
X111333333Y-136307200D01*
X111333333Y-136307200D02*
X111428571Y-136354819D01*
X111428571Y-136354819D02*
X111619047Y-136354819D01*
X111619047Y-136354819D02*
X111714285Y-136307200D01*
X111714285Y-136307200D02*
X111761904Y-136259580D01*
X111761904Y-136259580D02*
X111809523Y-136164342D01*
X111809523Y-136164342D02*
X111809523Y-135354819D01*
X112238095Y-135450057D02*
X112285714Y-135402438D01*
X112285714Y-135402438D02*
X112380952Y-135354819D01*
X112380952Y-135354819D02*
X112619047Y-135354819D01*
X112619047Y-135354819D02*
X112714285Y-135402438D01*
X112714285Y-135402438D02*
X112761904Y-135450057D01*
X112761904Y-135450057D02*
X112809523Y-135545295D01*
X112809523Y-135545295D02*
X112809523Y-135640533D01*
X112809523Y-135640533D02*
X112761904Y-135783390D01*
X112761904Y-135783390D02*
X112190476Y-136354819D01*
X112190476Y-136354819D02*
X112809523Y-136354819D01*
X101854819Y-138083333D02*
X102569104Y-138083333D01*
X102569104Y-138083333D02*
X102711961Y-138130952D01*
X102711961Y-138130952D02*
X102807200Y-138226190D01*
X102807200Y-138226190D02*
X102854819Y-138369047D01*
X102854819Y-138369047D02*
X102854819Y-138464285D01*
X101854819Y-137178571D02*
X101854819Y-137369047D01*
X101854819Y-137369047D02*
X101902438Y-137464285D01*
X101902438Y-137464285D02*
X101950057Y-137511904D01*
X101950057Y-137511904D02*
X102092914Y-137607142D01*
X102092914Y-137607142D02*
X102283390Y-137654761D01*
X102283390Y-137654761D02*
X102664342Y-137654761D01*
X102664342Y-137654761D02*
X102759580Y-137607142D01*
X102759580Y-137607142D02*
X102807200Y-137559523D01*
X102807200Y-137559523D02*
X102854819Y-137464285D01*
X102854819Y-137464285D02*
X102854819Y-137273809D01*
X102854819Y-137273809D02*
X102807200Y-137178571D01*
X102807200Y-137178571D02*
X102759580Y-137130952D01*
X102759580Y-137130952D02*
X102664342Y-137083333D01*
X102664342Y-137083333D02*
X102426247Y-137083333D01*
X102426247Y-137083333D02*
X102331009Y-137130952D01*
X102331009Y-137130952D02*
X102283390Y-137178571D01*
X102283390Y-137178571D02*
X102235771Y-137273809D01*
X102235771Y-137273809D02*
X102235771Y-137464285D01*
X102235771Y-137464285D02*
X102283390Y-137559523D01*
X102283390Y-137559523D02*
X102331009Y-137607142D01*
X102331009Y-137607142D02*
X102426247Y-137654761D01*
X124874819Y-106333333D02*
X125589104Y-106333333D01*
X125589104Y-106333333D02*
X125731961Y-106380952D01*
X125731961Y-106380952D02*
X125827200Y-106476190D01*
X125827200Y-106476190D02*
X125874819Y-106619047D01*
X125874819Y-106619047D02*
X125874819Y-106714285D01*
X124874819Y-105380952D02*
X124874819Y-105857142D01*
X124874819Y-105857142D02*
X125351009Y-105904761D01*
X125351009Y-105904761D02*
X125303390Y-105857142D01*
X125303390Y-105857142D02*
X125255771Y-105761904D01*
X125255771Y-105761904D02*
X125255771Y-105523809D01*
X125255771Y-105523809D02*
X125303390Y-105428571D01*
X125303390Y-105428571D02*
X125351009Y-105380952D01*
X125351009Y-105380952D02*
X125446247Y-105333333D01*
X125446247Y-105333333D02*
X125684342Y-105333333D01*
X125684342Y-105333333D02*
X125779580Y-105380952D01*
X125779580Y-105380952D02*
X125827200Y-105428571D01*
X125827200Y-105428571D02*
X125874819Y-105523809D01*
X125874819Y-105523809D02*
X125874819Y-105761904D01*
X125874819Y-105761904D02*
X125827200Y-105857142D01*
X125827200Y-105857142D02*
X125779580Y-105904761D01*
X101854819Y-128333333D02*
X102569104Y-128333333D01*
X102569104Y-128333333D02*
X102711961Y-128380952D01*
X102711961Y-128380952D02*
X102807200Y-128476190D01*
X102807200Y-128476190D02*
X102854819Y-128619047D01*
X102854819Y-128619047D02*
X102854819Y-128714285D01*
X101854819Y-127952380D02*
X101854819Y-127285714D01*
X101854819Y-127285714D02*
X102854819Y-127714285D01*
X107766667Y-90707200D02*
X107909524Y-90754819D01*
X107909524Y-90754819D02*
X108147619Y-90754819D01*
X108147619Y-90754819D02*
X108242857Y-90707200D01*
X108242857Y-90707200D02*
X108290476Y-90659580D01*
X108290476Y-90659580D02*
X108338095Y-90564342D01*
X108338095Y-90564342D02*
X108338095Y-90469104D01*
X108338095Y-90469104D02*
X108290476Y-90373866D01*
X108290476Y-90373866D02*
X108242857Y-90326247D01*
X108242857Y-90326247D02*
X108147619Y-90278628D01*
X108147619Y-90278628D02*
X107957143Y-90231009D01*
X107957143Y-90231009D02*
X107861905Y-90183390D01*
X107861905Y-90183390D02*
X107814286Y-90135771D01*
X107814286Y-90135771D02*
X107766667Y-90040533D01*
X107766667Y-90040533D02*
X107766667Y-89945295D01*
X107766667Y-89945295D02*
X107814286Y-89850057D01*
X107814286Y-89850057D02*
X107861905Y-89802438D01*
X107861905Y-89802438D02*
X107957143Y-89754819D01*
X107957143Y-89754819D02*
X108195238Y-89754819D01*
X108195238Y-89754819D02*
X108338095Y-89802438D01*
X108671429Y-89754819D02*
X108909524Y-90754819D01*
X108909524Y-90754819D02*
X109100000Y-90040533D01*
X109100000Y-90040533D02*
X109290476Y-90754819D01*
X109290476Y-90754819D02*
X109528572Y-89754819D01*
X110433333Y-90754819D02*
X109861905Y-90754819D01*
X110147619Y-90754819D02*
X110147619Y-89754819D01*
X110147619Y-89754819D02*
X110052381Y-89897676D01*
X110052381Y-89897676D02*
X109957143Y-89992914D01*
X109957143Y-89992914D02*
X109861905Y-90040533D01*
%TO.C,D1*%
D12*
X158530000Y-109780000D02*
X161470000Y-109780000D01*
X161470000Y-115220000D01*
X158530000Y-115220000D01*
X158530000Y-109780000D01*
X161470000Y-110800000D02*
X158530000Y-110800000D01*
X161470000Y-110680000D02*
X158530000Y-110680000D01*
X161470000Y-110560000D02*
X158530000Y-110560000D01*
X160000000Y-116240000D02*
X160000000Y-115220000D01*
X160000000Y-108760000D02*
X160000000Y-109780000D01*
%TO.C,J2*%
X138900000Y-81500000D02*
X138900000Y-86833334D01*
X138900000Y-86833334D02*
X139260000Y-86833334D01*
X138900000Y-92166666D02*
X138900000Y-97499999D01*
X138900000Y-97499999D02*
X186100000Y-97500000D01*
X139260000Y-86833334D02*
X139260000Y-92166666D01*
X139260000Y-92166666D02*
X138900000Y-92166666D01*
X186100000Y-81500001D02*
X138900000Y-81500000D01*
X186100000Y-97500000D02*
X186100000Y-81500001D01*
%TO.C,R1*%
X96280000Y-151500000D02*
X97130000Y-151500000D01*
X113720000Y-151500000D02*
X112870000Y-151500000D01*
X97130000Y-148880000D02*
X112870000Y-148880000D01*
X112870000Y-154120000D01*
X97130000Y-154120000D01*
X97130000Y-148880000D01*
%TO.C,C1*%
X115858959Y-88925000D02*
X117108959Y-88925000D01*
X116483959Y-88300000D02*
X116483959Y-89550000D01*
X122676041Y-86170000D02*
X122676041Y-98830000D01*
X122716041Y-86170000D02*
X122716041Y-98830000D01*
X122756041Y-86171000D02*
X122756041Y-98829000D01*
X122796041Y-86171000D02*
X122796041Y-98829000D01*
X122836041Y-86172000D02*
X122836041Y-98828000D01*
X122876041Y-86173000D02*
X122876041Y-98827000D01*
X122916041Y-86175000D02*
X122916041Y-98825000D01*
X122956041Y-86176000D02*
X122956041Y-98824000D01*
X122996041Y-86178000D02*
X122996041Y-98822000D01*
X123036041Y-86180000D02*
X123036041Y-98820000D01*
X123076041Y-86183000D02*
X123076041Y-98817000D01*
X123116041Y-86185000D02*
X123116041Y-98815000D01*
X123156041Y-86188000D02*
X123156041Y-98812000D01*
X123196041Y-86191000D02*
X123196041Y-98809000D01*
X123236041Y-86195000D02*
X123236041Y-98805000D01*
X123276041Y-86198000D02*
X123276041Y-98802000D01*
X123316041Y-86202000D02*
X123316041Y-98798000D01*
X123356041Y-86206000D02*
X123356041Y-98794000D01*
X123396041Y-86211000D02*
X123396041Y-98789000D01*
X123436041Y-86216000D02*
X123436041Y-98784000D01*
X123476041Y-86220000D02*
X123476041Y-98780000D01*
X123516041Y-86226000D02*
X123516041Y-98774000D01*
X123556041Y-86231000D02*
X123556041Y-98769000D01*
X123596041Y-86237000D02*
X123596041Y-98763000D01*
X123636041Y-86243000D02*
X123636041Y-98757000D01*
X123676041Y-86249000D02*
X123676041Y-98751000D01*
X123716041Y-86255000D02*
X123716041Y-98745000D01*
X123756041Y-86262000D02*
X123756041Y-91060000D01*
X123756041Y-93940000D02*
X123756041Y-98738000D01*
X123796041Y-86269000D02*
X123796041Y-91060000D01*
X123796041Y-93940000D02*
X123796041Y-98731000D01*
X123836041Y-86277000D02*
X123836041Y-91060000D01*
X123836041Y-93940000D02*
X123836041Y-98723000D01*
X123876041Y-86284000D02*
X123876041Y-91060000D01*
X123876041Y-93940000D02*
X123876041Y-98716000D01*
X123916041Y-86292000D02*
X123916041Y-91060000D01*
X123916041Y-93940000D02*
X123916041Y-98708000D01*
X123956041Y-86300000D02*
X123956041Y-91060000D01*
X123956041Y-93940000D02*
X123956041Y-98700000D01*
X123996041Y-86308000D02*
X123996041Y-91060000D01*
X123996041Y-93940000D02*
X123996041Y-98692000D01*
X124036041Y-86317000D02*
X124036041Y-91060000D01*
X124036041Y-93940000D02*
X124036041Y-98683000D01*
X124076041Y-86326000D02*
X124076041Y-91060000D01*
X124076041Y-93940000D02*
X124076041Y-98674000D01*
X124116041Y-86335000D02*
X124116041Y-91060000D01*
X124116041Y-93940000D02*
X124116041Y-98665000D01*
X124156041Y-86344000D02*
X124156041Y-91060000D01*
X124156041Y-93940000D02*
X124156041Y-98656000D01*
X124196041Y-86354000D02*
X124196041Y-91060000D01*
X124196041Y-93940000D02*
X124196041Y-98646000D01*
X124236041Y-86364000D02*
X124236041Y-91060000D01*
X124236041Y-93940000D02*
X124236041Y-98636000D01*
X124276041Y-86374000D02*
X124276041Y-91060000D01*
X124276041Y-93940000D02*
X124276041Y-98626000D01*
X124316041Y-86385000D02*
X124316041Y-91060000D01*
X124316041Y-93940000D02*
X124316041Y-98615000D01*
X124356041Y-86396000D02*
X124356041Y-91060000D01*
X124356041Y-93940000D02*
X124356041Y-98604000D01*
X124396041Y-86407000D02*
X124396041Y-91060000D01*
X124396041Y-93940000D02*
X124396041Y-98593000D01*
X124436041Y-86418000D02*
X124436041Y-91060000D01*
X124436041Y-93940000D02*
X124436041Y-98582000D01*
X124476041Y-86430000D02*
X124476041Y-91060000D01*
X124476041Y-93940000D02*
X124476041Y-98570000D01*
X124516041Y-86442000D02*
X124516041Y-91060000D01*
X124516041Y-93940000D02*
X124516041Y-98558000D01*
X124556041Y-86454000D02*
X124556041Y-91060000D01*
X124556041Y-93940000D02*
X124556041Y-98546000D01*
X124596041Y-86466000D02*
X124596041Y-91060000D01*
X124596041Y-93940000D02*
X124596041Y-98534000D01*
X124636041Y-86479000D02*
X124636041Y-91060000D01*
X124636041Y-93940000D02*
X124636041Y-98521000D01*
X124676041Y-86492000D02*
X124676041Y-91060000D01*
X124676041Y-93940000D02*
X124676041Y-98508000D01*
X124716041Y-86505000D02*
X124716041Y-91060000D01*
X124716041Y-93940000D02*
X124716041Y-98495000D01*
X124756041Y-86519000D02*
X124756041Y-91060000D01*
X124756041Y-93940000D02*
X124756041Y-98481000D01*
X124796041Y-86533000D02*
X124796041Y-91060000D01*
X124796041Y-93940000D02*
X124796041Y-98467000D01*
X124836041Y-86547000D02*
X124836041Y-91060000D01*
X124836041Y-93940000D02*
X124836041Y-98453000D01*
X124876041Y-86562000D02*
X124876041Y-91060000D01*
X124876041Y-93940000D02*
X124876041Y-98438000D01*
X124916041Y-86577000D02*
X124916041Y-91060000D01*
X124916041Y-93940000D02*
X124916041Y-98423000D01*
X124956041Y-86592000D02*
X124956041Y-91060000D01*
X124956041Y-93940000D02*
X124956041Y-98408000D01*
X124996041Y-86608000D02*
X124996041Y-91060000D01*
X124996041Y-93940000D02*
X124996041Y-98392000D01*
X125036041Y-86623000D02*
X125036041Y-91060000D01*
X125036041Y-93940000D02*
X125036041Y-98377000D01*
X125076041Y-86639000D02*
X125076041Y-91060000D01*
X125076041Y-93940000D02*
X125076041Y-98361000D01*
X125116041Y-86656000D02*
X125116041Y-91060000D01*
X125116041Y-93940000D02*
X125116041Y-98344000D01*
X125156041Y-86673000D02*
X125156041Y-91060000D01*
X125156041Y-93940000D02*
X125156041Y-98327000D01*
X125196041Y-86690000D02*
X125196041Y-91060000D01*
X125196041Y-93940000D02*
X125196041Y-98310000D01*
X125236041Y-86707000D02*
X125236041Y-91060000D01*
X125236041Y-93940000D02*
X125236041Y-98293000D01*
X125276041Y-86725000D02*
X125276041Y-91060000D01*
X125276041Y-93940000D02*
X125276041Y-98275000D01*
X125316041Y-86743000D02*
X125316041Y-91060000D01*
X125316041Y-93940000D02*
X125316041Y-98257000D01*
X125356041Y-86761000D02*
X125356041Y-91060000D01*
X125356041Y-93940000D02*
X125356041Y-98239000D01*
X125396041Y-86780000D02*
X125396041Y-91060000D01*
X125396041Y-93940000D02*
X125396041Y-98220000D01*
X125436041Y-86799000D02*
X125436041Y-91060000D01*
X125436041Y-93940000D02*
X125436041Y-98201000D01*
X125476041Y-86818000D02*
X125476041Y-91060000D01*
X125476041Y-93940000D02*
X125476041Y-98182000D01*
X125516041Y-86838000D02*
X125516041Y-91060000D01*
X125516041Y-93940000D02*
X125516041Y-98162000D01*
X125556041Y-86858000D02*
X125556041Y-91060000D01*
X125556041Y-93940000D02*
X125556041Y-98142000D01*
X125596041Y-86879000D02*
X125596041Y-91060000D01*
X125596041Y-93940000D02*
X125596041Y-98121000D01*
X125636041Y-86899000D02*
X125636041Y-91060000D01*
X125636041Y-93940000D02*
X125636041Y-98101000D01*
X125676041Y-86921000D02*
X125676041Y-91060000D01*
X125676041Y-93940000D02*
X125676041Y-98079000D01*
X125716041Y-86942000D02*
X125716041Y-91060000D01*
X125716041Y-93940000D02*
X125716041Y-98058000D01*
X125756041Y-86964000D02*
X125756041Y-91060000D01*
X125756041Y-93940000D02*
X125756041Y-98036000D01*
X125796041Y-86986000D02*
X125796041Y-91060000D01*
X125796041Y-93940000D02*
X125796041Y-98014000D01*
X125836041Y-87009000D02*
X125836041Y-91060000D01*
X125836041Y-93940000D02*
X125836041Y-97991000D01*
X125876041Y-87032000D02*
X125876041Y-91060000D01*
X125876041Y-93940000D02*
X125876041Y-97968000D01*
X125916041Y-87056000D02*
X125916041Y-91060000D01*
X125916041Y-93940000D02*
X125916041Y-97944000D01*
X125956041Y-87079000D02*
X125956041Y-91060000D01*
X125956041Y-93940000D02*
X125956041Y-97921000D01*
X125996041Y-87104000D02*
X125996041Y-91060000D01*
X125996041Y-93940000D02*
X125996041Y-97896000D01*
X126036041Y-87128000D02*
X126036041Y-91060000D01*
X126036041Y-93940000D02*
X126036041Y-97872000D01*
X126076041Y-87153000D02*
X126076041Y-91060000D01*
X126076041Y-93940000D02*
X126076041Y-97847000D01*
X126116041Y-87179000D02*
X126116041Y-91060000D01*
X126116041Y-93940000D02*
X126116041Y-97821000D01*
X126156041Y-87205000D02*
X126156041Y-91060000D01*
X126156041Y-93940000D02*
X126156041Y-97795000D01*
X126196041Y-87231000D02*
X126196041Y-91060000D01*
X126196041Y-93940000D02*
X126196041Y-97769000D01*
X126236041Y-87258000D02*
X126236041Y-91060000D01*
X126236041Y-93940000D02*
X126236041Y-97742000D01*
X126276041Y-87285000D02*
X126276041Y-91060000D01*
X126276041Y-93940000D02*
X126276041Y-97715000D01*
X126316041Y-87312000D02*
X126316041Y-91060000D01*
X126316041Y-93940000D02*
X126316041Y-97688000D01*
X126356041Y-87341000D02*
X126356041Y-91060000D01*
X126356041Y-93940000D02*
X126356041Y-97659000D01*
X126396041Y-87369000D02*
X126396041Y-91060000D01*
X126396041Y-93940000D02*
X126396041Y-97631000D01*
X126436041Y-87398000D02*
X126436041Y-91060000D01*
X126436041Y-93940000D02*
X126436041Y-97602000D01*
X126476041Y-87428000D02*
X126476041Y-91060000D01*
X126476041Y-93940000D02*
X126476041Y-97572000D01*
X126516041Y-87458000D02*
X126516041Y-91060000D01*
X126516041Y-93940000D02*
X126516041Y-97542000D01*
X126556041Y-87488000D02*
X126556041Y-91060000D01*
X126556041Y-93940000D02*
X126556041Y-97512000D01*
X126596041Y-87519000D02*
X126596041Y-91060000D01*
X126596041Y-93940000D02*
X126596041Y-97481000D01*
X126636041Y-87550000D02*
X126636041Y-97450000D01*
X126676041Y-87582000D02*
X126676041Y-97418000D01*
X126716041Y-87615000D02*
X126716041Y-97385000D01*
X126756041Y-87648000D02*
X126756041Y-97352000D01*
X126796041Y-87682000D02*
X126796041Y-97318000D01*
X126836041Y-87716000D02*
X126836041Y-97284000D01*
X126876041Y-87751000D02*
X126876041Y-97249000D01*
X126916041Y-87786000D02*
X126916041Y-97214000D01*
X126956041Y-87822000D02*
X126956041Y-97178000D01*
X126996041Y-87859000D02*
X126996041Y-97141000D01*
X127036041Y-87896000D02*
X127036041Y-97104000D01*
X127076041Y-87934000D02*
X127076041Y-97066000D01*
X127116041Y-87972000D02*
X127116041Y-97028000D01*
X127156041Y-88012000D02*
X127156041Y-96988000D01*
X127196041Y-88052000D02*
X127196041Y-96948000D01*
X127236041Y-88092000D02*
X127236041Y-96908000D01*
X127276041Y-88134000D02*
X127276041Y-96866000D01*
X127316041Y-88176000D02*
X127316041Y-96824000D01*
X127356041Y-88219000D02*
X127356041Y-96781000D01*
X127396041Y-88262000D02*
X127396041Y-96738000D01*
X127436041Y-88307000D02*
X127436041Y-96693000D01*
X127476041Y-88352000D02*
X127476041Y-96648000D01*
X127516041Y-88399000D02*
X127516041Y-96601000D01*
X127556041Y-88446000D02*
X127556041Y-96554000D01*
X127596041Y-88494000D02*
X127596041Y-96506000D01*
X127636041Y-88543000D02*
X127636041Y-96457000D01*
X127676041Y-88593000D02*
X127676041Y-96407000D01*
X127716041Y-88644000D02*
X127716041Y-96356000D01*
X127756041Y-88697000D02*
X127756041Y-96303000D01*
X127796041Y-88750000D02*
X127796041Y-96250000D01*
X127836041Y-88805000D02*
X127836041Y-96195000D01*
X127876041Y-88861000D02*
X127876041Y-96139000D01*
X127916041Y-88918000D02*
X127916041Y-96082000D01*
X127956041Y-88977000D02*
X127956041Y-96023000D01*
X127996041Y-89037000D02*
X127996041Y-95963000D01*
X128036041Y-89098000D02*
X128036041Y-95902000D01*
X128076041Y-89161000D02*
X128076041Y-95839000D01*
X128116041Y-89226000D02*
X128116041Y-95774000D01*
X128156041Y-89292000D02*
X128156041Y-95708000D01*
X128196041Y-89361000D02*
X128196041Y-95639000D01*
X128236041Y-89431000D02*
X128236041Y-95569000D01*
X128276041Y-89504000D02*
X128276041Y-95496000D01*
X128316041Y-89579000D02*
X128316041Y-95421000D01*
X128356041Y-89657000D02*
X128356041Y-95343000D01*
X128396041Y-89737000D02*
X128396041Y-95263000D01*
X128436041Y-89820000D02*
X128436041Y-95180000D01*
X128476041Y-89906000D02*
X128476041Y-95094000D01*
X128516041Y-89996000D02*
X128516041Y-95004000D01*
X128556041Y-90090000D02*
X128556041Y-94910000D01*
X128596041Y-90188000D02*
X128596041Y-94812000D01*
X128636041Y-90292000D02*
X128636041Y-94708000D01*
X128676041Y-90401000D02*
X128676041Y-94599000D01*
X128716041Y-90516000D02*
X128716041Y-94484000D01*
X128756041Y-90640000D02*
X128756041Y-94360000D01*
X128796041Y-90773000D02*
X128796041Y-94227000D01*
X128836041Y-90918000D02*
X128836041Y-94082000D01*
X128876041Y-91078000D02*
X128876041Y-93922000D01*
X128916041Y-91260000D02*
X128916041Y-93740000D01*
X128956041Y-91473000D02*
X128956041Y-93527000D01*
X128996041Y-91743000D02*
X128996041Y-93257000D01*
X129036041Y-92183000D02*
X129036041Y-92817000D01*
X129046041Y-92500000D02*
G75*
G02*
X116306041Y-92500000I-6370000J0D01*
G01*
X116306041Y-92500000D02*
G75*
G02*
X129046041Y-92500000I6370000J0D01*
G01*
%TO.C,R3*%
X156730000Y-100130000D02*
X156730000Y-100460000D01*
X156730000Y-102870000D02*
X156730000Y-102540000D01*
X163270000Y-100130000D02*
X156730000Y-100130000D01*
X163270000Y-100460000D02*
X163270000Y-100130000D01*
X163270000Y-102540000D02*
X163270000Y-102870000D01*
X163270000Y-102870000D02*
X156730000Y-102870000D01*
%TO.C,D2*%
X98260000Y-145000000D02*
X99280000Y-145000000D01*
X103700000Y-146470000D02*
X103700000Y-143530000D01*
X103820000Y-146470000D02*
X103820000Y-143530000D01*
X103940000Y-146470000D02*
X103940000Y-143530000D01*
X105740000Y-145000000D02*
X104720000Y-145000000D01*
X99280000Y-143530000D02*
X104720000Y-143530000D01*
X104720000Y-146470000D01*
X99280000Y-146470000D01*
X99280000Y-143530000D01*
%TO.C,R4*%
X144230000Y-99630000D02*
X150770000Y-99630000D01*
X144230000Y-99960000D02*
X144230000Y-99630000D01*
X144230000Y-102040000D02*
X144230000Y-102370000D01*
X144230000Y-102370000D02*
X150770000Y-102370000D01*
X150770000Y-99630000D02*
X150770000Y-99960000D01*
X150770000Y-102370000D02*
X150770000Y-102040000D01*
%TO.C,J3*%
X94690000Y-83890000D02*
X94690000Y-106610000D01*
X94690000Y-106610000D02*
X101310000Y-106610000D01*
X95400000Y-84900000D02*
X95400000Y-105600000D01*
X95400000Y-105600000D02*
X99700000Y-105600000D01*
X98000000Y-83890000D02*
X98000000Y-84900000D01*
X98000000Y-106610000D02*
X98000000Y-105600000D01*
X99700000Y-84900000D02*
X95400000Y-84900000D01*
X99700000Y-105600000D02*
X99700000Y-84900000D01*
X100310000Y-86190000D02*
X101310000Y-86190000D01*
X100310000Y-90450000D02*
X100310000Y-86190000D01*
X100310000Y-92550000D02*
X101310000Y-92550000D01*
X100310000Y-94450000D02*
X100310000Y-92550000D01*
X100310000Y-96050000D02*
X100910000Y-96050000D01*
X100310000Y-97950000D02*
X100310000Y-96050000D01*
X100310000Y-100050000D02*
X101310000Y-100050000D01*
X100310000Y-104310000D02*
X100310000Y-100050000D01*
X100910000Y-94450000D02*
X100310000Y-94450000D01*
X100910000Y-96050000D02*
X100910000Y-94450000D01*
X101310000Y-83890000D02*
X94690000Y-83890000D01*
X101310000Y-86190000D02*
X101310000Y-83890000D01*
X101310000Y-90450000D02*
X100310000Y-90450000D01*
X101310000Y-92550000D02*
X101310000Y-90450000D01*
X101310000Y-97950000D02*
X100310000Y-97950000D01*
X101310000Y-100050000D02*
X101310000Y-97950000D01*
X101310000Y-104310000D02*
X100310000Y-104310000D01*
X101310000Y-106610000D02*
X101310000Y-104310000D01*
X101610000Y-83590000D02*
X100360000Y-83590000D01*
X101610000Y-84840000D02*
X101610000Y-83590000D01*
%TO.C,U1*%
D13*
X128070000Y-103710000D02*
X156580000Y-103710000D01*
X128070000Y-154660000D02*
X128070000Y-103710000D01*
X128070000Y-154660000D02*
X128070000Y-103710000D01*
X133520000Y-103710000D02*
X128070000Y-103710000D01*
X138800000Y-154660000D02*
X128070000Y-154660000D01*
X145511000Y-154660000D02*
X138800000Y-154660000D01*
X151210000Y-103710000D02*
X133520000Y-103710000D01*
X156580000Y-103710000D02*
X151210000Y-103710000D01*
X156580000Y-103710000D02*
X156580000Y-154660000D01*
X156580000Y-103710000D02*
X156580000Y-154660000D01*
X156580000Y-154660000D02*
X128070000Y-154660000D01*
X156580000Y-154660000D02*
X145511000Y-154660000D01*
D14*
X157250000Y-144700000D02*
G75*
G02*
X157050000Y-144700000I-100000J0D01*
G01*
X157050000Y-144700000D02*
G75*
G02*
X157250000Y-144700000I100000J0D01*
G01*
%TO.C,R2*%
D12*
X123130000Y-144730000D02*
X123460000Y-144730000D01*
X123130000Y-151270000D02*
X123130000Y-144730000D01*
X123460000Y-151270000D02*
X123130000Y-151270000D01*
X125540000Y-151270000D02*
X125870000Y-151270000D01*
X125870000Y-144730000D02*
X125540000Y-144730000D01*
X125870000Y-151270000D02*
X125870000Y-144730000D01*
%TO.C,J1*%
X167385000Y-107040000D02*
X186515000Y-107040000D01*
X167385000Y-111160000D02*
X186515000Y-111160000D01*
X167385000Y-114840000D02*
X186515000Y-114840000D01*
X167385000Y-118960000D02*
X186515000Y-118960000D01*
%TO.C,J4*%
X94690000Y-108890000D02*
X94690000Y-121610000D01*
X94690000Y-121610000D02*
X101310000Y-121610000D01*
X95400000Y-109900000D02*
X95400000Y-120600000D01*
X95400000Y-120600000D02*
X99700000Y-120600000D01*
X98000000Y-108890000D02*
X98000000Y-109900000D01*
X98000000Y-121610000D02*
X98000000Y-120600000D01*
X99700000Y-109900000D02*
X95400000Y-109900000D01*
X99700000Y-120600000D02*
X99700000Y-109900000D01*
X100310000Y-112550000D02*
X101310000Y-112550000D01*
X100310000Y-114450000D02*
X100310000Y-112550000D01*
X100310000Y-116050000D02*
X100910000Y-116050000D01*
X100310000Y-117950000D02*
X100310000Y-116050000D01*
X100910000Y-114450000D02*
X100310000Y-114450000D01*
X100910000Y-116050000D02*
X100910000Y-114450000D01*
X101310000Y-108890000D02*
X94690000Y-108890000D01*
X101310000Y-112550000D02*
X101310000Y-108890000D01*
X101310000Y-117950000D02*
X100310000Y-117950000D01*
X101310000Y-121610000D02*
X101310000Y-117950000D01*
X101610000Y-108590000D02*
X100360000Y-108590000D01*
X101610000Y-109840000D02*
X101610000Y-108590000D01*
%TO.C,U2*%
X109350000Y-136900000D02*
X109350000Y-142100000D01*
X109350000Y-142100000D02*
X114650000Y-142100000D01*
X111000000Y-136900000D02*
X109350000Y-136900000D01*
X114650000Y-136900000D02*
X113000000Y-136900000D01*
X114650000Y-142100000D02*
X114650000Y-136900000D01*
X113000000Y-136900000D02*
G75*
G02*
X111000000Y-136900000I-1000000J0D01*
G01*
%TO.C,J6*%
X94690000Y-133890000D02*
X94690000Y-141610000D01*
X94690000Y-141610000D02*
X101310000Y-141610000D01*
X95400000Y-134900000D02*
X95400000Y-140600000D01*
X95400000Y-140600000D02*
X99700000Y-140600000D01*
X98000000Y-133890000D02*
X98000000Y-134900000D01*
X98000000Y-141610000D02*
X98000000Y-140600000D01*
X99700000Y-134900000D02*
X95400000Y-134900000D01*
X99700000Y-140600000D02*
X99700000Y-134900000D01*
X100310000Y-136150000D02*
X101310000Y-136150000D01*
X100310000Y-137350000D02*
X100310000Y-136150000D01*
X100310000Y-138150000D02*
X100910000Y-138150000D01*
X100310000Y-139350000D02*
X100310000Y-138150000D01*
X100910000Y-137350000D02*
X100310000Y-137350000D01*
X100910000Y-138150000D02*
X100910000Y-137350000D01*
X101310000Y-133890000D02*
X94690000Y-133890000D01*
X101310000Y-136150000D02*
X101310000Y-133890000D01*
X101310000Y-139350000D02*
X100310000Y-139350000D01*
X101310000Y-141610000D02*
X101310000Y-139350000D01*
X101610000Y-133590000D02*
X100360000Y-133590000D01*
X101610000Y-134840000D02*
X101610000Y-133590000D01*
%TO.C,J5*%
X108960000Y-104620000D02*
X108960000Y-107380000D01*
X121770000Y-104620000D02*
X108960000Y-104620000D01*
X121770000Y-104620000D02*
X121770000Y-107380000D01*
X121770000Y-107380000D02*
X108960000Y-107380000D01*
X123040000Y-104620000D02*
X124420000Y-104620000D01*
X124420000Y-104620000D02*
X124420000Y-106000000D01*
%TO.C,J7*%
X94690000Y-124140000D02*
X94690000Y-131860000D01*
X94690000Y-131860000D02*
X101310000Y-131860000D01*
X95400000Y-125150000D02*
X95400000Y-130850000D01*
X95400000Y-130850000D02*
X99700000Y-130850000D01*
X98000000Y-124140000D02*
X98000000Y-125150000D01*
X98000000Y-131860000D02*
X98000000Y-130850000D01*
X99700000Y-125150000D02*
X95400000Y-125150000D01*
X99700000Y-130850000D02*
X99700000Y-125150000D01*
X100310000Y-126400000D02*
X101310000Y-126400000D01*
X100310000Y-127600000D02*
X100310000Y-126400000D01*
X100310000Y-128400000D02*
X100910000Y-128400000D01*
X100310000Y-129600000D02*
X100310000Y-128400000D01*
X100910000Y-127600000D02*
X100310000Y-127600000D01*
X100910000Y-128400000D02*
X100910000Y-127600000D01*
X101310000Y-124140000D02*
X94690000Y-124140000D01*
X101310000Y-126400000D02*
X101310000Y-124140000D01*
X101310000Y-129600000D02*
X100310000Y-129600000D01*
X101310000Y-131860000D02*
X101310000Y-129600000D01*
X101610000Y-123840000D02*
X100360000Y-123840000D01*
X101610000Y-125090000D02*
X101610000Y-123840000D01*
%TO.C,SW1*%
X104500000Y-87400000D02*
X104500000Y-85100000D01*
X105700000Y-87400000D02*
X104500000Y-87400000D01*
X107500000Y-87400000D02*
X108200000Y-87400000D01*
X110000000Y-87400000D02*
X110700000Y-87400000D01*
X113700000Y-85100000D02*
X113700000Y-87400000D01*
X113700000Y-87400000D02*
X112500000Y-87400000D01*
%TD*%
M02*
