%TF.GenerationSoftware,KiCad,Pcbnew,10.0.4*%
%TF.CreationDate,2026-06-27T18:38:54+07:00*%
%TF.ProjectId,Control Unit,436f6e74-726f-46c2-9055-6e69742e6b69,rev?*%
%TF.SameCoordinates,Original*%
%TF.FileFunction,Copper,L1,Top*%
%TF.FilePolarity,Positive*%
%FSLAX46Y46*%
G04 Gerber Fmt 4.6, Leading zero omitted, Abs format (unit mm)*
G04 Created by KiCad (PCBNEW 10.0.4) date 2026-06-27 18:38:54*
%MOMM*%
%LPD*%
G01*
G04 APERTURE LIST*
G04 Aperture macros list*
%AMRoundRect*
0 Rectangle with rounded corners*
0 $1 Rounding radius*
0 $2 $3 $4 $5 $6 $7 $8 $9 X,Y pos of 4 corners*
0 Add a 4 corners polygon primitive as box body*
4,1,4,$2,$3,$4,$5,$6,$7,$8,$9,$2,$3,0*
0 Add four circle primitives for the rounded corners*
1,1,$1+$1,$2,$3*
1,1,$1+$1,$4,$5*
1,1,$1+$1,$6,$7*
1,1,$1+$1,$8,$9*
0 Add four rect primitives between the rounded corners*
20,1,$1+$1,$2,$3,$4,$5,0*
20,1,$1+$1,$4,$5,$6,$7,0*
20,1,$1+$1,$6,$7,$8,$9,0*
20,1,$1+$1,$8,$9,$2,$3,0*%
G04 Aperture macros list end*
%TA.AperFunction,ComponentPad*%
%ADD10C,2.200000*%
%TD*%
%TA.AperFunction,ComponentPad*%
%ADD11RoundRect,0.249999X-0.850001X0.850001X-0.850001X-0.850001X0.850001X-0.850001X0.850001X0.850001X0*%
%TD*%
%TA.AperFunction,ComponentPad*%
%ADD12O,1.200000X2.000000*%
%TD*%
%TA.AperFunction,ComponentPad*%
%ADD13C,2.400000*%
%TD*%
%TA.AperFunction,ComponentPad*%
%ADD14RoundRect,0.250001X-0.949999X-0.949999X0.949999X-0.949999X0.949999X0.949999X-0.949999X0.949999X0*%
%TD*%
%TA.AperFunction,ComponentPad*%
%ADD15C,1.600000*%
%TD*%
%TA.AperFunction,ComponentPad*%
%ADD16RoundRect,0.249999X0.850001X0.850001X-0.850001X0.850001X-0.850001X-0.850001X0.850001X-0.850001X0*%
%TD*%
%TA.AperFunction,ComponentPad*%
%ADD17RoundRect,0.250000X-0.725000X0.600000X-0.725000X-0.600000X0.725000X-0.600000X0.725000X0.600000X0*%
%TD*%
%TA.AperFunction,ComponentPad*%
%ADD18O,1.950000X1.700000*%
%TD*%
%TA.AperFunction,ComponentPad*%
%ADD19R,2.000000X2.000000*%
%TD*%
%TA.AperFunction,ComponentPad*%
%ADD20C,2.000000*%
%TD*%
%TA.AperFunction,ComponentPad*%
%ADD21RoundRect,0.250002X1.699998X-1.699998X1.699998X1.699998X-1.699998X1.699998X-1.699998X-1.699998X0*%
%TD*%
%TA.AperFunction,ComponentPad*%
%ADD22C,3.900000*%
%TD*%
%TA.AperFunction,ComponentPad*%
%ADD23RoundRect,0.250000X-0.550000X-0.550000X0.550000X-0.550000X0.550000X0.550000X-0.550000X0.550000X0*%
%TD*%
%TA.AperFunction,ComponentPad*%
%ADD24R,1.700000X1.700000*%
%TD*%
%TA.AperFunction,ComponentPad*%
%ADD25C,1.700000*%
%TD*%
%TA.AperFunction,SMDPad,CuDef*%
%ADD26RoundRect,0.250000X0.375000X1.000000X-0.375000X1.000000X-0.375000X-1.000000X0.375000X-1.000000X0*%
%TD*%
%TA.AperFunction,ViaPad*%
%ADD27C,0.600000*%
%TD*%
%TA.AperFunction,Conductor*%
%ADD28C,0.200000*%
%TD*%
G04 APERTURE END LIST*
D10*
%TO.P,D1,2,A_2*%
%TO.N,/12V_PWR_BATT*%
X160000000Y-117580000D03*
D11*
%TO.P,D1,1,K_1*%
%TO.N,/12V_PWR*%
X160000000Y-107420000D03*
%TD*%
D12*
%TO.P,J2,1,12V_in_1*%
%TO.N,/12V_PWR*%
X185000000Y-96000000D03*
%TO.P,J2,2,12V_GND_2*%
%TO.N,/12V_GND*%
X185000000Y-83000000D03*
%TO.P,J2,3,3.3V_out_3*%
%TO.N,/3.3V_PWR_SW*%
X140000000Y-83000000D03*
%TO.P,J2,4,3.3V_GND_4*%
%TO.N,GNDREF*%
X140000000Y-96000000D03*
%TD*%
D13*
%TO.P,R1,1*%
%TO.N,/RPM_PWR_RESISTOR*%
X115160000Y-151500000D03*
%TO.P,R1,2*%
%TO.N,/RPM_PWR*%
X94840000Y-151500000D03*
%TD*%
D14*
%TO.P,C1,1*%
%TO.N,/3.3V_PWR_SW*%
X120176041Y-92500000D03*
D13*
%TO.P,C1,2*%
%TO.N,GNDREF*%
X125176041Y-92500000D03*
%TD*%
D15*
%TO.P,R3,1*%
%TO.N,/12V_PWR*%
X163810000Y-101500000D03*
%TO.P,R3,2*%
%TO.N,Net-(U1-D34)*%
X156190000Y-101500000D03*
%TD*%
D16*
%TO.P,D2,1,K_1*%
%TO.N,/RPM_PWR_RESISTOR*%
X107080000Y-145000000D03*
D10*
%TO.P,D2,2,A_2*%
%TO.N,/RPM_PWR_DIODE*%
X96920000Y-145000000D03*
%TD*%
D15*
%TO.P,R4,1*%
%TO.N,GNDREF*%
X143690000Y-101000000D03*
%TO.P,R4,2*%
%TO.N,Net-(U1-D34)*%
X151310000Y-101000000D03*
%TD*%
D17*
%TO.P,J3,1,GND_1*%
%TO.N,GNDREF*%
X98000000Y-86500000D03*
D18*
%TO.P,J3,2,Vcc_2*%
%TO.N,/3.3V_PWR*%
X98000000Y-89000000D03*
%TO.P,J3,3,SCL_3*%
%TO.N,Net-(J3-SCL)*%
X98000000Y-91500000D03*
%TO.P,J3,4,SDA_4*%
%TO.N,Net-(J3-SDA)*%
X98000000Y-94000000D03*
%TO.P,J3,5,RES_5*%
%TO.N,unconnected-(J3-RES-Pad5)*%
X98000000Y-96500000D03*
%TO.P,J3,6,DC_6*%
%TO.N,unconnected-(J3-DC-Pad6)*%
X98000000Y-99000000D03*
%TO.P,J3,7,CS_7*%
%TO.N,unconnected-(J3-CS-Pad7)*%
X98000000Y-101500000D03*
%TO.P,J3,8,Pin_8_8*%
%TO.N,unconnected-(J3-Pin_8-Pad8)*%
X98000000Y-104000000D03*
%TD*%
D19*
%TO.P,U1,1,3V3_1*%
%TO.N,/3.3V_PWR*%
X155000000Y-144700000D03*
D20*
%TO.P,U1,2,GND_2*%
%TO.N,GNDREF*%
X155000000Y-142160000D03*
%TO.P,U1,3,D15_3*%
%TO.N,unconnected-(U1-D15-Pad3)*%
X155000000Y-139620000D03*
%TO.P,U1,4,D2_4*%
%TO.N,unconnected-(U1-D2-Pad4)*%
X155000000Y-137080000D03*
%TO.P,U1,5,D4_5*%
%TO.N,Net-(J7-SIG)*%
X155000000Y-134540000D03*
%TO.P,U1,6,RX2_6*%
%TO.N,unconnected-(U1-RX2-Pad6)*%
X155000000Y-132000000D03*
%TO.P,U1,7,TX2_7*%
%TO.N,unconnected-(U1-TX2-Pad7)*%
X155000000Y-129460000D03*
%TO.P,U1,8,D5_8*%
%TO.N,unconnected-(U1-D5-Pad8)*%
X155000000Y-126920000D03*
%TO.P,U1,9,D18_9*%
%TO.N,Net-(J3-SCL)*%
X155000000Y-124380000D03*
%TO.P,U1,10,D19_10*%
%TO.N,unconnected-(U1-D19-Pad10)*%
X155000000Y-121840000D03*
%TO.P,U1,11,D21_11*%
%TO.N,unconnected-(U1-D21-Pad11)*%
X155000000Y-119300000D03*
%TO.P,U1,12,RX0_12*%
%TO.N,unconnected-(U1-RX0-Pad12)*%
X155000000Y-116760000D03*
%TO.P,U1,13,TX0_13*%
%TO.N,unconnected-(U1-TX0-Pad13)*%
X155000000Y-114220000D03*
%TO.P,U1,14,D22_14*%
%TO.N,unconnected-(U1-D22-Pad14)*%
X155000000Y-111680000D03*
%TO.P,U1,15,D23_15*%
%TO.N,Net-(J3-SDA)*%
X155000000Y-109140000D03*
%TO.P,U1,16,EN_16*%
%TO.N,unconnected-(U1-EN-Pad16)*%
X129600000Y-109140000D03*
%TO.P,U1,17,VP_17*%
%TO.N,unconnected-(U1-VP-Pad17)*%
X129600000Y-111680000D03*
%TO.P,U1,18,VN_18*%
%TO.N,unconnected-(U1-VN-Pad18)*%
X129600000Y-114220000D03*
%TO.P,U1,19,D34_19*%
%TO.N,Net-(U1-D34)*%
X129600000Y-116760000D03*
%TO.P,U1,20,D35_20*%
%TO.N,unconnected-(U1-D35-Pad20)*%
X129600000Y-119300000D03*
%TO.P,U1,21,D32_21*%
%TO.N,unconnected-(U1-D32-Pad21)*%
X129600000Y-121840000D03*
%TO.P,U1,22,D33_22*%
%TO.N,unconnected-(U1-D33-Pad22)*%
X129600000Y-124380000D03*
%TO.P,U1,23,D25_23*%
%TO.N,unconnected-(U1-D25-Pad23)*%
X129600000Y-126920000D03*
%TO.P,U1,24,D26_24*%
%TO.N,unconnected-(U1-D26-Pad24)*%
X129600000Y-129460000D03*
%TO.P,U1,25,D27_25*%
%TO.N,unconnected-(U1-D27-Pad25)*%
X129600000Y-132000000D03*
%TO.P,U1,26,D14_26*%
%TO.N,Net-(U1-D14)*%
X129600000Y-134540000D03*
%TO.P,U1,27,D12_27*%
%TO.N,unconnected-(U1-D12-Pad27)*%
X129600000Y-137080000D03*
%TO.P,U1,28,D13_28*%
%TO.N,unconnected-(U1-D13-Pad28)*%
X129600000Y-139620000D03*
%TO.P,U1,29,GND_29*%
%TO.N,GNDREF*%
X129600000Y-142160000D03*
%TO.P,U1,30,VIN_30*%
%TO.N,unconnected-(U1-VIN-Pad30)*%
X129600000Y-144700000D03*
%TD*%
D15*
%TO.P,R2,1*%
%TO.N,Net-(U1-D14)*%
X124500000Y-151810000D03*
%TO.P,R2,2*%
%TO.N,GNDREF*%
X124500000Y-144190000D03*
%TD*%
D21*
%TO.P,J1,1,Pin_1_1*%
%TO.N,/12V_PWR_BATT*%
X165175000Y-116900000D03*
D22*
%TO.P,J1,2,Pin_2_2*%
%TO.N,/12V_GND*%
X165175000Y-109100000D03*
%TD*%
D17*
%TO.P,J4,1,Vcc_1*%
%TO.N,/3.3V_PWR*%
X98000000Y-111500000D03*
D18*
%TO.P,J4,2,SDA_2*%
%TO.N,Net-(J3-SDA)*%
X98000000Y-114000000D03*
%TO.P,J4,3,GND_3*%
%TO.N,GNDREF*%
X98000000Y-116500000D03*
%TO.P,J4,4,SCL_4*%
%TO.N,Net-(J3-SCL)*%
X98000000Y-119000000D03*
%TD*%
D23*
%TO.P,U2,1*%
%TO.N,/RPM_PWR*%
X108190000Y-138230000D03*
D15*
%TO.P,U2,2*%
%TO.N,/RPM_GND*%
X108190000Y-140770000D03*
%TO.P,U2,3*%
%TO.N,Net-(U1-D14)*%
X115810000Y-140770000D03*
%TO.P,U2,4*%
%TO.N,/3.3V_PWR*%
X115810000Y-138230000D03*
%TD*%
D17*
%TO.P,J6,1,RPM_IN_1*%
%TO.N,/RPM_PWR_DIODE*%
X98000000Y-136500000D03*
D18*
%TO.P,J6,2,Pin_2_2*%
%TO.N,/RPM_GND*%
X98000000Y-139000000D03*
%TD*%
D24*
%TO.P,J5,1,GND_1*%
%TO.N,GNDREF*%
X123040000Y-106000000D03*
D25*
%TO.P,J5,2,Vcc_2*%
%TO.N,/3.3V_PWR*%
X120500000Y-106000000D03*
%TO.P,J5,3,SDA_3*%
%TO.N,Net-(J3-SDA)*%
X117960000Y-106000000D03*
%TO.P,J5,4,SCL_4*%
%TO.N,Net-(J3-SCL)*%
X115420000Y-106000000D03*
%TO.P,J5,5*%
%TO.N,N/C*%
X112880000Y-106000000D03*
%TO.P,J5,6*%
X110340000Y-106000000D03*
%TD*%
D17*
%TO.P,J7,1,SIG_1*%
%TO.N,Net-(J7-SIG)*%
X98000000Y-126750000D03*
D18*
%TO.P,J7,2,Pin_2_2*%
%TO.N,GNDREF*%
X98000000Y-129250000D03*
%TD*%
D26*
%TO.P,SW1,1,A_1*%
%TO.N,/3.3V_PWR_SW*%
X111600000Y-88250000D03*
%TO.P,SW1,2,B_2*%
%TO.N,/3.3V_PWR*%
X109100000Y-88250000D03*
%TO.P,SW1,3*%
%TO.N,N/C*%
X106600000Y-88250000D03*
%TD*%
D27*
%TO.N,Net-(J3-SDA)*%
X100174265Y-112825735D03*
X99325735Y-113674265D03*
%TO.N,Net-(U1-D14)*%
X118964265Y-140535735D03*
%TO.N,Net-(J3-SDA)*%
X150500000Y-103000000D03*
X151910000Y-103000000D03*
%TD*%
%TO.N,Net-(J3-SDA)*%
D28*
X98000000Y-114000000D02*
X99000000Y-114000000D01*
X99000000Y-114000000D02*
X99325735Y-113674265D01*
X100174265Y-112825735D02*
X115300611Y-112825735D01*
X115300611Y-112825735D02*
X121650000Y-106476346D01*
X121650000Y-106476346D02*
X121650000Y-105523654D01*
X120976346Y-104850000D02*
X119110000Y-104850000D01*
X121650000Y-105523654D02*
X120976346Y-104850000D01*
X119110000Y-104850000D02*
X117960000Y-106000000D01*
%TO.N,Net-(J3-SCL)*%
X98000000Y-119000000D02*
X96325000Y-117325000D01*
X96325000Y-117325000D02*
X96325000Y-88923654D01*
X96325000Y-88923654D02*
X97398654Y-87850000D01*
X97398654Y-87850000D02*
X99948654Y-87850000D01*
X99948654Y-87850000D02*
X101098654Y-86700000D01*
X101098654Y-86700000D02*
X109709744Y-86700000D01*
X109709744Y-86700000D02*
X110025000Y-87015256D01*
X110025000Y-87015256D02*
X110025000Y-100605000D01*
X110025000Y-100605000D02*
X115420000Y-106000000D01*
%TO.N,/RPM_PWR_DIODE*%
X96920000Y-145000000D02*
X95820001Y-143900001D01*
X95820001Y-143900001D02*
X95820001Y-138679999D01*
X95820001Y-138679999D02*
X98000000Y-136500000D01*
%TO.N,/RPM_PWR_RESISTOR*%
X115160000Y-151500000D02*
X108660000Y-145000000D01*
X108660000Y-145000000D02*
X107080000Y-145000000D01*
%TO.N,/3.3V_PWR*%
X120500000Y-106000000D02*
X119350000Y-107150000D01*
X119350000Y-107150000D02*
X114943654Y-107150000D01*
X114943654Y-107150000D02*
X114270000Y-106476346D01*
X114270000Y-106476346D02*
X114270000Y-105523654D01*
X114270000Y-105523654D02*
X107550000Y-98803654D01*
X107550000Y-98803654D02*
X107550000Y-89800000D01*
X115810000Y-138230000D02*
X115810000Y-129310000D01*
X115810000Y-129310000D02*
X98000000Y-111500000D01*
%TO.N,/RPM_GND*%
X108190000Y-140770000D02*
X109290000Y-139670000D01*
X109290000Y-139670000D02*
X109290000Y-137445256D01*
X109290000Y-137445256D02*
X108974744Y-137130000D01*
X108974744Y-137130000D02*
X99870000Y-137130000D01*
X99870000Y-137130000D02*
X98000000Y-139000000D01*
%TO.N,/RPM_PWR*%
X108190000Y-138230000D02*
X108110000Y-138230000D01*
X108110000Y-138230000D02*
X94840000Y-151500000D01*
%TO.N,Net-(U1-D14)*%
X124500000Y-151810000D02*
X124500000Y-149460000D01*
X124500000Y-149460000D02*
X115810000Y-140770000D01*
X123604265Y-140535735D02*
X118964265Y-140535735D01*
X129600000Y-134540000D02*
X123604265Y-140535735D01*
%TO.N,Net-(J3-SDA)*%
X155000000Y-109140000D02*
X151710000Y-105850000D01*
X151710000Y-105850000D02*
X151710000Y-103200000D01*
X151710000Y-103200000D02*
X151910000Y-103000000D01*
X150500000Y-103000000D02*
X120960000Y-103000000D01*
X120960000Y-103000000D02*
X117960000Y-106000000D01*
%TO.N,Net-(J3-SCL)*%
X155000000Y-124380000D02*
X157290000Y-122090000D01*
X157290000Y-122090000D02*
X157290000Y-101044365D01*
X157290000Y-101044365D02*
X156145635Y-99900000D01*
X156145635Y-99900000D02*
X121520000Y-99900000D01*
X121520000Y-99900000D02*
X115420000Y-106000000D01*
%TO.N,Net-(J7-SIG)*%
X155000000Y-134540000D02*
X156300000Y-135840000D01*
X156300000Y-135840000D02*
X156300000Y-146000000D01*
X156300000Y-146000000D02*
X155900000Y-146400000D01*
X155900000Y-146400000D02*
X123335635Y-146400000D01*
X123335635Y-146400000D02*
X116265635Y-139330000D01*
X116265635Y-139330000D02*
X115354365Y-139330000D01*
X115354365Y-139330000D02*
X102774365Y-126750000D01*
X102774365Y-126750000D02*
X98000000Y-126750000D01*
%TO.N,/3.3V_PWR*%
X155000000Y-144700000D02*
X153700000Y-146000000D01*
X153700000Y-146000000D02*
X123580000Y-146000000D01*
X123580000Y-146000000D02*
X115810000Y-138230000D01*
%TO.N,/3.3V_PWR_SW*%
X111600000Y-88250000D02*
X115850000Y-92500000D01*
X115850000Y-92500000D02*
X120176041Y-92500000D01*
%TO.N,/12V_PWR*%
X160000000Y-107420000D02*
X163930000Y-111350000D01*
X163930000Y-111350000D02*
X166106981Y-111350000D01*
X166106981Y-111350000D02*
X167425000Y-110031981D01*
X167425000Y-110031981D02*
X167425000Y-105115000D01*
X167425000Y-105115000D02*
X163810000Y-101500000D01*
%TO.N,/12V_PWR_BATT*%
X165175000Y-116900000D02*
X160680000Y-116900000D01*
X160680000Y-116900000D02*
X160000000Y-117580000D01*
%TO.N,Net-(J3-SDA)*%
X98000000Y-94000000D02*
X96725000Y-95275000D01*
X96725000Y-95275000D02*
X96725000Y-112725000D01*
X96725000Y-112725000D02*
X98000000Y-114000000D01*
%TO.N,Net-(J3-SCL)*%
X98000000Y-91500000D02*
X96725000Y-90225000D01*
X96725000Y-90225000D02*
X96725000Y-88523654D01*
X96725000Y-88523654D02*
X97398654Y-87850000D01*
%TO.N,/3.3V_PWR*%
X98000000Y-89000000D02*
X99275000Y-90275000D01*
X99275000Y-90275000D02*
X99275000Y-110225000D01*
X99275000Y-110225000D02*
X98000000Y-111500000D01*
X98000000Y-89000000D02*
X98800000Y-89800000D01*
X98800000Y-89800000D02*
X107550000Y-89800000D01*
X107550000Y-89800000D02*
X109100000Y-88250000D01*
%TO.N,Net-(U1-D34)*%
X151310000Y-101000000D02*
X151310000Y-110241422D01*
X151310000Y-110241422D02*
X144791422Y-116760000D01*
X144791422Y-116760000D02*
X129600000Y-116760000D01*
X156190000Y-101500000D02*
X151810000Y-101500000D01*
X151810000Y-101500000D02*
X151310000Y-101000000D01*
%TO.N,/3.3V_PWR_SW*%
X140000000Y-83000000D02*
X129676041Y-83000000D01*
X129676041Y-83000000D02*
X120176041Y-92500000D01*
%TO.N,/12V_GND*%
X185000000Y-83000000D02*
X180754365Y-83000000D01*
X180754365Y-83000000D02*
X162710000Y-101044365D01*
X162710000Y-101044365D02*
X162710000Y-106635000D01*
X162710000Y-106635000D02*
X165175000Y-109100000D01*
%TO.N,/12V_PWR*%
X185000000Y-96000000D02*
X169310000Y-96000000D01*
X169310000Y-96000000D02*
X163810000Y-101500000D01*
%TD*%
M02*
