M48
; DRILL file KiCad 10.0.4 date 2026-06-29T20:54:43
; FORMAT={-:-/ absolute / metric / decimal}
; #@! TF.CreationDate,2026-06-29T20:54:43+07:00
; #@! TF.GenerationSoftware,Kicad,Pcbnew,10.0.4
; #@! TF.FileFunction,Plated,1,2,PTH
FMAT,2
METRIC
; #@! TA.AperFunction,Plated,PTH,ViaDrill
T1C0.300
; #@! TA.AperFunction,Plated,PTH,ComponentDrill
T2C0.800
; #@! TA.AperFunction,Plated,PTH,ComponentDrill
T3C0.950
; #@! TA.AperFunction,Plated,PTH,ComponentDrill
T4C1.000
; #@! TA.AperFunction,Plated,PTH,ComponentDrill
T5C1.020
; #@! TA.AperFunction,Plated,PTH,ComponentDrill
T6C1.100
; #@! TA.AperFunction,Plated,PTH,ComponentDrill
T7C1.200
; #@! TA.AperFunction,Plated,PTH,ComponentDrill
T8C1.300
; #@! TA.AperFunction,Plated,PTH,ComponentDrill
T9C2.150
%
G90
G05
T1
X114.5Y-87.5
X116.5Y-117.5
X117.0Y-87.5
X120.4Y-117.0
X120.4Y-126.5
X122.0Y-135.5
X125.0Y-87.5
X127.5Y-116.5
X127.5Y-119.5
X129.0Y-87.5
X168.5Y-113.0
T2
X155.5Y-84.0
X155.5Y-129.0
X168.5Y-84.0
X168.5Y-129.0
X169.185Y-137.735
X169.185Y-140.275
X171.69Y-117.0
X173.5Y-87.0
X173.5Y-94.62
X176.805Y-137.735
X176.805Y-140.275
X179.31Y-117.0
X186.19Y-107.5
X193.81Y-107.5
T3
X106.0Y-139.0
X108.5Y-139.0
X111.0Y-139.0
X113.5Y-139.0
X116.0Y-139.0
X118.5Y-139.0
X121.0Y-139.0
X123.5Y-139.0
X131.0Y-139.0
X133.5Y-139.0
X141.5Y-139.0
X144.0Y-139.0
X146.5Y-139.0
X149.0Y-139.0
X185.0Y-139.0
X187.5Y-139.0
T4
X105.38Y-85.0
X107.92Y-85.0
X110.46Y-85.0
X113.0Y-85.0
X115.54Y-85.0
X118.08Y-85.0
X185.0Y-99.2
X197.0Y-99.2
T5
X124.35Y-92.735
X124.35Y-95.275
X124.35Y-97.815
X124.35Y-100.355
X124.35Y-102.895
X124.35Y-105.435
X124.35Y-107.975
X124.35Y-110.515
X124.35Y-113.055
X124.35Y-115.595
X124.35Y-118.135
X124.35Y-120.675
X124.35Y-123.215
X124.35Y-125.755
X124.35Y-128.295
X149.75Y-92.735
X149.75Y-95.275
X149.75Y-97.815
X149.75Y-100.355
X149.75Y-102.895
X149.75Y-105.435
X149.75Y-107.975
X149.75Y-110.515
X149.75Y-113.055
X149.75Y-115.595
X149.75Y-118.135
X149.75Y-120.675
X149.75Y-123.215
X149.75Y-125.755
X149.75Y-128.295
T6
X175.0Y-123.42
X175.0Y-133.58
X179.0Y-85.92
X179.0Y-96.08
T7
X175.176Y-107.5
X180.176Y-107.5
X187.5Y-112.0
X187.5Y-132.32
T8
X184.95Y-86.95
X190.95Y-101.15
X197.0Y-87.0
T9
X196.5Y-112.5
X196.5Y-118.5
X196.5Y-124.5
M30
