M48
; DRILL file KiCad 10.0.4 date 2026-06-30T16:14:27
; FORMAT={-:-/ absolute / metric / decimal}
; #@! TF.CreationDate,2026-06-30T16:14:27+07:00
; #@! TF.GenerationSoftware,Kicad,Pcbnew,10.0.4
; #@! TF.FileFunction,Plated,1,2,PTH
FMAT,2
METRIC
; #@! TA.AperFunction,Plated,PTH,ViaDrill
T1C0.300
; #@! TA.AperFunction,Plated,PTH,ComponentDrill
T2C0.800
; #@! TA.AperFunction,Plated,PTH,ComponentDrill
T3C0.950
; #@! TA.AperFunction,Plated,PTH,ComponentDrill
T4C1.000
; #@! TA.AperFunction,Plated,PTH,ComponentDrill
T5C1.020
; #@! TA.AperFunction,Plated,PTH,ComponentDrill
T6C1.100
; #@! TA.AperFunction,Plated,PTH,ComponentDrill
T7C1.200
; #@! TA.AperFunction,Plated,PTH,ComponentDrill
T8C1.300
; #@! TA.AperFunction,Plated,PTH,ComponentDrill
T9C1.500
; #@! TA.AperFunction,Plated,PTH,ComponentDrill
T10C2.150
%
G90
G05
T1
X65.846Y-35.0
X67.846Y-65.0
X68.346Y-35.0
X71.746Y-64.5
X71.746Y-74.0
X73.346Y-83.0
X76.346Y-35.0
X78.846Y-64.0
X78.846Y-67.0
X80.346Y-35.0
X108.5Y-58.0
X111.0Y-60.5
X114.0Y-69.42
X118.0Y-73.5
T2
X113.19Y-79.5
X120.531Y-85.235
X120.531Y-87.775
X120.81Y-79.5
X126.88Y-52.0
X128.151Y-85.235
X128.151Y-87.775
X134.5Y-52.0
X137.536Y-55.0
X145.156Y-55.0
T3
X57.346Y-86.5
X59.846Y-86.5
X62.346Y-86.5
X64.846Y-86.5
X67.346Y-86.5
X69.846Y-86.5
X72.346Y-86.5
X74.846Y-86.5
X82.346Y-86.5
X84.846Y-86.5
X92.846Y-86.5
X95.346Y-86.5
X97.846Y-86.5
X100.346Y-86.5
X136.346Y-86.5
X138.846Y-86.5
T4
X56.726Y-32.5
X59.266Y-32.5
X61.806Y-32.5
X64.346Y-32.5
X66.886Y-32.5
X69.426Y-32.5
X136.346Y-46.7
X148.346Y-46.7
T5
X75.696Y-40.235
X75.696Y-42.775
X75.696Y-45.315
X75.696Y-47.855
X75.696Y-50.395
X75.696Y-52.935
X75.696Y-55.475
X75.696Y-58.015
X75.696Y-60.555
X75.696Y-63.095
X75.696Y-65.635
X75.696Y-68.175
X75.696Y-70.715
X75.696Y-73.255
X75.696Y-75.795
X101.096Y-40.235
X101.096Y-42.775
X101.096Y-45.315
X101.096Y-47.855
X101.096Y-50.395
X101.096Y-52.935
X101.096Y-55.475
X101.096Y-58.015
X101.096Y-60.555
X101.096Y-63.095
X101.096Y-65.635
X101.096Y-68.175
X101.096Y-70.715
X101.096Y-73.255
X101.096Y-75.795
T6
X124.92Y-80.0
X130.346Y-33.42
X130.346Y-43.58
X135.08Y-80.0
T7
X130.0Y-63.5
X135.0Y-63.5
X142.5Y-60.34
X142.5Y-80.66
T8
X136.296Y-34.45
X142.296Y-48.65
X148.346Y-34.5
T9
X105.44Y-32.56
X105.44Y-73.56
X123.44Y-32.56
X123.44Y-73.56
T10
X147.846Y-60.0
X147.846Y-66.0
X147.846Y-72.0
M30
