%TF.GenerationSoftware,KiCad,Pcbnew,10.0.4*%
%TF.CreationDate,2026-06-29T18:05:19+07:00*%
%TF.ProjectId,Control Unit,436f6e74-726f-46c2-9055-6e69742e6b69,rev?*%
%TF.SameCoordinates,Original*%
%TF.FileFunction,Legend,Top*%
%TF.FilePolarity,Positive*%
%FSLAX46Y46*%
G04 Gerber Fmt 4.6, Leading zero omitted, Abs format (unit mm)*
G04 Created by KiCad (PCBNEW 10.0.4) date 2026-06-29 18:05:19*
%MOMM*%
%LPD*%
G01*
G04 APERTURE LIST*
%ADD10C,0.300000*%
%ADD11C,0.150000*%
%ADD12C,0.120000*%
%ADD13C,0.127000*%
%ADD14C,0.200000*%
G04 APERTURE END LIST*
D10*
X202529003Y-129554510D02*
X204029003Y-129554510D01*
X204029003Y-129554510D02*
X202529003Y-130411653D01*
X202529003Y-130411653D02*
X204029003Y-130411653D01*
X202529003Y-131840225D02*
X202529003Y-131125939D01*
X202529003Y-131125939D02*
X204029003Y-131125939D01*
X204029003Y-132125940D02*
X202529003Y-132625940D01*
X202529003Y-132625940D02*
X204029003Y-133125940D01*
X202529003Y-133625939D02*
X204029003Y-133625939D01*
X202529003Y-134483082D02*
X203386146Y-133840225D01*
X204029003Y-134483082D02*
X203171860Y-133625939D01*
X200114087Y-129554510D02*
X201114087Y-129554510D01*
X200828373Y-129554510D02*
X200971230Y-129625939D01*
X200971230Y-129625939D02*
X201042658Y-129697368D01*
X201042658Y-129697368D02*
X201114087Y-129840225D01*
X201114087Y-129840225D02*
X201114087Y-129983082D01*
X200185516Y-131054510D02*
X200114087Y-130911653D01*
X200114087Y-130911653D02*
X200114087Y-130625939D01*
X200114087Y-130625939D02*
X200185516Y-130483081D01*
X200185516Y-130483081D02*
X200328373Y-130411653D01*
X200328373Y-130411653D02*
X200899801Y-130411653D01*
X200899801Y-130411653D02*
X201042658Y-130483081D01*
X201042658Y-130483081D02*
X201114087Y-130625939D01*
X201114087Y-130625939D02*
X201114087Y-130911653D01*
X201114087Y-130911653D02*
X201042658Y-131054510D01*
X201042658Y-131054510D02*
X200899801Y-131125939D01*
X200899801Y-131125939D02*
X200756944Y-131125939D01*
X200756944Y-131125939D02*
X200614087Y-130411653D01*
X201114087Y-131625938D02*
X200114087Y-131983081D01*
X200114087Y-131983081D02*
X201114087Y-132340224D01*
X200114087Y-133697367D02*
X200114087Y-132840224D01*
X200114087Y-133268795D02*
X201614087Y-133268795D01*
X201614087Y-133268795D02*
X201399801Y-133125938D01*
X201399801Y-133125938D02*
X201256944Y-132983081D01*
X201256944Y-132983081D02*
X201185516Y-132840224D01*
X200256944Y-134340223D02*
X200185516Y-134411652D01*
X200185516Y-134411652D02*
X200114087Y-134340223D01*
X200114087Y-134340223D02*
X200185516Y-134268795D01*
X200185516Y-134268795D02*
X200256944Y-134340223D01*
X200256944Y-134340223D02*
X200114087Y-134340223D01*
X200114087Y-135840224D02*
X200114087Y-134983081D01*
X200114087Y-135411652D02*
X201614087Y-135411652D01*
X201614087Y-135411652D02*
X201399801Y-135268795D01*
X201399801Y-135268795D02*
X201256944Y-135125938D01*
X201256944Y-135125938D02*
X201185516Y-134983081D01*
X199056314Y-129483082D02*
X199127742Y-129554510D01*
X199127742Y-129554510D02*
X199199171Y-129697368D01*
X199199171Y-129697368D02*
X199199171Y-130054510D01*
X199199171Y-130054510D02*
X199127742Y-130197368D01*
X199127742Y-130197368D02*
X199056314Y-130268796D01*
X199056314Y-130268796D02*
X198913457Y-130340225D01*
X198913457Y-130340225D02*
X198770600Y-130340225D01*
X198770600Y-130340225D02*
X198556314Y-130268796D01*
X198556314Y-130268796D02*
X197699171Y-129411653D01*
X197699171Y-129411653D02*
X197699171Y-130340225D01*
X197699171Y-131054510D02*
X197699171Y-131340224D01*
X197699171Y-131340224D02*
X197770600Y-131483081D01*
X197770600Y-131483081D02*
X197842028Y-131554510D01*
X197842028Y-131554510D02*
X198056314Y-131697367D01*
X198056314Y-131697367D02*
X198342028Y-131768796D01*
X198342028Y-131768796D02*
X198913457Y-131768796D01*
X198913457Y-131768796D02*
X199056314Y-131697367D01*
X199056314Y-131697367D02*
X199127742Y-131625939D01*
X199127742Y-131625939D02*
X199199171Y-131483081D01*
X199199171Y-131483081D02*
X199199171Y-131197367D01*
X199199171Y-131197367D02*
X199127742Y-131054510D01*
X199127742Y-131054510D02*
X199056314Y-130983081D01*
X199056314Y-130983081D02*
X198913457Y-130911653D01*
X198913457Y-130911653D02*
X198556314Y-130911653D01*
X198556314Y-130911653D02*
X198413457Y-130983081D01*
X198413457Y-130983081D02*
X198342028Y-131054510D01*
X198342028Y-131054510D02*
X198270600Y-131197367D01*
X198270600Y-131197367D02*
X198270600Y-131483081D01*
X198270600Y-131483081D02*
X198342028Y-131625939D01*
X198342028Y-131625939D02*
X198413457Y-131697367D01*
X198413457Y-131697367D02*
X198556314Y-131768796D01*
X199270600Y-133483081D02*
X197342028Y-132197367D01*
X199199171Y-134268796D02*
X199199171Y-134411653D01*
X199199171Y-134411653D02*
X199127742Y-134554510D01*
X199127742Y-134554510D02*
X199056314Y-134625939D01*
X199056314Y-134625939D02*
X198913457Y-134697367D01*
X198913457Y-134697367D02*
X198627742Y-134768796D01*
X198627742Y-134768796D02*
X198270600Y-134768796D01*
X198270600Y-134768796D02*
X197984885Y-134697367D01*
X197984885Y-134697367D02*
X197842028Y-134625939D01*
X197842028Y-134625939D02*
X197770600Y-134554510D01*
X197770600Y-134554510D02*
X197699171Y-134411653D01*
X197699171Y-134411653D02*
X197699171Y-134268796D01*
X197699171Y-134268796D02*
X197770600Y-134125939D01*
X197770600Y-134125939D02*
X197842028Y-134054510D01*
X197842028Y-134054510D02*
X197984885Y-133983081D01*
X197984885Y-133983081D02*
X198270600Y-133911653D01*
X198270600Y-133911653D02*
X198627742Y-133911653D01*
X198627742Y-133911653D02*
X198913457Y-133983081D01*
X198913457Y-133983081D02*
X199056314Y-134054510D01*
X199056314Y-134054510D02*
X199127742Y-134125939D01*
X199127742Y-134125939D02*
X199199171Y-134268796D01*
X199199171Y-136054510D02*
X199199171Y-135768795D01*
X199199171Y-135768795D02*
X199127742Y-135625938D01*
X199127742Y-135625938D02*
X199056314Y-135554510D01*
X199056314Y-135554510D02*
X198842028Y-135411652D01*
X198842028Y-135411652D02*
X198556314Y-135340224D01*
X198556314Y-135340224D02*
X197984885Y-135340224D01*
X197984885Y-135340224D02*
X197842028Y-135411652D01*
X197842028Y-135411652D02*
X197770600Y-135483081D01*
X197770600Y-135483081D02*
X197699171Y-135625938D01*
X197699171Y-135625938D02*
X197699171Y-135911652D01*
X197699171Y-135911652D02*
X197770600Y-136054510D01*
X197770600Y-136054510D02*
X197842028Y-136125938D01*
X197842028Y-136125938D02*
X197984885Y-136197367D01*
X197984885Y-136197367D02*
X198342028Y-136197367D01*
X198342028Y-136197367D02*
X198484885Y-136125938D01*
X198484885Y-136125938D02*
X198556314Y-136054510D01*
X198556314Y-136054510D02*
X198627742Y-135911652D01*
X198627742Y-135911652D02*
X198627742Y-135625938D01*
X198627742Y-135625938D02*
X198556314Y-135483081D01*
X198556314Y-135483081D02*
X198484885Y-135411652D01*
X198484885Y-135411652D02*
X198342028Y-135340224D01*
X199270600Y-137911652D02*
X197342028Y-136625938D01*
X199056314Y-138340224D02*
X199127742Y-138411652D01*
X199127742Y-138411652D02*
X199199171Y-138554510D01*
X199199171Y-138554510D02*
X199199171Y-138911652D01*
X199199171Y-138911652D02*
X199127742Y-139054510D01*
X199127742Y-139054510D02*
X199056314Y-139125938D01*
X199056314Y-139125938D02*
X198913457Y-139197367D01*
X198913457Y-139197367D02*
X198770600Y-139197367D01*
X198770600Y-139197367D02*
X198556314Y-139125938D01*
X198556314Y-139125938D02*
X197699171Y-138268795D01*
X197699171Y-138268795D02*
X197699171Y-139197367D01*
X199199171Y-140125938D02*
X199199171Y-140268795D01*
X199199171Y-140268795D02*
X199127742Y-140411652D01*
X199127742Y-140411652D02*
X199056314Y-140483081D01*
X199056314Y-140483081D02*
X198913457Y-140554509D01*
X198913457Y-140554509D02*
X198627742Y-140625938D01*
X198627742Y-140625938D02*
X198270600Y-140625938D01*
X198270600Y-140625938D02*
X197984885Y-140554509D01*
X197984885Y-140554509D02*
X197842028Y-140483081D01*
X197842028Y-140483081D02*
X197770600Y-140411652D01*
X197770600Y-140411652D02*
X197699171Y-140268795D01*
X197699171Y-140268795D02*
X197699171Y-140125938D01*
X197699171Y-140125938D02*
X197770600Y-139983081D01*
X197770600Y-139983081D02*
X197842028Y-139911652D01*
X197842028Y-139911652D02*
X197984885Y-139840223D01*
X197984885Y-139840223D02*
X198270600Y-139768795D01*
X198270600Y-139768795D02*
X198627742Y-139768795D01*
X198627742Y-139768795D02*
X198913457Y-139840223D01*
X198913457Y-139840223D02*
X199056314Y-139911652D01*
X199056314Y-139911652D02*
X199127742Y-139983081D01*
X199127742Y-139983081D02*
X199199171Y-140125938D01*
X199056314Y-141197366D02*
X199127742Y-141268794D01*
X199127742Y-141268794D02*
X199199171Y-141411652D01*
X199199171Y-141411652D02*
X199199171Y-141768794D01*
X199199171Y-141768794D02*
X199127742Y-141911652D01*
X199127742Y-141911652D02*
X199056314Y-141983080D01*
X199056314Y-141983080D02*
X198913457Y-142054509D01*
X198913457Y-142054509D02*
X198770600Y-142054509D01*
X198770600Y-142054509D02*
X198556314Y-141983080D01*
X198556314Y-141983080D02*
X197699171Y-141125937D01*
X197699171Y-141125937D02*
X197699171Y-142054509D01*
X199199171Y-143340223D02*
X199199171Y-143054508D01*
X199199171Y-143054508D02*
X199127742Y-142911651D01*
X199127742Y-142911651D02*
X199056314Y-142840223D01*
X199056314Y-142840223D02*
X198842028Y-142697365D01*
X198842028Y-142697365D02*
X198556314Y-142625937D01*
X198556314Y-142625937D02*
X197984885Y-142625937D01*
X197984885Y-142625937D02*
X197842028Y-142697365D01*
X197842028Y-142697365D02*
X197770600Y-142768794D01*
X197770600Y-142768794D02*
X197699171Y-142911651D01*
X197699171Y-142911651D02*
X197699171Y-143197365D01*
X197699171Y-143197365D02*
X197770600Y-143340223D01*
X197770600Y-143340223D02*
X197842028Y-143411651D01*
X197842028Y-143411651D02*
X197984885Y-143483080D01*
X197984885Y-143483080D02*
X198342028Y-143483080D01*
X198342028Y-143483080D02*
X198484885Y-143411651D01*
X198484885Y-143411651D02*
X198556314Y-143340223D01*
X198556314Y-143340223D02*
X198627742Y-143197365D01*
X198627742Y-143197365D02*
X198627742Y-142911651D01*
X198627742Y-142911651D02*
X198556314Y-142768794D01*
X198556314Y-142768794D02*
X198484885Y-142697365D01*
X198484885Y-142697365D02*
X198342028Y-142625937D01*
D11*
X198174819Y-119333333D02*
X198889104Y-119333333D01*
X198889104Y-119333333D02*
X199031961Y-119380952D01*
X199031961Y-119380952D02*
X199127200Y-119476190D01*
X199127200Y-119476190D02*
X199174819Y-119619047D01*
X199174819Y-119619047D02*
X199174819Y-119714285D01*
X199174819Y-118333333D02*
X199174819Y-118904761D01*
X199174819Y-118619047D02*
X198174819Y-118619047D01*
X198174819Y-118619047D02*
X198317676Y-118714285D01*
X198317676Y-118714285D02*
X198412914Y-118809523D01*
X198412914Y-118809523D02*
X198460533Y-118904761D01*
X177924819Y-129238094D02*
X176924819Y-129238094D01*
X176924819Y-129238094D02*
X176924819Y-128999999D01*
X176924819Y-128999999D02*
X176972438Y-128857142D01*
X176972438Y-128857142D02*
X177067676Y-128761904D01*
X177067676Y-128761904D02*
X177162914Y-128714285D01*
X177162914Y-128714285D02*
X177353390Y-128666666D01*
X177353390Y-128666666D02*
X177496247Y-128666666D01*
X177496247Y-128666666D02*
X177686723Y-128714285D01*
X177686723Y-128714285D02*
X177781961Y-128761904D01*
X177781961Y-128761904D02*
X177877200Y-128857142D01*
X177877200Y-128857142D02*
X177924819Y-128999999D01*
X177924819Y-128999999D02*
X177924819Y-129238094D01*
X177020057Y-128285713D02*
X176972438Y-128238094D01*
X176972438Y-128238094D02*
X176924819Y-128142856D01*
X176924819Y-128142856D02*
X176924819Y-127904761D01*
X176924819Y-127904761D02*
X176972438Y-127809523D01*
X176972438Y-127809523D02*
X177020057Y-127761904D01*
X177020057Y-127761904D02*
X177115295Y-127714285D01*
X177115295Y-127714285D02*
X177210533Y-127714285D01*
X177210533Y-127714285D02*
X177353390Y-127761904D01*
X177353390Y-127761904D02*
X177924819Y-128333332D01*
X177924819Y-128333332D02*
X177924819Y-127714285D01*
X177554819Y-123681904D02*
X176554819Y-123681904D01*
X177554819Y-123110476D02*
X176983390Y-123539047D01*
X176554819Y-123110476D02*
X177126247Y-123681904D01*
X174933095Y-140719819D02*
X174933095Y-141529342D01*
X174933095Y-141529342D02*
X174980714Y-141624580D01*
X174980714Y-141624580D02*
X175028333Y-141672200D01*
X175028333Y-141672200D02*
X175123571Y-141719819D01*
X175123571Y-141719819D02*
X175314047Y-141719819D01*
X175314047Y-141719819D02*
X175409285Y-141672200D01*
X175409285Y-141672200D02*
X175456904Y-141624580D01*
X175456904Y-141624580D02*
X175504523Y-141529342D01*
X175504523Y-141529342D02*
X175504523Y-140719819D01*
X175933095Y-140815057D02*
X175980714Y-140767438D01*
X175980714Y-140767438D02*
X176075952Y-140719819D01*
X176075952Y-140719819D02*
X176314047Y-140719819D01*
X176314047Y-140719819D02*
X176409285Y-140767438D01*
X176409285Y-140767438D02*
X176456904Y-140815057D01*
X176456904Y-140815057D02*
X176504523Y-140910295D01*
X176504523Y-140910295D02*
X176504523Y-141005533D01*
X176504523Y-141005533D02*
X176456904Y-141148390D01*
X176456904Y-141148390D02*
X175885476Y-141719819D01*
X175885476Y-141719819D02*
X176504523Y-141719819D01*
X160166667Y-140907200D02*
X160309524Y-140954819D01*
X160309524Y-140954819D02*
X160547619Y-140954819D01*
X160547619Y-140954819D02*
X160642857Y-140907200D01*
X160642857Y-140907200D02*
X160690476Y-140859580D01*
X160690476Y-140859580D02*
X160738095Y-140764342D01*
X160738095Y-140764342D02*
X160738095Y-140669104D01*
X160738095Y-140669104D02*
X160690476Y-140573866D01*
X160690476Y-140573866D02*
X160642857Y-140526247D01*
X160642857Y-140526247D02*
X160547619Y-140478628D01*
X160547619Y-140478628D02*
X160357143Y-140431009D01*
X160357143Y-140431009D02*
X160261905Y-140383390D01*
X160261905Y-140383390D02*
X160214286Y-140335771D01*
X160214286Y-140335771D02*
X160166667Y-140240533D01*
X160166667Y-140240533D02*
X160166667Y-140145295D01*
X160166667Y-140145295D02*
X160214286Y-140050057D01*
X160214286Y-140050057D02*
X160261905Y-140002438D01*
X160261905Y-140002438D02*
X160357143Y-139954819D01*
X160357143Y-139954819D02*
X160595238Y-139954819D01*
X160595238Y-139954819D02*
X160738095Y-140002438D01*
X161071429Y-139954819D02*
X161309524Y-140954819D01*
X161309524Y-140954819D02*
X161500000Y-140240533D01*
X161500000Y-140240533D02*
X161690476Y-140954819D01*
X161690476Y-140954819D02*
X161928572Y-139954819D01*
X162833333Y-140954819D02*
X162261905Y-140954819D01*
X162547619Y-140954819D02*
X162547619Y-139954819D01*
X162547619Y-139954819D02*
X162452381Y-140097676D01*
X162452381Y-140097676D02*
X162357143Y-140192914D01*
X162357143Y-140192914D02*
X162261905Y-140240533D01*
X191523333Y-107954819D02*
X191190000Y-107478628D01*
X190951905Y-107954819D02*
X190951905Y-106954819D01*
X190951905Y-106954819D02*
X191332857Y-106954819D01*
X191332857Y-106954819D02*
X191428095Y-107002438D01*
X191428095Y-107002438D02*
X191475714Y-107050057D01*
X191475714Y-107050057D02*
X191523333Y-107145295D01*
X191523333Y-107145295D02*
X191523333Y-107288152D01*
X191523333Y-107288152D02*
X191475714Y-107383390D01*
X191475714Y-107383390D02*
X191428095Y-107431009D01*
X191428095Y-107431009D02*
X191332857Y-107478628D01*
X191332857Y-107478628D02*
X190951905Y-107478628D01*
X192380476Y-107288152D02*
X192380476Y-107954819D01*
X192142381Y-106907200D02*
X191904286Y-107621485D01*
X191904286Y-107621485D02*
X192523333Y-107621485D01*
X136288095Y-107704819D02*
X136288095Y-108514342D01*
X136288095Y-108514342D02*
X136335714Y-108609580D01*
X136335714Y-108609580D02*
X136383333Y-108657200D01*
X136383333Y-108657200D02*
X136478571Y-108704819D01*
X136478571Y-108704819D02*
X136669047Y-108704819D01*
X136669047Y-108704819D02*
X136764285Y-108657200D01*
X136764285Y-108657200D02*
X136811904Y-108609580D01*
X136811904Y-108609580D02*
X136859523Y-108514342D01*
X136859523Y-108514342D02*
X136859523Y-107704819D01*
X137859523Y-108704819D02*
X137288095Y-108704819D01*
X137573809Y-108704819D02*
X137573809Y-107704819D01*
X137573809Y-107704819D02*
X137478571Y-107847676D01*
X137478571Y-107847676D02*
X137383333Y-107942914D01*
X137383333Y-107942914D02*
X137288095Y-107990533D01*
X174954819Y-94666666D02*
X174478628Y-94999999D01*
X174954819Y-95238094D02*
X173954819Y-95238094D01*
X173954819Y-95238094D02*
X173954819Y-94857142D01*
X173954819Y-94857142D02*
X174002438Y-94761904D01*
X174002438Y-94761904D02*
X174050057Y-94714285D01*
X174050057Y-94714285D02*
X174145295Y-94666666D01*
X174145295Y-94666666D02*
X174288152Y-94666666D01*
X174288152Y-94666666D02*
X174383390Y-94714285D01*
X174383390Y-94714285D02*
X174431009Y-94761904D01*
X174431009Y-94761904D02*
X174478628Y-94857142D01*
X174478628Y-94857142D02*
X174478628Y-95238094D01*
X173954819Y-94333332D02*
X173954819Y-93714285D01*
X173954819Y-93714285D02*
X174335771Y-94047618D01*
X174335771Y-94047618D02*
X174335771Y-93904761D01*
X174335771Y-93904761D02*
X174383390Y-93809523D01*
X174383390Y-93809523D02*
X174431009Y-93761904D01*
X174431009Y-93761904D02*
X174526247Y-93714285D01*
X174526247Y-93714285D02*
X174764342Y-93714285D01*
X174764342Y-93714285D02*
X174859580Y-93761904D01*
X174859580Y-93761904D02*
X174907200Y-93809523D01*
X174907200Y-93809523D02*
X174954819Y-93904761D01*
X174954819Y-93904761D02*
X174954819Y-94190475D01*
X174954819Y-94190475D02*
X174907200Y-94285713D01*
X174907200Y-94285713D02*
X174859580Y-94333332D01*
X175333333Y-117454819D02*
X175000000Y-116978628D01*
X174761905Y-117454819D02*
X174761905Y-116454819D01*
X174761905Y-116454819D02*
X175142857Y-116454819D01*
X175142857Y-116454819D02*
X175238095Y-116502438D01*
X175238095Y-116502438D02*
X175285714Y-116550057D01*
X175285714Y-116550057D02*
X175333333Y-116645295D01*
X175333333Y-116645295D02*
X175333333Y-116788152D01*
X175333333Y-116788152D02*
X175285714Y-116883390D01*
X175285714Y-116883390D02*
X175238095Y-116931009D01*
X175238095Y-116931009D02*
X175142857Y-116978628D01*
X175142857Y-116978628D02*
X174761905Y-116978628D01*
X175714286Y-116550057D02*
X175761905Y-116502438D01*
X175761905Y-116502438D02*
X175857143Y-116454819D01*
X175857143Y-116454819D02*
X176095238Y-116454819D01*
X176095238Y-116454819D02*
X176190476Y-116502438D01*
X176190476Y-116502438D02*
X176238095Y-116550057D01*
X176238095Y-116550057D02*
X176285714Y-116645295D01*
X176285714Y-116645295D02*
X176285714Y-116740533D01*
X176285714Y-116740533D02*
X176238095Y-116883390D01*
X176238095Y-116883390D02*
X175666667Y-117454819D01*
X175666667Y-117454819D02*
X176285714Y-117454819D01*
X188954819Y-123666666D02*
X188478628Y-123999999D01*
X188954819Y-124238094D02*
X187954819Y-124238094D01*
X187954819Y-124238094D02*
X187954819Y-123857142D01*
X187954819Y-123857142D02*
X188002438Y-123761904D01*
X188002438Y-123761904D02*
X188050057Y-123714285D01*
X188050057Y-123714285D02*
X188145295Y-123666666D01*
X188145295Y-123666666D02*
X188288152Y-123666666D01*
X188288152Y-123666666D02*
X188383390Y-123714285D01*
X188383390Y-123714285D02*
X188431009Y-123761904D01*
X188431009Y-123761904D02*
X188478628Y-123857142D01*
X188478628Y-123857142D02*
X188478628Y-124238094D01*
X188954819Y-122714285D02*
X188954819Y-123285713D01*
X188954819Y-122999999D02*
X187954819Y-122999999D01*
X187954819Y-122999999D02*
X188097676Y-123095237D01*
X188097676Y-123095237D02*
X188192914Y-123190475D01*
X188192914Y-123190475D02*
X188240533Y-123285713D01*
X189261905Y-93954819D02*
X189261905Y-92954819D01*
X189833333Y-93954819D02*
X189404762Y-93383390D01*
X189833333Y-92954819D02*
X189261905Y-93526247D01*
X190785714Y-93954819D02*
X190214286Y-93954819D01*
X190500000Y-93954819D02*
X190500000Y-92954819D01*
X190500000Y-92954819D02*
X190404762Y-93097676D01*
X190404762Y-93097676D02*
X190309524Y-93192914D01*
X190309524Y-93192914D02*
X190214286Y-93240533D01*
X131916666Y-136554819D02*
X131916666Y-137269104D01*
X131916666Y-137269104D02*
X131869047Y-137411961D01*
X131869047Y-137411961D02*
X131773809Y-137507200D01*
X131773809Y-137507200D02*
X131630952Y-137554819D01*
X131630952Y-137554819D02*
X131535714Y-137554819D01*
X132297619Y-136554819D02*
X132964285Y-136554819D01*
X132964285Y-136554819D02*
X132535714Y-137554819D01*
X187416666Y-135554819D02*
X187416666Y-136269104D01*
X187416666Y-136269104D02*
X187369047Y-136411961D01*
X187369047Y-136411961D02*
X187273809Y-136507200D01*
X187273809Y-136507200D02*
X187130952Y-136554819D01*
X187130952Y-136554819D02*
X187035714Y-136554819D01*
X188321428Y-135554819D02*
X188130952Y-135554819D01*
X188130952Y-135554819D02*
X188035714Y-135602438D01*
X188035714Y-135602438D02*
X187988095Y-135650057D01*
X187988095Y-135650057D02*
X187892857Y-135792914D01*
X187892857Y-135792914D02*
X187845238Y-135983390D01*
X187845238Y-135983390D02*
X187845238Y-136364342D01*
X187845238Y-136364342D02*
X187892857Y-136459580D01*
X187892857Y-136459580D02*
X187940476Y-136507200D01*
X187940476Y-136507200D02*
X188035714Y-136554819D01*
X188035714Y-136554819D02*
X188226190Y-136554819D01*
X188226190Y-136554819D02*
X188321428Y-136507200D01*
X188321428Y-136507200D02*
X188369047Y-136459580D01*
X188369047Y-136459580D02*
X188416666Y-136364342D01*
X188416666Y-136364342D02*
X188416666Y-136126247D01*
X188416666Y-136126247D02*
X188369047Y-136031009D01*
X188369047Y-136031009D02*
X188321428Y-135983390D01*
X188321428Y-135983390D02*
X188226190Y-135935771D01*
X188226190Y-135935771D02*
X188035714Y-135935771D01*
X188035714Y-135935771D02*
X187940476Y-135983390D01*
X187940476Y-135983390D02*
X187892857Y-136031009D01*
X187892857Y-136031009D02*
X187845238Y-136126247D01*
X119914819Y-85333333D02*
X120629104Y-85333333D01*
X120629104Y-85333333D02*
X120771961Y-85380952D01*
X120771961Y-85380952D02*
X120867200Y-85476190D01*
X120867200Y-85476190D02*
X120914819Y-85619047D01*
X120914819Y-85619047D02*
X120914819Y-85714285D01*
X119914819Y-84380952D02*
X119914819Y-84857142D01*
X119914819Y-84857142D02*
X120391009Y-84904761D01*
X120391009Y-84904761D02*
X120343390Y-84857142D01*
X120343390Y-84857142D02*
X120295771Y-84761904D01*
X120295771Y-84761904D02*
X120295771Y-84523809D01*
X120295771Y-84523809D02*
X120343390Y-84428571D01*
X120343390Y-84428571D02*
X120391009Y-84380952D01*
X120391009Y-84380952D02*
X120486247Y-84333333D01*
X120486247Y-84333333D02*
X120724342Y-84333333D01*
X120724342Y-84333333D02*
X120819580Y-84380952D01*
X120819580Y-84380952D02*
X120867200Y-84428571D01*
X120867200Y-84428571D02*
X120914819Y-84523809D01*
X120914819Y-84523809D02*
X120914819Y-84761904D01*
X120914819Y-84761904D02*
X120867200Y-84857142D01*
X120867200Y-84857142D02*
X120819580Y-84904761D01*
X146416666Y-136554819D02*
X146416666Y-137269104D01*
X146416666Y-137269104D02*
X146369047Y-137411961D01*
X146369047Y-137411961D02*
X146273809Y-137507200D01*
X146273809Y-137507200D02*
X146130952Y-137554819D01*
X146130952Y-137554819D02*
X146035714Y-137554819D01*
X147321428Y-136888152D02*
X147321428Y-137554819D01*
X147083333Y-136507200D02*
X146845238Y-137221485D01*
X146845238Y-137221485D02*
X147464285Y-137221485D01*
X113416666Y-136554819D02*
X113416666Y-137269104D01*
X113416666Y-137269104D02*
X113369047Y-137411961D01*
X113369047Y-137411961D02*
X113273809Y-137507200D01*
X113273809Y-137507200D02*
X113130952Y-137554819D01*
X113130952Y-137554819D02*
X113035714Y-137554819D01*
X113797619Y-136554819D02*
X114416666Y-136554819D01*
X114416666Y-136554819D02*
X114083333Y-136935771D01*
X114083333Y-136935771D02*
X114226190Y-136935771D01*
X114226190Y-136935771D02*
X114321428Y-136983390D01*
X114321428Y-136983390D02*
X114369047Y-137031009D01*
X114369047Y-137031009D02*
X114416666Y-137126247D01*
X114416666Y-137126247D02*
X114416666Y-137364342D01*
X114416666Y-137364342D02*
X114369047Y-137459580D01*
X114369047Y-137459580D02*
X114321428Y-137507200D01*
X114321428Y-137507200D02*
X114226190Y-137554819D01*
X114226190Y-137554819D02*
X113940476Y-137554819D01*
X113940476Y-137554819D02*
X113845238Y-137507200D01*
X113845238Y-137507200D02*
X113797619Y-137459580D01*
X161666666Y-105954819D02*
X161666666Y-106669104D01*
X161666666Y-106669104D02*
X161619047Y-106811961D01*
X161619047Y-106811961D02*
X161523809Y-106907200D01*
X161523809Y-106907200D02*
X161380952Y-106954819D01*
X161380952Y-106954819D02*
X161285714Y-106954819D01*
X162095238Y-106050057D02*
X162142857Y-106002438D01*
X162142857Y-106002438D02*
X162238095Y-105954819D01*
X162238095Y-105954819D02*
X162476190Y-105954819D01*
X162476190Y-105954819D02*
X162571428Y-106002438D01*
X162571428Y-106002438D02*
X162619047Y-106050057D01*
X162619047Y-106050057D02*
X162666666Y-106145295D01*
X162666666Y-106145295D02*
X162666666Y-106240533D01*
X162666666Y-106240533D02*
X162619047Y-106383390D01*
X162619047Y-106383390D02*
X162047619Y-106954819D01*
X162047619Y-106954819D02*
X162666666Y-106954819D01*
X180954819Y-93738094D02*
X179954819Y-93738094D01*
X179954819Y-93738094D02*
X179954819Y-93499999D01*
X179954819Y-93499999D02*
X180002438Y-93357142D01*
X180002438Y-93357142D02*
X180097676Y-93261904D01*
X180097676Y-93261904D02*
X180192914Y-93214285D01*
X180192914Y-93214285D02*
X180383390Y-93166666D01*
X180383390Y-93166666D02*
X180526247Y-93166666D01*
X180526247Y-93166666D02*
X180716723Y-93214285D01*
X180716723Y-93214285D02*
X180811961Y-93261904D01*
X180811961Y-93261904D02*
X180907200Y-93357142D01*
X180907200Y-93357142D02*
X180954819Y-93499999D01*
X180954819Y-93499999D02*
X180954819Y-93738094D01*
X180954819Y-92214285D02*
X180954819Y-92785713D01*
X180954819Y-92499999D02*
X179954819Y-92499999D01*
X179954819Y-92499999D02*
X180097676Y-92595237D01*
X180097676Y-92595237D02*
X180192914Y-92690475D01*
X180192914Y-92690475D02*
X180240533Y-92785713D01*
X178454819Y-88181904D02*
X177454819Y-88181904D01*
X178454819Y-87610476D02*
X177883390Y-88039047D01*
X177454819Y-87610476D02*
X178026247Y-88181904D01*
X177509374Y-100359580D02*
X177461755Y-100407200D01*
X177461755Y-100407200D02*
X177318898Y-100454819D01*
X177318898Y-100454819D02*
X177223660Y-100454819D01*
X177223660Y-100454819D02*
X177080803Y-100407200D01*
X177080803Y-100407200D02*
X176985565Y-100311961D01*
X176985565Y-100311961D02*
X176937946Y-100216723D01*
X176937946Y-100216723D02*
X176890327Y-100026247D01*
X176890327Y-100026247D02*
X176890327Y-99883390D01*
X176890327Y-99883390D02*
X176937946Y-99692914D01*
X176937946Y-99692914D02*
X176985565Y-99597676D01*
X176985565Y-99597676D02*
X177080803Y-99502438D01*
X177080803Y-99502438D02*
X177223660Y-99454819D01*
X177223660Y-99454819D02*
X177318898Y-99454819D01*
X177318898Y-99454819D02*
X177461755Y-99502438D01*
X177461755Y-99502438D02*
X177509374Y-99550057D01*
X178461755Y-100454819D02*
X177890327Y-100454819D01*
X178176041Y-100454819D02*
X178176041Y-99454819D01*
X178176041Y-99454819D02*
X178080803Y-99597676D01*
X178080803Y-99597676D02*
X177985565Y-99692914D01*
X177985565Y-99692914D02*
X177890327Y-99740533D01*
%TO.C,D2*%
D12*
X173530000Y-125780000D02*
X176470000Y-125780000D01*
X176470000Y-131220000D01*
X173530000Y-131220000D01*
X173530000Y-125780000D01*
X175000000Y-132240000D02*
X175000000Y-131220000D01*
X176470000Y-126800000D02*
X173530000Y-126800000D01*
X176470000Y-126680000D02*
X173530000Y-126680000D01*
X176470000Y-126560000D02*
X173530000Y-126560000D01*
X175000000Y-124760000D02*
X175000000Y-125780000D01*
%TO.C,U2*%
X174690000Y-143870000D02*
G75*
G02*
X176690000Y-143870000I1000000J0D01*
G01*
X173040000Y-138670000D02*
X173040000Y-143870000D01*
X173040000Y-143870000D02*
X174690000Y-143870000D01*
X176690000Y-143870000D02*
X178340000Y-143870000D01*
X178340000Y-138670000D02*
X173040000Y-138670000D01*
X178340000Y-143870000D02*
X178340000Y-138670000D01*
%TO.C,SW1*%
X166100000Y-138600000D02*
X166100000Y-140900000D01*
X164900000Y-138600000D02*
X166100000Y-138600000D01*
X163100000Y-138600000D02*
X162400000Y-138600000D01*
X160600000Y-138600000D02*
X159900000Y-138600000D01*
X156900000Y-140900000D02*
X156900000Y-138600000D01*
X156900000Y-138600000D02*
X158100000Y-138600000D01*
%TO.C,R4*%
X188420000Y-106130000D02*
X188420000Y-106460000D01*
X188420000Y-108870000D02*
X188420000Y-108540000D01*
X194960000Y-106130000D02*
X188420000Y-106130000D01*
X194960000Y-106460000D02*
X194960000Y-106130000D01*
X194960000Y-108540000D02*
X194960000Y-108870000D01*
X194960000Y-108870000D02*
X188420000Y-108870000D01*
%TO.C,U1*%
D13*
X151280000Y-82775000D02*
X151280000Y-133725000D01*
X151280000Y-133725000D02*
X122770000Y-133725000D01*
X122770000Y-82775000D02*
X151280000Y-82775000D01*
X122770000Y-133725000D02*
X122770000Y-82775000D01*
D14*
X122300000Y-92735000D02*
G75*
G02*
X122100000Y-92735000I-100000J0D01*
G01*
X122100000Y-92735000D02*
G75*
G02*
X122300000Y-92735000I100000J0D01*
G01*
D13*
X122770000Y-82775000D02*
X133839000Y-82775000D01*
X133839000Y-82775000D02*
X140550000Y-82775000D01*
X140550000Y-82775000D02*
X151280000Y-82775000D01*
X122770000Y-133725000D02*
X122770000Y-82775000D01*
X151280000Y-82775000D02*
X151280000Y-133725000D01*
X122770000Y-133725000D02*
X128140000Y-133725000D01*
X128140000Y-133725000D02*
X145830000Y-133725000D01*
X145830000Y-133725000D02*
X151280000Y-133725000D01*
%TO.C,R3*%
D12*
X175870000Y-91230000D02*
X175870000Y-97770000D01*
X175540000Y-91230000D02*
X175870000Y-91230000D01*
X173460000Y-91230000D02*
X173130000Y-91230000D01*
X173130000Y-91230000D02*
X173130000Y-97770000D01*
X175870000Y-97770000D02*
X175540000Y-97770000D01*
X173130000Y-97770000D02*
X173460000Y-97770000D01*
%TO.C,R2*%
X172230000Y-115630000D02*
X178770000Y-115630000D01*
X172230000Y-115960000D02*
X172230000Y-115630000D01*
X172230000Y-118040000D02*
X172230000Y-118370000D01*
X172230000Y-118370000D02*
X178770000Y-118370000D01*
X178770000Y-115630000D02*
X178770000Y-115960000D01*
X178770000Y-118370000D02*
X178770000Y-118040000D01*
%TO.C,R1*%
X188500000Y-114780000D02*
X188500000Y-115630000D01*
X188500000Y-132220000D02*
X188500000Y-131370000D01*
X185880000Y-115630000D02*
X191120000Y-115630000D01*
X191120000Y-131370000D01*
X185880000Y-131370000D01*
X185880000Y-115630000D01*
%TO.C,K1*%
X202900000Y-102800000D02*
X202900000Y-96200000D01*
X202900000Y-102800000D02*
X183100000Y-102800000D01*
X202900000Y-93800000D02*
X202900000Y-87200000D01*
X198850000Y-94950000D02*
X199650000Y-94950000D01*
X198850000Y-94950000D02*
X198850000Y-91350000D01*
X197950000Y-88950000D02*
X195450000Y-88950000D01*
X197450000Y-96750000D02*
X193450000Y-96750000D01*
X197450000Y-93150000D02*
X197450000Y-96750000D01*
X195450000Y-100950000D02*
X197950000Y-100950000D01*
X195450000Y-100950000D02*
X195450000Y-96750000D01*
X195450000Y-93150000D02*
X195450000Y-88950000D01*
X193450000Y-96750000D02*
X193450000Y-93150000D01*
X193450000Y-93150000D02*
X197450000Y-96750000D01*
X193450000Y-93150000D02*
X197450000Y-93150000D01*
X192050000Y-94950000D02*
X192050000Y-91350000D01*
X192050000Y-94950000D02*
X190550000Y-94950000D01*
X192050000Y-91350000D02*
X198850000Y-91350000D01*
X190550000Y-94950000D02*
X185950000Y-97450000D01*
X187350000Y-99200000D02*
X187350000Y-96700000D01*
X187350000Y-90800000D02*
X187350000Y-93250000D01*
X183100000Y-102800000D02*
X183100000Y-87200000D01*
X183100000Y-87200000D02*
X202900000Y-87200000D01*
%TO.C,J7*%
X128090000Y-137890000D02*
X128090000Y-139140000D01*
X128390000Y-138190000D02*
X128390000Y-144810000D01*
X128390000Y-141500000D02*
X129400000Y-141500000D01*
X128390000Y-144810000D02*
X136110000Y-144810000D01*
X129340000Y-137890000D02*
X128090000Y-137890000D01*
X129400000Y-139800000D02*
X129400000Y-144100000D01*
X129400000Y-144100000D02*
X135100000Y-144100000D01*
X130650000Y-138190000D02*
X128390000Y-138190000D01*
X130650000Y-139190000D02*
X130650000Y-138190000D01*
X131850000Y-138590000D02*
X131850000Y-139190000D01*
X131850000Y-139190000D02*
X130650000Y-139190000D01*
X132650000Y-138590000D02*
X131850000Y-138590000D01*
X132650000Y-139190000D02*
X132650000Y-138590000D01*
X133850000Y-138190000D02*
X133850000Y-139190000D01*
X133850000Y-139190000D02*
X132650000Y-139190000D01*
X135100000Y-139800000D02*
X129400000Y-139800000D01*
X135100000Y-144100000D02*
X135100000Y-139800000D01*
X136110000Y-138190000D02*
X133850000Y-138190000D01*
X136110000Y-141500000D02*
X135100000Y-141500000D01*
X136110000Y-144810000D02*
X136110000Y-138190000D01*
%TO.C,J6*%
X183590000Y-136890000D02*
X183590000Y-138140000D01*
X183890000Y-137190000D02*
X183890000Y-143810000D01*
X183890000Y-140500000D02*
X184900000Y-140500000D01*
X183890000Y-143810000D02*
X191610000Y-143810000D01*
X184840000Y-136890000D02*
X183590000Y-136890000D01*
X184900000Y-138800000D02*
X184900000Y-143100000D01*
X184900000Y-143100000D02*
X190600000Y-143100000D01*
X186150000Y-137190000D02*
X183890000Y-137190000D01*
X186150000Y-138190000D02*
X186150000Y-137190000D01*
X187350000Y-137590000D02*
X187350000Y-138190000D01*
X187350000Y-138190000D02*
X186150000Y-138190000D01*
X188150000Y-137590000D02*
X187350000Y-137590000D01*
X188150000Y-138190000D02*
X188150000Y-137590000D01*
X189350000Y-137190000D02*
X189350000Y-138190000D01*
X189350000Y-138190000D02*
X188150000Y-138190000D01*
X190600000Y-138800000D02*
X184900000Y-138800000D01*
X190600000Y-143100000D02*
X190600000Y-138800000D01*
X191610000Y-137190000D02*
X189350000Y-137190000D01*
X191610000Y-140500000D02*
X190600000Y-140500000D01*
X191610000Y-143810000D02*
X191610000Y-137190000D01*
%TO.C,J5*%
X119460000Y-83620000D02*
X119460000Y-85000000D01*
X118080000Y-83620000D02*
X119460000Y-83620000D01*
X116810000Y-83620000D02*
X104000000Y-83620000D01*
X116810000Y-83620000D02*
X116810000Y-86380000D01*
X104000000Y-83620000D02*
X104000000Y-86380000D01*
X116810000Y-86380000D02*
X104000000Y-86380000D01*
%TO.C,J4*%
X140090000Y-137890000D02*
X140090000Y-139140000D01*
X140390000Y-138190000D02*
X140390000Y-144810000D01*
X140390000Y-141500000D02*
X141400000Y-141500000D01*
X140390000Y-144810000D02*
X153110000Y-144810000D01*
X141340000Y-137890000D02*
X140090000Y-137890000D01*
X141400000Y-139800000D02*
X141400000Y-144100000D01*
X141400000Y-144100000D02*
X152100000Y-144100000D01*
X144050000Y-138190000D02*
X140390000Y-138190000D01*
X144050000Y-139190000D02*
X144050000Y-138190000D01*
X145950000Y-138590000D02*
X145950000Y-139190000D01*
X145950000Y-139190000D02*
X144050000Y-139190000D01*
X147550000Y-138590000D02*
X145950000Y-138590000D01*
X147550000Y-139190000D02*
X147550000Y-138590000D01*
X149450000Y-138190000D02*
X149450000Y-139190000D01*
X149450000Y-139190000D02*
X147550000Y-139190000D01*
X152100000Y-139800000D02*
X141400000Y-139800000D01*
X152100000Y-144100000D02*
X152100000Y-139800000D01*
X153110000Y-138190000D02*
X149450000Y-138190000D01*
X153110000Y-141500000D02*
X152100000Y-141500000D01*
X153110000Y-144810000D02*
X153110000Y-138190000D01*
%TO.C,J3*%
X102090000Y-137890000D02*
X102090000Y-139140000D01*
X102390000Y-138190000D02*
X102390000Y-144810000D01*
X102390000Y-141500000D02*
X103400000Y-141500000D01*
X102390000Y-144810000D02*
X125110000Y-144810000D01*
X103340000Y-137890000D02*
X102090000Y-137890000D01*
X103400000Y-139800000D02*
X103400000Y-144100000D01*
X103400000Y-144100000D02*
X124100000Y-144100000D01*
X104690000Y-138190000D02*
X102390000Y-138190000D01*
X104690000Y-139190000D02*
X104690000Y-138190000D01*
X108950000Y-138190000D02*
X108950000Y-139190000D01*
X108950000Y-139190000D02*
X104690000Y-139190000D01*
X111050000Y-138190000D02*
X108950000Y-138190000D01*
X111050000Y-139190000D02*
X111050000Y-138190000D01*
X112950000Y-138590000D02*
X112950000Y-139190000D01*
X112950000Y-139190000D02*
X111050000Y-139190000D01*
X114550000Y-138590000D02*
X112950000Y-138590000D01*
X114550000Y-139190000D02*
X114550000Y-138590000D01*
X116450000Y-138190000D02*
X116450000Y-139190000D01*
X116450000Y-139190000D02*
X114550000Y-139190000D01*
X118550000Y-138190000D02*
X116450000Y-138190000D01*
X118550000Y-139190000D02*
X118550000Y-138190000D01*
X122810000Y-138190000D02*
X122810000Y-139190000D01*
X122810000Y-139190000D02*
X118550000Y-139190000D01*
X124100000Y-139800000D02*
X103400000Y-139800000D01*
X124100000Y-144100000D02*
X124100000Y-139800000D01*
X125110000Y-138190000D02*
X122810000Y-138190000D01*
X125110000Y-141500000D02*
X124100000Y-141500000D01*
X125110000Y-144810000D02*
X125110000Y-138190000D01*
%TO.C,J2*%
X170000000Y-82900000D02*
X154000001Y-82900000D01*
X154000001Y-82900000D02*
X154000000Y-130100000D01*
X164666666Y-129740000D02*
X164666666Y-130100000D01*
X159333334Y-129740000D02*
X164666666Y-129740000D01*
X169999999Y-130100000D02*
X170000000Y-82900000D01*
X164666666Y-130100000D02*
X169999999Y-130100000D01*
X159333334Y-130100000D02*
X159333334Y-129740000D01*
X154000000Y-130100000D02*
X159333334Y-130100000D01*
%TO.C,D1*%
X180500000Y-89260000D02*
X180500000Y-90280000D01*
X181970000Y-91060000D02*
X179030000Y-91060000D01*
X181970000Y-91180000D02*
X179030000Y-91180000D01*
X181970000Y-91300000D02*
X179030000Y-91300000D01*
X180500000Y-96740000D02*
X180500000Y-95720000D01*
X179030000Y-90280000D02*
X181970000Y-90280000D01*
X181970000Y-95720000D01*
X179030000Y-95720000D01*
X179030000Y-90280000D01*
%TO.C,C1*%
X170858959Y-103925000D02*
X172108959Y-103925000D01*
X171483959Y-103300000D02*
X171483959Y-104550000D01*
X177676041Y-101170000D02*
X177676041Y-113830000D01*
X177716041Y-101170000D02*
X177716041Y-113830000D01*
X177756041Y-101171000D02*
X177756041Y-113829000D01*
X177796041Y-101171000D02*
X177796041Y-113829000D01*
X177836041Y-101172000D02*
X177836041Y-113828000D01*
X177876041Y-101173000D02*
X177876041Y-113827000D01*
X177916041Y-101175000D02*
X177916041Y-113825000D01*
X177956041Y-101176000D02*
X177956041Y-113824000D01*
X177996041Y-101178000D02*
X177996041Y-113822000D01*
X178036041Y-101180000D02*
X178036041Y-113820000D01*
X178076041Y-101183000D02*
X178076041Y-113817000D01*
X178116041Y-101185000D02*
X178116041Y-113815000D01*
X178156041Y-101188000D02*
X178156041Y-113812000D01*
X178196041Y-101191000D02*
X178196041Y-113809000D01*
X178236041Y-101195000D02*
X178236041Y-113805000D01*
X178276041Y-101198000D02*
X178276041Y-113802000D01*
X178316041Y-101202000D02*
X178316041Y-113798000D01*
X178356041Y-101206000D02*
X178356041Y-113794000D01*
X178396041Y-101211000D02*
X178396041Y-113789000D01*
X178436041Y-101216000D02*
X178436041Y-113784000D01*
X178476041Y-101220000D02*
X178476041Y-113780000D01*
X178516041Y-101226000D02*
X178516041Y-113774000D01*
X178556041Y-101231000D02*
X178556041Y-113769000D01*
X178596041Y-101237000D02*
X178596041Y-113763000D01*
X178636041Y-101243000D02*
X178636041Y-113757000D01*
X178676041Y-101249000D02*
X178676041Y-113751000D01*
X178716041Y-101255000D02*
X178716041Y-113745000D01*
X178756041Y-101262000D02*
X178756041Y-106060000D01*
X178756041Y-108940000D02*
X178756041Y-113738000D01*
X178796041Y-101269000D02*
X178796041Y-106060000D01*
X178796041Y-108940000D02*
X178796041Y-113731000D01*
X178836041Y-101277000D02*
X178836041Y-106060000D01*
X178836041Y-108940000D02*
X178836041Y-113723000D01*
X178876041Y-101284000D02*
X178876041Y-106060000D01*
X178876041Y-108940000D02*
X178876041Y-113716000D01*
X178916041Y-101292000D02*
X178916041Y-106060000D01*
X178916041Y-108940000D02*
X178916041Y-113708000D01*
X178956041Y-101300000D02*
X178956041Y-106060000D01*
X178956041Y-108940000D02*
X178956041Y-113700000D01*
X178996041Y-101308000D02*
X178996041Y-106060000D01*
X178996041Y-108940000D02*
X178996041Y-113692000D01*
X179036041Y-101317000D02*
X179036041Y-106060000D01*
X179036041Y-108940000D02*
X179036041Y-113683000D01*
X179076041Y-101326000D02*
X179076041Y-106060000D01*
X179076041Y-108940000D02*
X179076041Y-113674000D01*
X179116041Y-101335000D02*
X179116041Y-106060000D01*
X179116041Y-108940000D02*
X179116041Y-113665000D01*
X179156041Y-101344000D02*
X179156041Y-106060000D01*
X179156041Y-108940000D02*
X179156041Y-113656000D01*
X179196041Y-101354000D02*
X179196041Y-106060000D01*
X179196041Y-108940000D02*
X179196041Y-113646000D01*
X179236041Y-101364000D02*
X179236041Y-106060000D01*
X179236041Y-108940000D02*
X179236041Y-113636000D01*
X179276041Y-101374000D02*
X179276041Y-106060000D01*
X179276041Y-108940000D02*
X179276041Y-113626000D01*
X179316041Y-101385000D02*
X179316041Y-106060000D01*
X179316041Y-108940000D02*
X179316041Y-113615000D01*
X179356041Y-101396000D02*
X179356041Y-106060000D01*
X179356041Y-108940000D02*
X179356041Y-113604000D01*
X179396041Y-101407000D02*
X179396041Y-106060000D01*
X179396041Y-108940000D02*
X179396041Y-113593000D01*
X179436041Y-101418000D02*
X179436041Y-106060000D01*
X179436041Y-108940000D02*
X179436041Y-113582000D01*
X179476041Y-101430000D02*
X179476041Y-106060000D01*
X179476041Y-108940000D02*
X179476041Y-113570000D01*
X179516041Y-101442000D02*
X179516041Y-106060000D01*
X179516041Y-108940000D02*
X179516041Y-113558000D01*
X179556041Y-101454000D02*
X179556041Y-106060000D01*
X179556041Y-108940000D02*
X179556041Y-113546000D01*
X179596041Y-101466000D02*
X179596041Y-106060000D01*
X179596041Y-108940000D02*
X179596041Y-113534000D01*
X179636041Y-101479000D02*
X179636041Y-106060000D01*
X179636041Y-108940000D02*
X179636041Y-113521000D01*
X179676041Y-101492000D02*
X179676041Y-106060000D01*
X179676041Y-108940000D02*
X179676041Y-113508000D01*
X179716041Y-101505000D02*
X179716041Y-106060000D01*
X179716041Y-108940000D02*
X179716041Y-113495000D01*
X179756041Y-101519000D02*
X179756041Y-106060000D01*
X179756041Y-108940000D02*
X179756041Y-113481000D01*
X179796041Y-101533000D02*
X179796041Y-106060000D01*
X179796041Y-108940000D02*
X179796041Y-113467000D01*
X179836041Y-101547000D02*
X179836041Y-106060000D01*
X179836041Y-108940000D02*
X179836041Y-113453000D01*
X179876041Y-101562000D02*
X179876041Y-106060000D01*
X179876041Y-108940000D02*
X179876041Y-113438000D01*
X179916041Y-101577000D02*
X179916041Y-106060000D01*
X179916041Y-108940000D02*
X179916041Y-113423000D01*
X179956041Y-101592000D02*
X179956041Y-106060000D01*
X179956041Y-108940000D02*
X179956041Y-113408000D01*
X179996041Y-101608000D02*
X179996041Y-106060000D01*
X179996041Y-108940000D02*
X179996041Y-113392000D01*
X180036041Y-101623000D02*
X180036041Y-106060000D01*
X180036041Y-108940000D02*
X180036041Y-113377000D01*
X180076041Y-101639000D02*
X180076041Y-106060000D01*
X180076041Y-108940000D02*
X180076041Y-113361000D01*
X180116041Y-101656000D02*
X180116041Y-106060000D01*
X180116041Y-108940000D02*
X180116041Y-113344000D01*
X180156041Y-101673000D02*
X180156041Y-106060000D01*
X180156041Y-108940000D02*
X180156041Y-113327000D01*
X180196041Y-101690000D02*
X180196041Y-106060000D01*
X180196041Y-108940000D02*
X180196041Y-113310000D01*
X180236041Y-101707000D02*
X180236041Y-106060000D01*
X180236041Y-108940000D02*
X180236041Y-113293000D01*
X180276041Y-101725000D02*
X180276041Y-106060000D01*
X180276041Y-108940000D02*
X180276041Y-113275000D01*
X180316041Y-101743000D02*
X180316041Y-106060000D01*
X180316041Y-108940000D02*
X180316041Y-113257000D01*
X180356041Y-101761000D02*
X180356041Y-106060000D01*
X180356041Y-108940000D02*
X180356041Y-113239000D01*
X180396041Y-101780000D02*
X180396041Y-106060000D01*
X180396041Y-108940000D02*
X180396041Y-113220000D01*
X180436041Y-101799000D02*
X180436041Y-106060000D01*
X180436041Y-108940000D02*
X180436041Y-113201000D01*
X180476041Y-101818000D02*
X180476041Y-106060000D01*
X180476041Y-108940000D02*
X180476041Y-113182000D01*
X180516041Y-101838000D02*
X180516041Y-106060000D01*
X180516041Y-108940000D02*
X180516041Y-113162000D01*
X180556041Y-101858000D02*
X180556041Y-106060000D01*
X180556041Y-108940000D02*
X180556041Y-113142000D01*
X180596041Y-101879000D02*
X180596041Y-106060000D01*
X180596041Y-108940000D02*
X180596041Y-113121000D01*
X180636041Y-101899000D02*
X180636041Y-106060000D01*
X180636041Y-108940000D02*
X180636041Y-113101000D01*
X180676041Y-101921000D02*
X180676041Y-106060000D01*
X180676041Y-108940000D02*
X180676041Y-113079000D01*
X180716041Y-101942000D02*
X180716041Y-106060000D01*
X180716041Y-108940000D02*
X180716041Y-113058000D01*
X180756041Y-101964000D02*
X180756041Y-106060000D01*
X180756041Y-108940000D02*
X180756041Y-113036000D01*
X180796041Y-101986000D02*
X180796041Y-106060000D01*
X180796041Y-108940000D02*
X180796041Y-113014000D01*
X180836041Y-102009000D02*
X180836041Y-106060000D01*
X180836041Y-108940000D02*
X180836041Y-112991000D01*
X180876041Y-102032000D02*
X180876041Y-106060000D01*
X180876041Y-108940000D02*
X180876041Y-112968000D01*
X180916041Y-102056000D02*
X180916041Y-106060000D01*
X180916041Y-108940000D02*
X180916041Y-112944000D01*
X180956041Y-102079000D02*
X180956041Y-106060000D01*
X180956041Y-108940000D02*
X180956041Y-112921000D01*
X180996041Y-102104000D02*
X180996041Y-106060000D01*
X180996041Y-108940000D02*
X180996041Y-112896000D01*
X181036041Y-102128000D02*
X181036041Y-106060000D01*
X181036041Y-108940000D02*
X181036041Y-112872000D01*
X181076041Y-102153000D02*
X181076041Y-106060000D01*
X181076041Y-108940000D02*
X181076041Y-112847000D01*
X181116041Y-102179000D02*
X181116041Y-106060000D01*
X181116041Y-108940000D02*
X181116041Y-112821000D01*
X181156041Y-102205000D02*
X181156041Y-106060000D01*
X181156041Y-108940000D02*
X181156041Y-112795000D01*
X181196041Y-102231000D02*
X181196041Y-106060000D01*
X181196041Y-108940000D02*
X181196041Y-112769000D01*
X181236041Y-102258000D02*
X181236041Y-106060000D01*
X181236041Y-108940000D02*
X181236041Y-112742000D01*
X181276041Y-102285000D02*
X181276041Y-106060000D01*
X181276041Y-108940000D02*
X181276041Y-112715000D01*
X181316041Y-102312000D02*
X181316041Y-106060000D01*
X181316041Y-108940000D02*
X181316041Y-112688000D01*
X181356041Y-102341000D02*
X181356041Y-106060000D01*
X181356041Y-108940000D02*
X181356041Y-112659000D01*
X181396041Y-102369000D02*
X181396041Y-106060000D01*
X181396041Y-108940000D02*
X181396041Y-112631000D01*
X181436041Y-102398000D02*
X181436041Y-106060000D01*
X181436041Y-108940000D02*
X181436041Y-112602000D01*
X181476041Y-102428000D02*
X181476041Y-106060000D01*
X181476041Y-108940000D02*
X181476041Y-112572000D01*
X181516041Y-102458000D02*
X181516041Y-106060000D01*
X181516041Y-108940000D02*
X181516041Y-112542000D01*
X181556041Y-102488000D02*
X181556041Y-106060000D01*
X181556041Y-108940000D02*
X181556041Y-112512000D01*
X181596041Y-102519000D02*
X181596041Y-106060000D01*
X181596041Y-108940000D02*
X181596041Y-112481000D01*
X181636041Y-102550000D02*
X181636041Y-112450000D01*
X181676041Y-102582000D02*
X181676041Y-112418000D01*
X181716041Y-102615000D02*
X181716041Y-112385000D01*
X181756041Y-102648000D02*
X181756041Y-112352000D01*
X181796041Y-102682000D02*
X181796041Y-112318000D01*
X181836041Y-102716000D02*
X181836041Y-112284000D01*
X181876041Y-102751000D02*
X181876041Y-112249000D01*
X181916041Y-102786000D02*
X181916041Y-112214000D01*
X181956041Y-102822000D02*
X181956041Y-112178000D01*
X181996041Y-102859000D02*
X181996041Y-112141000D01*
X182036041Y-102896000D02*
X182036041Y-112104000D01*
X182076041Y-102934000D02*
X182076041Y-112066000D01*
X182116041Y-102972000D02*
X182116041Y-112028000D01*
X182156041Y-103012000D02*
X182156041Y-111988000D01*
X182196041Y-103052000D02*
X182196041Y-111948000D01*
X182236041Y-103092000D02*
X182236041Y-111908000D01*
X182276041Y-103134000D02*
X182276041Y-111866000D01*
X182316041Y-103176000D02*
X182316041Y-111824000D01*
X182356041Y-103219000D02*
X182356041Y-111781000D01*
X182396041Y-103262000D02*
X182396041Y-111738000D01*
X182436041Y-103307000D02*
X182436041Y-111693000D01*
X182476041Y-103352000D02*
X182476041Y-111648000D01*
X182516041Y-103399000D02*
X182516041Y-111601000D01*
X182556041Y-103446000D02*
X182556041Y-111554000D01*
X182596041Y-103494000D02*
X182596041Y-111506000D01*
X182636041Y-103543000D02*
X182636041Y-111457000D01*
X182676041Y-103593000D02*
X182676041Y-111407000D01*
X182716041Y-103644000D02*
X182716041Y-111356000D01*
X182756041Y-103697000D02*
X182756041Y-111303000D01*
X182796041Y-103750000D02*
X182796041Y-111250000D01*
X182836041Y-103805000D02*
X182836041Y-111195000D01*
X182876041Y-103861000D02*
X182876041Y-111139000D01*
X182916041Y-103918000D02*
X182916041Y-111082000D01*
X182956041Y-103977000D02*
X182956041Y-111023000D01*
X182996041Y-104037000D02*
X182996041Y-110963000D01*
X183036041Y-104098000D02*
X183036041Y-110902000D01*
X183076041Y-104161000D02*
X183076041Y-110839000D01*
X183116041Y-104226000D02*
X183116041Y-110774000D01*
X183156041Y-104292000D02*
X183156041Y-110708000D01*
X183196041Y-104361000D02*
X183196041Y-110639000D01*
X183236041Y-104431000D02*
X183236041Y-110569000D01*
X183276041Y-104504000D02*
X183276041Y-110496000D01*
X183316041Y-104579000D02*
X183316041Y-110421000D01*
X183356041Y-104657000D02*
X183356041Y-110343000D01*
X183396041Y-104737000D02*
X183396041Y-110263000D01*
X183436041Y-104820000D02*
X183436041Y-110180000D01*
X183476041Y-104906000D02*
X183476041Y-110094000D01*
X183516041Y-104996000D02*
X183516041Y-110004000D01*
X183556041Y-105090000D02*
X183556041Y-109910000D01*
X183596041Y-105188000D02*
X183596041Y-109812000D01*
X183636041Y-105292000D02*
X183636041Y-109708000D01*
X183676041Y-105401000D02*
X183676041Y-109599000D01*
X183716041Y-105516000D02*
X183716041Y-109484000D01*
X183756041Y-105640000D02*
X183756041Y-109360000D01*
X183796041Y-105773000D02*
X183796041Y-109227000D01*
X183836041Y-105918000D02*
X183836041Y-109082000D01*
X183876041Y-106078000D02*
X183876041Y-108922000D01*
X183916041Y-106260000D02*
X183916041Y-108740000D01*
X183956041Y-106473000D02*
X183956041Y-108527000D01*
X183996041Y-106743000D02*
X183996041Y-108257000D01*
X184036041Y-107183000D02*
X184036041Y-107817000D01*
X184046041Y-107500000D02*
G75*
G02*
X171306041Y-107500000I-6370000J0D01*
G01*
X171306041Y-107500000D02*
G75*
G02*
X184046041Y-107500000I6370000J0D01*
G01*
%TD*%
M02*
