%TF.GenerationSoftware,KiCad,Pcbnew,10.0.4*%
%TF.CreationDate,2026-06-29T18:05:19+07:00*%
%TF.ProjectId,Control Unit,436f6e74-726f-46c2-9055-6e69742e6b69,rev?*%
%TF.SameCoordinates,Original*%
%TF.FileFunction,Copper,L2,Bot*%
%TF.FilePolarity,Positive*%
%FSLAX46Y46*%
G04 Gerber Fmt 4.6, Leading zero omitted, Abs format (unit mm)*
G04 Created by KiCad (PCBNEW 10.0.4) date 2026-06-29 18:05:19*
%MOMM*%
%LPD*%
G01*
G04 APERTURE LIST*
G04 Aperture macros list*
%AMRoundRect*
0 Rectangle with rounded corners*
0 $1 Rounding radius*
0 $2 $3 $4 $5 $6 $7 $8 $9 X,Y pos of 4 corners*
0 Add a 4 corners polygon primitive as box body*
4,1,4,$2,$3,$4,$5,$6,$7,$8,$9,$2,$3,0*
0 Add four circle primitives for the rounded corners*
1,1,$1+$1,$2,$3*
1,1,$1+$1,$4,$5*
1,1,$1+$1,$6,$7*
1,1,$1+$1,$8,$9*
0 Add four rect primitives between the rounded corners*
20,1,$1+$1,$2,$3,$4,$5,0*
20,1,$1+$1,$4,$5,$6,$7,0*
20,1,$1+$1,$6,$7,$8,$9,0*
20,1,$1+$1,$8,$9,$2,$3,0*%
G04 Aperture macros list end*
%TA.AperFunction,ComponentPad*%
%ADD10RoundRect,0.250000X1.325000X-1.325000X1.325000X1.325000X-1.325000X1.325000X-1.325000X-1.325000X0*%
%TD*%
%TA.AperFunction,ComponentPad*%
%ADD11C,3.150000*%
%TD*%
%TA.AperFunction,ComponentPad*%
%ADD12C,2.200000*%
%TD*%
%TA.AperFunction,ComponentPad*%
%ADD13RoundRect,0.249999X-0.850001X0.850001X-0.850001X-0.850001X0.850001X-0.850001X0.850001X0.850001X0*%
%TD*%
%TA.AperFunction,ComponentPad*%
%ADD14C,1.600000*%
%TD*%
%TA.AperFunction,ComponentPad*%
%ADD15RoundRect,0.250000X0.550000X0.550000X-0.550000X0.550000X-0.550000X-0.550000X0.550000X-0.550000X0*%
%TD*%
%TA.AperFunction,ComponentPad*%
%ADD16R,2.000000X2.000000*%
%TD*%
%TA.AperFunction,ComponentPad*%
%ADD17C,2.000000*%
%TD*%
%TA.AperFunction,ComponentPad*%
%ADD18C,2.400000*%
%TD*%
%TA.AperFunction,ComponentPad*%
%ADD19C,3.000000*%
%TD*%
%TA.AperFunction,ComponentPad*%
%ADD20C,2.500000*%
%TD*%
%TA.AperFunction,ComponentPad*%
%ADD21RoundRect,0.250000X-0.600000X-0.725000X0.600000X-0.725000X0.600000X0.725000X-0.600000X0.725000X0*%
%TD*%
%TA.AperFunction,ComponentPad*%
%ADD22O,1.700000X1.950000*%
%TD*%
%TA.AperFunction,ComponentPad*%
%ADD23R,1.700000X1.700000*%
%TD*%
%TA.AperFunction,ComponentPad*%
%ADD24C,1.700000*%
%TD*%
%TA.AperFunction,ComponentPad*%
%ADD25O,2.000000X1.200000*%
%TD*%
%TA.AperFunction,ComponentPad*%
%ADD26RoundRect,0.250001X-0.949999X-0.949999X0.949999X-0.949999X0.949999X0.949999X-0.949999X0.949999X0*%
%TD*%
%TA.AperFunction,ViaPad*%
%ADD27C,0.600000*%
%TD*%
%TA.AperFunction,Conductor*%
%ADD28C,0.200000*%
%TD*%
%TA.AperFunction,Conductor*%
%ADD29C,1.000000*%
%TD*%
G04 APERTURE END LIST*
D10*
%TO.P,J1,1,12V_PWR_1*%
%TO.N,/12V_PWR_Relay*%
X201500000Y-125000000D03*
D11*
%TO.P,J1,2,GND_2*%
%TO.N,/12V_GND*%
X201500000Y-119000000D03*
%TO.P,J1,3,12V_SWITCH_3*%
%TO.N,Net-(J1-12V_SWITCH)*%
X201500000Y-113000000D03*
%TD*%
D12*
%TO.P,D2,2,A_2*%
%TO.N,/RPM_PWR_DIODE*%
X175000000Y-133580000D03*
D13*
%TO.P,D2,1,K_1*%
%TO.N,/RPM_PWR_RESISTOR*%
X175000000Y-123420000D03*
%TD*%
D14*
%TO.P,U2,4*%
%TO.N,/3.3V_PWR*%
X171880000Y-142540000D03*
%TO.P,U2,3*%
%TO.N,Net-(U1-D14)*%
X171880000Y-140000000D03*
%TO.P,U2,2*%
%TO.N,/RPM_GND*%
X179500000Y-140000000D03*
D15*
%TO.P,U2,1*%
%TO.N,/RPM_PWR*%
X179500000Y-142540000D03*
%TD*%
D14*
%TO.P,R4,2*%
%TO.N,Net-(U1-D34)*%
X187880000Y-107500000D03*
%TO.P,R4,1*%
%TO.N,GNDREF*%
X195500000Y-107500000D03*
%TD*%
D16*
%TO.P,U1,1,3V3_1*%
%TO.N,/3.3V_PWR*%
X124350000Y-92735000D03*
D17*
%TO.P,U1,2,GND_2*%
%TO.N,GNDREF*%
X124350000Y-95275000D03*
%TO.P,U1,3,D15_3*%
%TO.N,Net-(J3-CS)*%
X124350000Y-97815000D03*
%TO.P,U1,4,D2_4*%
%TO.N,Net-(J3-DC)*%
X124350000Y-100355000D03*
%TO.P,U1,5,D4_5*%
%TO.N,Net-(J7-SIG)*%
X124350000Y-102895000D03*
%TO.P,U1,6,RX2_6*%
%TO.N,unconnected-(U1-RX2-Pad6)*%
X124350000Y-105435000D03*
%TO.P,U1,7,TX2_7*%
%TO.N,unconnected-(U1-TX2-Pad7)*%
X124350000Y-107975000D03*
%TO.P,U1,8,D5_8*%
%TO.N,unconnected-(U1-D5-Pad8)*%
X124350000Y-110515000D03*
%TO.P,U1,9,D18_9*%
%TO.N,Net-(J3-SCL)*%
X124350000Y-113055000D03*
%TO.P,U1,10,D19_10*%
%TO.N,unconnected-(U1-D19-Pad10)*%
X124350000Y-115595000D03*
%TO.P,U1,11,D21_11*%
%TO.N,Net-(J4-SDA)*%
X124350000Y-118135000D03*
%TO.P,U1,12,RX0_12*%
%TO.N,unconnected-(U1-RX0-Pad12)*%
X124350000Y-120675000D03*
%TO.P,U1,13,TX0_13*%
%TO.N,unconnected-(U1-TX0-Pad13)*%
X124350000Y-123215000D03*
%TO.P,U1,14,D22_14*%
%TO.N,Net-(J3-RES)*%
X124350000Y-125755000D03*
%TO.P,U1,15,D23_15*%
%TO.N,Net-(J3-SDA)*%
X124350000Y-128295000D03*
%TO.P,U1,30,VIN_30*%
%TO.N,unconnected-(U1-VIN-Pad30)*%
X149750000Y-92735000D03*
%TO.P,U1,29,GND_29*%
%TO.N,GNDREF*%
X149750000Y-95275000D03*
%TO.P,U1,28,D13_28*%
%TO.N,unconnected-(U1-D13-Pad28)*%
X149750000Y-97815000D03*
%TO.P,U1,27,D12_27*%
%TO.N,unconnected-(U1-D12-Pad27)*%
X149750000Y-100355000D03*
%TO.P,U1,26,D14_26*%
%TO.N,Net-(U1-D14)*%
X149750000Y-102895000D03*
%TO.P,U1,25,D27_25*%
%TO.N,unconnected-(U1-D27-Pad25)*%
X149750000Y-105435000D03*
%TO.P,U1,24,D26_24*%
%TO.N,Net-(J4-SCL)*%
X149750000Y-107975000D03*
%TO.P,U1,23,D25_23*%
%TO.N,unconnected-(U1-D25-Pad23)*%
X149750000Y-110515000D03*
%TO.P,U1,22,D33_22*%
%TO.N,unconnected-(U1-D33-Pad22)*%
X149750000Y-113055000D03*
%TO.P,U1,21,D32_21*%
%TO.N,unconnected-(U1-D32-Pad21)*%
X149750000Y-115595000D03*
%TO.P,U1,20,D35_20*%
%TO.N,unconnected-(U1-D35-Pad20)*%
X149750000Y-118135000D03*
%TO.P,U1,19,D34_19*%
%TO.N,Net-(U1-D34)*%
X149750000Y-120675000D03*
%TO.P,U1,18,VN_18*%
%TO.N,unconnected-(U1-VN-Pad18)*%
X149750000Y-123215000D03*
%TO.P,U1,17,VP_17*%
%TO.N,unconnected-(U1-VP-Pad17)*%
X149750000Y-125755000D03*
%TO.P,U1,16,EN_16*%
%TO.N,unconnected-(U1-EN-Pad16)*%
X149750000Y-128295000D03*
%TD*%
D14*
%TO.P,R3,1*%
%TO.N,/12V_PWR*%
X174500000Y-90690000D03*
%TO.P,R3,2*%
%TO.N,Net-(U1-D34)*%
X174500000Y-98310000D03*
%TD*%
%TO.P,R2,1*%
%TO.N,Net-(U1-D14)*%
X171690000Y-117000000D03*
%TO.P,R2,2*%
%TO.N,GNDREF*%
X179310000Y-117000000D03*
%TD*%
D18*
%TO.P,R1,1*%
%TO.N,/RPM_PWR_RESISTOR*%
X188500000Y-113340000D03*
%TO.P,R1,2*%
%TO.N,/RPM_PWR*%
X188500000Y-133660000D03*
%TD*%
D19*
%TO.P,K1,1*%
%TO.N,/12V_PWR_Relay*%
X201500000Y-95000000D03*
D20*
%TO.P,K1,2*%
%TO.N,/12V_GND*%
X199550000Y-88950000D03*
D19*
%TO.P,K1,3*%
%TO.N,/12V_PWR_BATT*%
X187350000Y-88950000D03*
%TO.P,K1,4*%
%TO.N,unconnected-(K1-Pad4)*%
X187300000Y-101000000D03*
D20*
%TO.P,K1,5*%
%TO.N,Net-(J1-12V_SWITCH)*%
X199550000Y-100950000D03*
%TD*%
D21*
%TO.P,J7,1,SIG_1*%
%TO.N,Net-(J7-SIG)*%
X131000000Y-141500000D03*
D22*
%TO.P,J7,2,Pin_2_2*%
%TO.N,GNDREF*%
X133500000Y-141500000D03*
%TD*%
D21*
%TO.P,J6,1,RPM_IN_1*%
%TO.N,/RPM_PWR_DIODE*%
X186500000Y-140500000D03*
D22*
%TO.P,J6,2,Pin_2_2*%
%TO.N,/RPM_GND*%
X189000000Y-140500000D03*
%TD*%
D23*
%TO.P,J5,1,GND_1*%
%TO.N,GNDREF*%
X118080000Y-85000000D03*
D24*
%TO.P,J5,2,Vcc_2*%
%TO.N,/3.3V_PWR*%
X115540000Y-85000000D03*
%TO.P,J5,3,SDA_3*%
%TO.N,Net-(J4-SDA)*%
X113000000Y-85000000D03*
%TO.P,J5,4,SCL_4*%
%TO.N,Net-(J4-SCL)*%
X110460000Y-85000000D03*
%TO.P,J5,5*%
%TO.N,N/C*%
X107920000Y-85000000D03*
%TO.P,J5,6*%
X105380000Y-85000000D03*
%TD*%
D21*
%TO.P,J4,1,Vcc_1*%
%TO.N,/3.3V_PWR*%
X143000000Y-141500000D03*
D22*
%TO.P,J4,2,SDA_2*%
%TO.N,Net-(J4-SDA)*%
X145500000Y-141500000D03*
%TO.P,J4,3,GND_3*%
%TO.N,GNDREF*%
X148000000Y-141500000D03*
%TO.P,J4,4,SCL_4*%
%TO.N,Net-(J4-SCL)*%
X150500000Y-141500000D03*
%TD*%
D21*
%TO.P,J3,1,GND_1*%
%TO.N,GNDREF*%
X105000000Y-141500000D03*
D22*
%TO.P,J3,2,Vcc_2*%
%TO.N,/3.3V_PWR*%
X107500000Y-141500000D03*
%TO.P,J3,3,SCL_3*%
%TO.N,Net-(J3-SCL)*%
X110000000Y-141500000D03*
%TO.P,J3,4,SDA_4*%
%TO.N,Net-(J3-SDA)*%
X112500000Y-141500000D03*
%TO.P,J3,5,RES_5*%
%TO.N,Net-(J3-RES)*%
X115000000Y-141500000D03*
%TO.P,J3,6,DC_6*%
%TO.N,Net-(J3-DC)*%
X117500000Y-141500000D03*
%TO.P,J3,7,CS_7*%
%TO.N,Net-(J3-CS)*%
X120000000Y-141500000D03*
%TO.P,J3,8,Pin_8_8*%
%TO.N,/3.3V_PWR*%
X122500000Y-141500000D03*
%TD*%
D25*
%TO.P,J2,1,12V_in_1*%
%TO.N,/12V_PWR*%
X168500000Y-84000000D03*
%TO.P,J2,2,12V_GND_2*%
%TO.N,/12V_GND*%
X155500000Y-84000000D03*
%TO.P,J2,3,3.3V_out_3*%
%TO.N,/3.3V_PWR_SW*%
X155500000Y-129000000D03*
%TO.P,J2,4,3.3V_GND_4*%
%TO.N,GNDREF*%
X168500000Y-129000000D03*
%TD*%
D13*
%TO.P,D1,1,K_1*%
%TO.N,/12V_PWR*%
X180500000Y-87920000D03*
D12*
%TO.P,D1,2,A_2*%
%TO.N,/12V_PWR_BATT*%
X180500000Y-98080000D03*
%TD*%
D26*
%TO.P,C1,1*%
%TO.N,/3.3V_PWR_SW*%
X175176041Y-107500000D03*
D18*
%TO.P,C1,2*%
%TO.N,GNDREF*%
X180176041Y-107500000D03*
%TD*%
D27*
%TO.N,Net-(J3-SDA)*%
X114400000Y-128500000D03*
%TO.N,Net-(J3-SCL)*%
X116500000Y-123500000D03*
%TO.N,Net-(J3-RES)*%
X116500000Y-126500000D03*
%TO.N,Net-(J3-DC)*%
X117500000Y-109000000D03*
X117500000Y-113500000D03*
X119000000Y-107500000D03*
X121000000Y-105500000D03*
%TO.N,Net-(J3-CS)*%
X120000000Y-111500000D03*
X120000000Y-117500000D03*
%TO.N,Net-(J4-SDA)*%
X130000000Y-137000000D03*
X124500000Y-137000000D03*
%TO.N,Net-(J4-SCL)*%
X111992182Y-83007818D03*
X115500000Y-82000000D03*
%TO.N,Net-(U1-D34)*%
X156500000Y-116500000D03*
%TO.N,Net-(U1-D14)*%
X165000000Y-121500000D03*
X160000000Y-121500000D03*
%TD*%
%TO.N,Net-(J3-SDA)*%
D28*
X114605000Y-128295000D02*
X114400000Y-128500000D01*
X124350000Y-128295000D02*
X114605000Y-128295000D01*
%TO.N,Net-(J3-SCL)*%
X120000000Y-123500000D02*
X116500000Y-123500000D01*
X124350000Y-113055000D02*
X121500000Y-115905000D01*
X121500000Y-115905000D02*
X121500000Y-122000000D01*
X121500000Y-122000000D02*
X120000000Y-123500000D01*
%TO.N,Net-(J3-RES)*%
X117245000Y-125755000D02*
X116500000Y-126500000D01*
X124350000Y-125755000D02*
X117245000Y-125755000D01*
%TO.N,Net-(J3-DC)*%
X119000000Y-107500000D02*
X121000000Y-105500000D01*
X117500000Y-113500000D02*
X117500000Y-109000000D01*
%TO.N,Net-(J3-CS)*%
X120000000Y-117500000D02*
X120000000Y-111500000D01*
%TO.N,Net-(J4-SDA)*%
X124500000Y-137000000D02*
X130000000Y-137000000D01*
%TO.N,Net-(J4-SCL)*%
X113000000Y-82000000D02*
X111992182Y-83007818D01*
X115500000Y-82000000D02*
X113000000Y-82000000D01*
%TO.N,Net-(U1-D34)*%
D29*
X153925000Y-116500000D02*
X149750000Y-120675000D01*
X156500000Y-116500000D02*
X153925000Y-116500000D01*
%TO.N,Net-(U1-D14)*%
D28*
X165000000Y-121500000D02*
X160000000Y-121500000D01*
%TD*%
%TA.AperFunction,Conductor*%
%TO.N,GNDREF*%
G36*
X204442539Y-80520185D02*
G01*
X204488294Y-80572989D01*
X204499500Y-80624500D01*
X204499500Y-144875500D01*
X204479815Y-144942539D01*
X204427011Y-144988294D01*
X204375500Y-144999500D01*
X102124500Y-144999500D01*
X102057461Y-144979815D01*
X102011706Y-144927011D01*
X102000500Y-144875500D01*
X102000500Y-140725013D01*
X103650000Y-140725013D01*
X103650000Y-141250000D01*
X104595854Y-141250000D01*
X104557370Y-141316657D01*
X104525000Y-141437465D01*
X104525000Y-141562535D01*
X104557370Y-141683343D01*
X104595854Y-141750000D01*
X103650001Y-141750000D01*
X103650001Y-142274986D01*
X103660494Y-142377697D01*
X103715641Y-142544119D01*
X103715643Y-142544124D01*
X103807684Y-142693345D01*
X103931654Y-142817315D01*
X104080875Y-142909356D01*
X104080880Y-142909358D01*
X104247302Y-142964505D01*
X104247309Y-142964506D01*
X104350019Y-142974999D01*
X104749999Y-142974999D01*
X104750000Y-142974998D01*
X104750000Y-141904145D01*
X104816657Y-141942630D01*
X104937465Y-141975000D01*
X105062535Y-141975000D01*
X105183343Y-141942630D01*
X105250000Y-141904145D01*
X105250000Y-142974999D01*
X105649972Y-142974999D01*
X105649986Y-142974998D01*
X105752697Y-142964505D01*
X105919119Y-142909358D01*
X105919124Y-142909356D01*
X106068345Y-142817315D01*
X106192317Y-142693343D01*
X106287815Y-142538516D01*
X106339763Y-142491791D01*
X106408725Y-142480568D01*
X106472808Y-142508412D01*
X106481035Y-142515931D01*
X106620213Y-142655109D01*
X106792179Y-142780048D01*
X106792181Y-142780049D01*
X106792184Y-142780051D01*
X106981588Y-142876557D01*
X107183757Y-142942246D01*
X107393713Y-142975500D01*
X107393714Y-142975500D01*
X107606286Y-142975500D01*
X107606287Y-142975500D01*
X107816243Y-142942246D01*
X108018412Y-142876557D01*
X108207816Y-142780051D01*
X108229789Y-142764086D01*
X108379786Y-142655109D01*
X108379788Y-142655106D01*
X108379792Y-142655104D01*
X108530104Y-142504792D01*
X108649683Y-142340204D01*
X108705011Y-142297540D01*
X108774624Y-142291561D01*
X108836420Y-142324166D01*
X108850313Y-142340199D01*
X108952242Y-142480493D01*
X108969896Y-142504792D01*
X109120213Y-142655109D01*
X109292179Y-142780048D01*
X109292181Y-142780049D01*
X109292184Y-142780051D01*
X109481588Y-142876557D01*
X109683757Y-142942246D01*
X109893713Y-142975500D01*
X109893714Y-142975500D01*
X110106286Y-142975500D01*
X110106287Y-142975500D01*
X110316243Y-142942246D01*
X110518412Y-142876557D01*
X110707816Y-142780051D01*
X110729789Y-142764086D01*
X110879786Y-142655109D01*
X110879788Y-142655106D01*
X110879792Y-142655104D01*
X111030104Y-142504792D01*
X111149683Y-142340204D01*
X111205011Y-142297540D01*
X111274624Y-142291561D01*
X111336420Y-142324166D01*
X111350313Y-142340199D01*
X111452242Y-142480493D01*
X111469896Y-142504792D01*
X111620213Y-142655109D01*
X111792179Y-142780048D01*
X111792181Y-142780049D01*
X111792184Y-142780051D01*
X111981588Y-142876557D01*
X112183757Y-142942246D01*
X112393713Y-142975500D01*
X112393714Y-142975500D01*
X112606286Y-142975500D01*
X112606287Y-142975500D01*
X112816243Y-142942246D01*
X113018412Y-142876557D01*
X113207816Y-142780051D01*
X113229789Y-142764086D01*
X113379786Y-142655109D01*
X113379788Y-142655106D01*
X113379792Y-142655104D01*
X113530104Y-142504792D01*
X113649683Y-142340204D01*
X113705011Y-142297540D01*
X113774624Y-142291561D01*
X113836420Y-142324166D01*
X113850313Y-142340199D01*
X113952242Y-142480493D01*
X113969896Y-142504792D01*
X114120213Y-142655109D01*
X114292179Y-142780048D01*
X114292181Y-142780049D01*
X114292184Y-142780051D01*
X114481588Y-142876557D01*
X114683757Y-142942246D01*
X114893713Y-142975500D01*
X114893714Y-142975500D01*
X115106286Y-142975500D01*
X115106287Y-142975500D01*
X115316243Y-142942246D01*
X115518412Y-142876557D01*
X115707816Y-142780051D01*
X115729789Y-142764086D01*
X115879786Y-142655109D01*
X115879788Y-142655106D01*
X115879792Y-142655104D01*
X116030104Y-142504792D01*
X116149683Y-142340204D01*
X116205011Y-142297540D01*
X116274624Y-142291561D01*
X116336420Y-142324166D01*
X116350313Y-142340199D01*
X116452242Y-142480493D01*
X116469896Y-142504792D01*
X116620213Y-142655109D01*
X116792179Y-142780048D01*
X116792181Y-142780049D01*
X116792184Y-142780051D01*
X116981588Y-142876557D01*
X117183757Y-142942246D01*
X117393713Y-142975500D01*
X117393714Y-142975500D01*
X117606286Y-142975500D01*
X117606287Y-142975500D01*
X117816243Y-142942246D01*
X118018412Y-142876557D01*
X118207816Y-142780051D01*
X118229789Y-142764086D01*
X118379786Y-142655109D01*
X118379788Y-142655106D01*
X118379792Y-142655104D01*
X118530104Y-142504792D01*
X118649683Y-142340204D01*
X118705011Y-142297540D01*
X118774624Y-142291561D01*
X118836420Y-142324166D01*
X118850313Y-142340199D01*
X118952242Y-142480493D01*
X118969896Y-142504792D01*
X119120213Y-142655109D01*
X119292179Y-142780048D01*
X119292181Y-142780049D01*
X119292184Y-142780051D01*
X119481588Y-142876557D01*
X119683757Y-142942246D01*
X119893713Y-142975500D01*
X119893714Y-142975500D01*
X120106286Y-142975500D01*
X120106287Y-142975500D01*
X120316243Y-142942246D01*
X120518412Y-142876557D01*
X120707816Y-142780051D01*
X120729789Y-142764086D01*
X120879786Y-142655109D01*
X120879788Y-142655106D01*
X120879792Y-142655104D01*
X121030104Y-142504792D01*
X121149683Y-142340204D01*
X121205011Y-142297540D01*
X121274624Y-142291561D01*
X121336420Y-142324166D01*
X121350313Y-142340199D01*
X121452242Y-142480493D01*
X121469896Y-142504792D01*
X121620213Y-142655109D01*
X121792179Y-142780048D01*
X121792181Y-142780049D01*
X121792184Y-142780051D01*
X121981588Y-142876557D01*
X122183757Y-142942246D01*
X122393713Y-142975500D01*
X122393714Y-142975500D01*
X122606286Y-142975500D01*
X122606287Y-142975500D01*
X122816243Y-142942246D01*
X123018412Y-142876557D01*
X123207816Y-142780051D01*
X123229789Y-142764086D01*
X123379786Y-142655109D01*
X123379788Y-142655106D01*
X123379792Y-142655104D01*
X123530104Y-142504792D01*
X123530106Y-142504788D01*
X123530109Y-142504786D01*
X123655048Y-142332820D01*
X123655047Y-142332820D01*
X123655051Y-142332816D01*
X123751557Y-142143412D01*
X123817246Y-141941243D01*
X123850500Y-141731287D01*
X123850500Y-141268713D01*
X123817246Y-141058757D01*
X123751557Y-140856588D01*
X123684501Y-140724983D01*
X129649500Y-140724983D01*
X129649500Y-142275001D01*
X129649501Y-142275018D01*
X129660000Y-142377796D01*
X129660001Y-142377799D01*
X129705749Y-142515856D01*
X129715186Y-142544334D01*
X129807288Y-142693656D01*
X129931344Y-142817712D01*
X130080666Y-142909814D01*
X130247203Y-142964999D01*
X130349991Y-142975500D01*
X131650008Y-142975499D01*
X131752797Y-142964999D01*
X131919334Y-142909814D01*
X132068656Y-142817712D01*
X132192712Y-142693656D01*
X132284814Y-142544334D01*
X132284814Y-142544331D01*
X132288448Y-142538441D01*
X132340395Y-142491716D01*
X132409358Y-142480493D01*
X132473440Y-142508336D01*
X132481668Y-142515856D01*
X132620535Y-142654723D01*
X132620540Y-142654727D01*
X132792442Y-142779620D01*
X132981782Y-142876095D01*
X133183871Y-142941757D01*
X133250000Y-142952231D01*
X133250000Y-141904145D01*
X133316657Y-141942630D01*
X133437465Y-141975000D01*
X133562535Y-141975000D01*
X133683343Y-141942630D01*
X133750000Y-141904145D01*
X133750000Y-142952230D01*
X133816126Y-142941757D01*
X133816129Y-142941757D01*
X134018217Y-142876095D01*
X134207557Y-142779620D01*
X134379459Y-142654727D01*
X134379464Y-142654723D01*
X134529723Y-142504464D01*
X134529727Y-142504459D01*
X134654620Y-142332557D01*
X134751095Y-142143217D01*
X134816757Y-141941130D01*
X134816757Y-141941127D01*
X134847030Y-141750000D01*
X133904146Y-141750000D01*
X133942630Y-141683343D01*
X133975000Y-141562535D01*
X133975000Y-141437465D01*
X133942630Y-141316657D01*
X133904146Y-141250000D01*
X134847030Y-141250000D01*
X134816757Y-141058872D01*
X134816757Y-141058869D01*
X134751095Y-140856782D01*
X134711019Y-140778129D01*
X134683939Y-140724983D01*
X141649500Y-140724983D01*
X141649500Y-142275001D01*
X141649501Y-142275018D01*
X141660000Y-142377796D01*
X141660001Y-142377799D01*
X141705749Y-142515856D01*
X141715186Y-142544334D01*
X141807288Y-142693656D01*
X141931344Y-142817712D01*
X142080666Y-142909814D01*
X142247203Y-142964999D01*
X142349991Y-142975500D01*
X143650008Y-142975499D01*
X143752797Y-142964999D01*
X143919334Y-142909814D01*
X144068656Y-142817712D01*
X144192712Y-142693656D01*
X144284814Y-142544334D01*
X144284814Y-142544331D01*
X144288178Y-142538879D01*
X144340126Y-142492154D01*
X144409088Y-142480931D01*
X144473170Y-142508774D01*
X144481398Y-142516294D01*
X144620213Y-142655109D01*
X144792179Y-142780048D01*
X144792181Y-142780049D01*
X144792184Y-142780051D01*
X144981588Y-142876557D01*
X145183757Y-142942246D01*
X145393713Y-142975500D01*
X145393714Y-142975500D01*
X145606286Y-142975500D01*
X145606287Y-142975500D01*
X145816243Y-142942246D01*
X146018412Y-142876557D01*
X146207816Y-142780051D01*
X146229789Y-142764086D01*
X146379786Y-142655109D01*
X146379788Y-142655106D01*
X146379792Y-142655104D01*
X146530104Y-142504792D01*
X146649991Y-142339779D01*
X146705320Y-142297115D01*
X146774933Y-142291136D01*
X146836729Y-142323741D01*
X146850627Y-142339781D01*
X146970272Y-142504459D01*
X146970276Y-142504464D01*
X147120535Y-142654723D01*
X147120540Y-142654727D01*
X147292442Y-142779620D01*
X147481782Y-142876095D01*
X147683871Y-142941757D01*
X147750000Y-142952231D01*
X147750000Y-141904145D01*
X147816657Y-141942630D01*
X147937465Y-141975000D01*
X148062535Y-141975000D01*
X148183343Y-141942630D01*
X148250000Y-141904145D01*
X148250000Y-142952230D01*
X148316126Y-142941757D01*
X148316129Y-142941757D01*
X148518217Y-142876095D01*
X148707557Y-142779620D01*
X148879459Y-142654727D01*
X148879464Y-142654723D01*
X149029721Y-142504466D01*
X149149371Y-142339781D01*
X149204701Y-142297115D01*
X149274314Y-142291136D01*
X149336110Y-142323741D01*
X149350008Y-142339781D01*
X149469890Y-142504785D01*
X149469894Y-142504790D01*
X149620213Y-142655109D01*
X149792179Y-142780048D01*
X149792181Y-142780049D01*
X149792184Y-142780051D01*
X149981588Y-142876557D01*
X150183757Y-142942246D01*
X150393713Y-142975500D01*
X150393714Y-142975500D01*
X150606286Y-142975500D01*
X150606287Y-142975500D01*
X150816243Y-142942246D01*
X151018412Y-142876557D01*
X151207816Y-142780051D01*
X151229789Y-142764086D01*
X151379786Y-142655109D01*
X151379788Y-142655106D01*
X151379792Y-142655104D01*
X151530104Y-142504792D01*
X151530106Y-142504788D01*
X151530109Y-142504786D01*
X151655048Y-142332820D01*
X151655047Y-142332820D01*
X151655051Y-142332816D01*
X151751557Y-142143412D01*
X151817246Y-141941243D01*
X151850500Y-141731287D01*
X151850500Y-141268713D01*
X151817246Y-141058757D01*
X151751557Y-140856588D01*
X151655051Y-140667184D01*
X151583713Y-140568995D01*
X157399499Y-140568995D01*
X157426418Y-140704322D01*
X157426421Y-140704332D01*
X157479221Y-140831804D01*
X157479228Y-140831817D01*
X157555885Y-140946541D01*
X157555888Y-140946545D01*
X157653454Y-141044111D01*
X157653458Y-141044114D01*
X157768182Y-141120771D01*
X157768195Y-141120778D01*
X157861716Y-141159515D01*
X157895672Y-141173580D01*
X157895676Y-141173580D01*
X157895677Y-141173581D01*
X158031004Y-141200500D01*
X158031007Y-141200500D01*
X158168995Y-141200500D01*
X158260041Y-141182389D01*
X158304328Y-141173580D01*
X158431811Y-141120775D01*
X158546542Y-141044114D01*
X158644114Y-140946542D01*
X158720775Y-140831811D01*
X158773580Y-140704328D01*
X158800500Y-140568995D01*
X164199499Y-140568995D01*
X164226418Y-140704322D01*
X164226421Y-140704332D01*
X164279221Y-140831804D01*
X164279228Y-140831817D01*
X164355885Y-140946541D01*
X164355888Y-140946545D01*
X164453454Y-141044111D01*
X164453458Y-141044114D01*
X164568182Y-141120771D01*
X164568195Y-141120778D01*
X164661716Y-141159515D01*
X164695672Y-141173580D01*
X164695676Y-141173580D01*
X164695677Y-141173581D01*
X164831004Y-141200500D01*
X164831007Y-141200500D01*
X164968995Y-141200500D01*
X165060041Y-141182389D01*
X165104328Y-141173580D01*
X165231811Y-141120775D01*
X165346542Y-141044114D01*
X165444114Y-140946542D01*
X165520775Y-140831811D01*
X165573580Y-140704328D01*
X165600500Y-140568993D01*
X165600500Y-140431007D01*
X165600500Y-140431004D01*
X165573581Y-140295677D01*
X165573580Y-140295676D01*
X165573580Y-140295672D01*
X165542393Y-140220379D01*
X165520778Y-140168195D01*
X165520771Y-140168182D01*
X165444114Y-140053458D01*
X165444111Y-140053454D01*
X165346545Y-139955888D01*
X165346541Y-139955885D01*
X165259384Y-139897648D01*
X170579500Y-139897648D01*
X170579500Y-140102351D01*
X170611522Y-140304534D01*
X170674781Y-140499223D01*
X170737444Y-140622203D01*
X170764769Y-140675833D01*
X170767715Y-140681613D01*
X170888028Y-140847213D01*
X171032786Y-140991971D01*
X171187749Y-141104556D01*
X171198390Y-141112287D01*
X171289840Y-141158883D01*
X171291080Y-141159515D01*
X171341876Y-141207490D01*
X171358671Y-141275311D01*
X171336134Y-141341446D01*
X171291080Y-141380485D01*
X171198386Y-141427715D01*
X171032786Y-141548028D01*
X170888028Y-141692786D01*
X170767715Y-141858386D01*
X170674781Y-142040776D01*
X170611522Y-142235465D01*
X170579500Y-142437648D01*
X170579500Y-142642351D01*
X170611522Y-142844534D01*
X170674781Y-143039223D01*
X170767715Y-143221613D01*
X170888028Y-143387213D01*
X171032786Y-143531971D01*
X171187749Y-143644556D01*
X171198390Y-143652287D01*
X171314607Y-143711503D01*
X171380776Y-143745218D01*
X171380778Y-143745218D01*
X171380781Y-143745220D01*
X171471856Y-143774812D01*
X171575465Y-143808477D01*
X171676557Y-143824488D01*
X171777648Y-143840500D01*
X171777649Y-143840500D01*
X171982351Y-143840500D01*
X171982352Y-143840500D01*
X172184534Y-143808477D01*
X172379219Y-143745220D01*
X172561610Y-143652287D01*
X172690482Y-143558657D01*
X172727213Y-143531971D01*
X172727215Y-143531968D01*
X172727219Y-143531966D01*
X172871966Y-143387219D01*
X172871968Y-143387215D01*
X172871971Y-143387213D01*
X172976892Y-143242799D01*
X172992287Y-143221610D01*
X173085220Y-143039219D01*
X173148477Y-142844534D01*
X173180500Y-142642352D01*
X173180500Y-142437648D01*
X173171005Y-142377697D01*
X173148477Y-142235465D01*
X173085218Y-142040776D01*
X173046607Y-141964999D01*
X172992287Y-141858390D01*
X172962733Y-141817712D01*
X172871971Y-141692786D01*
X172727213Y-141548028D01*
X172561614Y-141427715D01*
X172555006Y-141424348D01*
X172468917Y-141380483D01*
X172418123Y-141332511D01*
X172401328Y-141264690D01*
X172423865Y-141198555D01*
X172468917Y-141159516D01*
X172561610Y-141112287D01*
X172635134Y-141058869D01*
X172727213Y-140991971D01*
X172727215Y-140991968D01*
X172727219Y-140991966D01*
X172871966Y-140847219D01*
X172871968Y-140847215D01*
X172871971Y-140847213D01*
X172924732Y-140774590D01*
X172992287Y-140681610D01*
X173085220Y-140499219D01*
X173148477Y-140304534D01*
X173180500Y-140102352D01*
X173180500Y-139897648D01*
X178199500Y-139897648D01*
X178199500Y-140102351D01*
X178231522Y-140304534D01*
X178294781Y-140499223D01*
X178357444Y-140622203D01*
X178384769Y-140675833D01*
X178387715Y-140681613D01*
X178508028Y-140847213D01*
X178508034Y-140847219D01*
X178652781Y-140991966D01*
X178746452Y-141060021D01*
X178789117Y-141115350D01*
X178795096Y-141184963D01*
X178762491Y-141246759D01*
X178712571Y-141278045D01*
X178630666Y-141305186D01*
X178630663Y-141305187D01*
X178481342Y-141397289D01*
X178357289Y-141521342D01*
X178265187Y-141670663D01*
X178265185Y-141670668D01*
X178245098Y-141731286D01*
X178210001Y-141837203D01*
X178210001Y-141837204D01*
X178210000Y-141837204D01*
X178199500Y-141939983D01*
X178199500Y-143140001D01*
X178199501Y-143140018D01*
X178210000Y-143242796D01*
X178210001Y-143242799D01*
X178257856Y-143387213D01*
X178265186Y-143409334D01*
X178357288Y-143558656D01*
X178481344Y-143682712D01*
X178630666Y-143774814D01*
X178797203Y-143829999D01*
X178899991Y-143840500D01*
X180100008Y-143840499D01*
X180202797Y-143829999D01*
X180369334Y-143774814D01*
X180518656Y-143682712D01*
X180642712Y-143558656D01*
X180734814Y-143409334D01*
X180789999Y-143242797D01*
X180800500Y-143140009D01*
X180800499Y-141939992D01*
X180794380Y-141880095D01*
X180789999Y-141837203D01*
X180789998Y-141837200D01*
X180783540Y-141817710D01*
X180734814Y-141670666D01*
X180642712Y-141521344D01*
X180518656Y-141397288D01*
X180369334Y-141305186D01*
X180287427Y-141278044D01*
X180229984Y-141238272D01*
X180203161Y-141173756D01*
X180215476Y-141104980D01*
X180253547Y-141060021D01*
X180347219Y-140991966D01*
X180491966Y-140847219D01*
X180491968Y-140847215D01*
X180491971Y-140847213D01*
X180544732Y-140774590D01*
X180612287Y-140681610D01*
X180705220Y-140499219D01*
X180768477Y-140304534D01*
X180800500Y-140102352D01*
X180800500Y-139897648D01*
X180789219Y-139826421D01*
X180775726Y-139741232D01*
X180773152Y-139724983D01*
X185149500Y-139724983D01*
X185149500Y-141275001D01*
X185149501Y-141275018D01*
X185160000Y-141377796D01*
X185160001Y-141377799D01*
X185205894Y-141516294D01*
X185215186Y-141544334D01*
X185307288Y-141693656D01*
X185431344Y-141817712D01*
X185580666Y-141909814D01*
X185747203Y-141964999D01*
X185849991Y-141975500D01*
X187150008Y-141975499D01*
X187252797Y-141964999D01*
X187419334Y-141909814D01*
X187568656Y-141817712D01*
X187692712Y-141693656D01*
X187784814Y-141544334D01*
X187784814Y-141544331D01*
X187788178Y-141538879D01*
X187840126Y-141492154D01*
X187909088Y-141480931D01*
X187973170Y-141508774D01*
X187981398Y-141516294D01*
X188120213Y-141655109D01*
X188292179Y-141780048D01*
X188292181Y-141780049D01*
X188292184Y-141780051D01*
X188481588Y-141876557D01*
X188683757Y-141942246D01*
X188893713Y-141975500D01*
X188893714Y-141975500D01*
X189106286Y-141975500D01*
X189106287Y-141975500D01*
X189316243Y-141942246D01*
X189518412Y-141876557D01*
X189707816Y-141780051D01*
X189749178Y-141750000D01*
X189879786Y-141655109D01*
X189879788Y-141655106D01*
X189879792Y-141655104D01*
X190030104Y-141504792D01*
X190030106Y-141504788D01*
X190030109Y-141504786D01*
X190155048Y-141332820D01*
X190155047Y-141332820D01*
X190155051Y-141332816D01*
X190251557Y-141143412D01*
X190317246Y-140941243D01*
X190350500Y-140731287D01*
X190350500Y-140268713D01*
X190317246Y-140058757D01*
X190251557Y-139856588D01*
X190155051Y-139667184D01*
X190155049Y-139667181D01*
X190155048Y-139667179D01*
X190030109Y-139495213D01*
X189879786Y-139344890D01*
X189707820Y-139219951D01*
X189518414Y-139123444D01*
X189518413Y-139123443D01*
X189518412Y-139123443D01*
X189316243Y-139057754D01*
X189316241Y-139057753D01*
X189316240Y-139057753D01*
X189154957Y-139032208D01*
X189106287Y-139024500D01*
X188893713Y-139024500D01*
X188845042Y-139032208D01*
X188683760Y-139057753D01*
X188481585Y-139123444D01*
X188292179Y-139219951D01*
X188120215Y-139344889D01*
X187981398Y-139483706D01*
X187920075Y-139517190D01*
X187850383Y-139512206D01*
X187794450Y-139470334D01*
X187788178Y-139461120D01*
X187692712Y-139306344D01*
X187568657Y-139182289D01*
X187568656Y-139182288D01*
X187419334Y-139090186D01*
X187252797Y-139035001D01*
X187252795Y-139035000D01*
X187150010Y-139024500D01*
X185849998Y-139024500D01*
X185849981Y-139024501D01*
X185747203Y-139035000D01*
X185747200Y-139035001D01*
X185580668Y-139090185D01*
X185580663Y-139090187D01*
X185431342Y-139182289D01*
X185307289Y-139306342D01*
X185215187Y-139455663D01*
X185215185Y-139455668D01*
X185210325Y-139470334D01*
X185160001Y-139622203D01*
X185160001Y-139622204D01*
X185160000Y-139622204D01*
X185149500Y-139724983D01*
X180773152Y-139724983D01*
X180768477Y-139695465D01*
X180739127Y-139605137D01*
X180705220Y-139500781D01*
X180705218Y-139500778D01*
X180705218Y-139500776D01*
X180671503Y-139434607D01*
X180612287Y-139318390D01*
X180603534Y-139306342D01*
X180491971Y-139152786D01*
X180347213Y-139008028D01*
X180181613Y-138887715D01*
X180181612Y-138887714D01*
X180181610Y-138887713D01*
X180124653Y-138858691D01*
X179999223Y-138794781D01*
X179804534Y-138731522D01*
X179629995Y-138703878D01*
X179602352Y-138699500D01*
X179397648Y-138699500D01*
X179373329Y-138703351D01*
X179195465Y-138731522D01*
X179000776Y-138794781D01*
X178818386Y-138887715D01*
X178652786Y-139008028D01*
X178508028Y-139152786D01*
X178387715Y-139318386D01*
X178294781Y-139500776D01*
X178231522Y-139695465D01*
X178199500Y-139897648D01*
X173180500Y-139897648D01*
X173155726Y-139741232D01*
X173148477Y-139695465D01*
X173119127Y-139605137D01*
X173085220Y-139500781D01*
X173085218Y-139500778D01*
X173085218Y-139500776D01*
X173051503Y-139434607D01*
X172992287Y-139318390D01*
X172983534Y-139306342D01*
X172871971Y-139152786D01*
X172727213Y-139008028D01*
X172561613Y-138887715D01*
X172561612Y-138887714D01*
X172561610Y-138887713D01*
X172504653Y-138858691D01*
X172379223Y-138794781D01*
X172184534Y-138731522D01*
X172009995Y-138703878D01*
X171982352Y-138699500D01*
X171777648Y-138699500D01*
X171753329Y-138703351D01*
X171575465Y-138731522D01*
X171380776Y-138794781D01*
X171198386Y-138887715D01*
X171032786Y-139008028D01*
X170888028Y-139152786D01*
X170767715Y-139318386D01*
X170674781Y-139500776D01*
X170611522Y-139695465D01*
X170579500Y-139897648D01*
X165259384Y-139897648D01*
X165231817Y-139879228D01*
X165231804Y-139879221D01*
X165104332Y-139826421D01*
X165104322Y-139826418D01*
X164968995Y-139799500D01*
X164968993Y-139799500D01*
X164831007Y-139799500D01*
X164831005Y-139799500D01*
X164695677Y-139826418D01*
X164695667Y-139826421D01*
X164568195Y-139879221D01*
X164568182Y-139879228D01*
X164453458Y-139955885D01*
X164453454Y-139955888D01*
X164355888Y-140053454D01*
X164355885Y-140053458D01*
X164279228Y-140168182D01*
X164279221Y-140168195D01*
X164226421Y-140295667D01*
X164226418Y-140295677D01*
X164199500Y-140431004D01*
X164199500Y-140431007D01*
X164199500Y-140568993D01*
X164199500Y-140568995D01*
X164199499Y-140568995D01*
X158800500Y-140568995D01*
X158800500Y-140568993D01*
X158800500Y-140431007D01*
X158800500Y-140431004D01*
X158773581Y-140295677D01*
X158773580Y-140295676D01*
X158773580Y-140295672D01*
X158742393Y-140220379D01*
X158720778Y-140168195D01*
X158720771Y-140168182D01*
X158644114Y-140053458D01*
X158644111Y-140053454D01*
X158546545Y-139955888D01*
X158546541Y-139955885D01*
X158431817Y-139879228D01*
X158431804Y-139879221D01*
X158304332Y-139826421D01*
X158304322Y-139826418D01*
X158168995Y-139799500D01*
X158168993Y-139799500D01*
X158031007Y-139799500D01*
X158031005Y-139799500D01*
X157895677Y-139826418D01*
X157895667Y-139826421D01*
X157768195Y-139879221D01*
X157768182Y-139879228D01*
X157653458Y-139955885D01*
X157653454Y-139955888D01*
X157555888Y-140053454D01*
X157555885Y-140053458D01*
X157479228Y-140168182D01*
X157479221Y-140168195D01*
X157426421Y-140295667D01*
X157426418Y-140295677D01*
X157399500Y-140431004D01*
X157399500Y-140431007D01*
X157399500Y-140568993D01*
X157399500Y-140568995D01*
X157399499Y-140568995D01*
X151583713Y-140568995D01*
X151583712Y-140568993D01*
X151531988Y-140497800D01*
X151531986Y-140497798D01*
X151530105Y-140495209D01*
X151379786Y-140344890D01*
X151207820Y-140219951D01*
X151018414Y-140123444D01*
X151018413Y-140123443D01*
X151018412Y-140123443D01*
X150816243Y-140057754D01*
X150816241Y-140057753D01*
X150816240Y-140057753D01*
X150654957Y-140032208D01*
X150606287Y-140024500D01*
X150393713Y-140024500D01*
X150345042Y-140032208D01*
X150183760Y-140057753D01*
X149981585Y-140123444D01*
X149792179Y-140219951D01*
X149620213Y-140344890D01*
X149469894Y-140495209D01*
X149469890Y-140495214D01*
X149350008Y-140660218D01*
X149294678Y-140702884D01*
X149225065Y-140708863D01*
X149163270Y-140676257D01*
X149149372Y-140660218D01*
X149029727Y-140495540D01*
X149029723Y-140495535D01*
X148879464Y-140345276D01*
X148879459Y-140345272D01*
X148707557Y-140220379D01*
X148518215Y-140123903D01*
X148316124Y-140058241D01*
X148250000Y-140047768D01*
X148250000Y-141095854D01*
X148183343Y-141057370D01*
X148062535Y-141025000D01*
X147937465Y-141025000D01*
X147816657Y-141057370D01*
X147750000Y-141095854D01*
X147750000Y-140047768D01*
X147749999Y-140047768D01*
X147683875Y-140058241D01*
X147481784Y-140123903D01*
X147292442Y-140220379D01*
X147120540Y-140345272D01*
X147120535Y-140345276D01*
X146970276Y-140495535D01*
X146970272Y-140495540D01*
X146850627Y-140660218D01*
X146795297Y-140702884D01*
X146725684Y-140708863D01*
X146663889Y-140676257D01*
X146649991Y-140660218D01*
X146530109Y-140495214D01*
X146530105Y-140495209D01*
X146379786Y-140344890D01*
X146207820Y-140219951D01*
X146018414Y-140123444D01*
X146018413Y-140123443D01*
X146018412Y-140123443D01*
X145816243Y-140057754D01*
X145816241Y-140057753D01*
X145816240Y-140057753D01*
X145654957Y-140032208D01*
X145606287Y-140024500D01*
X145393713Y-140024500D01*
X145345042Y-140032208D01*
X145183760Y-140057753D01*
X144981585Y-140123444D01*
X144792179Y-140219951D01*
X144620215Y-140344889D01*
X144481398Y-140483706D01*
X144420075Y-140517190D01*
X144350383Y-140512206D01*
X144294450Y-140470334D01*
X144288178Y-140461120D01*
X144192712Y-140306344D01*
X144068657Y-140182289D01*
X144068656Y-140182288D01*
X143973253Y-140123443D01*
X143919336Y-140090187D01*
X143919331Y-140090185D01*
X143917862Y-140089698D01*
X143752797Y-140035001D01*
X143752795Y-140035000D01*
X143650010Y-140024500D01*
X142349998Y-140024500D01*
X142349981Y-140024501D01*
X142247203Y-140035000D01*
X142247200Y-140035001D01*
X142080668Y-140090185D01*
X142080663Y-140090187D01*
X141931342Y-140182289D01*
X141807289Y-140306342D01*
X141715187Y-140455663D01*
X141715185Y-140455668D01*
X141696450Y-140512206D01*
X141660001Y-140622203D01*
X141660001Y-140622204D01*
X141660000Y-140622204D01*
X141649500Y-140724983D01*
X134683939Y-140724983D01*
X134654620Y-140667442D01*
X134529727Y-140495540D01*
X134529723Y-140495535D01*
X134379464Y-140345276D01*
X134379459Y-140345272D01*
X134207557Y-140220379D01*
X134018215Y-140123903D01*
X133816124Y-140058241D01*
X133750000Y-140047768D01*
X133750000Y-141095854D01*
X133683343Y-141057370D01*
X133562535Y-141025000D01*
X133437465Y-141025000D01*
X133316657Y-141057370D01*
X133250000Y-141095854D01*
X133250000Y-140047768D01*
X133249999Y-140047768D01*
X133183875Y-140058241D01*
X132981784Y-140123903D01*
X132792442Y-140220379D01*
X132620541Y-140345271D01*
X132481668Y-140484144D01*
X132420345Y-140517628D01*
X132350653Y-140512644D01*
X132294720Y-140470772D01*
X132288448Y-140461558D01*
X132192712Y-140306344D01*
X132068657Y-140182289D01*
X132068656Y-140182288D01*
X131973253Y-140123443D01*
X131919336Y-140090187D01*
X131919331Y-140090185D01*
X131917862Y-140089698D01*
X131752797Y-140035001D01*
X131752795Y-140035000D01*
X131650010Y-140024500D01*
X130349998Y-140024500D01*
X130349981Y-140024501D01*
X130247203Y-140035000D01*
X130247200Y-140035001D01*
X130080668Y-140090185D01*
X130080663Y-140090187D01*
X129931342Y-140182289D01*
X129807289Y-140306342D01*
X129715187Y-140455663D01*
X129715185Y-140455668D01*
X129696450Y-140512206D01*
X129660001Y-140622203D01*
X129660001Y-140622204D01*
X129660000Y-140622204D01*
X129649500Y-140724983D01*
X123684501Y-140724983D01*
X123655051Y-140667184D01*
X123655049Y-140667181D01*
X123655048Y-140667179D01*
X123530109Y-140495213D01*
X123379786Y-140344890D01*
X123207820Y-140219951D01*
X123018414Y-140123444D01*
X123018413Y-140123443D01*
X123018412Y-140123443D01*
X122816243Y-140057754D01*
X122816241Y-140057753D01*
X122816240Y-140057753D01*
X122654957Y-140032208D01*
X122606287Y-140024500D01*
X122393713Y-140024500D01*
X122345042Y-140032208D01*
X122183760Y-140057753D01*
X121981585Y-140123444D01*
X121792179Y-140219951D01*
X121620213Y-140344890D01*
X121469894Y-140495209D01*
X121469890Y-140495214D01*
X121350318Y-140659793D01*
X121294989Y-140702459D01*
X121225375Y-140708438D01*
X121163580Y-140675833D01*
X121149682Y-140659793D01*
X121030109Y-140495214D01*
X121030105Y-140495209D01*
X120879786Y-140344890D01*
X120707820Y-140219951D01*
X120518414Y-140123444D01*
X120518413Y-140123443D01*
X120518412Y-140123443D01*
X120316243Y-140057754D01*
X120316241Y-140057753D01*
X120316240Y-140057753D01*
X120154957Y-140032208D01*
X120106287Y-140024500D01*
X119893713Y-140024500D01*
X119845042Y-140032208D01*
X119683760Y-140057753D01*
X119481585Y-140123444D01*
X119292179Y-140219951D01*
X119120213Y-140344890D01*
X118969894Y-140495209D01*
X118969890Y-140495214D01*
X118850318Y-140659793D01*
X118794989Y-140702459D01*
X118725375Y-140708438D01*
X118663580Y-140675833D01*
X118649682Y-140659793D01*
X118530109Y-140495214D01*
X118530105Y-140495209D01*
X118379786Y-140344890D01*
X118207820Y-140219951D01*
X118018414Y-140123444D01*
X118018413Y-140123443D01*
X118018412Y-140123443D01*
X117816243Y-140057754D01*
X117816241Y-140057753D01*
X117816240Y-140057753D01*
X117654957Y-140032208D01*
X117606287Y-140024500D01*
X117393713Y-140024500D01*
X117345042Y-140032208D01*
X117183760Y-140057753D01*
X116981585Y-140123444D01*
X116792179Y-140219951D01*
X116620213Y-140344890D01*
X116469894Y-140495209D01*
X116469890Y-140495214D01*
X116350318Y-140659793D01*
X116294989Y-140702459D01*
X116225375Y-140708438D01*
X116163580Y-140675833D01*
X116149682Y-140659793D01*
X116030109Y-140495214D01*
X116030105Y-140495209D01*
X115879786Y-140344890D01*
X115707820Y-140219951D01*
X115518414Y-140123444D01*
X115518413Y-140123443D01*
X115518412Y-140123443D01*
X115316243Y-140057754D01*
X115316241Y-140057753D01*
X115316240Y-140057753D01*
X115154957Y-140032208D01*
X115106287Y-140024500D01*
X114893713Y-140024500D01*
X114845042Y-140032208D01*
X114683760Y-140057753D01*
X114481585Y-140123444D01*
X114292179Y-140219951D01*
X114120213Y-140344890D01*
X113969894Y-140495209D01*
X113969890Y-140495214D01*
X113850318Y-140659793D01*
X113794989Y-140702459D01*
X113725375Y-140708438D01*
X113663580Y-140675833D01*
X113649682Y-140659793D01*
X113530109Y-140495214D01*
X113530105Y-140495209D01*
X113379786Y-140344890D01*
X113207820Y-140219951D01*
X113018414Y-140123444D01*
X113018413Y-140123443D01*
X113018412Y-140123443D01*
X112816243Y-140057754D01*
X112816241Y-140057753D01*
X112816240Y-140057753D01*
X112654957Y-140032208D01*
X112606287Y-140024500D01*
X112393713Y-140024500D01*
X112345042Y-140032208D01*
X112183760Y-140057753D01*
X111981585Y-140123444D01*
X111792179Y-140219951D01*
X111620213Y-140344890D01*
X111469894Y-140495209D01*
X111469890Y-140495214D01*
X111350318Y-140659793D01*
X111294989Y-140702459D01*
X111225375Y-140708438D01*
X111163580Y-140675833D01*
X111149682Y-140659793D01*
X111030109Y-140495214D01*
X111030105Y-140495209D01*
X110879786Y-140344890D01*
X110707820Y-140219951D01*
X110518414Y-140123444D01*
X110518413Y-140123443D01*
X110518412Y-140123443D01*
X110316243Y-140057754D01*
X110316241Y-140057753D01*
X110316240Y-140057753D01*
X110154957Y-140032208D01*
X110106287Y-140024500D01*
X109893713Y-140024500D01*
X109845042Y-140032208D01*
X109683760Y-140057753D01*
X109481585Y-140123444D01*
X109292179Y-140219951D01*
X109120213Y-140344890D01*
X108969894Y-140495209D01*
X108969890Y-140495214D01*
X108850318Y-140659793D01*
X108794989Y-140702459D01*
X108725375Y-140708438D01*
X108663580Y-140675833D01*
X108649682Y-140659793D01*
X108530109Y-140495214D01*
X108530105Y-140495209D01*
X108379786Y-140344890D01*
X108207820Y-140219951D01*
X108018414Y-140123444D01*
X108018413Y-140123443D01*
X108018412Y-140123443D01*
X107816243Y-140057754D01*
X107816241Y-140057753D01*
X107816240Y-140057753D01*
X107654957Y-140032208D01*
X107606287Y-140024500D01*
X107393713Y-140024500D01*
X107345042Y-140032208D01*
X107183760Y-140057753D01*
X106981585Y-140123444D01*
X106792179Y-140219951D01*
X106620215Y-140344889D01*
X106481035Y-140484069D01*
X106419712Y-140517553D01*
X106350020Y-140512569D01*
X106294087Y-140470697D01*
X106287815Y-140461484D01*
X106192315Y-140306654D01*
X106068345Y-140182684D01*
X105919124Y-140090643D01*
X105919119Y-140090641D01*
X105752697Y-140035494D01*
X105752690Y-140035493D01*
X105649986Y-140025000D01*
X105250000Y-140025000D01*
X105250000Y-141095854D01*
X105183343Y-141057370D01*
X105062535Y-141025000D01*
X104937465Y-141025000D01*
X104816657Y-141057370D01*
X104750000Y-141095854D01*
X104750000Y-140025000D01*
X104350028Y-140025000D01*
X104350012Y-140025001D01*
X104247302Y-140035494D01*
X104080880Y-140090641D01*
X104080875Y-140090643D01*
X103931654Y-140182684D01*
X103807684Y-140306654D01*
X103715643Y-140455875D01*
X103715641Y-140455880D01*
X103660494Y-140622302D01*
X103660493Y-140622309D01*
X103650000Y-140725013D01*
X102000500Y-140725013D01*
X102000500Y-136921153D01*
X123699500Y-136921153D01*
X123699500Y-137078846D01*
X123730261Y-137233489D01*
X123730264Y-137233501D01*
X123790602Y-137379172D01*
X123790609Y-137379185D01*
X123878210Y-137510288D01*
X123878213Y-137510292D01*
X123989707Y-137621786D01*
X123989711Y-137621789D01*
X124120814Y-137709390D01*
X124120827Y-137709397D01*
X124266498Y-137769735D01*
X124266503Y-137769737D01*
X124421153Y-137800499D01*
X124421156Y-137800500D01*
X124421158Y-137800500D01*
X124578844Y-137800500D01*
X124578845Y-137800499D01*
X124733497Y-137769737D01*
X124879179Y-137709394D01*
X124879185Y-137709390D01*
X125010875Y-137621398D01*
X125077553Y-137600520D01*
X125079766Y-137600500D01*
X129420234Y-137600500D01*
X129487273Y-137620185D01*
X129489125Y-137621398D01*
X129620814Y-137709390D01*
X129620827Y-137709397D01*
X129766498Y-137769735D01*
X129766503Y-137769737D01*
X129921153Y-137800499D01*
X129921156Y-137800500D01*
X129921158Y-137800500D01*
X130078844Y-137800500D01*
X130078845Y-137800499D01*
X130233497Y-137769737D01*
X130379179Y-137709394D01*
X130510289Y-137621789D01*
X130621789Y-137510289D01*
X130709394Y-137379179D01*
X130769737Y-137233497D01*
X130800500Y-137078842D01*
X130800500Y-136921158D01*
X130800500Y-136921155D01*
X130800499Y-136921153D01*
X130769738Y-136766510D01*
X130769737Y-136766503D01*
X130769735Y-136766498D01*
X130709397Y-136620827D01*
X130709390Y-136620814D01*
X130621789Y-136489711D01*
X130621786Y-136489707D01*
X130510292Y-136378213D01*
X130510288Y-136378210D01*
X130379185Y-136290609D01*
X130379172Y-136290602D01*
X130233501Y-136230264D01*
X130233489Y-136230261D01*
X130078845Y-136199500D01*
X130078842Y-136199500D01*
X129921158Y-136199500D01*
X129921155Y-136199500D01*
X129766510Y-136230261D01*
X129766498Y-136230264D01*
X129620827Y-136290602D01*
X129620814Y-136290609D01*
X129489125Y-136378602D01*
X129422447Y-136399480D01*
X129420234Y-136399500D01*
X125079766Y-136399500D01*
X125012727Y-136379815D01*
X125010875Y-136378602D01*
X124879185Y-136290609D01*
X124879172Y-136290602D01*
X124733501Y-136230264D01*
X124733489Y-136230261D01*
X124578845Y-136199500D01*
X124578842Y-136199500D01*
X124421158Y-136199500D01*
X124421155Y-136199500D01*
X124266510Y-136230261D01*
X124266498Y-136230264D01*
X124120827Y-136290602D01*
X124120814Y-136290609D01*
X123989711Y-136378210D01*
X123989707Y-136378213D01*
X123878213Y-136489707D01*
X123878210Y-136489711D01*
X123790609Y-136620814D01*
X123790602Y-136620827D01*
X123730264Y-136766498D01*
X123730261Y-136766510D01*
X123699500Y-136921153D01*
X102000500Y-136921153D01*
X102000500Y-133725000D01*
X128140000Y-133725000D01*
X145830000Y-133725000D01*
X145830000Y-131610258D01*
X147529500Y-131610258D01*
X147529500Y-131839741D01*
X147553089Y-132018910D01*
X147559452Y-132067238D01*
X147598007Y-132211130D01*
X147618842Y-132288887D01*
X147706650Y-132500876D01*
X147706657Y-132500890D01*
X147821392Y-132699617D01*
X147961081Y-132881661D01*
X147961089Y-132881670D01*
X148123330Y-133043911D01*
X148123338Y-133043918D01*
X148305382Y-133183607D01*
X148305385Y-133183608D01*
X148305388Y-133183611D01*
X148504112Y-133298344D01*
X148504117Y-133298346D01*
X148504123Y-133298349D01*
X148574590Y-133327537D01*
X148716113Y-133386158D01*
X148937762Y-133445548D01*
X149165266Y-133475500D01*
X149165273Y-133475500D01*
X149394727Y-133475500D01*
X149394734Y-133475500D01*
X149557751Y-133454038D01*
X173399500Y-133454038D01*
X173399500Y-133705962D01*
X173409875Y-133771466D01*
X173438910Y-133954785D01*
X173516760Y-134194383D01*
X173631132Y-134418848D01*
X173779201Y-134622649D01*
X173779205Y-134622654D01*
X173957345Y-134800794D01*
X173957350Y-134800798D01*
X174135117Y-134929952D01*
X174161155Y-134948870D01*
X174304184Y-135021747D01*
X174385616Y-135063239D01*
X174385618Y-135063239D01*
X174385621Y-135063241D01*
X174625215Y-135141090D01*
X174874038Y-135180500D01*
X174874039Y-135180500D01*
X175125961Y-135180500D01*
X175125962Y-135180500D01*
X175374785Y-135141090D01*
X175614379Y-135063241D01*
X175838845Y-134948870D01*
X176042656Y-134800793D01*
X176220793Y-134622656D01*
X176368870Y-134418845D01*
X176483241Y-134194379D01*
X176561090Y-133954785D01*
X176600500Y-133705962D01*
X176600500Y-133548549D01*
X186799500Y-133548549D01*
X186799500Y-133771450D01*
X186799501Y-133771466D01*
X186828594Y-133992452D01*
X186828595Y-133992457D01*
X186828596Y-133992463D01*
X186828597Y-133992465D01*
X186886290Y-134207780D01*
X186886293Y-134207790D01*
X186971593Y-134413722D01*
X186971595Y-134413726D01*
X187083052Y-134606774D01*
X187083057Y-134606780D01*
X187083058Y-134606782D01*
X187218751Y-134783622D01*
X187218757Y-134783629D01*
X187376370Y-134941242D01*
X187376377Y-134941248D01*
X187502294Y-135037867D01*
X187553226Y-135076948D01*
X187746274Y-135188405D01*
X187952219Y-135273710D01*
X188167537Y-135331404D01*
X188388543Y-135360500D01*
X188388550Y-135360500D01*
X188611450Y-135360500D01*
X188611457Y-135360500D01*
X188832463Y-135331404D01*
X189047781Y-135273710D01*
X189253726Y-135188405D01*
X189446774Y-135076948D01*
X189623624Y-134941247D01*
X189781247Y-134783624D01*
X189916948Y-134606774D01*
X190028405Y-134413726D01*
X190113710Y-134207781D01*
X190171404Y-133992463D01*
X190200500Y-133771457D01*
X190200500Y-133548543D01*
X190171404Y-133327537D01*
X190113710Y-133112219D01*
X190028405Y-132906274D01*
X189916948Y-132713226D01*
X189877867Y-132662294D01*
X189781248Y-132536377D01*
X189781242Y-132536370D01*
X189623629Y-132378757D01*
X189623622Y-132378751D01*
X189446782Y-132243058D01*
X189446780Y-132243057D01*
X189446774Y-132243052D01*
X189253726Y-132131595D01*
X189253722Y-132131593D01*
X189047790Y-132046293D01*
X189047783Y-132046291D01*
X189047781Y-132046290D01*
X188832463Y-131988596D01*
X188832457Y-131988595D01*
X188832452Y-131988594D01*
X188611466Y-131959501D01*
X188611463Y-131959500D01*
X188611457Y-131959500D01*
X188388543Y-131959500D01*
X188388537Y-131959500D01*
X188388533Y-131959501D01*
X188167547Y-131988594D01*
X188167540Y-131988595D01*
X188167537Y-131988596D01*
X188054403Y-132018910D01*
X187952219Y-132046290D01*
X187952209Y-132046293D01*
X187746277Y-132131593D01*
X187746273Y-132131595D01*
X187553226Y-132243052D01*
X187553217Y-132243058D01*
X187376377Y-132378751D01*
X187376370Y-132378757D01*
X187218757Y-132536370D01*
X187218751Y-132536377D01*
X187083058Y-132713217D01*
X187083052Y-132713226D01*
X186971595Y-132906273D01*
X186971593Y-132906277D01*
X186886293Y-133112209D01*
X186886290Y-133112219D01*
X186828597Y-133327534D01*
X186828594Y-133327547D01*
X186799501Y-133548533D01*
X186799500Y-133548549D01*
X176600500Y-133548549D01*
X176600500Y-133454038D01*
X176561090Y-133205215D01*
X176483241Y-132965621D01*
X176483239Y-132965618D01*
X176483239Y-132965616D01*
X176440461Y-132881661D01*
X176368870Y-132741155D01*
X176338687Y-132699612D01*
X176220798Y-132537350D01*
X176220794Y-132537345D01*
X176042654Y-132359205D01*
X176042649Y-132359201D01*
X175838848Y-132211132D01*
X175838847Y-132211131D01*
X175838845Y-132211130D01*
X175768747Y-132175413D01*
X175614383Y-132096760D01*
X175374785Y-132018910D01*
X175125962Y-131979500D01*
X174874038Y-131979500D01*
X174749626Y-131999205D01*
X174625214Y-132018910D01*
X174385616Y-132096760D01*
X174161151Y-132211132D01*
X173957350Y-132359201D01*
X173957345Y-132359205D01*
X173779205Y-132537345D01*
X173779201Y-132537350D01*
X173631132Y-132741151D01*
X173516760Y-132965616D01*
X173438910Y-133205214D01*
X173438910Y-133205215D01*
X173399500Y-133454038D01*
X149557751Y-133454038D01*
X149622238Y-133445548D01*
X149843887Y-133386158D01*
X150055888Y-133298344D01*
X150254612Y-133183611D01*
X150436661Y-133043919D01*
X150436665Y-133043914D01*
X150436670Y-133043911D01*
X150598911Y-132881670D01*
X150598914Y-132881665D01*
X150598919Y-132881661D01*
X150738611Y-132699612D01*
X150853344Y-132500888D01*
X150941158Y-132288887D01*
X151000548Y-132067238D01*
X151030500Y-131839734D01*
X151030500Y-131610266D01*
X151000548Y-131382762D01*
X150941158Y-131161113D01*
X150853344Y-130949112D01*
X150738611Y-130750388D01*
X150738608Y-130750385D01*
X150738607Y-130750382D01*
X150598918Y-130568338D01*
X150598911Y-130568330D01*
X150436670Y-130406089D01*
X150436661Y-130406081D01*
X150254617Y-130266392D01*
X150055890Y-130151657D01*
X150055876Y-130151650D01*
X149843887Y-130063842D01*
X149821203Y-130057764D01*
X149752197Y-130039274D01*
X149692538Y-130002910D01*
X149662009Y-129940063D01*
X149670304Y-129870688D01*
X149714789Y-129816810D01*
X149781341Y-129795535D01*
X149784292Y-129795500D01*
X149868097Y-129795500D01*
X150101368Y-129758553D01*
X150181338Y-129732569D01*
X150325992Y-129685568D01*
X150536433Y-129578343D01*
X150727510Y-129439517D01*
X150894517Y-129272510D01*
X151033343Y-129081433D01*
X151118966Y-128913389D01*
X153999500Y-128913389D01*
X153999500Y-129086611D01*
X154026598Y-129257701D01*
X154080127Y-129422445D01*
X154158768Y-129576788D01*
X154260586Y-129716928D01*
X154383072Y-129839414D01*
X154523212Y-129941232D01*
X154677555Y-130019873D01*
X154842299Y-130073402D01*
X155013389Y-130100500D01*
X155013390Y-130100500D01*
X155986610Y-130100500D01*
X155986611Y-130100500D01*
X156157701Y-130073402D01*
X156322445Y-130019873D01*
X156476788Y-129941232D01*
X156616928Y-129839414D01*
X156739414Y-129716928D01*
X156841232Y-129576788D01*
X156919873Y-129422445D01*
X156973402Y-129257701D01*
X157000500Y-129086611D01*
X157000500Y-128913428D01*
X167000000Y-128913428D01*
X167000000Y-129086571D01*
X167027085Y-129257584D01*
X167080591Y-129422257D01*
X167159195Y-129576524D01*
X167260967Y-129716602D01*
X167345406Y-129801041D01*
X168100000Y-129046447D01*
X168100000Y-129052661D01*
X168127259Y-129154394D01*
X168179920Y-129245606D01*
X168254394Y-129320080D01*
X168345606Y-129372741D01*
X168447339Y-129400000D01*
X168453553Y-129400000D01*
X167795788Y-130057763D01*
X167795788Y-130057764D01*
X167842414Y-130072913D01*
X168013429Y-130100000D01*
X168986571Y-130100000D01*
X169157585Y-130072913D01*
X169157588Y-130072913D01*
X169204211Y-130057764D01*
X168546447Y-129400000D01*
X168552661Y-129400000D01*
X168654394Y-129372741D01*
X168745606Y-129320080D01*
X168820080Y-129245606D01*
X168872741Y-129154394D01*
X168900000Y-129052661D01*
X168900000Y-129046447D01*
X169654594Y-129801041D01*
X169739032Y-129716602D01*
X169840804Y-129576524D01*
X169919408Y-129422257D01*
X169972914Y-129257584D01*
X170000000Y-129086571D01*
X170000000Y-128913428D01*
X169972914Y-128742415D01*
X169919408Y-128577742D01*
X169840804Y-128423475D01*
X169739032Y-128283397D01*
X169654594Y-128198959D01*
X168900000Y-128953553D01*
X168900000Y-128947339D01*
X168872741Y-128845606D01*
X168820080Y-128754394D01*
X168745606Y-128679920D01*
X168654394Y-128627259D01*
X168552661Y-128600000D01*
X168546448Y-128600000D01*
X169204211Y-127942235D01*
X169157582Y-127927085D01*
X168986571Y-127900000D01*
X168013429Y-127900000D01*
X167842423Y-127927084D01*
X167842411Y-127927087D01*
X167795787Y-127942235D01*
X168453553Y-128600000D01*
X168447339Y-128600000D01*
X168345606Y-128627259D01*
X168254394Y-128679920D01*
X168179920Y-128754394D01*
X168127259Y-128845606D01*
X168100000Y-128947339D01*
X168100000Y-128953553D01*
X167345406Y-128198959D01*
X167260967Y-128283397D01*
X167159195Y-128423475D01*
X167080591Y-128577742D01*
X167027085Y-128742415D01*
X167000000Y-128913428D01*
X157000500Y-128913428D01*
X157000500Y-128913389D01*
X156973402Y-128742299D01*
X156919873Y-128577555D01*
X156841232Y-128423212D01*
X156739414Y-128283072D01*
X156616928Y-128160586D01*
X156507565Y-128081129D01*
X156507564Y-128081127D01*
X156476792Y-128058770D01*
X156322447Y-127980128D01*
X156322446Y-127980127D01*
X156322445Y-127980127D01*
X156157701Y-127926598D01*
X156157699Y-127926597D01*
X156157698Y-127926597D01*
X156026271Y-127905781D01*
X155986611Y-127899500D01*
X155013389Y-127899500D01*
X154973728Y-127905781D01*
X154842302Y-127926597D01*
X154677552Y-127980128D01*
X154523211Y-128058768D01*
X154492433Y-128081130D01*
X154383072Y-128160586D01*
X154383070Y-128160588D01*
X154383069Y-128160588D01*
X154260588Y-128283069D01*
X154260588Y-128283070D01*
X154260586Y-128283072D01*
X154260350Y-128283397D01*
X154158768Y-128423211D01*
X154080128Y-128577552D01*
X154026597Y-128742302D01*
X154006215Y-128870992D01*
X153999500Y-128913389D01*
X151118966Y-128913389D01*
X151140568Y-128870992D01*
X151213553Y-128646368D01*
X151220897Y-128600000D01*
X151250500Y-128413097D01*
X151250500Y-128176902D01*
X151213553Y-127943631D01*
X151179689Y-127839412D01*
X151140568Y-127719008D01*
X151140566Y-127719005D01*
X151140566Y-127719003D01*
X151033342Y-127508566D01*
X150894517Y-127317490D01*
X150727510Y-127150483D01*
X150692872Y-127125317D01*
X150650207Y-127069989D01*
X150644228Y-127000375D01*
X150676833Y-126938580D01*
X150692873Y-126924682D01*
X150727510Y-126899517D01*
X150894517Y-126732510D01*
X151033343Y-126541433D01*
X151140568Y-126330992D01*
X151213553Y-126106368D01*
X151232030Y-125989711D01*
X151250500Y-125873097D01*
X151250500Y-125636902D01*
X151213553Y-125403631D01*
X151171589Y-125274480D01*
X151140568Y-125179008D01*
X151140566Y-125179005D01*
X151140566Y-125179003D01*
X151059804Y-125020500D01*
X151033343Y-124968567D01*
X150894517Y-124777490D01*
X150727510Y-124610483D01*
X150692872Y-124585317D01*
X150650207Y-124529989D01*
X150644228Y-124460375D01*
X150676833Y-124398580D01*
X150692873Y-124384682D01*
X150727510Y-124359517D01*
X150894517Y-124192510D01*
X151033343Y-124001433D01*
X151140568Y-123790992D01*
X151213553Y-123566368D01*
X151220548Y-123522203D01*
X151250500Y-123333097D01*
X151250500Y-123096902D01*
X151213553Y-122863631D01*
X151140565Y-122639000D01*
X151107002Y-122573129D01*
X151107001Y-122573128D01*
X151079921Y-122519982D01*
X173399500Y-122519982D01*
X173399500Y-124320017D01*
X173410000Y-124422796D01*
X173410001Y-124422798D01*
X173465186Y-124589335D01*
X173557288Y-124738656D01*
X173681344Y-124862712D01*
X173830665Y-124954814D01*
X173997202Y-125009999D01*
X174099990Y-125020500D01*
X174099995Y-125020500D01*
X175900005Y-125020500D01*
X175900010Y-125020500D01*
X176002798Y-125009999D01*
X176169335Y-124954814D01*
X176318656Y-124862712D01*
X176442712Y-124738656D01*
X176534814Y-124589335D01*
X176589999Y-124422798D01*
X176600500Y-124320010D01*
X176600500Y-123624983D01*
X199424500Y-123624983D01*
X199424500Y-126375001D01*
X199424501Y-126375018D01*
X199435000Y-126477796D01*
X199435001Y-126477799D01*
X199468484Y-126578842D01*
X199490186Y-126644334D01*
X199582288Y-126793656D01*
X199706344Y-126917712D01*
X199855666Y-127009814D01*
X200022203Y-127064999D01*
X200124991Y-127075500D01*
X202875008Y-127075499D01*
X202977797Y-127064999D01*
X203144334Y-127009814D01*
X203293656Y-126917712D01*
X203417712Y-126793656D01*
X203509814Y-126644334D01*
X203564999Y-126477797D01*
X203575500Y-126375009D01*
X203575499Y-123624992D01*
X203569510Y-123566368D01*
X203564999Y-123522203D01*
X203564998Y-123522200D01*
X203531514Y-123421153D01*
X203509814Y-123355666D01*
X203417712Y-123206344D01*
X203293656Y-123082288D01*
X203144334Y-122990186D01*
X202977797Y-122935001D01*
X202977795Y-122935000D01*
X202875010Y-122924500D01*
X200124998Y-122924500D01*
X200124981Y-122924501D01*
X200022203Y-122935000D01*
X200022200Y-122935001D01*
X199855668Y-122990185D01*
X199855663Y-122990187D01*
X199706342Y-123082289D01*
X199582289Y-123206342D01*
X199490187Y-123355663D01*
X199490186Y-123355666D01*
X199435001Y-123522203D01*
X199435001Y-123522204D01*
X199435000Y-123522204D01*
X199424500Y-123624983D01*
X176600500Y-123624983D01*
X176600500Y-122519990D01*
X176589999Y-122417202D01*
X176534814Y-122250665D01*
X176442712Y-122101344D01*
X176318656Y-121977288D01*
X176225890Y-121920070D01*
X176169337Y-121885187D01*
X176169332Y-121885185D01*
X176151186Y-121879172D01*
X176002798Y-121830001D01*
X176002796Y-121830000D01*
X175900017Y-121819500D01*
X175900010Y-121819500D01*
X174099990Y-121819500D01*
X174099982Y-121819500D01*
X173997203Y-121830000D01*
X173997202Y-121830001D01*
X173952898Y-121844682D01*
X173830667Y-121885185D01*
X173830662Y-121885187D01*
X173681342Y-121977289D01*
X173557289Y-122101342D01*
X173465187Y-122250662D01*
X173465185Y-122250667D01*
X173448672Y-122300500D01*
X173410001Y-122417202D01*
X173410001Y-122417203D01*
X173410000Y-122417203D01*
X173399500Y-122519982D01*
X151079921Y-122519982D01*
X151033342Y-122428566D01*
X150894517Y-122237490D01*
X150727510Y-122070483D01*
X150692872Y-122045317D01*
X150650207Y-121989989D01*
X150644228Y-121920375D01*
X150676833Y-121858580D01*
X150692873Y-121844682D01*
X150727510Y-121819517D01*
X150894517Y-121652510D01*
X151033343Y-121461433D01*
X151053867Y-121421153D01*
X159199500Y-121421153D01*
X159199500Y-121578846D01*
X159230261Y-121733489D01*
X159230264Y-121733501D01*
X159290602Y-121879172D01*
X159290609Y-121879185D01*
X159378210Y-122010288D01*
X159378213Y-122010292D01*
X159489707Y-122121786D01*
X159489711Y-122121789D01*
X159620814Y-122209390D01*
X159620827Y-122209397D01*
X159766498Y-122269735D01*
X159766503Y-122269737D01*
X159921153Y-122300499D01*
X159921156Y-122300500D01*
X159921158Y-122300500D01*
X160078844Y-122300500D01*
X160078845Y-122300499D01*
X160233497Y-122269737D01*
X160379179Y-122209394D01*
X160379185Y-122209390D01*
X160510875Y-122121398D01*
X160577553Y-122100520D01*
X160579766Y-122100500D01*
X164420234Y-122100500D01*
X164487273Y-122120185D01*
X164489125Y-122121398D01*
X164620814Y-122209390D01*
X164620827Y-122209397D01*
X164766498Y-122269735D01*
X164766503Y-122269737D01*
X164921153Y-122300499D01*
X164921156Y-122300500D01*
X164921158Y-122300500D01*
X165078844Y-122300500D01*
X165078845Y-122300499D01*
X165233497Y-122269737D01*
X165379179Y-122209394D01*
X165510289Y-122121789D01*
X165621789Y-122010289D01*
X165709394Y-121879179D01*
X165769737Y-121733497D01*
X165800500Y-121578842D01*
X165800500Y-121421158D01*
X165800500Y-121421155D01*
X165800499Y-121421153D01*
X165769738Y-121266510D01*
X165769737Y-121266503D01*
X165763312Y-121250992D01*
X165709397Y-121120827D01*
X165709390Y-121120814D01*
X165621789Y-120989711D01*
X165621786Y-120989707D01*
X165510292Y-120878213D01*
X165510288Y-120878210D01*
X165379185Y-120790609D01*
X165379172Y-120790602D01*
X165233501Y-120730264D01*
X165233489Y-120730261D01*
X165078845Y-120699500D01*
X165078842Y-120699500D01*
X164921158Y-120699500D01*
X164921155Y-120699500D01*
X164766510Y-120730261D01*
X164766498Y-120730264D01*
X164620827Y-120790602D01*
X164620814Y-120790609D01*
X164489125Y-120878602D01*
X164422447Y-120899480D01*
X164420234Y-120899500D01*
X160579766Y-120899500D01*
X160512727Y-120879815D01*
X160510875Y-120878602D01*
X160379185Y-120790609D01*
X160379172Y-120790602D01*
X160233501Y-120730264D01*
X160233489Y-120730261D01*
X160078845Y-120699500D01*
X160078842Y-120699500D01*
X159921158Y-120699500D01*
X159921155Y-120699500D01*
X159766510Y-120730261D01*
X159766498Y-120730264D01*
X159620827Y-120790602D01*
X159620814Y-120790609D01*
X159489711Y-120878210D01*
X159489707Y-120878213D01*
X159378213Y-120989707D01*
X159378210Y-120989711D01*
X159290609Y-121120814D01*
X159290602Y-121120827D01*
X159230264Y-121266498D01*
X159230261Y-121266510D01*
X159199500Y-121421153D01*
X151053867Y-121421153D01*
X151140568Y-121250992D01*
X151213553Y-121026368D01*
X151219359Y-120989711D01*
X151250500Y-120793097D01*
X151250500Y-120640782D01*
X151270185Y-120573743D01*
X151286819Y-120553101D01*
X152975964Y-118863957D01*
X199424500Y-118863957D01*
X199424500Y-119136042D01*
X199443390Y-119279517D01*
X199460013Y-119405779D01*
X199493427Y-119530480D01*
X199530430Y-119668581D01*
X199542404Y-119697488D01*
X199634547Y-119919940D01*
X199770582Y-120155560D01*
X199770585Y-120155564D01*
X199770589Y-120155570D01*
X199936209Y-120371408D01*
X199936217Y-120371417D01*
X200128583Y-120563783D01*
X200128591Y-120563790D01*
X200344429Y-120729410D01*
X200344432Y-120729412D01*
X200344440Y-120729418D01*
X200580060Y-120865453D01*
X200662209Y-120899480D01*
X200831418Y-120969569D01*
X200831419Y-120969569D01*
X200831421Y-120969570D01*
X201094221Y-121039987D01*
X201363965Y-121075500D01*
X201363972Y-121075500D01*
X201636028Y-121075500D01*
X201636035Y-121075500D01*
X201905779Y-121039987D01*
X202168579Y-120969570D01*
X202419940Y-120865453D01*
X202655560Y-120729418D01*
X202871408Y-120563791D01*
X202871412Y-120563786D01*
X202871417Y-120563783D01*
X203063783Y-120371417D01*
X203063786Y-120371412D01*
X203063791Y-120371408D01*
X203229418Y-120155560D01*
X203365453Y-119919940D01*
X203469570Y-119668579D01*
X203539987Y-119405779D01*
X203575500Y-119136035D01*
X203575500Y-118863965D01*
X203539987Y-118594221D01*
X203469570Y-118331421D01*
X203365453Y-118080060D01*
X203229418Y-117844440D01*
X203191299Y-117794763D01*
X203102303Y-117678782D01*
X203063791Y-117628592D01*
X203063790Y-117628591D01*
X203063783Y-117628583D01*
X202871417Y-117436217D01*
X202871408Y-117436209D01*
X202655570Y-117270589D01*
X202655564Y-117270585D01*
X202655560Y-117270582D01*
X202459675Y-117157488D01*
X202419942Y-117134548D01*
X202419933Y-117134544D01*
X202168581Y-117030430D01*
X202019498Y-116990484D01*
X201905779Y-116960013D01*
X201840517Y-116951421D01*
X201636042Y-116924500D01*
X201636035Y-116924500D01*
X201363965Y-116924500D01*
X201363957Y-116924500D01*
X201124192Y-116956067D01*
X201094221Y-116960013D01*
X201028521Y-116977617D01*
X200831418Y-117030430D01*
X200580066Y-117134544D01*
X200580057Y-117134548D01*
X200344446Y-117270578D01*
X200344429Y-117270589D01*
X200128591Y-117436209D01*
X199936209Y-117628591D01*
X199770589Y-117844429D01*
X199770578Y-117844446D01*
X199634548Y-118080057D01*
X199634544Y-118080066D01*
X199530430Y-118331418D01*
X199460013Y-118594222D01*
X199424500Y-118863957D01*
X152975964Y-118863957D01*
X153067696Y-118772225D01*
X154303102Y-117536819D01*
X154364425Y-117503334D01*
X154390783Y-117500500D01*
X156598543Y-117500500D01*
X156728582Y-117474632D01*
X156791835Y-117462051D01*
X156973914Y-117386632D01*
X157137782Y-117277139D01*
X157277139Y-117137782D01*
X157386632Y-116973914D01*
X157418222Y-116897648D01*
X170389500Y-116897648D01*
X170389500Y-117102352D01*
X170392158Y-117119134D01*
X170421522Y-117304534D01*
X170484781Y-117499223D01*
X170515244Y-117559008D01*
X170577585Y-117681359D01*
X170577715Y-117681613D01*
X170698028Y-117847213D01*
X170842786Y-117991971D01*
X170964033Y-118080060D01*
X171008390Y-118112287D01*
X171124607Y-118171503D01*
X171190776Y-118205218D01*
X171190778Y-118205218D01*
X171190781Y-118205220D01*
X171295137Y-118239127D01*
X171385465Y-118268477D01*
X171486557Y-118284488D01*
X171587648Y-118300500D01*
X171587649Y-118300500D01*
X171792351Y-118300500D01*
X171792352Y-118300500D01*
X171994534Y-118268477D01*
X172189219Y-118205220D01*
X172371610Y-118112287D01*
X172502889Y-118016908D01*
X172537213Y-117991971D01*
X172537215Y-117991968D01*
X172537219Y-117991966D01*
X172681966Y-117847219D01*
X172681968Y-117847215D01*
X172681971Y-117847213D01*
X172764595Y-117733489D01*
X172802287Y-117681610D01*
X172895220Y-117499219D01*
X172958477Y-117304534D01*
X172990500Y-117102352D01*
X172990500Y-116897682D01*
X178010000Y-116897682D01*
X178010000Y-117102317D01*
X178042009Y-117304417D01*
X178105244Y-117499031D01*
X178198141Y-117681350D01*
X178198147Y-117681359D01*
X178230523Y-117725921D01*
X178230524Y-117725922D01*
X178910000Y-117046446D01*
X178910000Y-117052661D01*
X178937259Y-117154394D01*
X178989920Y-117245606D01*
X179064394Y-117320080D01*
X179155606Y-117372741D01*
X179257339Y-117400000D01*
X179263553Y-117400000D01*
X178584076Y-118079474D01*
X178628650Y-118111859D01*
X178810968Y-118204755D01*
X179005582Y-118267990D01*
X179207683Y-118300000D01*
X179412317Y-118300000D01*
X179614417Y-118267990D01*
X179809031Y-118204755D01*
X179991349Y-118111859D01*
X180035921Y-118079474D01*
X179356447Y-117400000D01*
X179362661Y-117400000D01*
X179464394Y-117372741D01*
X179555606Y-117320080D01*
X179630080Y-117245606D01*
X179682741Y-117154394D01*
X179710000Y-117052661D01*
X179710000Y-117046448D01*
X180389474Y-117725922D01*
X180389474Y-117725921D01*
X180421859Y-117681349D01*
X180514755Y-117499031D01*
X180577990Y-117304417D01*
X180610000Y-117102317D01*
X180610000Y-116897682D01*
X180577990Y-116695582D01*
X180514755Y-116500968D01*
X180421859Y-116318650D01*
X180389474Y-116274077D01*
X180389474Y-116274076D01*
X179710000Y-116953551D01*
X179710000Y-116947339D01*
X179682741Y-116845606D01*
X179630080Y-116754394D01*
X179555606Y-116679920D01*
X179464394Y-116627259D01*
X179362661Y-116600000D01*
X179356446Y-116600000D01*
X180035922Y-115920524D01*
X180035921Y-115920523D01*
X179991359Y-115888147D01*
X179991350Y-115888141D01*
X179809031Y-115795244D01*
X179614417Y-115732009D01*
X179412317Y-115700000D01*
X179207683Y-115700000D01*
X179005582Y-115732009D01*
X178810968Y-115795244D01*
X178628644Y-115888143D01*
X178584077Y-115920523D01*
X178584077Y-115920524D01*
X179263554Y-116600000D01*
X179257339Y-116600000D01*
X179155606Y-116627259D01*
X179064394Y-116679920D01*
X178989920Y-116754394D01*
X178937259Y-116845606D01*
X178910000Y-116947339D01*
X178910000Y-116953553D01*
X178230524Y-116274077D01*
X178230523Y-116274077D01*
X178198143Y-116318644D01*
X178105244Y-116500968D01*
X178042009Y-116695582D01*
X178010000Y-116897682D01*
X172990500Y-116897682D01*
X172990500Y-116897648D01*
X172969440Y-116764682D01*
X172958477Y-116695465D01*
X172918526Y-116572510D01*
X172895220Y-116500781D01*
X172895218Y-116500778D01*
X172895218Y-116500776D01*
X172802419Y-116318650D01*
X172802287Y-116318390D01*
X172770092Y-116274077D01*
X172681971Y-116152786D01*
X172537213Y-116008028D01*
X172371613Y-115887715D01*
X172371612Y-115887714D01*
X172371610Y-115887713D01*
X172314653Y-115858691D01*
X172189223Y-115794781D01*
X171994534Y-115731522D01*
X171819995Y-115703878D01*
X171792352Y-115699500D01*
X171587648Y-115699500D01*
X171563329Y-115703351D01*
X171385465Y-115731522D01*
X171190776Y-115794781D01*
X171008386Y-115887715D01*
X170842786Y-116008028D01*
X170698028Y-116152786D01*
X170577715Y-116318386D01*
X170484781Y-116500776D01*
X170421522Y-116695465D01*
X170394671Y-116865000D01*
X170389500Y-116897648D01*
X157418222Y-116897648D01*
X157462051Y-116791835D01*
X157481220Y-116695466D01*
X157500500Y-116598543D01*
X157500500Y-116401456D01*
X157462052Y-116208170D01*
X157462051Y-116208169D01*
X157462051Y-116208165D01*
X157439506Y-116153735D01*
X157386635Y-116026092D01*
X157386628Y-116026079D01*
X157277139Y-115862218D01*
X157277136Y-115862214D01*
X157137785Y-115722863D01*
X157137781Y-115722860D01*
X156973916Y-115613369D01*
X156973907Y-115613364D01*
X156791839Y-115537950D01*
X156791829Y-115537947D01*
X156598543Y-115499500D01*
X156598541Y-115499500D01*
X154029675Y-115499500D01*
X154029655Y-115499499D01*
X154023541Y-115499499D01*
X153826460Y-115499499D01*
X153826457Y-115499499D01*
X153633172Y-115537946D01*
X153633164Y-115537948D01*
X153451088Y-115613366D01*
X153451079Y-115613371D01*
X153287219Y-115722859D01*
X153287215Y-115722862D01*
X151359797Y-117650281D01*
X151298474Y-117683766D01*
X151228782Y-117678782D01*
X151172849Y-117636910D01*
X151154185Y-117600918D01*
X151140568Y-117559008D01*
X151033343Y-117348567D01*
X150894517Y-117157490D01*
X150727510Y-116990483D01*
X150726447Y-116989711D01*
X150704705Y-116973914D01*
X150692872Y-116965317D01*
X150650207Y-116909989D01*
X150644228Y-116840375D01*
X150676833Y-116778580D01*
X150692873Y-116764682D01*
X150727510Y-116739517D01*
X150894517Y-116572510D01*
X151033343Y-116381433D01*
X151140568Y-116170992D01*
X151213553Y-115946368D01*
X151217646Y-115920524D01*
X151250500Y-115713097D01*
X151250500Y-115476902D01*
X151213553Y-115243631D01*
X151147551Y-115040500D01*
X151140568Y-115019008D01*
X151140566Y-115019005D01*
X151140566Y-115019003D01*
X151033342Y-114808566D01*
X150995839Y-114756948D01*
X150894517Y-114617490D01*
X150727510Y-114450483D01*
X150692872Y-114425317D01*
X150650207Y-114369989D01*
X150644228Y-114300375D01*
X150676833Y-114238580D01*
X150692873Y-114224682D01*
X150727510Y-114199517D01*
X150894517Y-114032510D01*
X151033343Y-113841433D01*
X151140568Y-113630992D01*
X151213553Y-113406368D01*
X151241717Y-113228549D01*
X186799500Y-113228549D01*
X186799500Y-113451450D01*
X186799501Y-113451466D01*
X186828594Y-113672452D01*
X186828595Y-113672457D01*
X186828596Y-113672463D01*
X186883985Y-113879179D01*
X186886290Y-113887780D01*
X186886293Y-113887790D01*
X186946239Y-114032511D01*
X186971595Y-114093726D01*
X187083052Y-114286774D01*
X187083057Y-114286780D01*
X187083058Y-114286782D01*
X187218751Y-114463622D01*
X187218757Y-114463629D01*
X187376370Y-114621242D01*
X187376376Y-114621247D01*
X187553226Y-114756948D01*
X187746274Y-114868405D01*
X187952219Y-114953710D01*
X188167537Y-115011404D01*
X188388543Y-115040500D01*
X188388550Y-115040500D01*
X188611450Y-115040500D01*
X188611457Y-115040500D01*
X188832463Y-115011404D01*
X189047781Y-114953710D01*
X189253726Y-114868405D01*
X189446774Y-114756948D01*
X189623624Y-114621247D01*
X189781247Y-114463624D01*
X189916948Y-114286774D01*
X190028405Y-114093726D01*
X190113710Y-113887781D01*
X190171404Y-113672463D01*
X190200500Y-113451457D01*
X190200500Y-113228543D01*
X190171404Y-113007537D01*
X190132932Y-112863957D01*
X199424500Y-112863957D01*
X199424500Y-113136042D01*
X199452121Y-113345835D01*
X199460013Y-113405779D01*
X199472255Y-113451466D01*
X199530430Y-113668581D01*
X199602028Y-113841433D01*
X199634547Y-113919940D01*
X199770582Y-114155560D01*
X199770585Y-114155564D01*
X199770589Y-114155570D01*
X199936209Y-114371408D01*
X199936217Y-114371417D01*
X200128583Y-114563783D01*
X200128591Y-114563790D01*
X200344429Y-114729410D01*
X200344432Y-114729412D01*
X200344440Y-114729418D01*
X200580060Y-114865453D01*
X200747634Y-114934864D01*
X200831418Y-114969569D01*
X200831419Y-114969569D01*
X200831421Y-114969570D01*
X201094221Y-115039987D01*
X201363965Y-115075500D01*
X201363972Y-115075500D01*
X201636028Y-115075500D01*
X201636035Y-115075500D01*
X201905779Y-115039987D01*
X202168579Y-114969570D01*
X202419940Y-114865453D01*
X202655560Y-114729418D01*
X202871408Y-114563791D01*
X202871412Y-114563786D01*
X202871417Y-114563783D01*
X203063783Y-114371417D01*
X203063786Y-114371412D01*
X203063791Y-114371408D01*
X203229418Y-114155560D01*
X203365453Y-113919940D01*
X203469570Y-113668579D01*
X203539987Y-113405779D01*
X203575500Y-113136035D01*
X203575500Y-112863965D01*
X203539987Y-112594221D01*
X203469570Y-112331421D01*
X203365453Y-112080060D01*
X203229418Y-111844440D01*
X203218329Y-111829989D01*
X203063790Y-111628591D01*
X203063783Y-111628583D01*
X202871417Y-111436217D01*
X202871408Y-111436209D01*
X202655570Y-111270589D01*
X202655564Y-111270585D01*
X202655560Y-111270582D01*
X202419940Y-111134547D01*
X202386817Y-111120827D01*
X202168581Y-111030430D01*
X202037179Y-110995221D01*
X201905779Y-110960013D01*
X201845835Y-110952121D01*
X201636042Y-110924500D01*
X201636035Y-110924500D01*
X201363965Y-110924500D01*
X201363957Y-110924500D01*
X201124192Y-110956067D01*
X201094221Y-110960013D01*
X201028521Y-110977617D01*
X200831418Y-111030430D01*
X200580066Y-111134544D01*
X200580057Y-111134548D01*
X200344446Y-111270578D01*
X200344429Y-111270589D01*
X200128591Y-111436209D01*
X199936209Y-111628591D01*
X199770589Y-111844429D01*
X199770578Y-111844446D01*
X199634548Y-112080057D01*
X199634544Y-112080066D01*
X199530430Y-112331418D01*
X199490884Y-112479008D01*
X199462143Y-112586274D01*
X199460013Y-112594222D01*
X199424500Y-112863957D01*
X190132932Y-112863957D01*
X190113710Y-112792219D01*
X190028405Y-112586274D01*
X189916948Y-112393226D01*
X189781247Y-112216376D01*
X189781242Y-112216370D01*
X189623629Y-112058757D01*
X189623622Y-112058751D01*
X189446782Y-111923058D01*
X189446780Y-111923057D01*
X189446774Y-111923052D01*
X189253726Y-111811595D01*
X189253722Y-111811593D01*
X189047790Y-111726293D01*
X189047783Y-111726291D01*
X189047781Y-111726290D01*
X188832463Y-111668596D01*
X188832457Y-111668595D01*
X188832452Y-111668594D01*
X188611466Y-111639501D01*
X188611463Y-111639500D01*
X188611457Y-111639500D01*
X188388543Y-111639500D01*
X188388537Y-111639500D01*
X188388533Y-111639501D01*
X188167547Y-111668594D01*
X188167540Y-111668595D01*
X188167537Y-111668596D01*
X188107503Y-111684682D01*
X187952219Y-111726290D01*
X187952209Y-111726293D01*
X187746277Y-111811593D01*
X187746273Y-111811595D01*
X187553226Y-111923052D01*
X187553217Y-111923058D01*
X187376377Y-112058751D01*
X187376370Y-112058757D01*
X187218757Y-112216370D01*
X187218751Y-112216377D01*
X187083058Y-112393217D01*
X187083052Y-112393226D01*
X186971595Y-112586273D01*
X186971593Y-112586277D01*
X186886293Y-112792209D01*
X186886290Y-112792219D01*
X186833373Y-112989711D01*
X186828597Y-113007534D01*
X186828594Y-113007547D01*
X186799501Y-113228533D01*
X186799500Y-113228549D01*
X151241717Y-113228549D01*
X151245433Y-113205086D01*
X151245433Y-113205084D01*
X151250500Y-113173094D01*
X151250500Y-112936902D01*
X151213553Y-112703631D01*
X151140566Y-112479003D01*
X151033342Y-112268566D01*
X150894517Y-112077490D01*
X150727510Y-111910483D01*
X150692872Y-111885317D01*
X150650207Y-111829989D01*
X150644228Y-111760375D01*
X150676833Y-111698580D01*
X150692873Y-111684682D01*
X150715012Y-111668597D01*
X150727510Y-111659517D01*
X150894517Y-111492510D01*
X151033343Y-111301433D01*
X151140568Y-111090992D01*
X151213553Y-110866368D01*
X151225552Y-110790609D01*
X151250500Y-110633097D01*
X151250500Y-110396902D01*
X151213553Y-110163631D01*
X151140566Y-109939003D01*
X151033342Y-109728566D01*
X150894517Y-109537490D01*
X150727510Y-109370483D01*
X150692872Y-109345317D01*
X150650207Y-109289989D01*
X150644228Y-109220375D01*
X150676833Y-109158580D01*
X150692873Y-109144682D01*
X150727510Y-109119517D01*
X150894517Y-108952510D01*
X151033343Y-108761433D01*
X151140568Y-108550992D01*
X151213553Y-108326368D01*
X151222522Y-108269738D01*
X151250500Y-108093097D01*
X151250500Y-107856902D01*
X151213553Y-107623631D01*
X151147763Y-107421153D01*
X151140568Y-107399008D01*
X151140566Y-107399005D01*
X151140566Y-107399003D01*
X151084002Y-107287991D01*
X151033343Y-107188567D01*
X150894517Y-106997490D01*
X150727510Y-106830483D01*
X150692872Y-106805317D01*
X150650207Y-106749989D01*
X150644228Y-106680375D01*
X150676833Y-106618580D01*
X150692873Y-106604682D01*
X150727510Y-106579517D01*
X150807043Y-106499984D01*
X173475541Y-106499984D01*
X173475541Y-108500015D01*
X173486041Y-108602795D01*
X173486042Y-108602797D01*
X173492015Y-108620821D01*
X173541227Y-108769335D01*
X173541228Y-108769337D01*
X173633327Y-108918651D01*
X173633330Y-108918655D01*
X173757385Y-109042710D01*
X173757389Y-109042713D01*
X173906703Y-109134812D01*
X173906705Y-109134813D01*
X173906707Y-109134814D01*
X174073244Y-109189999D01*
X174176033Y-109200500D01*
X174176038Y-109200500D01*
X176176044Y-109200500D01*
X176176049Y-109200500D01*
X176278838Y-109189999D01*
X176445375Y-109134814D01*
X176594696Y-109042711D01*
X176718752Y-108918655D01*
X176773576Y-108829770D01*
X176810851Y-108769341D01*
X176810851Y-108769339D01*
X176810855Y-108769334D01*
X176866040Y-108602797D01*
X176876541Y-108500008D01*
X176876541Y-107388575D01*
X178476041Y-107388575D01*
X178476041Y-107611424D01*
X178505126Y-107832354D01*
X178505129Y-107832367D01*
X178562804Y-108047618D01*
X178648086Y-108253502D01*
X178648095Y-108253520D01*
X178759505Y-108446491D01*
X178759514Y-108446504D01*
X178810081Y-108512403D01*
X178810084Y-108512403D01*
X179611428Y-107711059D01*
X179616930Y-107731591D01*
X179695922Y-107868408D01*
X179807633Y-107980119D01*
X179944450Y-108059111D01*
X179964981Y-108064612D01*
X179163636Y-108865955D01*
X179163636Y-108865956D01*
X179229548Y-108916533D01*
X179422526Y-109027949D01*
X179422538Y-109027954D01*
X179628422Y-109113236D01*
X179843673Y-109170911D01*
X179843686Y-109170914D01*
X180064616Y-109200000D01*
X180287466Y-109200000D01*
X180508395Y-109170914D01*
X180508408Y-109170911D01*
X180723659Y-109113236D01*
X180929543Y-109027954D01*
X180929555Y-109027949D01*
X181122539Y-108916530D01*
X181188444Y-108865957D01*
X181188445Y-108865956D01*
X180387100Y-108064612D01*
X180407632Y-108059111D01*
X180544449Y-107980119D01*
X180656160Y-107868408D01*
X180735152Y-107731591D01*
X180740653Y-107711059D01*
X181541997Y-108512404D01*
X181541998Y-108512403D01*
X181592571Y-108446498D01*
X181703990Y-108253514D01*
X181703995Y-108253502D01*
X181789277Y-108047618D01*
X181846952Y-107832367D01*
X181846955Y-107832354D01*
X181876041Y-107611424D01*
X181876041Y-107397648D01*
X186579500Y-107397648D01*
X186579500Y-107602352D01*
X186583878Y-107629995D01*
X186611522Y-107804534D01*
X186674781Y-107999223D01*
X186737231Y-108121786D01*
X186767585Y-108181359D01*
X186767715Y-108181613D01*
X186888028Y-108347213D01*
X187032786Y-108491971D01*
X187114029Y-108550996D01*
X187198390Y-108612287D01*
X187314607Y-108671503D01*
X187380776Y-108705218D01*
X187380778Y-108705218D01*
X187380781Y-108705220D01*
X187485137Y-108739127D01*
X187575465Y-108768477D01*
X187676557Y-108784488D01*
X187777648Y-108800500D01*
X187777649Y-108800500D01*
X187982351Y-108800500D01*
X187982352Y-108800500D01*
X188184534Y-108768477D01*
X188379219Y-108705220D01*
X188561610Y-108612287D01*
X188654590Y-108544732D01*
X188727213Y-108491971D01*
X188727215Y-108491968D01*
X188727219Y-108491966D01*
X188871966Y-108347219D01*
X188871968Y-108347215D01*
X188871971Y-108347213D01*
X188928259Y-108269738D01*
X188992287Y-108181610D01*
X189085220Y-107999219D01*
X189148477Y-107804534D01*
X189180500Y-107602352D01*
X189180500Y-107397682D01*
X194200000Y-107397682D01*
X194200000Y-107602317D01*
X194232009Y-107804417D01*
X194295244Y-107999031D01*
X194388141Y-108181350D01*
X194388147Y-108181359D01*
X194420523Y-108225921D01*
X194420524Y-108225922D01*
X195100000Y-107546446D01*
X195100000Y-107552661D01*
X195127259Y-107654394D01*
X195179920Y-107745606D01*
X195254394Y-107820080D01*
X195345606Y-107872741D01*
X195447339Y-107900000D01*
X195453553Y-107900000D01*
X194774076Y-108579474D01*
X194818650Y-108611859D01*
X195000968Y-108704755D01*
X195195582Y-108767990D01*
X195397683Y-108800000D01*
X195602317Y-108800000D01*
X195804417Y-108767990D01*
X195999031Y-108704755D01*
X196181349Y-108611859D01*
X196225921Y-108579474D01*
X195546447Y-107900000D01*
X195552661Y-107900000D01*
X195654394Y-107872741D01*
X195745606Y-107820080D01*
X195820080Y-107745606D01*
X195872741Y-107654394D01*
X195900000Y-107552661D01*
X195900000Y-107546447D01*
X196579474Y-108225921D01*
X196611859Y-108181349D01*
X196704755Y-107999031D01*
X196767990Y-107804417D01*
X196800000Y-107602317D01*
X196800000Y-107397682D01*
X196767990Y-107195582D01*
X196704755Y-107000968D01*
X196611859Y-106818650D01*
X196579474Y-106774077D01*
X196579474Y-106774076D01*
X195900000Y-107453551D01*
X195900000Y-107447339D01*
X195872741Y-107345606D01*
X195820080Y-107254394D01*
X195745606Y-107179920D01*
X195654394Y-107127259D01*
X195552661Y-107100000D01*
X195546446Y-107100000D01*
X196225922Y-106420524D01*
X196225921Y-106420523D01*
X196181359Y-106388147D01*
X196181350Y-106388141D01*
X195999031Y-106295244D01*
X195804417Y-106232009D01*
X195602317Y-106200000D01*
X195397683Y-106200000D01*
X195195582Y-106232009D01*
X195000968Y-106295244D01*
X194818644Y-106388143D01*
X194774077Y-106420523D01*
X194774077Y-106420524D01*
X195453554Y-107100000D01*
X195447339Y-107100000D01*
X195345606Y-107127259D01*
X195254394Y-107179920D01*
X195179920Y-107254394D01*
X195127259Y-107345606D01*
X195100000Y-107447339D01*
X195100000Y-107453553D01*
X194420524Y-106774077D01*
X194420523Y-106774077D01*
X194388143Y-106818644D01*
X194295244Y-107000968D01*
X194232009Y-107195582D01*
X194200000Y-107397682D01*
X189180500Y-107397682D01*
X189180500Y-107397648D01*
X189160030Y-107268409D01*
X189148477Y-107195465D01*
X189091426Y-107019881D01*
X189085220Y-107000781D01*
X189085218Y-107000778D01*
X189085218Y-107000776D01*
X189022767Y-106878211D01*
X188992287Y-106818390D01*
X188960092Y-106774077D01*
X188871971Y-106652786D01*
X188727213Y-106508028D01*
X188561613Y-106387715D01*
X188561612Y-106387714D01*
X188561610Y-106387713D01*
X188504653Y-106358691D01*
X188379223Y-106294781D01*
X188184534Y-106231522D01*
X188009995Y-106203878D01*
X187982352Y-106199500D01*
X187777648Y-106199500D01*
X187753329Y-106203351D01*
X187575465Y-106231522D01*
X187380776Y-106294781D01*
X187198386Y-106387715D01*
X187032786Y-106508028D01*
X186888028Y-106652786D01*
X186767715Y-106818386D01*
X186674781Y-107000776D01*
X186611522Y-107195465D01*
X186580937Y-107388575D01*
X186579500Y-107397648D01*
X181876041Y-107397648D01*
X181876041Y-107388575D01*
X181846955Y-107167645D01*
X181846952Y-107167632D01*
X181789277Y-106952381D01*
X181703995Y-106746497D01*
X181703990Y-106746485D01*
X181592574Y-106553507D01*
X181541997Y-106487595D01*
X181541996Y-106487595D01*
X180740653Y-107288939D01*
X180735152Y-107268409D01*
X180656160Y-107131592D01*
X180544449Y-107019881D01*
X180407632Y-106940889D01*
X180387099Y-106935387D01*
X181188444Y-106134043D01*
X181188444Y-106134040D01*
X181122545Y-106083473D01*
X181122532Y-106083464D01*
X180929561Y-105972054D01*
X180929543Y-105972045D01*
X180723659Y-105886763D01*
X180508408Y-105829088D01*
X180508395Y-105829085D01*
X180287466Y-105800000D01*
X180064616Y-105800000D01*
X179843686Y-105829085D01*
X179843673Y-105829088D01*
X179628422Y-105886763D01*
X179422538Y-105972045D01*
X179422520Y-105972054D01*
X179229552Y-106083462D01*
X179163636Y-106134042D01*
X179964982Y-106935387D01*
X179944450Y-106940889D01*
X179807633Y-107019881D01*
X179695922Y-107131592D01*
X179616930Y-107268409D01*
X179611428Y-107288940D01*
X178810083Y-106487595D01*
X178759503Y-106553511D01*
X178648095Y-106746479D01*
X178648086Y-106746497D01*
X178562804Y-106952381D01*
X178505129Y-107167632D01*
X178505126Y-107167645D01*
X178476041Y-107388575D01*
X176876541Y-107388575D01*
X176876541Y-106499992D01*
X176866040Y-106397203D01*
X176810855Y-106230666D01*
X176791940Y-106200000D01*
X176718754Y-106081348D01*
X176718751Y-106081344D01*
X176594696Y-105957289D01*
X176594692Y-105957286D01*
X176445378Y-105865187D01*
X176445376Y-105865186D01*
X176362106Y-105837593D01*
X176278838Y-105810001D01*
X176278836Y-105810000D01*
X176176056Y-105799500D01*
X176176049Y-105799500D01*
X174176033Y-105799500D01*
X174176025Y-105799500D01*
X174073245Y-105810000D01*
X174073244Y-105810001D01*
X173906705Y-105865186D01*
X173906703Y-105865187D01*
X173757389Y-105957286D01*
X173757385Y-105957289D01*
X173633330Y-106081344D01*
X173633327Y-106081348D01*
X173541228Y-106230662D01*
X173541227Y-106230664D01*
X173486042Y-106397203D01*
X173486041Y-106397204D01*
X173475541Y-106499984D01*
X150807043Y-106499984D01*
X150894517Y-106412510D01*
X151033343Y-106221433D01*
X151140568Y-106010992D01*
X151213553Y-105786368D01*
X151221928Y-105733489D01*
X151250500Y-105553097D01*
X151250500Y-105316902D01*
X151213553Y-105083631D01*
X151140566Y-104859003D01*
X151074968Y-104730261D01*
X151033343Y-104648567D01*
X150894517Y-104457490D01*
X150727510Y-104290483D01*
X150692872Y-104265317D01*
X150650207Y-104209989D01*
X150644228Y-104140375D01*
X150676833Y-104078580D01*
X150692873Y-104064682D01*
X150727510Y-104039517D01*
X150894517Y-103872510D01*
X151033343Y-103681433D01*
X151140568Y-103470992D01*
X151213553Y-103246368D01*
X151250500Y-103013097D01*
X151250500Y-102776902D01*
X151213553Y-102543631D01*
X151169682Y-102408611D01*
X151140568Y-102319008D01*
X151140566Y-102319005D01*
X151140566Y-102319003D01*
X151084002Y-102207991D01*
X151033343Y-102108567D01*
X150894517Y-101917490D01*
X150727510Y-101750483D01*
X150692872Y-101725317D01*
X150650207Y-101669989D01*
X150644228Y-101600375D01*
X150676833Y-101538580D01*
X150692873Y-101524682D01*
X150707731Y-101513887D01*
X150727510Y-101499517D01*
X150894517Y-101332510D01*
X151033343Y-101141433D01*
X151140568Y-100930992D01*
X151160752Y-100868872D01*
X185299500Y-100868872D01*
X185299500Y-101131127D01*
X185320711Y-101292229D01*
X185333730Y-101391116D01*
X185369519Y-101524682D01*
X185401602Y-101644418D01*
X185401605Y-101644428D01*
X185501953Y-101886690D01*
X185501958Y-101886700D01*
X185633075Y-102113803D01*
X185792718Y-102321851D01*
X185792726Y-102321860D01*
X185978140Y-102507274D01*
X185978148Y-102507281D01*
X186186196Y-102666924D01*
X186413299Y-102798041D01*
X186413309Y-102798046D01*
X186655571Y-102898394D01*
X186655581Y-102898398D01*
X186908884Y-102966270D01*
X187168880Y-103000500D01*
X187168887Y-103000500D01*
X187431113Y-103000500D01*
X187431120Y-103000500D01*
X187691116Y-102966270D01*
X187944419Y-102898398D01*
X188186697Y-102798043D01*
X188413803Y-102666924D01*
X188621851Y-102507282D01*
X188621855Y-102507277D01*
X188621860Y-102507274D01*
X188807274Y-102321860D01*
X188807277Y-102321855D01*
X188807282Y-102321851D01*
X188966924Y-102113803D01*
X189098043Y-101886697D01*
X189198398Y-101644419D01*
X189266270Y-101391116D01*
X189300500Y-101131120D01*
X189300500Y-100868880D01*
X189296073Y-100835258D01*
X197799500Y-100835258D01*
X197799500Y-101064741D01*
X197824446Y-101254215D01*
X197829452Y-101292238D01*
X197855946Y-101391116D01*
X197888842Y-101513887D01*
X197976650Y-101725876D01*
X197976657Y-101725890D01*
X198091392Y-101924617D01*
X198231081Y-102106661D01*
X198231089Y-102106670D01*
X198393330Y-102268911D01*
X198393338Y-102268918D01*
X198575382Y-102408607D01*
X198575385Y-102408608D01*
X198575388Y-102408611D01*
X198774112Y-102523344D01*
X198774117Y-102523346D01*
X198774123Y-102523349D01*
X198823091Y-102543632D01*
X198986113Y-102611158D01*
X199207762Y-102670548D01*
X199435266Y-102700500D01*
X199435273Y-102700500D01*
X199664727Y-102700500D01*
X199664734Y-102700500D01*
X199892238Y-102670548D01*
X200113887Y-102611158D01*
X200325888Y-102523344D01*
X200524612Y-102408611D01*
X200706661Y-102268919D01*
X200706665Y-102268914D01*
X200706670Y-102268911D01*
X200868911Y-102106670D01*
X200868914Y-102106665D01*
X200868919Y-102106661D01*
X201008611Y-101924612D01*
X201123344Y-101725888D01*
X201211158Y-101513887D01*
X201270548Y-101292238D01*
X201300500Y-101064734D01*
X201300500Y-100835266D01*
X201270548Y-100607762D01*
X201211158Y-100386113D01*
X201123344Y-100174112D01*
X201008611Y-99975388D01*
X201008608Y-99975385D01*
X201008607Y-99975382D01*
X200868918Y-99793338D01*
X200868911Y-99793330D01*
X200706670Y-99631089D01*
X200706661Y-99631081D01*
X200524617Y-99491392D01*
X200450961Y-99448867D01*
X200440620Y-99442896D01*
X200325890Y-99376657D01*
X200325876Y-99376650D01*
X200113887Y-99288842D01*
X199892238Y-99229452D01*
X199854215Y-99224446D01*
X199664741Y-99199500D01*
X199664734Y-99199500D01*
X199435266Y-99199500D01*
X199435258Y-99199500D01*
X199218715Y-99228009D01*
X199207762Y-99229452D01*
X199114076Y-99254554D01*
X198986112Y-99288842D01*
X198774123Y-99376650D01*
X198774109Y-99376657D01*
X198575382Y-99491392D01*
X198393338Y-99631081D01*
X198231081Y-99793338D01*
X198091392Y-99975382D01*
X197976657Y-100174109D01*
X197976650Y-100174123D01*
X197888842Y-100386112D01*
X197829453Y-100607759D01*
X197829451Y-100607770D01*
X197799500Y-100835258D01*
X189296073Y-100835258D01*
X189266270Y-100608884D01*
X189198398Y-100355581D01*
X189149242Y-100236908D01*
X189098046Y-100113309D01*
X189098041Y-100113299D01*
X188966924Y-99886196D01*
X188807281Y-99678148D01*
X188807274Y-99678140D01*
X188621860Y-99492726D01*
X188621851Y-99492718D01*
X188413803Y-99333075D01*
X188186700Y-99201958D01*
X188186690Y-99201953D01*
X187944428Y-99101605D01*
X187944421Y-99101603D01*
X187944419Y-99101602D01*
X187691116Y-99033730D01*
X187633339Y-99026123D01*
X187431127Y-98999500D01*
X187431120Y-98999500D01*
X187168880Y-98999500D01*
X187168872Y-98999500D01*
X186937772Y-99029926D01*
X186908884Y-99033730D01*
X186717541Y-99085000D01*
X186655581Y-99101602D01*
X186655571Y-99101605D01*
X186413309Y-99201953D01*
X186413299Y-99201958D01*
X186186196Y-99333075D01*
X185978148Y-99492718D01*
X185792718Y-99678148D01*
X185633075Y-99886196D01*
X185501958Y-100113299D01*
X185501953Y-100113309D01*
X185401605Y-100355571D01*
X185401602Y-100355581D01*
X185334029Y-100607770D01*
X185333730Y-100608885D01*
X185299500Y-100868872D01*
X151160752Y-100868872D01*
X151213553Y-100706368D01*
X151232588Y-100586184D01*
X151250500Y-100473097D01*
X151250500Y-100236902D01*
X151213553Y-100003631D01*
X151145224Y-99793338D01*
X151140568Y-99779008D01*
X151140566Y-99779005D01*
X151140566Y-99779003D01*
X151070295Y-99641089D01*
X151033343Y-99568567D01*
X150894517Y-99377490D01*
X150727510Y-99210483D01*
X150692872Y-99185317D01*
X150650207Y-99129989D01*
X150644228Y-99060375D01*
X150676833Y-98998580D01*
X150692873Y-98984682D01*
X150727510Y-98959517D01*
X150894517Y-98792510D01*
X151033343Y-98601433D01*
X151140568Y-98390992D01*
X151200140Y-98207648D01*
X173199500Y-98207648D01*
X173199500Y-98412351D01*
X173231522Y-98614534D01*
X173294781Y-98809223D01*
X173387715Y-98991613D01*
X173508028Y-99157213D01*
X173652786Y-99301971D01*
X173807749Y-99414556D01*
X173818390Y-99422287D01*
X173934607Y-99481503D01*
X174000776Y-99515218D01*
X174000778Y-99515218D01*
X174000781Y-99515220D01*
X174105137Y-99549127D01*
X174195465Y-99578477D01*
X174296557Y-99594488D01*
X174397648Y-99610500D01*
X174397649Y-99610500D01*
X174602351Y-99610500D01*
X174602352Y-99610500D01*
X174804534Y-99578477D01*
X174999219Y-99515220D01*
X175181610Y-99422287D01*
X175274590Y-99354732D01*
X175347213Y-99301971D01*
X175347215Y-99301968D01*
X175347219Y-99301966D01*
X175491966Y-99157219D01*
X175491968Y-99157215D01*
X175491971Y-99157213D01*
X175544732Y-99084590D01*
X175612287Y-98991610D01*
X175705220Y-98809219D01*
X175768477Y-98614534D01*
X175800500Y-98412352D01*
X175800500Y-98207648D01*
X175768477Y-98005466D01*
X175768476Y-98005462D01*
X175768476Y-98005461D01*
X175762635Y-97987484D01*
X175751768Y-97954038D01*
X178899500Y-97954038D01*
X178899500Y-98205961D01*
X178938910Y-98454785D01*
X179016760Y-98694383D01*
X179131132Y-98918848D01*
X179279201Y-99122649D01*
X179279205Y-99122654D01*
X179457345Y-99300794D01*
X179457350Y-99300798D01*
X179635117Y-99429952D01*
X179661155Y-99448870D01*
X179804184Y-99521747D01*
X179885616Y-99563239D01*
X179885618Y-99563239D01*
X179885621Y-99563241D01*
X180125215Y-99641090D01*
X180374038Y-99680500D01*
X180374039Y-99680500D01*
X180625961Y-99680500D01*
X180625962Y-99680500D01*
X180874785Y-99641090D01*
X181114379Y-99563241D01*
X181338845Y-99448870D01*
X181542656Y-99300793D01*
X181720793Y-99122656D01*
X181868870Y-98918845D01*
X181983241Y-98694379D01*
X182061090Y-98454785D01*
X182100500Y-98205962D01*
X182100500Y-97954038D01*
X182061090Y-97705215D01*
X181983241Y-97465621D01*
X181983239Y-97465618D01*
X181983239Y-97465616D01*
X181941747Y-97384184D01*
X181868870Y-97241155D01*
X181769788Y-97104780D01*
X181720798Y-97037350D01*
X181720794Y-97037345D01*
X181542654Y-96859205D01*
X181542649Y-96859201D01*
X181338848Y-96711132D01*
X181338847Y-96711131D01*
X181338845Y-96711130D01*
X181252086Y-96666924D01*
X181114383Y-96596760D01*
X180874785Y-96518910D01*
X180801363Y-96507281D01*
X180625962Y-96479500D01*
X180374038Y-96479500D01*
X180259400Y-96497657D01*
X180125214Y-96518910D01*
X179885616Y-96596760D01*
X179661151Y-96711132D01*
X179457350Y-96859201D01*
X179457345Y-96859205D01*
X179279205Y-97037345D01*
X179279201Y-97037350D01*
X179131132Y-97241151D01*
X179016760Y-97465616D01*
X178938910Y-97705214D01*
X178899500Y-97954038D01*
X175751768Y-97954038D01*
X175705218Y-97810776D01*
X175651431Y-97705214D01*
X175612287Y-97628390D01*
X175604556Y-97617749D01*
X175491971Y-97462786D01*
X175347213Y-97318028D01*
X175181613Y-97197715D01*
X175181612Y-97197714D01*
X175181610Y-97197713D01*
X175124653Y-97168691D01*
X174999223Y-97104781D01*
X174804534Y-97041522D01*
X174629995Y-97013878D01*
X174602352Y-97009500D01*
X174397648Y-97009500D01*
X174373329Y-97013351D01*
X174195465Y-97041522D01*
X174000776Y-97104781D01*
X173818386Y-97197715D01*
X173652786Y-97318028D01*
X173508028Y-97462786D01*
X173387715Y-97628386D01*
X173294781Y-97810776D01*
X173231522Y-98005465D01*
X173199500Y-98207648D01*
X151200140Y-98207648D01*
X151213553Y-98166368D01*
X151219710Y-98127488D01*
X151250500Y-97933097D01*
X151250500Y-97696902D01*
X151213553Y-97463631D01*
X151166243Y-97318028D01*
X151140568Y-97239008D01*
X151140566Y-97239005D01*
X151140566Y-97239003D01*
X151039944Y-97041523D01*
X151033343Y-97028567D01*
X150894517Y-96837490D01*
X150727510Y-96670483D01*
X150722611Y-96666924D01*
X150668283Y-96627452D01*
X150625617Y-96572122D01*
X150617550Y-96517404D01*
X150619104Y-96497657D01*
X149887574Y-95766128D01*
X149946853Y-95750245D01*
X150063147Y-95683102D01*
X150158102Y-95588147D01*
X150225245Y-95471853D01*
X150241128Y-95412574D01*
X150972658Y-96144105D01*
X150972658Y-96144104D01*
X151032914Y-96061169D01*
X151032918Y-96061163D01*
X151140102Y-95850802D01*
X151213065Y-95626247D01*
X151250000Y-95393052D01*
X151250000Y-95156947D01*
X151213065Y-94923752D01*
X151206368Y-94903139D01*
X151195234Y-94868872D01*
X199499500Y-94868872D01*
X199499500Y-95131127D01*
X199526123Y-95333339D01*
X199533730Y-95391116D01*
X199586524Y-95588147D01*
X199601602Y-95644418D01*
X199601605Y-95644428D01*
X199701953Y-95886690D01*
X199701958Y-95886700D01*
X199833075Y-96113803D01*
X199992718Y-96321851D01*
X199992726Y-96321860D01*
X200178140Y-96507274D01*
X200178148Y-96507281D01*
X200178149Y-96507282D01*
X200193303Y-96518910D01*
X200386196Y-96666924D01*
X200613299Y-96798041D01*
X200613309Y-96798046D01*
X200855571Y-96898394D01*
X200855581Y-96898398D01*
X201108884Y-96966270D01*
X201368880Y-97000500D01*
X201368887Y-97000500D01*
X201631113Y-97000500D01*
X201631120Y-97000500D01*
X201891116Y-96966270D01*
X202144419Y-96898398D01*
X202386697Y-96798043D01*
X202613803Y-96666924D01*
X202821851Y-96507282D01*
X202821855Y-96507277D01*
X202821860Y-96507274D01*
X203007274Y-96321860D01*
X203007277Y-96321855D01*
X203007282Y-96321851D01*
X203166924Y-96113803D01*
X203298043Y-95886697D01*
X203398398Y-95644419D01*
X203466270Y-95391116D01*
X203500500Y-95131120D01*
X203500500Y-94868880D01*
X203466270Y-94608884D01*
X203398398Y-94355581D01*
X203375051Y-94299216D01*
X203298046Y-94113309D01*
X203298041Y-94113299D01*
X203166924Y-93886196D01*
X203007281Y-93678148D01*
X203007274Y-93678140D01*
X202821860Y-93492726D01*
X202821851Y-93492718D01*
X202613803Y-93333075D01*
X202386700Y-93201958D01*
X202386690Y-93201953D01*
X202144428Y-93101605D01*
X202144421Y-93101603D01*
X202144419Y-93101602D01*
X201891116Y-93033730D01*
X201833339Y-93026123D01*
X201631127Y-92999500D01*
X201631120Y-92999500D01*
X201368880Y-92999500D01*
X201368872Y-92999500D01*
X201137772Y-93029926D01*
X201108884Y-93033730D01*
X200855581Y-93101602D01*
X200855571Y-93101605D01*
X200613309Y-93201953D01*
X200613299Y-93201958D01*
X200386196Y-93333075D01*
X200178148Y-93492718D01*
X199992718Y-93678148D01*
X199833075Y-93886196D01*
X199701958Y-94113299D01*
X199701953Y-94113309D01*
X199601605Y-94355571D01*
X199601602Y-94355581D01*
X199565899Y-94488829D01*
X199533730Y-94608885D01*
X199499500Y-94868872D01*
X151195234Y-94868872D01*
X151140102Y-94699197D01*
X151032914Y-94488828D01*
X150972658Y-94405894D01*
X150972658Y-94405893D01*
X150241128Y-95137424D01*
X150225245Y-95078147D01*
X150158102Y-94961853D01*
X150063147Y-94866898D01*
X149946853Y-94799755D01*
X149887574Y-94783871D01*
X150619105Y-94052340D01*
X150617551Y-94032594D01*
X150631915Y-93964216D01*
X150668284Y-93922547D01*
X150727510Y-93879517D01*
X150894517Y-93712510D01*
X151033343Y-93521433D01*
X151140568Y-93310992D01*
X151213553Y-93086368D01*
X151221890Y-93033730D01*
X151250500Y-92853097D01*
X151250500Y-92616902D01*
X151213553Y-92383631D01*
X151140566Y-92159003D01*
X151033342Y-91948566D01*
X150894517Y-91757490D01*
X150727510Y-91590483D01*
X150536433Y-91451657D01*
X150325996Y-91344433D01*
X150101368Y-91271446D01*
X149868097Y-91234500D01*
X149868092Y-91234500D01*
X149631908Y-91234500D01*
X149631903Y-91234500D01*
X149398631Y-91271446D01*
X149174003Y-91344433D01*
X148963566Y-91451657D01*
X148907119Y-91492669D01*
X148772490Y-91590483D01*
X148772488Y-91590485D01*
X148772487Y-91590485D01*
X148605485Y-91757487D01*
X148605485Y-91757488D01*
X148605483Y-91757490D01*
X148572938Y-91802284D01*
X148466657Y-91948566D01*
X148359433Y-92159003D01*
X148286446Y-92383631D01*
X148249500Y-92616902D01*
X148249500Y-92853097D01*
X148286446Y-93086368D01*
X148359433Y-93310996D01*
X148452026Y-93492718D01*
X148466657Y-93521433D01*
X148605483Y-93712510D01*
X148772490Y-93879517D01*
X148831716Y-93922547D01*
X148874381Y-93977875D01*
X148882448Y-94032593D01*
X148880893Y-94052340D01*
X149612425Y-94783871D01*
X149553147Y-94799755D01*
X149436853Y-94866898D01*
X149341898Y-94961853D01*
X149274755Y-95078147D01*
X149258871Y-95137425D01*
X148527340Y-94405894D01*
X148467084Y-94488830D01*
X148359897Y-94699197D01*
X148286934Y-94923752D01*
X148250000Y-95156947D01*
X148250000Y-95393052D01*
X148286934Y-95626247D01*
X148359897Y-95850802D01*
X148467087Y-96061174D01*
X148527338Y-96144104D01*
X148527340Y-96144105D01*
X149258871Y-95412574D01*
X149274755Y-95471853D01*
X149341898Y-95588147D01*
X149436853Y-95683102D01*
X149553147Y-95750245D01*
X149612425Y-95766128D01*
X148880893Y-96497658D01*
X148882448Y-96517405D01*
X148868084Y-96585783D01*
X148831717Y-96627451D01*
X148772490Y-96670482D01*
X148605485Y-96837487D01*
X148605485Y-96837488D01*
X148605483Y-96837490D01*
X148589709Y-96859201D01*
X148466657Y-97028566D01*
X148359433Y-97239003D01*
X148286446Y-97463631D01*
X148249500Y-97696902D01*
X148249500Y-97933097D01*
X148286446Y-98166368D01*
X148359433Y-98390996D01*
X148466657Y-98601433D01*
X148605483Y-98792510D01*
X148772490Y-98959517D01*
X148807127Y-98984683D01*
X148849792Y-99040013D01*
X148855771Y-99109626D01*
X148823165Y-99171421D01*
X148807130Y-99185315D01*
X148789365Y-99198222D01*
X148772488Y-99210484D01*
X148605485Y-99377487D01*
X148605485Y-99377488D01*
X148605483Y-99377490D01*
X148572938Y-99422284D01*
X148466657Y-99568566D01*
X148359433Y-99779003D01*
X148286446Y-100003631D01*
X148249500Y-100236902D01*
X148249500Y-100473097D01*
X148286446Y-100706368D01*
X148359433Y-100930996D01*
X148427573Y-101064727D01*
X148466657Y-101141433D01*
X148605483Y-101332510D01*
X148772490Y-101499517D01*
X148807127Y-101524683D01*
X148849792Y-101580013D01*
X148855771Y-101649626D01*
X148823165Y-101711421D01*
X148807130Y-101725315D01*
X148789365Y-101738222D01*
X148772488Y-101750484D01*
X148605485Y-101917487D01*
X148605485Y-101917488D01*
X148605483Y-101917490D01*
X148600309Y-101924612D01*
X148466657Y-102108566D01*
X148359433Y-102319003D01*
X148286446Y-102543631D01*
X148249500Y-102776902D01*
X148249500Y-103013097D01*
X148286446Y-103246368D01*
X148359433Y-103470996D01*
X148466657Y-103681433D01*
X148605483Y-103872510D01*
X148772490Y-104039517D01*
X148807127Y-104064683D01*
X148849792Y-104120013D01*
X148855771Y-104189626D01*
X148823165Y-104251421D01*
X148807130Y-104265315D01*
X148789365Y-104278222D01*
X148772488Y-104290484D01*
X148605485Y-104457487D01*
X148605485Y-104457488D01*
X148605483Y-104457490D01*
X148545862Y-104539550D01*
X148466657Y-104648566D01*
X148359433Y-104859003D01*
X148286446Y-105083631D01*
X148249500Y-105316902D01*
X148249500Y-105553097D01*
X148286446Y-105786368D01*
X148359433Y-106010996D01*
X148455736Y-106200000D01*
X148466657Y-106221433D01*
X148605483Y-106412510D01*
X148772490Y-106579517D01*
X148807127Y-106604683D01*
X148849792Y-106660013D01*
X148855771Y-106729626D01*
X148823165Y-106791421D01*
X148807130Y-106805315D01*
X148789365Y-106818222D01*
X148772488Y-106830484D01*
X148605485Y-106997487D01*
X148605485Y-106997488D01*
X148605483Y-106997490D01*
X148589215Y-107019881D01*
X148466657Y-107188566D01*
X148359433Y-107399003D01*
X148286446Y-107623631D01*
X148249500Y-107856902D01*
X148249500Y-108093097D01*
X148286446Y-108326368D01*
X148359433Y-108550996D01*
X148437778Y-108704755D01*
X148466657Y-108761433D01*
X148605483Y-108952510D01*
X148772490Y-109119517D01*
X148807127Y-109144683D01*
X148849792Y-109200013D01*
X148855771Y-109269626D01*
X148823165Y-109331421D01*
X148807130Y-109345315D01*
X148789365Y-109358222D01*
X148772488Y-109370484D01*
X148605485Y-109537487D01*
X148605485Y-109537488D01*
X148605483Y-109537490D01*
X148545862Y-109619550D01*
X148466657Y-109728566D01*
X148359433Y-109939003D01*
X148286446Y-110163631D01*
X148249500Y-110396902D01*
X148249500Y-110633097D01*
X148286446Y-110866368D01*
X148359433Y-111090996D01*
X148450941Y-111270589D01*
X148466657Y-111301433D01*
X148605483Y-111492510D01*
X148772490Y-111659517D01*
X148807127Y-111684683D01*
X148849792Y-111740013D01*
X148855771Y-111809626D01*
X148823165Y-111871421D01*
X148807130Y-111885315D01*
X148789365Y-111898222D01*
X148772488Y-111910484D01*
X148605485Y-112077487D01*
X148605485Y-112077488D01*
X148605483Y-112077490D01*
X148545862Y-112159550D01*
X148466657Y-112268566D01*
X148359433Y-112479003D01*
X148286446Y-112703631D01*
X148249500Y-112936902D01*
X148249500Y-113173097D01*
X148286446Y-113406368D01*
X148359433Y-113630996D01*
X148466657Y-113841433D01*
X148605483Y-114032510D01*
X148772490Y-114199517D01*
X148807127Y-114224683D01*
X148849792Y-114280013D01*
X148855771Y-114349626D01*
X148823165Y-114411421D01*
X148807130Y-114425315D01*
X148789365Y-114438222D01*
X148772488Y-114450484D01*
X148605485Y-114617487D01*
X148605485Y-114617488D01*
X148605483Y-114617490D01*
X148602753Y-114621248D01*
X148466657Y-114808566D01*
X148359433Y-115019003D01*
X148286446Y-115243631D01*
X148249500Y-115476902D01*
X148249500Y-115713097D01*
X148286446Y-115946368D01*
X148359433Y-116170996D01*
X148411956Y-116274077D01*
X148466657Y-116381433D01*
X148605483Y-116572510D01*
X148772490Y-116739517D01*
X148807127Y-116764683D01*
X148849792Y-116820013D01*
X148855771Y-116889626D01*
X148823165Y-116951421D01*
X148807130Y-116965315D01*
X148795299Y-116973911D01*
X148772488Y-116990484D01*
X148605485Y-117157487D01*
X148605485Y-117157488D01*
X148605483Y-117157490D01*
X148545862Y-117239550D01*
X148466657Y-117348566D01*
X148359433Y-117559003D01*
X148286446Y-117783631D01*
X148249500Y-118016902D01*
X148249500Y-118253097D01*
X148286446Y-118486368D01*
X148359433Y-118710996D01*
X148466657Y-118921433D01*
X148605483Y-119112510D01*
X148772490Y-119279517D01*
X148807127Y-119304683D01*
X148849792Y-119360013D01*
X148855771Y-119429626D01*
X148823165Y-119491421D01*
X148807130Y-119505315D01*
X148789365Y-119518222D01*
X148772488Y-119530484D01*
X148605485Y-119697487D01*
X148605485Y-119697488D01*
X148605483Y-119697490D01*
X148545862Y-119779550D01*
X148466657Y-119888566D01*
X148359433Y-120099003D01*
X148286446Y-120323631D01*
X148249500Y-120556902D01*
X148249500Y-120793097D01*
X148286446Y-121026368D01*
X148359433Y-121250996D01*
X148414348Y-121358771D01*
X148466657Y-121461433D01*
X148605483Y-121652510D01*
X148772490Y-121819517D01*
X148807127Y-121844683D01*
X148849792Y-121900013D01*
X148855771Y-121969626D01*
X148823165Y-122031421D01*
X148807130Y-122045315D01*
X148789365Y-122058222D01*
X148772488Y-122070484D01*
X148605485Y-122237487D01*
X148605485Y-122237488D01*
X148605483Y-122237490D01*
X148545862Y-122319550D01*
X148466657Y-122428566D01*
X148359433Y-122639003D01*
X148286446Y-122863631D01*
X148249500Y-123096902D01*
X148249500Y-123333097D01*
X148286446Y-123566368D01*
X148359433Y-123790996D01*
X148456001Y-123980519D01*
X148466657Y-124001433D01*
X148605483Y-124192510D01*
X148772490Y-124359517D01*
X148807127Y-124384683D01*
X148849792Y-124440013D01*
X148855771Y-124509626D01*
X148823165Y-124571421D01*
X148807130Y-124585315D01*
X148801595Y-124589337D01*
X148772488Y-124610484D01*
X148605485Y-124777487D01*
X148605485Y-124777488D01*
X148605483Y-124777490D01*
X148545862Y-124859550D01*
X148466657Y-124968566D01*
X148359433Y-125179003D01*
X148286446Y-125403631D01*
X148249500Y-125636902D01*
X148249500Y-125873097D01*
X148286446Y-126106368D01*
X148359433Y-126330996D01*
X148434232Y-126477795D01*
X148466657Y-126541433D01*
X148605483Y-126732510D01*
X148772490Y-126899517D01*
X148807127Y-126924683D01*
X148849792Y-126980013D01*
X148855771Y-127049626D01*
X148823165Y-127111421D01*
X148807130Y-127125315D01*
X148789365Y-127138222D01*
X148772488Y-127150484D01*
X148605485Y-127317487D01*
X148605485Y-127317488D01*
X148605483Y-127317490D01*
X148545862Y-127399550D01*
X148466657Y-127508566D01*
X148359433Y-127719003D01*
X148286446Y-127943631D01*
X148249500Y-128176902D01*
X148249500Y-128413097D01*
X148286446Y-128646368D01*
X148359433Y-128870996D01*
X148430407Y-129010289D01*
X148466657Y-129081433D01*
X148605483Y-129272510D01*
X148772490Y-129439517D01*
X148963567Y-129578343D01*
X149062991Y-129629002D01*
X149174003Y-129685566D01*
X149174005Y-129685566D01*
X149174008Y-129685568D01*
X149318662Y-129732569D01*
X149376337Y-129772007D01*
X149403535Y-129836366D01*
X149391620Y-129905212D01*
X149344376Y-129956688D01*
X149280343Y-129974500D01*
X149165258Y-129974500D01*
X148949474Y-130002910D01*
X148937762Y-130004452D01*
X148844076Y-130029554D01*
X148716112Y-130063842D01*
X148504123Y-130151650D01*
X148504109Y-130151657D01*
X148305382Y-130266392D01*
X148123338Y-130406081D01*
X147961081Y-130568338D01*
X147821392Y-130750382D01*
X147706657Y-130949109D01*
X147706650Y-130949123D01*
X147618842Y-131161112D01*
X147559453Y-131382759D01*
X147559451Y-131382770D01*
X147529500Y-131610258D01*
X145830000Y-131610258D01*
X145830000Y-127235000D01*
X128140000Y-127235000D01*
X128140000Y-133725000D01*
X102000500Y-133725000D01*
X102000500Y-128421153D01*
X113599500Y-128421153D01*
X113599500Y-128578846D01*
X113630261Y-128733489D01*
X113630264Y-128733501D01*
X113690602Y-128879172D01*
X113690609Y-128879185D01*
X113778210Y-129010288D01*
X113778213Y-129010292D01*
X113889707Y-129121786D01*
X113889711Y-129121789D01*
X114020814Y-129209390D01*
X114020827Y-129209397D01*
X114137445Y-129257701D01*
X114166503Y-129269737D01*
X114321153Y-129300499D01*
X114321156Y-129300500D01*
X114321158Y-129300500D01*
X114478844Y-129300500D01*
X114478845Y-129300499D01*
X114633497Y-129269737D01*
X114779179Y-129209394D01*
X114910289Y-129121789D01*
X115021789Y-129010289D01*
X115053250Y-128963205D01*
X115061666Y-128950610D01*
X115115278Y-128905804D01*
X115164768Y-128895500D01*
X122895932Y-128895500D01*
X122962971Y-128915185D01*
X123006416Y-128963203D01*
X123066657Y-129081433D01*
X123205483Y-129272510D01*
X123372490Y-129439517D01*
X123563567Y-129578343D01*
X123662991Y-129629002D01*
X123774003Y-129685566D01*
X123774005Y-129685566D01*
X123774008Y-129685568D01*
X123869521Y-129716602D01*
X123998631Y-129758553D01*
X124231903Y-129795500D01*
X124265708Y-129795500D01*
X124332747Y-129815185D01*
X124378502Y-129867989D01*
X124388446Y-129937147D01*
X124359421Y-130000703D01*
X124300643Y-130038477D01*
X124297835Y-130039265D01*
X124240418Y-130054649D01*
X124206112Y-130063842D01*
X123994123Y-130151650D01*
X123994109Y-130151657D01*
X123795382Y-130266392D01*
X123613338Y-130406081D01*
X123451081Y-130568338D01*
X123311392Y-130750382D01*
X123196657Y-130949109D01*
X123196650Y-130949123D01*
X123108842Y-131161112D01*
X123049453Y-131382759D01*
X123049451Y-131382770D01*
X123019500Y-131610258D01*
X123019500Y-131839741D01*
X123043089Y-132018910D01*
X123049452Y-132067238D01*
X123088007Y-132211130D01*
X123108842Y-132288887D01*
X123196650Y-132500876D01*
X123196657Y-132500890D01*
X123311392Y-132699617D01*
X123451081Y-132881661D01*
X123451089Y-132881670D01*
X123613330Y-133043911D01*
X123613338Y-133043918D01*
X123795382Y-133183607D01*
X123795385Y-133183608D01*
X123795388Y-133183611D01*
X123994112Y-133298344D01*
X123994117Y-133298346D01*
X123994123Y-133298349D01*
X124064590Y-133327537D01*
X124206113Y-133386158D01*
X124427762Y-133445548D01*
X124655266Y-133475500D01*
X124655273Y-133475500D01*
X124884727Y-133475500D01*
X124884734Y-133475500D01*
X125112238Y-133445548D01*
X125333887Y-133386158D01*
X125545888Y-133298344D01*
X125744612Y-133183611D01*
X125926661Y-133043919D01*
X125926665Y-133043914D01*
X125926670Y-133043911D01*
X126088911Y-132881670D01*
X126088914Y-132881665D01*
X126088919Y-132881661D01*
X126228611Y-132699612D01*
X126343344Y-132500888D01*
X126431158Y-132288887D01*
X126490548Y-132067238D01*
X126520500Y-131839734D01*
X126520500Y-131610266D01*
X126490548Y-131382762D01*
X126431158Y-131161113D01*
X126343344Y-130949112D01*
X126228611Y-130750388D01*
X126228608Y-130750385D01*
X126228607Y-130750382D01*
X126088918Y-130568338D01*
X126088911Y-130568330D01*
X125926670Y-130406089D01*
X125926661Y-130406081D01*
X125744617Y-130266392D01*
X125545890Y-130151657D01*
X125545876Y-130151650D01*
X125333887Y-130063842D01*
X125311203Y-130057764D01*
X125112238Y-130004452D01*
X125074215Y-129999446D01*
X124884741Y-129974500D01*
X124884734Y-129974500D01*
X124819657Y-129974500D01*
X124752618Y-129954815D01*
X124706863Y-129902011D01*
X124696919Y-129832853D01*
X124725944Y-129769297D01*
X124781338Y-129732569D01*
X124925992Y-129685568D01*
X125136433Y-129578343D01*
X125327510Y-129439517D01*
X125494517Y-129272510D01*
X125633343Y-129081433D01*
X125740568Y-128870992D01*
X125813553Y-128646368D01*
X125820897Y-128600000D01*
X125850500Y-128413097D01*
X125850500Y-128176902D01*
X125813553Y-127943631D01*
X125779689Y-127839412D01*
X125740568Y-127719008D01*
X125740566Y-127719005D01*
X125740566Y-127719003D01*
X125633342Y-127508566D01*
X125494517Y-127317490D01*
X125327510Y-127150483D01*
X125286755Y-127120872D01*
X125281230Y-127115725D01*
X125267111Y-127091911D01*
X125250207Y-127069989D01*
X125249544Y-127062279D01*
X125245599Y-127055624D01*
X125246596Y-127027954D01*
X125244228Y-127000375D01*
X125247838Y-126993532D01*
X125248117Y-126985799D01*
X125263914Y-126963063D01*
X125276833Y-126938580D01*
X125287121Y-126929665D01*
X125287986Y-126928421D01*
X125289080Y-126927968D01*
X125292873Y-126924682D01*
X125327510Y-126899517D01*
X125494517Y-126732510D01*
X125633343Y-126541433D01*
X125740568Y-126330992D01*
X125813553Y-126106368D01*
X125832030Y-125989711D01*
X125850500Y-125873097D01*
X125850500Y-125636902D01*
X125813553Y-125403631D01*
X125771589Y-125274480D01*
X125740568Y-125179008D01*
X125740566Y-125179005D01*
X125740566Y-125179003D01*
X125659804Y-125020500D01*
X125633343Y-124968567D01*
X125494517Y-124777490D01*
X125327510Y-124610483D01*
X125292872Y-124585317D01*
X125250207Y-124529989D01*
X125244228Y-124460375D01*
X125276833Y-124398580D01*
X125292873Y-124384682D01*
X125327510Y-124359517D01*
X125494517Y-124192510D01*
X125633343Y-124001433D01*
X125740568Y-123790992D01*
X125813553Y-123566368D01*
X125820548Y-123522203D01*
X125850500Y-123333097D01*
X125850500Y-123096902D01*
X125813553Y-122863631D01*
X125740566Y-122639003D01*
X125679921Y-122519982D01*
X125633343Y-122428567D01*
X125494517Y-122237490D01*
X125327510Y-122070483D01*
X125292872Y-122045317D01*
X125250207Y-121989989D01*
X125244228Y-121920375D01*
X125276833Y-121858580D01*
X125292873Y-121844682D01*
X125327510Y-121819517D01*
X125494517Y-121652510D01*
X125633343Y-121461433D01*
X125740568Y-121250992D01*
X125813553Y-121026368D01*
X125819359Y-120989711D01*
X125850500Y-120793097D01*
X125850500Y-120556902D01*
X125813553Y-120323631D01*
X125758943Y-120155560D01*
X125740568Y-120099008D01*
X125740566Y-120099005D01*
X125740566Y-120099003D01*
X125649328Y-119919940D01*
X125633343Y-119888567D01*
X125494517Y-119697490D01*
X125327510Y-119530483D01*
X125292872Y-119505317D01*
X125250207Y-119449989D01*
X125244228Y-119380375D01*
X125276833Y-119318580D01*
X125292873Y-119304682D01*
X125327510Y-119279517D01*
X125494517Y-119112510D01*
X125633343Y-118921433D01*
X125740568Y-118710992D01*
X125813553Y-118486368D01*
X125850500Y-118253097D01*
X125850500Y-118016902D01*
X125813553Y-117783631D01*
X125754185Y-117600918D01*
X125740568Y-117559008D01*
X125740566Y-117559005D01*
X125740566Y-117559003D01*
X125659549Y-117400000D01*
X125633343Y-117348567D01*
X125494517Y-117157490D01*
X125327510Y-116990483D01*
X125326447Y-116989711D01*
X125304705Y-116973914D01*
X125292872Y-116965317D01*
X125250207Y-116909989D01*
X125244228Y-116840375D01*
X125276833Y-116778580D01*
X125292873Y-116764682D01*
X125327510Y-116739517D01*
X125494517Y-116572510D01*
X125633343Y-116381433D01*
X125740568Y-116170992D01*
X125813553Y-115946368D01*
X125817646Y-115920524D01*
X125850500Y-115713097D01*
X125850500Y-115476902D01*
X125813553Y-115243631D01*
X125747551Y-115040500D01*
X125740568Y-115019008D01*
X125740566Y-115019005D01*
X125740566Y-115019003D01*
X125633342Y-114808566D01*
X125595839Y-114756948D01*
X125494517Y-114617490D01*
X125327510Y-114450483D01*
X125292872Y-114425317D01*
X125250207Y-114369989D01*
X125244228Y-114300375D01*
X125276833Y-114238580D01*
X125292873Y-114224682D01*
X125327510Y-114199517D01*
X125494517Y-114032510D01*
X125633343Y-113841433D01*
X125740568Y-113630992D01*
X125813553Y-113406368D01*
X125813647Y-113405777D01*
X125850500Y-113173097D01*
X125850500Y-112936902D01*
X125813553Y-112703631D01*
X125740566Y-112479003D01*
X125633342Y-112268566D01*
X125494517Y-112077490D01*
X125327510Y-111910483D01*
X125292872Y-111885317D01*
X125250207Y-111829989D01*
X125244228Y-111760375D01*
X125276833Y-111698580D01*
X125292873Y-111684682D01*
X125315012Y-111668597D01*
X125327510Y-111659517D01*
X125494517Y-111492510D01*
X125633343Y-111301433D01*
X125740568Y-111090992D01*
X125813553Y-110866368D01*
X125825552Y-110790609D01*
X125850500Y-110633097D01*
X125850500Y-110396902D01*
X125813553Y-110163631D01*
X125740566Y-109939003D01*
X125633342Y-109728566D01*
X125494517Y-109537490D01*
X125327510Y-109370483D01*
X125292872Y-109345317D01*
X125250207Y-109289989D01*
X125244228Y-109220375D01*
X125276833Y-109158580D01*
X125292873Y-109144682D01*
X125327510Y-109119517D01*
X125494517Y-108952510D01*
X125633343Y-108761433D01*
X125740568Y-108550992D01*
X125813553Y-108326368D01*
X125822522Y-108269738D01*
X125850500Y-108093097D01*
X125850500Y-107856902D01*
X125813553Y-107623631D01*
X125747763Y-107421153D01*
X125740568Y-107399008D01*
X125740566Y-107399005D01*
X125740566Y-107399003D01*
X125684002Y-107287991D01*
X125633343Y-107188567D01*
X125494517Y-106997490D01*
X125327510Y-106830483D01*
X125292872Y-106805317D01*
X125250207Y-106749989D01*
X125244228Y-106680375D01*
X125276833Y-106618580D01*
X125292873Y-106604682D01*
X125327510Y-106579517D01*
X125494517Y-106412510D01*
X125633343Y-106221433D01*
X125740568Y-106010992D01*
X125813553Y-105786368D01*
X125821928Y-105733489D01*
X125850500Y-105553097D01*
X125850500Y-105316902D01*
X125813553Y-105083631D01*
X125740566Y-104859003D01*
X125674968Y-104730261D01*
X125633343Y-104648567D01*
X125494517Y-104457490D01*
X125327510Y-104290483D01*
X125292872Y-104265317D01*
X125250207Y-104209989D01*
X125244228Y-104140375D01*
X125276833Y-104078580D01*
X125292873Y-104064682D01*
X125327510Y-104039517D01*
X125494517Y-103872510D01*
X125633343Y-103681433D01*
X125740568Y-103470992D01*
X125813553Y-103246368D01*
X125850500Y-103013097D01*
X125850500Y-102776902D01*
X125813553Y-102543631D01*
X125769682Y-102408611D01*
X125740568Y-102319008D01*
X125740566Y-102319005D01*
X125740566Y-102319003D01*
X125684002Y-102207991D01*
X125633343Y-102108567D01*
X125494517Y-101917490D01*
X125327510Y-101750483D01*
X125292872Y-101725317D01*
X125250207Y-101669989D01*
X125244228Y-101600375D01*
X125276833Y-101538580D01*
X125292873Y-101524682D01*
X125307731Y-101513887D01*
X125327510Y-101499517D01*
X125494517Y-101332510D01*
X125633343Y-101141433D01*
X125740568Y-100930992D01*
X125813553Y-100706368D01*
X125828993Y-100608884D01*
X125850500Y-100473097D01*
X125850500Y-100236902D01*
X125813553Y-100003631D01*
X125745224Y-99793338D01*
X125740568Y-99779008D01*
X125740566Y-99779005D01*
X125740566Y-99779003D01*
X125670295Y-99641089D01*
X125633343Y-99568567D01*
X125494517Y-99377490D01*
X125327510Y-99210483D01*
X125292872Y-99185317D01*
X125250207Y-99129989D01*
X125244228Y-99060375D01*
X125276833Y-98998580D01*
X125292873Y-98984682D01*
X125327510Y-98959517D01*
X125494517Y-98792510D01*
X125633343Y-98601433D01*
X125740568Y-98390992D01*
X125813553Y-98166368D01*
X125813553Y-98166367D01*
X125850500Y-97933097D01*
X125850500Y-97696902D01*
X125813553Y-97463631D01*
X125766243Y-97318028D01*
X125740568Y-97239008D01*
X125740566Y-97239005D01*
X125740566Y-97239003D01*
X125639944Y-97041523D01*
X125633343Y-97028567D01*
X125494517Y-96837490D01*
X125327510Y-96670483D01*
X125322611Y-96666924D01*
X125268283Y-96627452D01*
X125225617Y-96572122D01*
X125217550Y-96517404D01*
X125219104Y-96497657D01*
X124487574Y-95766128D01*
X124546853Y-95750245D01*
X124663147Y-95683102D01*
X124758102Y-95588147D01*
X124825245Y-95471853D01*
X124841128Y-95412575D01*
X125572658Y-96144105D01*
X125572658Y-96144104D01*
X125632914Y-96061169D01*
X125632918Y-96061163D01*
X125740102Y-95850802D01*
X125813065Y-95626247D01*
X125850000Y-95393052D01*
X125850000Y-95156947D01*
X125813065Y-94923752D01*
X125740102Y-94699197D01*
X125632914Y-94488828D01*
X125542964Y-94365023D01*
X125519484Y-94299216D01*
X125535309Y-94231162D01*
X125584640Y-94183220D01*
X125584546Y-94183047D01*
X125585169Y-94182706D01*
X125585415Y-94182468D01*
X125586480Y-94181990D01*
X125592326Y-94178797D01*
X125592331Y-94178796D01*
X125707546Y-94092546D01*
X125793796Y-93977331D01*
X125844091Y-93842483D01*
X125850500Y-93782873D01*
X125850499Y-91687128D01*
X125844091Y-91627517D01*
X125830278Y-91590483D01*
X125793797Y-91492671D01*
X125793793Y-91492664D01*
X125707547Y-91377455D01*
X125707544Y-91377452D01*
X125592335Y-91291206D01*
X125592328Y-91291202D01*
X125457482Y-91240908D01*
X125457483Y-91240908D01*
X125397883Y-91234501D01*
X125397881Y-91234500D01*
X125397873Y-91234500D01*
X125397864Y-91234500D01*
X123302129Y-91234500D01*
X123302123Y-91234501D01*
X123242516Y-91240908D01*
X123107671Y-91291202D01*
X123107664Y-91291206D01*
X122992455Y-91377452D01*
X122992452Y-91377455D01*
X122906206Y-91492664D01*
X122906202Y-91492671D01*
X122855908Y-91627517D01*
X122850055Y-91681966D01*
X122849501Y-91687123D01*
X122849500Y-91687135D01*
X122849500Y-93782870D01*
X122849501Y-93782876D01*
X122855908Y-93842483D01*
X122906202Y-93977328D01*
X122906206Y-93977335D01*
X122992452Y-94092544D01*
X122992455Y-94092547D01*
X123107664Y-94178793D01*
X123115454Y-94183047D01*
X123113725Y-94186211D01*
X123155915Y-94217734D01*
X123180393Y-94283175D01*
X123165604Y-94351462D01*
X123157036Y-94365021D01*
X123067084Y-94488829D01*
X122959897Y-94699197D01*
X122886934Y-94923752D01*
X122850000Y-95156947D01*
X122850000Y-95393052D01*
X122886934Y-95626247D01*
X122959897Y-95850802D01*
X123067087Y-96061174D01*
X123127338Y-96144104D01*
X123127340Y-96144105D01*
X123858871Y-95412574D01*
X123874755Y-95471853D01*
X123941898Y-95588147D01*
X124036853Y-95683102D01*
X124153147Y-95750245D01*
X124212425Y-95766128D01*
X123480893Y-96497658D01*
X123482448Y-96517405D01*
X123468084Y-96585783D01*
X123431717Y-96627451D01*
X123372490Y-96670482D01*
X123205485Y-96837487D01*
X123205485Y-96837488D01*
X123205483Y-96837490D01*
X123189709Y-96859201D01*
X123066657Y-97028566D01*
X122959433Y-97239003D01*
X122886446Y-97463631D01*
X122849500Y-97696902D01*
X122849500Y-97933097D01*
X122886446Y-98166368D01*
X122959433Y-98390996D01*
X123066657Y-98601433D01*
X123205483Y-98792510D01*
X123372490Y-98959517D01*
X123407127Y-98984683D01*
X123449792Y-99040013D01*
X123455771Y-99109626D01*
X123423165Y-99171421D01*
X123407130Y-99185315D01*
X123389365Y-99198222D01*
X123372488Y-99210484D01*
X123205485Y-99377487D01*
X123205485Y-99377488D01*
X123205483Y-99377490D01*
X123172938Y-99422284D01*
X123066657Y-99568566D01*
X122959433Y-99779003D01*
X122886446Y-100003631D01*
X122849500Y-100236902D01*
X122849500Y-100473097D01*
X122886446Y-100706368D01*
X122959433Y-100930996D01*
X123027573Y-101064727D01*
X123066657Y-101141433D01*
X123205483Y-101332510D01*
X123372490Y-101499517D01*
X123407127Y-101524683D01*
X123449792Y-101580013D01*
X123455771Y-101649626D01*
X123423165Y-101711421D01*
X123407130Y-101725315D01*
X123389365Y-101738222D01*
X123372488Y-101750484D01*
X123205485Y-101917487D01*
X123205485Y-101917488D01*
X123205483Y-101917490D01*
X123200309Y-101924612D01*
X123066657Y-102108566D01*
X122959433Y-102319003D01*
X122886446Y-102543631D01*
X122849500Y-102776902D01*
X122849500Y-103013097D01*
X122886446Y-103246368D01*
X122959433Y-103470996D01*
X123066657Y-103681433D01*
X123205483Y-103872510D01*
X123372490Y-104039517D01*
X123407127Y-104064683D01*
X123449792Y-104120013D01*
X123455771Y-104189626D01*
X123423165Y-104251421D01*
X123407130Y-104265315D01*
X123389365Y-104278222D01*
X123372488Y-104290484D01*
X123205485Y-104457487D01*
X123205485Y-104457488D01*
X123205483Y-104457490D01*
X123145862Y-104539550D01*
X123066657Y-104648566D01*
X122959433Y-104859003D01*
X122886446Y-105083631D01*
X122849500Y-105316902D01*
X122849500Y-105553097D01*
X122886446Y-105786368D01*
X122959433Y-106010996D01*
X123055736Y-106200000D01*
X123066657Y-106221433D01*
X123205483Y-106412510D01*
X123372490Y-106579517D01*
X123407127Y-106604683D01*
X123449792Y-106660013D01*
X123455771Y-106729626D01*
X123423165Y-106791421D01*
X123407130Y-106805315D01*
X123389365Y-106818222D01*
X123372488Y-106830484D01*
X123205485Y-106997487D01*
X123205485Y-106997488D01*
X123205483Y-106997490D01*
X123189215Y-107019881D01*
X123066657Y-107188566D01*
X122959433Y-107399003D01*
X122886446Y-107623631D01*
X122849500Y-107856902D01*
X122849500Y-108093097D01*
X122886446Y-108326368D01*
X122959433Y-108550996D01*
X123037778Y-108704755D01*
X123066657Y-108761433D01*
X123205483Y-108952510D01*
X123372490Y-109119517D01*
X123407127Y-109144683D01*
X123449792Y-109200013D01*
X123455771Y-109269626D01*
X123423165Y-109331421D01*
X123407130Y-109345315D01*
X123389365Y-109358222D01*
X123372488Y-109370484D01*
X123205485Y-109537487D01*
X123205485Y-109537488D01*
X123205483Y-109537490D01*
X123145862Y-109619550D01*
X123066657Y-109728566D01*
X122959433Y-109939003D01*
X122886446Y-110163631D01*
X122849500Y-110396902D01*
X122849500Y-110633097D01*
X122886446Y-110866368D01*
X122959433Y-111090996D01*
X123050941Y-111270589D01*
X123066657Y-111301433D01*
X123205483Y-111492510D01*
X123372490Y-111659517D01*
X123407127Y-111684683D01*
X123449792Y-111740013D01*
X123455771Y-111809626D01*
X123423165Y-111871421D01*
X123407130Y-111885315D01*
X123389365Y-111898222D01*
X123372488Y-111910484D01*
X123205485Y-112077487D01*
X123205485Y-112077488D01*
X123205483Y-112077490D01*
X123145862Y-112159550D01*
X123066657Y-112268566D01*
X122959433Y-112479003D01*
X122886446Y-112703631D01*
X122849500Y-112936902D01*
X122849500Y-113173097D01*
X122886447Y-113406369D01*
X122886447Y-113406372D01*
X122927450Y-113532564D01*
X122929445Y-113602405D01*
X122897200Y-113658563D01*
X121131286Y-115424478D01*
X121019481Y-115536282D01*
X121019479Y-115536285D01*
X121018518Y-115537950D01*
X120974976Y-115613368D01*
X120940423Y-115673215D01*
X120899499Y-115825943D01*
X120899499Y-115825945D01*
X120899499Y-115994046D01*
X120899500Y-115994059D01*
X120899500Y-116996560D01*
X120889960Y-117029048D01*
X120880996Y-117061726D01*
X120880138Y-117062495D01*
X120879815Y-117063599D01*
X120854243Y-117085756D01*
X120829017Y-117108417D01*
X120827879Y-117108601D01*
X120827011Y-117109354D01*
X120793488Y-117114174D01*
X120760047Y-117119593D01*
X120758992Y-117119134D01*
X120757853Y-117119298D01*
X120727035Y-117105224D01*
X120695983Y-117091708D01*
X120694970Y-117090580D01*
X120694297Y-117090273D01*
X120672398Y-117065451D01*
X120621398Y-116989125D01*
X120600520Y-116922448D01*
X120600500Y-116920234D01*
X120600500Y-112079765D01*
X120620185Y-112012726D01*
X120621398Y-112010874D01*
X120709390Y-111879185D01*
X120709390Y-111879184D01*
X120709394Y-111879179D01*
X120712608Y-111871421D01*
X120737389Y-111811593D01*
X120769737Y-111733497D01*
X120800500Y-111578842D01*
X120800500Y-111421158D01*
X120800500Y-111421155D01*
X120800499Y-111421153D01*
X120776685Y-111301433D01*
X120769737Y-111266503D01*
X120715080Y-111134548D01*
X120709397Y-111120827D01*
X120709390Y-111120814D01*
X120621789Y-110989711D01*
X120621786Y-110989707D01*
X120510292Y-110878213D01*
X120510288Y-110878210D01*
X120379185Y-110790609D01*
X120379172Y-110790602D01*
X120233501Y-110730264D01*
X120233489Y-110730261D01*
X120078845Y-110699500D01*
X120078842Y-110699500D01*
X119921158Y-110699500D01*
X119921155Y-110699500D01*
X119766510Y-110730261D01*
X119766498Y-110730264D01*
X119620827Y-110790602D01*
X119620814Y-110790609D01*
X119489711Y-110878210D01*
X119489707Y-110878213D01*
X119378213Y-110989707D01*
X119378210Y-110989711D01*
X119290609Y-111120814D01*
X119290602Y-111120827D01*
X119230264Y-111266498D01*
X119230261Y-111266510D01*
X119199500Y-111421153D01*
X119199500Y-111578846D01*
X119230261Y-111733489D01*
X119230264Y-111733501D01*
X119290602Y-111879172D01*
X119290609Y-111879185D01*
X119378602Y-112010874D01*
X119399480Y-112077551D01*
X119399500Y-112079765D01*
X119399500Y-116920234D01*
X119379815Y-116987273D01*
X119378602Y-116989125D01*
X119290609Y-117120814D01*
X119290602Y-117120827D01*
X119230264Y-117266498D01*
X119230261Y-117266510D01*
X119199500Y-117421153D01*
X119199500Y-117578846D01*
X119230261Y-117733489D01*
X119230264Y-117733501D01*
X119290602Y-117879172D01*
X119290609Y-117879185D01*
X119378210Y-118010288D01*
X119378213Y-118010292D01*
X119489707Y-118121786D01*
X119489711Y-118121789D01*
X119620814Y-118209390D01*
X119620827Y-118209397D01*
X119726318Y-118253092D01*
X119766503Y-118269737D01*
X119918644Y-118300000D01*
X119921153Y-118300499D01*
X119921156Y-118300500D01*
X119921158Y-118300500D01*
X120078844Y-118300500D01*
X120078845Y-118300499D01*
X120233497Y-118269737D01*
X120379179Y-118209394D01*
X120510289Y-118121789D01*
X120621789Y-118010289D01*
X120672398Y-117934548D01*
X120726010Y-117889743D01*
X120795335Y-117881036D01*
X120858363Y-117911190D01*
X120895082Y-117970634D01*
X120899500Y-118003439D01*
X120899500Y-121699903D01*
X120879815Y-121766942D01*
X120863181Y-121787584D01*
X119787584Y-122863181D01*
X119726261Y-122896666D01*
X119699903Y-122899500D01*
X117079766Y-122899500D01*
X117012727Y-122879815D01*
X117010875Y-122878602D01*
X116879185Y-122790609D01*
X116879172Y-122790602D01*
X116733501Y-122730264D01*
X116733489Y-122730261D01*
X116578845Y-122699500D01*
X116578842Y-122699500D01*
X116421158Y-122699500D01*
X116421155Y-122699500D01*
X116266510Y-122730261D01*
X116266498Y-122730264D01*
X116120827Y-122790602D01*
X116120814Y-122790609D01*
X115989711Y-122878210D01*
X115989707Y-122878213D01*
X115878213Y-122989707D01*
X115878210Y-122989711D01*
X115790609Y-123120814D01*
X115790602Y-123120827D01*
X115730264Y-123266498D01*
X115730261Y-123266510D01*
X115699500Y-123421153D01*
X115699500Y-123578846D01*
X115730261Y-123733489D01*
X115730264Y-123733501D01*
X115790602Y-123879172D01*
X115790609Y-123879185D01*
X115878210Y-124010288D01*
X115878213Y-124010292D01*
X115989707Y-124121786D01*
X115989711Y-124121789D01*
X116120814Y-124209390D01*
X116120827Y-124209397D01*
X116266498Y-124269735D01*
X116266503Y-124269737D01*
X116421153Y-124300499D01*
X116421156Y-124300500D01*
X116421158Y-124300500D01*
X116578844Y-124300500D01*
X116578845Y-124300499D01*
X116733497Y-124269737D01*
X116879179Y-124209394D01*
X116904448Y-124192510D01*
X117010875Y-124121398D01*
X117077553Y-124100520D01*
X117079766Y-124100500D01*
X119913331Y-124100500D01*
X119913347Y-124100501D01*
X119920943Y-124100501D01*
X120079054Y-124100501D01*
X120079057Y-124100501D01*
X120231785Y-124059577D01*
X120281904Y-124030639D01*
X120368716Y-123980520D01*
X120480520Y-123868716D01*
X120480520Y-123868714D01*
X120490728Y-123858507D01*
X120490730Y-123858504D01*
X121858506Y-122490728D01*
X121858511Y-122490724D01*
X121868714Y-122480520D01*
X121868716Y-122480520D01*
X121980520Y-122368716D01*
X122059577Y-122231784D01*
X122094528Y-122101344D01*
X122100500Y-122079058D01*
X122100500Y-121920943D01*
X122100500Y-116205097D01*
X122120185Y-116138058D01*
X122136819Y-116117416D01*
X122637819Y-115616416D01*
X122699142Y-115582931D01*
X122768834Y-115587915D01*
X122824767Y-115629787D01*
X122849184Y-115695251D01*
X122849500Y-115704097D01*
X122849500Y-115713097D01*
X122886446Y-115946368D01*
X122959433Y-116170996D01*
X123011956Y-116274077D01*
X123066657Y-116381433D01*
X123205483Y-116572510D01*
X123372490Y-116739517D01*
X123407127Y-116764683D01*
X123449792Y-116820013D01*
X123455771Y-116889626D01*
X123423165Y-116951421D01*
X123407130Y-116965315D01*
X123395299Y-116973911D01*
X123372488Y-116990484D01*
X123205485Y-117157487D01*
X123205485Y-117157488D01*
X123205483Y-117157490D01*
X123145862Y-117239550D01*
X123066657Y-117348566D01*
X122959433Y-117559003D01*
X122886446Y-117783631D01*
X122849500Y-118016902D01*
X122849500Y-118253097D01*
X122886446Y-118486368D01*
X122959433Y-118710996D01*
X123066657Y-118921433D01*
X123205483Y-119112510D01*
X123372490Y-119279517D01*
X123407127Y-119304683D01*
X123449792Y-119360013D01*
X123455771Y-119429626D01*
X123423165Y-119491421D01*
X123407130Y-119505315D01*
X123389365Y-119518222D01*
X123372488Y-119530484D01*
X123205485Y-119697487D01*
X123205485Y-119697488D01*
X123205483Y-119697490D01*
X123145862Y-119779550D01*
X123066657Y-119888566D01*
X122959433Y-120099003D01*
X122886446Y-120323631D01*
X122849500Y-120556902D01*
X122849500Y-120793097D01*
X122886446Y-121026368D01*
X122959433Y-121250996D01*
X123014348Y-121358771D01*
X123066657Y-121461433D01*
X123205483Y-121652510D01*
X123372490Y-121819517D01*
X123407127Y-121844683D01*
X123449792Y-121900013D01*
X123455771Y-121969626D01*
X123423165Y-122031421D01*
X123407130Y-122045315D01*
X123389365Y-122058222D01*
X123372488Y-122070484D01*
X123205485Y-122237487D01*
X123205485Y-122237488D01*
X123205483Y-122237490D01*
X123145862Y-122319550D01*
X123066657Y-122428566D01*
X122959433Y-122639003D01*
X122886446Y-122863631D01*
X122849500Y-123096902D01*
X122849500Y-123333097D01*
X122886446Y-123566368D01*
X122959433Y-123790996D01*
X123056001Y-123980519D01*
X123066657Y-124001433D01*
X123205483Y-124192510D01*
X123372490Y-124359517D01*
X123407127Y-124384683D01*
X123449792Y-124440013D01*
X123455771Y-124509626D01*
X123423165Y-124571421D01*
X123407130Y-124585315D01*
X123401595Y-124589337D01*
X123372488Y-124610484D01*
X123205485Y-124777487D01*
X123205485Y-124777488D01*
X123205483Y-124777490D01*
X123145862Y-124859550D01*
X123066657Y-124968566D01*
X123006417Y-125086795D01*
X122958442Y-125137591D01*
X122895932Y-125154500D01*
X117324057Y-125154500D01*
X117165943Y-125154500D01*
X117013215Y-125195423D01*
X117013214Y-125195423D01*
X117013212Y-125195424D01*
X117013209Y-125195425D01*
X116963096Y-125224359D01*
X116963095Y-125224360D01*
X116919689Y-125249420D01*
X116876285Y-125274479D01*
X116876282Y-125274481D01*
X116485339Y-125665425D01*
X116424016Y-125698910D01*
X116421850Y-125699361D01*
X116266508Y-125730261D01*
X116266498Y-125730264D01*
X116120827Y-125790602D01*
X116120814Y-125790609D01*
X115989711Y-125878210D01*
X115989707Y-125878213D01*
X115878213Y-125989707D01*
X115878210Y-125989711D01*
X115790609Y-126120814D01*
X115790602Y-126120827D01*
X115730264Y-126266498D01*
X115730261Y-126266510D01*
X115699500Y-126421153D01*
X115699500Y-126578846D01*
X115730261Y-126733489D01*
X115730264Y-126733501D01*
X115790602Y-126879172D01*
X115790609Y-126879185D01*
X115878210Y-127010288D01*
X115878213Y-127010292D01*
X115989707Y-127121786D01*
X115989711Y-127121789D01*
X116120814Y-127209390D01*
X116120827Y-127209397D01*
X116266498Y-127269735D01*
X116266503Y-127269737D01*
X116421153Y-127300499D01*
X116421156Y-127300500D01*
X116421158Y-127300500D01*
X116578844Y-127300500D01*
X116578845Y-127300499D01*
X116733497Y-127269737D01*
X116879179Y-127209394D01*
X117010289Y-127121789D01*
X117121789Y-127010289D01*
X117209394Y-126879179D01*
X117269737Y-126733497D01*
X117289113Y-126636085D01*
X117300638Y-126578150D01*
X117309402Y-126561393D01*
X117313423Y-126542914D01*
X117332168Y-126517872D01*
X117333023Y-126516239D01*
X117334467Y-126514767D01*
X117457418Y-126391816D01*
X117518739Y-126358334D01*
X117545097Y-126355500D01*
X122895932Y-126355500D01*
X122962971Y-126375185D01*
X123006416Y-126423203D01*
X123066657Y-126541433D01*
X123205483Y-126732510D01*
X123372490Y-126899517D01*
X123407127Y-126924683D01*
X123449792Y-126980013D01*
X123455771Y-127049626D01*
X123423165Y-127111421D01*
X123407130Y-127125315D01*
X123389365Y-127138222D01*
X123372488Y-127150484D01*
X123205485Y-127317487D01*
X123205485Y-127317488D01*
X123205483Y-127317490D01*
X123145862Y-127399550D01*
X123066657Y-127508566D01*
X123006417Y-127626795D01*
X122958442Y-127677591D01*
X122895932Y-127694500D01*
X114684062Y-127694500D01*
X114684058Y-127694499D01*
X114525943Y-127694499D01*
X114507296Y-127699495D01*
X114492662Y-127699888D01*
X114487413Y-127698498D01*
X114484933Y-127698702D01*
X114484933Y-127699500D01*
X114321155Y-127699500D01*
X114166510Y-127730261D01*
X114166498Y-127730264D01*
X114020827Y-127790602D01*
X114020814Y-127790609D01*
X113889711Y-127878210D01*
X113889707Y-127878213D01*
X113778213Y-127989707D01*
X113778210Y-127989711D01*
X113690609Y-128120814D01*
X113690602Y-128120827D01*
X113630264Y-128266498D01*
X113630261Y-128266510D01*
X113599500Y-128421153D01*
X102000500Y-128421153D01*
X102000500Y-108921153D01*
X116699500Y-108921153D01*
X116699500Y-109078846D01*
X116730261Y-109233489D01*
X116730264Y-109233501D01*
X116790602Y-109379172D01*
X116790609Y-109379185D01*
X116878602Y-109510874D01*
X116899480Y-109577551D01*
X116899500Y-109579765D01*
X116899500Y-112920234D01*
X116879815Y-112987273D01*
X116878602Y-112989125D01*
X116790609Y-113120814D01*
X116790602Y-113120827D01*
X116730264Y-113266498D01*
X116730261Y-113266510D01*
X116699500Y-113421153D01*
X116699500Y-113578846D01*
X116730261Y-113733489D01*
X116730264Y-113733501D01*
X116790602Y-113879172D01*
X116790609Y-113879185D01*
X116878210Y-114010288D01*
X116878213Y-114010292D01*
X116989707Y-114121786D01*
X116989711Y-114121789D01*
X117120814Y-114209390D01*
X117120827Y-114209397D01*
X117266498Y-114269735D01*
X117266503Y-114269737D01*
X117420530Y-114300375D01*
X117421153Y-114300499D01*
X117421156Y-114300500D01*
X117421158Y-114300500D01*
X117578844Y-114300500D01*
X117578845Y-114300499D01*
X117733497Y-114269737D01*
X117879179Y-114209394D01*
X118010289Y-114121789D01*
X118121789Y-114010289D01*
X118209394Y-113879179D01*
X118269737Y-113733497D01*
X118300500Y-113578842D01*
X118300500Y-113421158D01*
X118300500Y-113421155D01*
X118300499Y-113421153D01*
X118297441Y-113405779D01*
X118269737Y-113266503D01*
X118254014Y-113228543D01*
X118209397Y-113120827D01*
X118209390Y-113120814D01*
X118121398Y-112989125D01*
X118100520Y-112922447D01*
X118100500Y-112920234D01*
X118100500Y-109579765D01*
X118120185Y-109512726D01*
X118121398Y-109510874D01*
X118209390Y-109379185D01*
X118209390Y-109379184D01*
X118209394Y-109379179D01*
X118269737Y-109233497D01*
X118300500Y-109078842D01*
X118300500Y-108921158D01*
X118300500Y-108921155D01*
X118300499Y-108921153D01*
X118289520Y-108865957D01*
X118269737Y-108766503D01*
X118269734Y-108766496D01*
X118269733Y-108766492D01*
X118209397Y-108620827D01*
X118209390Y-108620814D01*
X118121789Y-108489711D01*
X118121786Y-108489707D01*
X118010292Y-108378213D01*
X118010288Y-108378210D01*
X117879185Y-108290609D01*
X117879172Y-108290602D01*
X117733501Y-108230264D01*
X117733489Y-108230261D01*
X117578845Y-108199500D01*
X117578842Y-108199500D01*
X117421158Y-108199500D01*
X117421155Y-108199500D01*
X117266510Y-108230261D01*
X117266498Y-108230264D01*
X117120827Y-108290602D01*
X117120814Y-108290609D01*
X116989711Y-108378210D01*
X116989707Y-108378213D01*
X116878213Y-108489707D01*
X116878210Y-108489711D01*
X116790609Y-108620814D01*
X116790602Y-108620827D01*
X116730267Y-108766492D01*
X116730261Y-108766510D01*
X116699500Y-108921153D01*
X102000500Y-108921153D01*
X102000500Y-107421153D01*
X118199500Y-107421153D01*
X118199500Y-107578846D01*
X118230261Y-107733489D01*
X118230264Y-107733501D01*
X118290602Y-107879172D01*
X118290609Y-107879185D01*
X118378210Y-108010288D01*
X118378213Y-108010292D01*
X118489707Y-108121786D01*
X118489711Y-108121789D01*
X118620814Y-108209390D01*
X118620827Y-108209397D01*
X118727351Y-108253520D01*
X118766503Y-108269737D01*
X118921153Y-108300499D01*
X118921156Y-108300500D01*
X118921158Y-108300500D01*
X119078844Y-108300500D01*
X119078845Y-108300499D01*
X119233497Y-108269737D01*
X119379179Y-108209394D01*
X119510289Y-108121789D01*
X119621789Y-108010289D01*
X119709394Y-107879179D01*
X119713856Y-107868408D01*
X119769735Y-107733501D01*
X119769737Y-107733497D01*
X119795831Y-107602317D01*
X119800638Y-107578150D01*
X119833023Y-107516239D01*
X119834518Y-107514716D01*
X121014662Y-106334572D01*
X121075983Y-106301089D01*
X121078150Y-106300638D01*
X121136085Y-106289113D01*
X121233497Y-106269737D01*
X121379179Y-106209394D01*
X121510289Y-106121789D01*
X121621789Y-106010289D01*
X121709394Y-105879179D01*
X121769737Y-105733497D01*
X121800500Y-105578842D01*
X121800500Y-105421158D01*
X121800500Y-105421155D01*
X121800499Y-105421153D01*
X121769738Y-105266510D01*
X121769738Y-105266508D01*
X121769737Y-105266503D01*
X121769735Y-105266498D01*
X121709397Y-105120827D01*
X121709390Y-105120814D01*
X121621789Y-104989711D01*
X121621786Y-104989707D01*
X121510292Y-104878213D01*
X121510288Y-104878210D01*
X121379185Y-104790609D01*
X121379172Y-104790602D01*
X121233501Y-104730264D01*
X121233489Y-104730261D01*
X121078845Y-104699500D01*
X121078842Y-104699500D01*
X120921158Y-104699500D01*
X120921155Y-104699500D01*
X120766510Y-104730261D01*
X120766498Y-104730264D01*
X120620827Y-104790602D01*
X120620814Y-104790609D01*
X120489711Y-104878210D01*
X120489707Y-104878213D01*
X120378213Y-104989707D01*
X120378210Y-104989711D01*
X120290609Y-105120814D01*
X120290602Y-105120827D01*
X120230264Y-105266498D01*
X120230261Y-105266508D01*
X120199361Y-105421850D01*
X120166976Y-105483761D01*
X120165425Y-105485339D01*
X118985339Y-106665425D01*
X118924016Y-106698910D01*
X118921850Y-106699361D01*
X118766508Y-106730261D01*
X118766498Y-106730264D01*
X118620827Y-106790602D01*
X118620814Y-106790609D01*
X118489711Y-106878210D01*
X118489707Y-106878213D01*
X118378213Y-106989707D01*
X118378210Y-106989711D01*
X118290609Y-107120814D01*
X118290602Y-107120827D01*
X118230264Y-107266498D01*
X118230261Y-107266510D01*
X118199500Y-107421153D01*
X102000500Y-107421153D01*
X102000500Y-90587648D01*
X173199500Y-90587648D01*
X173199500Y-90792351D01*
X173231522Y-90994534D01*
X173294781Y-91189223D01*
X173387715Y-91371613D01*
X173508028Y-91537213D01*
X173652786Y-91681971D01*
X173807749Y-91794556D01*
X173818390Y-91802287D01*
X173934607Y-91861503D01*
X174000776Y-91895218D01*
X174000778Y-91895218D01*
X174000781Y-91895220D01*
X174105137Y-91929127D01*
X174195465Y-91958477D01*
X174296557Y-91974488D01*
X174397648Y-91990500D01*
X174397649Y-91990500D01*
X174602351Y-91990500D01*
X174602352Y-91990500D01*
X174804534Y-91958477D01*
X174999219Y-91895220D01*
X175181610Y-91802287D01*
X175274590Y-91734732D01*
X175347213Y-91681971D01*
X175347215Y-91681968D01*
X175347219Y-91681966D01*
X175491966Y-91537219D01*
X175491968Y-91537215D01*
X175491971Y-91537213D01*
X175608040Y-91377455D01*
X175612287Y-91371610D01*
X175705220Y-91189219D01*
X175768477Y-90994534D01*
X175800500Y-90792352D01*
X175800500Y-90587648D01*
X175779852Y-90457281D01*
X175768477Y-90385465D01*
X175731561Y-90271851D01*
X175705220Y-90190781D01*
X175705218Y-90190778D01*
X175705218Y-90190776D01*
X175640521Y-90063803D01*
X175612287Y-90008390D01*
X175551423Y-89924617D01*
X175491971Y-89842786D01*
X175347213Y-89698028D01*
X175181613Y-89577715D01*
X175181612Y-89577714D01*
X175181610Y-89577713D01*
X175124653Y-89548691D01*
X174999223Y-89484781D01*
X174804534Y-89421522D01*
X174629995Y-89393878D01*
X174602352Y-89389500D01*
X174397648Y-89389500D01*
X174373329Y-89393351D01*
X174195465Y-89421522D01*
X174000776Y-89484781D01*
X173818386Y-89577715D01*
X173652786Y-89698028D01*
X173508028Y-89842786D01*
X173387715Y-90008386D01*
X173294781Y-90190776D01*
X173231522Y-90385465D01*
X173199500Y-90587648D01*
X102000500Y-90587648D01*
X102000500Y-87019982D01*
X178899500Y-87019982D01*
X178899500Y-88820017D01*
X178910000Y-88922796D01*
X178910001Y-88922798D01*
X178965186Y-89089335D01*
X179057288Y-89238656D01*
X179181344Y-89362712D01*
X179330665Y-89454814D01*
X179497202Y-89509999D01*
X179599990Y-89520500D01*
X179599995Y-89520500D01*
X181400005Y-89520500D01*
X181400010Y-89520500D01*
X181502798Y-89509999D01*
X181669335Y-89454814D01*
X181818656Y-89362712D01*
X181942712Y-89238656D01*
X182034814Y-89089335D01*
X182089999Y-88922798D01*
X182100500Y-88820010D01*
X182100500Y-88818872D01*
X185349500Y-88818872D01*
X185349500Y-89081127D01*
X185376123Y-89283339D01*
X185383730Y-89341116D01*
X185431796Y-89520500D01*
X185451602Y-89594418D01*
X185451605Y-89594428D01*
X185551953Y-89836690D01*
X185551958Y-89836700D01*
X185683075Y-90063803D01*
X185842718Y-90271851D01*
X185842726Y-90271860D01*
X186028140Y-90457274D01*
X186028148Y-90457281D01*
X186236196Y-90616924D01*
X186463299Y-90748041D01*
X186463309Y-90748046D01*
X186705571Y-90848394D01*
X186705581Y-90848398D01*
X186958884Y-90916270D01*
X187218880Y-90950500D01*
X187218887Y-90950500D01*
X187481113Y-90950500D01*
X187481120Y-90950500D01*
X187741116Y-90916270D01*
X187994419Y-90848398D01*
X188236697Y-90748043D01*
X188463803Y-90616924D01*
X188671851Y-90457282D01*
X188671855Y-90457277D01*
X188671860Y-90457274D01*
X188857274Y-90271860D01*
X188857277Y-90271855D01*
X188857282Y-90271851D01*
X189016924Y-90063803D01*
X189148043Y-89836697D01*
X189248398Y-89594419D01*
X189316270Y-89341116D01*
X189350500Y-89081120D01*
X189350500Y-88835258D01*
X197799500Y-88835258D01*
X197799500Y-89064741D01*
X197822398Y-89238656D01*
X197829452Y-89292238D01*
X197873013Y-89454812D01*
X197888842Y-89513887D01*
X197976650Y-89725876D01*
X197976657Y-89725890D01*
X198091392Y-89924617D01*
X198231081Y-90106661D01*
X198231089Y-90106670D01*
X198393330Y-90268911D01*
X198393338Y-90268918D01*
X198575382Y-90408607D01*
X198575385Y-90408608D01*
X198575388Y-90408611D01*
X198774112Y-90523344D01*
X198774117Y-90523346D01*
X198774123Y-90523349D01*
X198865480Y-90561190D01*
X198986113Y-90611158D01*
X199207762Y-90670548D01*
X199435266Y-90700500D01*
X199435273Y-90700500D01*
X199664727Y-90700500D01*
X199664734Y-90700500D01*
X199892238Y-90670548D01*
X200113887Y-90611158D01*
X200325888Y-90523344D01*
X200524612Y-90408611D01*
X200706661Y-90268919D01*
X200706665Y-90268914D01*
X200706670Y-90268911D01*
X200868911Y-90106670D01*
X200868914Y-90106665D01*
X200868919Y-90106661D01*
X201008611Y-89924612D01*
X201123344Y-89725888D01*
X201211158Y-89513887D01*
X201270548Y-89292238D01*
X201300500Y-89064734D01*
X201300500Y-88835266D01*
X201270548Y-88607762D01*
X201211158Y-88386113D01*
X201123344Y-88174112D01*
X201008611Y-87975388D01*
X201008608Y-87975385D01*
X201008607Y-87975382D01*
X200868918Y-87793338D01*
X200868911Y-87793330D01*
X200706670Y-87631089D01*
X200706661Y-87631081D01*
X200524617Y-87491392D01*
X200325890Y-87376657D01*
X200325876Y-87376650D01*
X200113887Y-87288842D01*
X200092364Y-87283075D01*
X199892238Y-87229452D01*
X199854215Y-87224446D01*
X199664741Y-87199500D01*
X199664734Y-87199500D01*
X199435266Y-87199500D01*
X199435258Y-87199500D01*
X199218715Y-87228009D01*
X199207762Y-87229452D01*
X199114076Y-87254554D01*
X198986112Y-87288842D01*
X198774123Y-87376650D01*
X198774109Y-87376657D01*
X198575382Y-87491392D01*
X198393338Y-87631081D01*
X198231081Y-87793338D01*
X198091392Y-87975382D01*
X197976657Y-88174109D01*
X197976650Y-88174123D01*
X197888842Y-88386112D01*
X197829453Y-88607759D01*
X197829451Y-88607770D01*
X197799500Y-88835258D01*
X189350500Y-88835258D01*
X189350500Y-88818880D01*
X189316270Y-88558884D01*
X189248398Y-88305581D01*
X189248394Y-88305571D01*
X189148046Y-88063309D01*
X189148041Y-88063299D01*
X189016924Y-87836196D01*
X188857281Y-87628148D01*
X188857274Y-87628140D01*
X188671860Y-87442726D01*
X188671851Y-87442718D01*
X188463803Y-87283075D01*
X188236700Y-87151958D01*
X188236690Y-87151953D01*
X187994428Y-87051605D01*
X187994421Y-87051603D01*
X187994419Y-87051602D01*
X187741116Y-86983730D01*
X187683339Y-86976123D01*
X187481127Y-86949500D01*
X187481120Y-86949500D01*
X187218880Y-86949500D01*
X187218872Y-86949500D01*
X186987772Y-86979926D01*
X186958884Y-86983730D01*
X186823541Y-87019995D01*
X186705581Y-87051602D01*
X186705571Y-87051605D01*
X186463309Y-87151953D01*
X186463299Y-87151958D01*
X186236196Y-87283075D01*
X186028148Y-87442718D01*
X185842718Y-87628148D01*
X185683075Y-87836196D01*
X185551958Y-88063299D01*
X185551953Y-88063309D01*
X185451605Y-88305571D01*
X185451602Y-88305581D01*
X185383730Y-88558885D01*
X185349500Y-88818872D01*
X182100500Y-88818872D01*
X182100500Y-87019990D01*
X182089999Y-86917202D01*
X182034814Y-86750665D01*
X181942712Y-86601344D01*
X181818656Y-86477288D01*
X181669335Y-86385186D01*
X181502798Y-86330001D01*
X181502796Y-86330000D01*
X181400017Y-86319500D01*
X181400010Y-86319500D01*
X179599990Y-86319500D01*
X179599982Y-86319500D01*
X179497203Y-86330000D01*
X179497202Y-86330001D01*
X179441853Y-86348342D01*
X179330667Y-86385185D01*
X179330662Y-86385187D01*
X179181342Y-86477289D01*
X179057289Y-86601342D01*
X178965187Y-86750662D01*
X178965186Y-86750665D01*
X178910001Y-86917202D01*
X178910001Y-86917203D01*
X178910000Y-86917203D01*
X178899500Y-87019982D01*
X102000500Y-87019982D01*
X102000500Y-84893713D01*
X104029500Y-84893713D01*
X104029500Y-85106287D01*
X104031235Y-85117240D01*
X104062753Y-85316239D01*
X104128444Y-85518414D01*
X104224951Y-85707820D01*
X104349890Y-85879786D01*
X104500213Y-86030109D01*
X104672179Y-86155048D01*
X104672181Y-86155049D01*
X104672184Y-86155051D01*
X104861588Y-86251557D01*
X105063757Y-86317246D01*
X105273713Y-86350500D01*
X105273714Y-86350500D01*
X105486286Y-86350500D01*
X105486287Y-86350500D01*
X105696243Y-86317246D01*
X105898412Y-86251557D01*
X106087816Y-86155051D01*
X106174478Y-86092088D01*
X106259786Y-86030109D01*
X106259788Y-86030106D01*
X106259792Y-86030104D01*
X106410104Y-85879792D01*
X106410106Y-85879788D01*
X106410109Y-85879786D01*
X106535048Y-85707820D01*
X106535047Y-85707820D01*
X106535051Y-85707816D01*
X106539514Y-85699054D01*
X106587488Y-85648259D01*
X106655308Y-85631463D01*
X106721444Y-85653999D01*
X106760486Y-85699056D01*
X106764951Y-85707820D01*
X106889890Y-85879786D01*
X107040213Y-86030109D01*
X107212179Y-86155048D01*
X107212181Y-86155049D01*
X107212184Y-86155051D01*
X107401588Y-86251557D01*
X107603757Y-86317246D01*
X107813713Y-86350500D01*
X107813714Y-86350500D01*
X108026286Y-86350500D01*
X108026287Y-86350500D01*
X108236243Y-86317246D01*
X108438412Y-86251557D01*
X108627816Y-86155051D01*
X108714478Y-86092088D01*
X108799786Y-86030109D01*
X108799788Y-86030106D01*
X108799792Y-86030104D01*
X108950104Y-85879792D01*
X108950106Y-85879788D01*
X108950109Y-85879786D01*
X109075048Y-85707820D01*
X109075047Y-85707820D01*
X109075051Y-85707816D01*
X109079514Y-85699054D01*
X109127488Y-85648259D01*
X109195308Y-85631463D01*
X109261444Y-85653999D01*
X109300486Y-85699056D01*
X109304951Y-85707820D01*
X109429890Y-85879786D01*
X109580213Y-86030109D01*
X109752179Y-86155048D01*
X109752181Y-86155049D01*
X109752184Y-86155051D01*
X109941588Y-86251557D01*
X110143757Y-86317246D01*
X110353713Y-86350500D01*
X110353714Y-86350500D01*
X110566286Y-86350500D01*
X110566287Y-86350500D01*
X110776243Y-86317246D01*
X110978412Y-86251557D01*
X111167816Y-86155051D01*
X111254478Y-86092088D01*
X111339786Y-86030109D01*
X111339788Y-86030106D01*
X111339792Y-86030104D01*
X111490104Y-85879792D01*
X111490106Y-85879788D01*
X111490109Y-85879786D01*
X111615048Y-85707820D01*
X111615047Y-85707820D01*
X111615051Y-85707816D01*
X111619514Y-85699054D01*
X111667488Y-85648259D01*
X111735308Y-85631463D01*
X111801444Y-85653999D01*
X111840486Y-85699056D01*
X111844951Y-85707820D01*
X111969890Y-85879786D01*
X112120213Y-86030109D01*
X112292179Y-86155048D01*
X112292181Y-86155049D01*
X112292184Y-86155051D01*
X112481588Y-86251557D01*
X112683757Y-86317246D01*
X112893713Y-86350500D01*
X112893714Y-86350500D01*
X113106286Y-86350500D01*
X113106287Y-86350500D01*
X113316243Y-86317246D01*
X113518412Y-86251557D01*
X113707816Y-86155051D01*
X113794478Y-86092088D01*
X113879786Y-86030109D01*
X113879788Y-86030106D01*
X113879792Y-86030104D01*
X114030104Y-85879792D01*
X114030106Y-85879788D01*
X114030109Y-85879786D01*
X114155048Y-85707820D01*
X114155047Y-85707820D01*
X114155051Y-85707816D01*
X114159514Y-85699054D01*
X114207488Y-85648259D01*
X114275308Y-85631463D01*
X114341444Y-85653999D01*
X114380486Y-85699056D01*
X114384951Y-85707820D01*
X114509890Y-85879786D01*
X114660213Y-86030109D01*
X114832179Y-86155048D01*
X114832181Y-86155049D01*
X114832184Y-86155051D01*
X115021588Y-86251557D01*
X115223757Y-86317246D01*
X115433713Y-86350500D01*
X115433714Y-86350500D01*
X115646286Y-86350500D01*
X115646287Y-86350500D01*
X115856243Y-86317246D01*
X116058412Y-86251557D01*
X116247816Y-86155051D01*
X116334478Y-86092088D01*
X116419784Y-86030110D01*
X116419784Y-86030109D01*
X116419792Y-86030104D01*
X116533717Y-85916178D01*
X116595036Y-85882696D01*
X116664728Y-85887680D01*
X116720662Y-85929551D01*
X116737577Y-85960528D01*
X116786646Y-86092088D01*
X116786649Y-86092093D01*
X116872809Y-86207187D01*
X116872812Y-86207190D01*
X116987906Y-86293350D01*
X116987913Y-86293354D01*
X117122620Y-86343596D01*
X117122627Y-86343598D01*
X117182155Y-86349999D01*
X117182172Y-86350000D01*
X117830000Y-86350000D01*
X117830000Y-85433012D01*
X117887007Y-85465925D01*
X118014174Y-85500000D01*
X118145826Y-85500000D01*
X118272993Y-85465925D01*
X118330000Y-85433012D01*
X118330000Y-86350000D01*
X118977828Y-86350000D01*
X118977844Y-86349999D01*
X119037372Y-86343598D01*
X119037379Y-86343596D01*
X119172086Y-86293354D01*
X119172093Y-86293350D01*
X119287187Y-86207190D01*
X119287190Y-86207187D01*
X119373350Y-86092093D01*
X119373354Y-86092086D01*
X119423596Y-85957379D01*
X119423598Y-85957372D01*
X119429999Y-85897844D01*
X119430000Y-85897827D01*
X119430000Y-85250000D01*
X118513012Y-85250000D01*
X118545925Y-85192993D01*
X118580000Y-85065826D01*
X118580000Y-84934174D01*
X118545925Y-84807007D01*
X118513012Y-84750000D01*
X119430000Y-84750000D01*
X119430000Y-84660258D01*
X123019500Y-84660258D01*
X123019500Y-84889741D01*
X123036633Y-85019871D01*
X123049452Y-85117238D01*
X123085025Y-85250000D01*
X123108842Y-85338887D01*
X123196650Y-85550876D01*
X123196656Y-85550888D01*
X123287260Y-85707820D01*
X123311392Y-85749617D01*
X123451081Y-85931661D01*
X123451089Y-85931670D01*
X123613330Y-86093911D01*
X123613338Y-86093918D01*
X123795382Y-86233607D01*
X123795385Y-86233608D01*
X123795388Y-86233611D01*
X123994112Y-86348344D01*
X123994117Y-86348346D01*
X123994123Y-86348349D01*
X124083054Y-86385185D01*
X124206113Y-86436158D01*
X124427762Y-86495548D01*
X124655266Y-86525500D01*
X124655273Y-86525500D01*
X124884727Y-86525500D01*
X124884734Y-86525500D01*
X125112238Y-86495548D01*
X125333887Y-86436158D01*
X125541890Y-86350000D01*
X125545876Y-86348349D01*
X125545876Y-86348348D01*
X125545888Y-86348344D01*
X125744612Y-86233611D01*
X125926661Y-86093919D01*
X125926665Y-86093914D01*
X125926670Y-86093911D01*
X126088911Y-85931670D01*
X126088914Y-85931665D01*
X126088919Y-85931661D01*
X126228611Y-85749612D01*
X126343344Y-85550888D01*
X126431158Y-85338887D01*
X126490548Y-85117238D01*
X126520500Y-84889734D01*
X126520500Y-84660266D01*
X126520499Y-84660258D01*
X147529500Y-84660258D01*
X147529500Y-84889741D01*
X147546633Y-85019871D01*
X147559452Y-85117238D01*
X147595025Y-85250000D01*
X147618842Y-85338887D01*
X147706650Y-85550876D01*
X147706656Y-85550888D01*
X147797260Y-85707820D01*
X147821392Y-85749617D01*
X147961081Y-85931661D01*
X147961089Y-85931670D01*
X148123330Y-86093911D01*
X148123338Y-86093918D01*
X148305382Y-86233607D01*
X148305385Y-86233608D01*
X148305388Y-86233611D01*
X148504112Y-86348344D01*
X148504117Y-86348346D01*
X148504123Y-86348349D01*
X148593054Y-86385185D01*
X148716113Y-86436158D01*
X148937762Y-86495548D01*
X149165266Y-86525500D01*
X149165273Y-86525500D01*
X149394727Y-86525500D01*
X149394734Y-86525500D01*
X149622238Y-86495548D01*
X149843887Y-86436158D01*
X150051890Y-86350000D01*
X150055876Y-86348349D01*
X150055876Y-86348348D01*
X150055888Y-86348344D01*
X150254612Y-86233611D01*
X150436661Y-86093919D01*
X150436665Y-86093914D01*
X150436670Y-86093911D01*
X150598911Y-85931670D01*
X150598914Y-85931665D01*
X150598919Y-85931661D01*
X150738611Y-85749612D01*
X150853344Y-85550888D01*
X150941158Y-85338887D01*
X151000548Y-85117238D01*
X151030500Y-84889734D01*
X151030500Y-84660266D01*
X151000548Y-84432762D01*
X150941158Y-84211113D01*
X150889587Y-84086610D01*
X150853349Y-83999123D01*
X150853344Y-83999113D01*
X150853344Y-83999112D01*
X150803852Y-83913389D01*
X153999500Y-83913389D01*
X153999500Y-84086611D01*
X154026598Y-84257701D01*
X154080127Y-84422445D01*
X154158768Y-84576788D01*
X154260586Y-84716928D01*
X154383072Y-84839414D01*
X154523212Y-84941232D01*
X154677555Y-85019873D01*
X154842299Y-85073402D01*
X155013389Y-85100500D01*
X155013390Y-85100500D01*
X155986610Y-85100500D01*
X155986611Y-85100500D01*
X156157701Y-85073402D01*
X156322445Y-85019873D01*
X156476788Y-84941232D01*
X156616928Y-84839414D01*
X156739414Y-84716928D01*
X156841232Y-84576788D01*
X156919873Y-84422445D01*
X156973402Y-84257701D01*
X157000500Y-84086611D01*
X157000500Y-83913389D01*
X166999500Y-83913389D01*
X166999500Y-84086611D01*
X167026598Y-84257701D01*
X167080127Y-84422445D01*
X167158768Y-84576788D01*
X167260586Y-84716928D01*
X167383072Y-84839414D01*
X167523212Y-84941232D01*
X167677555Y-85019873D01*
X167842299Y-85073402D01*
X168013389Y-85100500D01*
X168013390Y-85100500D01*
X168986610Y-85100500D01*
X168986611Y-85100500D01*
X169157701Y-85073402D01*
X169322445Y-85019873D01*
X169476788Y-84941232D01*
X169616928Y-84839414D01*
X169739414Y-84716928D01*
X169841232Y-84576788D01*
X169919873Y-84422445D01*
X169973402Y-84257701D01*
X170000500Y-84086611D01*
X170000500Y-83913389D01*
X169973402Y-83742299D01*
X169919873Y-83577555D01*
X169841232Y-83423212D01*
X169739414Y-83283072D01*
X169616928Y-83160586D01*
X169476788Y-83058768D01*
X169322445Y-82980127D01*
X169157701Y-82926598D01*
X169157699Y-82926597D01*
X169157698Y-82926597D01*
X169026271Y-82905781D01*
X168986611Y-82899500D01*
X168013389Y-82899500D01*
X167973728Y-82905781D01*
X167842302Y-82926597D01*
X167677552Y-82980128D01*
X167523211Y-83058768D01*
X167447409Y-83113842D01*
X167383072Y-83160586D01*
X167383070Y-83160588D01*
X167383069Y-83160588D01*
X167260588Y-83283069D01*
X167260588Y-83283070D01*
X167260586Y-83283072D01*
X167236380Y-83316389D01*
X167158768Y-83423211D01*
X167080128Y-83577552D01*
X167026597Y-83742302D01*
X167004660Y-83880807D01*
X166999500Y-83913389D01*
X157000500Y-83913389D01*
X156973402Y-83742299D01*
X156919873Y-83577555D01*
X156841232Y-83423212D01*
X156739414Y-83283072D01*
X156616928Y-83160586D01*
X156476788Y-83058768D01*
X156322445Y-82980127D01*
X156157701Y-82926598D01*
X156157699Y-82926597D01*
X156157698Y-82926597D01*
X156026271Y-82905781D01*
X155986611Y-82899500D01*
X155013389Y-82899500D01*
X154973728Y-82905781D01*
X154842302Y-82926597D01*
X154677552Y-82980128D01*
X154523211Y-83058768D01*
X154447409Y-83113842D01*
X154383072Y-83160586D01*
X154383070Y-83160588D01*
X154383069Y-83160588D01*
X154260588Y-83283069D01*
X154260588Y-83283070D01*
X154260586Y-83283072D01*
X154236380Y-83316389D01*
X154158768Y-83423211D01*
X154080128Y-83577552D01*
X154026597Y-83742302D01*
X154004660Y-83880807D01*
X153999500Y-83913389D01*
X150803852Y-83913389D01*
X150738611Y-83800388D01*
X150738608Y-83800385D01*
X150738607Y-83800382D01*
X150598918Y-83618338D01*
X150598911Y-83618330D01*
X150436670Y-83456089D01*
X150436661Y-83456081D01*
X150254617Y-83316392D01*
X150055890Y-83201657D01*
X150055876Y-83201650D01*
X149843887Y-83113842D01*
X149622238Y-83054452D01*
X149584215Y-83049446D01*
X149394741Y-83024500D01*
X149394734Y-83024500D01*
X149165266Y-83024500D01*
X149165258Y-83024500D01*
X148948715Y-83053009D01*
X148937762Y-83054452D01*
X148844076Y-83079554D01*
X148716112Y-83113842D01*
X148504123Y-83201650D01*
X148504109Y-83201657D01*
X148305382Y-83316392D01*
X148123338Y-83456081D01*
X147961081Y-83618338D01*
X147821392Y-83800382D01*
X147706657Y-83999109D01*
X147706650Y-83999123D01*
X147618842Y-84211112D01*
X147618842Y-84211113D01*
X147562217Y-84422445D01*
X147559453Y-84432759D01*
X147559451Y-84432770D01*
X147529500Y-84660258D01*
X126520499Y-84660258D01*
X126490548Y-84432762D01*
X126431158Y-84211113D01*
X126379587Y-84086610D01*
X126343349Y-83999123D01*
X126343344Y-83999113D01*
X126343344Y-83999112D01*
X126228611Y-83800388D01*
X126228608Y-83800385D01*
X126228607Y-83800382D01*
X126088918Y-83618338D01*
X126088911Y-83618330D01*
X125926670Y-83456089D01*
X125926661Y-83456081D01*
X125744617Y-83316392D01*
X125545890Y-83201657D01*
X125545876Y-83201650D01*
X125333887Y-83113842D01*
X125112238Y-83054452D01*
X125074215Y-83049446D01*
X124884741Y-83024500D01*
X124884734Y-83024500D01*
X124655266Y-83024500D01*
X124655258Y-83024500D01*
X124438715Y-83053009D01*
X124427762Y-83054452D01*
X124334076Y-83079554D01*
X124206112Y-83113842D01*
X123994123Y-83201650D01*
X123994109Y-83201657D01*
X123795382Y-83316392D01*
X123613338Y-83456081D01*
X123451081Y-83618338D01*
X123311392Y-83800382D01*
X123196657Y-83999109D01*
X123196650Y-83999123D01*
X123108842Y-84211112D01*
X123108842Y-84211113D01*
X123052217Y-84422445D01*
X123049453Y-84432759D01*
X123049451Y-84432770D01*
X123019500Y-84660258D01*
X119430000Y-84660258D01*
X119430000Y-84102172D01*
X119429999Y-84102155D01*
X119423598Y-84042627D01*
X119423596Y-84042620D01*
X119373354Y-83907913D01*
X119373350Y-83907906D01*
X119287190Y-83792812D01*
X119287187Y-83792809D01*
X119172093Y-83706649D01*
X119172086Y-83706645D01*
X119037379Y-83656403D01*
X119037372Y-83656401D01*
X118977844Y-83650000D01*
X118330000Y-83650000D01*
X118330000Y-84566988D01*
X118272993Y-84534075D01*
X118145826Y-84500000D01*
X118014174Y-84500000D01*
X117887007Y-84534075D01*
X117830000Y-84566988D01*
X117830000Y-83650000D01*
X117182155Y-83650000D01*
X117122627Y-83656401D01*
X117122620Y-83656403D01*
X116987913Y-83706645D01*
X116987906Y-83706649D01*
X116872812Y-83792809D01*
X116872809Y-83792812D01*
X116786649Y-83907906D01*
X116786646Y-83907912D01*
X116737577Y-84039471D01*
X116695705Y-84095404D01*
X116630241Y-84119821D01*
X116561968Y-84104969D01*
X116533714Y-84083818D01*
X116419786Y-83969890D01*
X116247820Y-83844951D01*
X116058414Y-83748444D01*
X116058413Y-83748443D01*
X116058412Y-83748443D01*
X115856243Y-83682754D01*
X115856241Y-83682753D01*
X115856240Y-83682753D01*
X115694957Y-83657208D01*
X115646287Y-83649500D01*
X115433713Y-83649500D01*
X115385042Y-83657208D01*
X115223760Y-83682753D01*
X115021585Y-83748444D01*
X114832179Y-83844951D01*
X114660213Y-83969890D01*
X114509890Y-84120213D01*
X114384949Y-84292182D01*
X114380484Y-84300946D01*
X114332509Y-84351742D01*
X114264688Y-84368536D01*
X114198553Y-84345998D01*
X114159516Y-84300946D01*
X114155050Y-84292182D01*
X114030109Y-84120213D01*
X113879786Y-83969890D01*
X113707820Y-83844951D01*
X113518414Y-83748444D01*
X113518413Y-83748443D01*
X113518412Y-83748443D01*
X113316243Y-83682754D01*
X113316241Y-83682753D01*
X113316240Y-83682753D01*
X113154957Y-83657208D01*
X113106287Y-83649500D01*
X112893713Y-83649500D01*
X112762674Y-83670254D01*
X112693381Y-83661299D01*
X112639929Y-83616303D01*
X112619290Y-83549551D01*
X112638015Y-83482238D01*
X112640175Y-83478890D01*
X112655415Y-83456081D01*
X112701576Y-83386997D01*
X112761919Y-83241315D01*
X112787275Y-83113842D01*
X112792820Y-83085968D01*
X112825205Y-83024057D01*
X112826700Y-83022534D01*
X113212416Y-82636819D01*
X113273739Y-82603334D01*
X113300097Y-82600500D01*
X114920234Y-82600500D01*
X114987273Y-82620185D01*
X114989125Y-82621398D01*
X115120814Y-82709390D01*
X115120827Y-82709397D01*
X115266498Y-82769735D01*
X115266503Y-82769737D01*
X115421153Y-82800499D01*
X115421156Y-82800500D01*
X115421158Y-82800500D01*
X115578844Y-82800500D01*
X115578845Y-82800499D01*
X115733497Y-82769737D01*
X115879179Y-82709394D01*
X116010289Y-82621789D01*
X116121789Y-82510289D01*
X116209394Y-82379179D01*
X116269737Y-82233497D01*
X116300500Y-82078842D01*
X116300500Y-81921158D01*
X116300500Y-81921155D01*
X116300499Y-81921153D01*
X116269738Y-81766510D01*
X116269737Y-81766503D01*
X116213728Y-81631284D01*
X116209397Y-81620827D01*
X116209390Y-81620814D01*
X116121789Y-81489711D01*
X116121786Y-81489707D01*
X116010292Y-81378213D01*
X116010288Y-81378210D01*
X115879185Y-81290609D01*
X115879172Y-81290602D01*
X115733501Y-81230264D01*
X115733489Y-81230261D01*
X115578845Y-81199500D01*
X115578842Y-81199500D01*
X115421158Y-81199500D01*
X115421155Y-81199500D01*
X115266510Y-81230261D01*
X115266498Y-81230264D01*
X115120827Y-81290602D01*
X115120814Y-81290609D01*
X114989125Y-81378602D01*
X114922447Y-81399480D01*
X114920234Y-81399500D01*
X113086669Y-81399500D01*
X113086653Y-81399499D01*
X113079057Y-81399499D01*
X112920943Y-81399499D01*
X112813587Y-81428265D01*
X112768210Y-81440424D01*
X112768209Y-81440425D01*
X112718096Y-81469359D01*
X112718095Y-81469360D01*
X112682853Y-81489707D01*
X112631285Y-81519479D01*
X112631282Y-81519481D01*
X111977521Y-82173243D01*
X111916198Y-82206728D01*
X111914032Y-82207179D01*
X111758690Y-82238079D01*
X111758680Y-82238082D01*
X111613009Y-82298420D01*
X111612996Y-82298427D01*
X111481893Y-82386028D01*
X111481889Y-82386031D01*
X111370395Y-82497525D01*
X111370392Y-82497529D01*
X111282791Y-82628632D01*
X111282784Y-82628645D01*
X111222446Y-82774316D01*
X111222443Y-82774328D01*
X111191682Y-82928971D01*
X111191682Y-83086664D01*
X111222443Y-83241307D01*
X111222446Y-83241319D01*
X111282784Y-83386990D01*
X111282791Y-83387003D01*
X111370392Y-83518106D01*
X111370395Y-83518110D01*
X111481889Y-83629604D01*
X111481893Y-83629607D01*
X111612996Y-83717208D01*
X111613009Y-83717215D01*
X111688404Y-83748444D01*
X111758685Y-83777555D01*
X111913335Y-83808317D01*
X111913338Y-83808318D01*
X111982424Y-83808318D01*
X112049463Y-83828003D01*
X112095218Y-83880807D01*
X112105162Y-83949965D01*
X112076137Y-84013521D01*
X112070105Y-84019999D01*
X111969894Y-84120209D01*
X111969890Y-84120213D01*
X111844949Y-84292182D01*
X111840484Y-84300946D01*
X111792509Y-84351742D01*
X111724688Y-84368536D01*
X111658553Y-84345998D01*
X111619516Y-84300946D01*
X111615050Y-84292182D01*
X111490109Y-84120213D01*
X111339786Y-83969890D01*
X111167820Y-83844951D01*
X110978414Y-83748444D01*
X110978413Y-83748443D01*
X110978412Y-83748443D01*
X110776243Y-83682754D01*
X110776241Y-83682753D01*
X110776240Y-83682753D01*
X110614957Y-83657208D01*
X110566287Y-83649500D01*
X110353713Y-83649500D01*
X110305042Y-83657208D01*
X110143760Y-83682753D01*
X109941585Y-83748444D01*
X109752179Y-83844951D01*
X109580213Y-83969890D01*
X109429890Y-84120213D01*
X109304949Y-84292182D01*
X109300484Y-84300946D01*
X109252509Y-84351742D01*
X109184688Y-84368536D01*
X109118553Y-84345998D01*
X109079516Y-84300946D01*
X109075050Y-84292182D01*
X108950109Y-84120213D01*
X108799786Y-83969890D01*
X108627820Y-83844951D01*
X108438414Y-83748444D01*
X108438413Y-83748443D01*
X108438412Y-83748443D01*
X108236243Y-83682754D01*
X108236241Y-83682753D01*
X108236240Y-83682753D01*
X108074957Y-83657208D01*
X108026287Y-83649500D01*
X107813713Y-83649500D01*
X107765042Y-83657208D01*
X107603760Y-83682753D01*
X107401585Y-83748444D01*
X107212179Y-83844951D01*
X107040213Y-83969890D01*
X106889890Y-84120213D01*
X106764949Y-84292182D01*
X106760484Y-84300946D01*
X106712509Y-84351742D01*
X106644688Y-84368536D01*
X106578553Y-84345998D01*
X106539516Y-84300946D01*
X106535050Y-84292182D01*
X106410109Y-84120213D01*
X106259786Y-83969890D01*
X106087820Y-83844951D01*
X105898414Y-83748444D01*
X105898413Y-83748443D01*
X105898412Y-83748443D01*
X105696243Y-83682754D01*
X105696241Y-83682753D01*
X105696240Y-83682753D01*
X105534957Y-83657208D01*
X105486287Y-83649500D01*
X105273713Y-83649500D01*
X105225042Y-83657208D01*
X105063760Y-83682753D01*
X104861585Y-83748444D01*
X104672179Y-83844951D01*
X104500213Y-83969890D01*
X104349890Y-84120213D01*
X104224951Y-84292179D01*
X104128444Y-84481585D01*
X104128443Y-84481587D01*
X104128443Y-84481588D01*
X104095598Y-84582672D01*
X104062753Y-84683760D01*
X104052262Y-84750000D01*
X104029500Y-84893713D01*
X102000500Y-84893713D01*
X102000500Y-80624500D01*
X102020185Y-80557461D01*
X102072989Y-80511706D01*
X102124500Y-80500500D01*
X204375500Y-80500500D01*
X204442539Y-80520185D01*
G37*
%TD.AperFunction*%
%TD*%
M02*
