%TF.GenerationSoftware,KiCad,Pcbnew,10.0.4*%
%TF.CreationDate,2026-06-29T20:54:42+07:00*%
%TF.ProjectId,Control Unit,436f6e74-726f-46c2-9055-6e69742e6b69,rev?*%
%TF.SameCoordinates,Original*%
%TF.FileFunction,Copper,L1,Top*%
%TF.FilePolarity,Positive*%
%FSLAX46Y46*%
G04 Gerber Fmt 4.6, Leading zero omitted, Abs format (unit mm)*
G04 Created by KiCad (PCBNEW 10.0.4) date 2026-06-29 20:54:42*
%MOMM*%
%LPD*%
G01*
G04 APERTURE LIST*
G04 Aperture macros list*
%AMRoundRect*
0 Rectangle with rounded corners*
0 $1 Rounding radius*
0 $2 $3 $4 $5 $6 $7 $8 $9 X,Y pos of 4 corners*
0 Add a 4 corners polygon primitive as box body*
4,1,4,$2,$3,$4,$5,$6,$7,$8,$9,$2,$3,0*
0 Add four circle primitives for the rounded corners*
1,1,$1+$1,$2,$3*
1,1,$1+$1,$4,$5*
1,1,$1+$1,$6,$7*
1,1,$1+$1,$8,$9*
0 Add four rect primitives between the rounded corners*
20,1,$1+$1,$2,$3,$4,$5,0*
20,1,$1+$1,$4,$5,$6,$7,0*
20,1,$1+$1,$6,$7,$8,$9,0*
20,1,$1+$1,$8,$9,$2,$3,0*%
G04 Aperture macros list end*
%TA.AperFunction,ComponentPad*%
%ADD10RoundRect,0.250000X1.325000X-1.325000X1.325000X1.325000X-1.325000X1.325000X-1.325000X-1.325000X0*%
%TD*%
%TA.AperFunction,ComponentPad*%
%ADD11C,3.150000*%
%TD*%
%TA.AperFunction,ComponentPad*%
%ADD12C,1.600000*%
%TD*%
%TA.AperFunction,ComponentPad*%
%ADD13RoundRect,0.249999X-0.850001X0.850001X-0.850001X-0.850001X0.850001X-0.850001X0.850001X0.850001X0*%
%TD*%
%TA.AperFunction,ComponentPad*%
%ADD14C,2.200000*%
%TD*%
%TA.AperFunction,ComponentPad*%
%ADD15RoundRect,0.250000X-0.600000X-0.725000X0.600000X-0.725000X0.600000X0.725000X-0.600000X0.725000X0*%
%TD*%
%TA.AperFunction,ComponentPad*%
%ADD16O,1.700000X1.950000*%
%TD*%
%TA.AperFunction,ComponentPad*%
%ADD17C,2.400000*%
%TD*%
%TA.AperFunction,ComponentPad*%
%ADD18RoundRect,0.250001X-0.949999X-0.949999X0.949999X-0.949999X0.949999X0.949999X-0.949999X0.949999X0*%
%TD*%
%TA.AperFunction,SMDPad,CuDef*%
%ADD19RoundRect,0.250000X-0.375000X-1.000000X0.375000X-1.000000X0.375000X1.000000X-0.375000X1.000000X0*%
%TD*%
%TA.AperFunction,ComponentPad*%
%ADD20O,2.000000X1.200000*%
%TD*%
%TA.AperFunction,ComponentPad*%
%ADD21C,3.000000*%
%TD*%
%TA.AperFunction,ComponentPad*%
%ADD22C,2.500000*%
%TD*%
%TA.AperFunction,ComponentPad*%
%ADD23R,2.000000X2.000000*%
%TD*%
%TA.AperFunction,ComponentPad*%
%ADD24C,2.000000*%
%TD*%
%TA.AperFunction,ComponentPad*%
%ADD25RoundRect,0.250000X0.550000X0.550000X-0.550000X0.550000X-0.550000X-0.550000X0.550000X-0.550000X0*%
%TD*%
%TA.AperFunction,ComponentPad*%
%ADD26R,1.700000X1.700000*%
%TD*%
%TA.AperFunction,ComponentPad*%
%ADD27C,1.700000*%
%TD*%
%TA.AperFunction,ViaPad*%
%ADD28C,0.600000*%
%TD*%
%TA.AperFunction,Conductor*%
%ADD29C,0.200000*%
%TD*%
%TA.AperFunction,Conductor*%
%ADD30C,1.000000*%
%TD*%
G04 APERTURE END LIST*
D10*
%TO.P,J1,1,12V_PWR_1*%
%TO.N,/12V_PWR_Relay*%
X196500000Y-124500000D03*
D11*
%TO.P,J1,2,GND_2*%
%TO.N,/12V_GND*%
X196500000Y-118500000D03*
%TO.P,J1,3,12V_SWITCH_3*%
%TO.N,Net-(J1-12V_SWITCH)*%
X196500000Y-112500000D03*
%TD*%
D12*
%TO.P,R2,1*%
%TO.N,Net-(U1-D14)*%
X171690000Y-117000000D03*
%TO.P,R2,2*%
%TO.N,GNDREF*%
X179310000Y-117000000D03*
%TD*%
D13*
%TO.P,D1,1,K_1*%
%TO.N,/12V_PWR*%
X179000000Y-85920000D03*
D14*
%TO.P,D1,2,A_2*%
%TO.N,/12V_PWR_BATT*%
X179000000Y-96080000D03*
%TD*%
D12*
%TO.P,R4,1*%
%TO.N,GNDREF*%
X193810000Y-107500000D03*
%TO.P,R4,2*%
%TO.N,Net-(U1-D34)*%
X186190000Y-107500000D03*
%TD*%
D15*
%TO.P,J3,1,GND_1*%
%TO.N,GNDREF*%
X106000000Y-139000000D03*
D16*
%TO.P,J3,2,Vcc_2*%
%TO.N,/3.3V_PWR*%
X108500000Y-139000000D03*
%TO.P,J3,3,SCL_3*%
%TO.N,Net-(J3-SCL)*%
X111000000Y-139000000D03*
%TO.P,J3,4,SDA_4*%
%TO.N,Net-(J3-SDA)*%
X113500000Y-139000000D03*
%TO.P,J3,5,RES_5*%
%TO.N,Net-(J3-RES)*%
X116000000Y-139000000D03*
%TO.P,J3,6,DC_6*%
%TO.N,Net-(J3-DC)*%
X118500000Y-139000000D03*
%TO.P,J3,7,CS_7*%
%TO.N,Net-(J3-CS)*%
X121000000Y-139000000D03*
%TO.P,J3,8,Pin_8_8*%
%TO.N,/3.3V_PWR*%
X123500000Y-139000000D03*
%TD*%
D17*
%TO.P,R1,1*%
%TO.N,/RPM_PWR_RESISTOR*%
X187500000Y-112000000D03*
%TO.P,R1,2*%
%TO.N,/RPM_PWR*%
X187500000Y-132320000D03*
%TD*%
D15*
%TO.P,J6,1,RPM_IN_1*%
%TO.N,/RPM_PWR_DIODE*%
X185000000Y-139000000D03*
D16*
%TO.P,J6,2,Pin_2_2*%
%TO.N,/RPM_GND*%
X187500000Y-139000000D03*
%TD*%
D18*
%TO.P,C1,1*%
%TO.N,/3.3V_PWR_SW*%
X175176041Y-107500000D03*
D17*
%TO.P,C1,2*%
%TO.N,GNDREF*%
X180176041Y-107500000D03*
%TD*%
D19*
%TO.P,SW1,1,A_1*%
%TO.N,/3.3V_PWR_SW*%
X156500000Y-135750000D03*
%TO.P,SW1,2,B_2*%
%TO.N,/3.3V_PWR*%
X159000000Y-135750000D03*
%TO.P,SW1,3*%
%TO.N,N/C*%
X161500000Y-135750000D03*
%TD*%
D13*
%TO.P,D2,1,K_1*%
%TO.N,/RPM_PWR_RESISTOR*%
X175000000Y-123420000D03*
D14*
%TO.P,D2,2,A_2*%
%TO.N,/RPM_PWR_DIODE*%
X175000000Y-133580000D03*
%TD*%
D20*
%TO.P,J2,1,12V_in_1*%
%TO.N,/12V_PWR*%
X168500000Y-84000000D03*
%TO.P,J2,2,12V_GND_2*%
%TO.N,/12V_GND*%
X155500000Y-84000000D03*
%TO.P,J2,3,3.3V_out_3*%
%TO.N,/3.3V_PWR_SW*%
X155500000Y-129000000D03*
%TO.P,J2,4,3.3V_GND_4*%
%TO.N,GNDREF*%
X168500000Y-129000000D03*
%TD*%
D21*
%TO.P,K1,1*%
%TO.N,/12V_PWR_Relay*%
X190950000Y-101150000D03*
D22*
%TO.P,K1,2*%
%TO.N,/12V_GND*%
X197000000Y-99200000D03*
D21*
%TO.P,K1,3*%
%TO.N,/12V_PWR_BATT*%
X197000000Y-87000000D03*
%TO.P,K1,4*%
%TO.N,unconnected-(K1-Pad4)*%
X184950000Y-86950000D03*
D22*
%TO.P,K1,5*%
%TO.N,Net-(J1-12V_SWITCH)*%
X185000000Y-99200000D03*
%TD*%
D15*
%TO.P,J4,1,Vcc_1*%
%TO.N,/3.3V_PWR*%
X141500000Y-139000000D03*
D16*
%TO.P,J4,2,SDA_2*%
%TO.N,Net-(J4-SDA)*%
X144000000Y-139000000D03*
%TO.P,J4,3,GND_3*%
%TO.N,GNDREF*%
X146500000Y-139000000D03*
%TO.P,J4,4,SCL_4*%
%TO.N,Net-(J4-SCL)*%
X149000000Y-139000000D03*
%TD*%
D15*
%TO.P,J7,1,SIG_1*%
%TO.N,Net-(J7-SIG)*%
X131000000Y-139000000D03*
D16*
%TO.P,J7,2,Pin_2_2*%
%TO.N,GNDREF*%
X133500000Y-139000000D03*
%TD*%
D23*
%TO.P,U1,1,3V3_1*%
%TO.N,/3.3V_PWR*%
X124350000Y-92735000D03*
D24*
%TO.P,U1,2,GND_2*%
%TO.N,GNDREF*%
X124350000Y-95275000D03*
%TO.P,U1,3,D15_3*%
%TO.N,Net-(J3-CS)*%
X124350000Y-97815000D03*
%TO.P,U1,4,D2_4*%
%TO.N,Net-(J3-DC)*%
X124350000Y-100355000D03*
%TO.P,U1,5,D4_5*%
%TO.N,Net-(J7-SIG)*%
X124350000Y-102895000D03*
%TO.P,U1,6,RX2_6*%
%TO.N,unconnected-(U1-RX2-Pad6)*%
X124350000Y-105435000D03*
%TO.P,U1,7,TX2_7*%
%TO.N,unconnected-(U1-TX2-Pad7)*%
X124350000Y-107975000D03*
%TO.P,U1,8,D5_8*%
%TO.N,unconnected-(U1-D5-Pad8)*%
X124350000Y-110515000D03*
%TO.P,U1,9,D18_9*%
%TO.N,Net-(J3-SCL)*%
X124350000Y-113055000D03*
%TO.P,U1,10,D19_10*%
%TO.N,unconnected-(U1-D19-Pad10)*%
X124350000Y-115595000D03*
%TO.P,U1,11,D21_11*%
%TO.N,Net-(J4-SDA)*%
X124350000Y-118135000D03*
%TO.P,U1,12,RX0_12*%
%TO.N,unconnected-(U1-RX0-Pad12)*%
X124350000Y-120675000D03*
%TO.P,U1,13,TX0_13*%
%TO.N,unconnected-(U1-TX0-Pad13)*%
X124350000Y-123215000D03*
%TO.P,U1,14,D22_14*%
%TO.N,Net-(J3-RES)*%
X124350000Y-125755000D03*
%TO.P,U1,15,D23_15*%
%TO.N,Net-(J3-SDA)*%
X124350000Y-128295000D03*
%TO.P,U1,16,EN_16*%
%TO.N,unconnected-(U1-EN-Pad16)*%
X149750000Y-128295000D03*
%TO.P,U1,17,VP_17*%
%TO.N,unconnected-(U1-VP-Pad17)*%
X149750000Y-125755000D03*
%TO.P,U1,18,VN_18*%
%TO.N,unconnected-(U1-VN-Pad18)*%
X149750000Y-123215000D03*
%TO.P,U1,19,D34_19*%
%TO.N,Net-(U1-D34)*%
X149750000Y-120675000D03*
%TO.P,U1,20,D35_20*%
%TO.N,unconnected-(U1-D35-Pad20)*%
X149750000Y-118135000D03*
%TO.P,U1,21,D32_21*%
%TO.N,unconnected-(U1-D32-Pad21)*%
X149750000Y-115595000D03*
%TO.P,U1,22,D33_22*%
%TO.N,unconnected-(U1-D33-Pad22)*%
X149750000Y-113055000D03*
%TO.P,U1,23,D25_23*%
%TO.N,unconnected-(U1-D25-Pad23)*%
X149750000Y-110515000D03*
%TO.P,U1,24,D26_24*%
%TO.N,Net-(J4-SCL)*%
X149750000Y-107975000D03*
%TO.P,U1,25,D27_25*%
%TO.N,unconnected-(U1-D27-Pad25)*%
X149750000Y-105435000D03*
%TO.P,U1,26,D14_26*%
%TO.N,Net-(U1-D14)*%
X149750000Y-102895000D03*
%TO.P,U1,27,D12_27*%
%TO.N,unconnected-(U1-D12-Pad27)*%
X149750000Y-100355000D03*
%TO.P,U1,28,D13_28*%
%TO.N,unconnected-(U1-D13-Pad28)*%
X149750000Y-97815000D03*
%TO.P,U1,29,GND_29*%
%TO.N,GNDREF*%
X149750000Y-95275000D03*
%TO.P,U1,30,VIN_30*%
%TO.N,unconnected-(U1-VIN-Pad30)*%
X149750000Y-92735000D03*
%TD*%
D12*
%TO.P,R3,1*%
%TO.N,/12V_PWR*%
X173500000Y-87000000D03*
%TO.P,R3,2*%
%TO.N,Net-(U1-D34)*%
X173500000Y-94620000D03*
%TD*%
D25*
%TO.P,U2,1*%
%TO.N,/RPM_PWR*%
X176805000Y-140275000D03*
D12*
%TO.P,U2,2*%
%TO.N,/RPM_GND*%
X176805000Y-137735000D03*
%TO.P,U2,3*%
%TO.N,Net-(U1-D14)*%
X169185000Y-137735000D03*
%TO.P,U2,4*%
%TO.N,/3.3V_PWR*%
X169185000Y-140275000D03*
%TD*%
D26*
%TO.P,J5,1,GND_1*%
%TO.N,GNDREF*%
X118080000Y-85000000D03*
D27*
%TO.P,J5,2,Vcc_2*%
%TO.N,/3.3V_PWR*%
X115540000Y-85000000D03*
%TO.P,J5,3,SDA_3*%
%TO.N,Net-(J4-SDA)*%
X113000000Y-85000000D03*
%TO.P,J5,4,SCL_4*%
%TO.N,Net-(J4-SCL)*%
X110460000Y-85000000D03*
%TO.P,J5,5*%
%TO.N,N/C*%
X107920000Y-85000000D03*
%TO.P,J5,6*%
X105380000Y-85000000D03*
%TD*%
D28*
%TO.N,Net-(J4-SCL)*%
X114500000Y-87500000D03*
X129000000Y-87500000D03*
X125000000Y-87500000D03*
X117000000Y-87500000D03*
%TO.N,Net-(J4-SDA)*%
X116500000Y-117500000D03*
%TO.N,Net-(J3-RES)*%
X120400000Y-126500000D03*
%TO.N,Net-(J3-SCL)*%
X120400000Y-117000000D03*
%TO.N,Net-(J3-DC)*%
X122000000Y-135500000D03*
%TO.N,Net-(J7-SIG)*%
X127500000Y-116500000D03*
X127500000Y-119500000D03*
%TO.N,Net-(U1-D14)*%
X168500000Y-113000000D03*
%TD*%
%TO.N,Net-(J4-SCL)*%
D29*
X117000000Y-87500000D02*
X125000000Y-87500000D01*
X112960000Y-87500000D02*
X114500000Y-87500000D01*
X110460000Y-85000000D02*
X112960000Y-87500000D01*
X129000000Y-87500000D02*
X129275000Y-87500000D01*
X129275000Y-87500000D02*
X149750000Y-107975000D01*
%TO.N,Net-(J4-SDA)*%
X116500000Y-88500000D02*
X116500000Y-117500000D01*
X113000000Y-85000000D02*
X116500000Y-88500000D01*
%TO.N,Net-(J3-RES)*%
X116000000Y-130900000D02*
X116000000Y-139000000D01*
X120400000Y-126500000D02*
X116000000Y-130900000D01*
%TO.N,Net-(J3-SCL)*%
X120400000Y-117000000D02*
X120400000Y-117100000D01*
X120400000Y-117100000D02*
X111000000Y-126500000D01*
X111000000Y-126500000D02*
X111000000Y-139000000D01*
%TO.N,Net-(J3-DC)*%
X122000000Y-102705000D02*
X122000000Y-135500000D01*
X124350000Y-100355000D02*
X122000000Y-102705000D01*
%TO.N,Net-(J3-CS)*%
X124350000Y-97815000D02*
X121000000Y-101165000D01*
X121000000Y-101165000D02*
X121000000Y-139000000D01*
%TO.N,Net-(J7-SIG)*%
X131000000Y-139000000D02*
X127500000Y-135500000D01*
X127500000Y-135500000D02*
X127500000Y-119500000D01*
X127500000Y-116500000D02*
X127500000Y-106045000D01*
X127500000Y-106045000D02*
X124350000Y-102895000D01*
%TO.N,Net-(J4-SCL)*%
X149750000Y-107975000D02*
X147430000Y-110295000D01*
X147430000Y-110295000D02*
X147430000Y-137430000D01*
X147430000Y-137430000D02*
X149000000Y-139000000D01*
%TO.N,Net-(J4-SDA)*%
X144000000Y-139000000D02*
X145930000Y-137070000D01*
X145930000Y-137070000D02*
X145930000Y-127193578D01*
X145930000Y-127193578D02*
X136871422Y-118135000D01*
X136871422Y-118135000D02*
X124350000Y-118135000D01*
%TO.N,/3.3V_PWR*%
D30*
X102500000Y-132500000D02*
X102500000Y-84500000D01*
X108500000Y-138500000D02*
X102500000Y-132500000D01*
X108500000Y-139000000D02*
X108500000Y-138500000D01*
X102500000Y-84500000D02*
X104475000Y-82525000D01*
X104475000Y-82525000D02*
X116975000Y-82525000D01*
X115540000Y-85000000D02*
X115540000Y-83960000D01*
X115540000Y-83960000D02*
X116975000Y-82525000D01*
X116975000Y-82525000D02*
X126025000Y-82525000D01*
X126025000Y-82525000D02*
X127020000Y-83520000D01*
X127020000Y-83520000D02*
X127020000Y-90065000D01*
X127020000Y-90065000D02*
X124350000Y-92735000D01*
X125275000Y-140775000D02*
X110275000Y-140775000D01*
X110275000Y-140775000D02*
X108500000Y-139000000D01*
X143275000Y-140775000D02*
X125275000Y-140775000D01*
X125275000Y-140775000D02*
X123500000Y-139000000D01*
X159000000Y-135750000D02*
X159000000Y-137000000D01*
X155225000Y-140775000D02*
X143275000Y-140775000D01*
X159000000Y-137000000D02*
X155225000Y-140775000D01*
X143275000Y-140775000D02*
X141500000Y-139000000D01*
%TO.N,Net-(U1-D14)*%
D29*
X158395000Y-102895000D02*
X168500000Y-113000000D01*
X149750000Y-102895000D02*
X158395000Y-102895000D01*
%TO.N,/12V_GND*%
D30*
X155500000Y-84000000D02*
X165807006Y-84000000D01*
X165807006Y-84000000D02*
X177100000Y-95292994D01*
X177100000Y-95292994D02*
X177100000Y-97137208D01*
X177100000Y-97137208D02*
X185862792Y-105900000D01*
X185862792Y-105900000D02*
X186852742Y-105900000D01*
X186852742Y-105900000D02*
X189500000Y-108547258D01*
X189500000Y-108547258D02*
X189500000Y-121641852D01*
X189500000Y-121641852D02*
X194733148Y-126875000D01*
X194733148Y-126875000D02*
X198266852Y-126875000D01*
X198266852Y-126875000D02*
X198875000Y-126266852D01*
X198875000Y-126266852D02*
X198875000Y-120875000D01*
X198875000Y-120875000D02*
X196500000Y-118500000D01*
%TO.N,Net-(U1-D34)*%
D29*
X156227208Y-127000000D02*
X154000000Y-127000000D01*
X173500000Y-109727208D02*
X156227208Y-127000000D01*
X173500000Y-94620000D02*
X173500000Y-109727208D01*
X154000000Y-127000000D02*
X154000000Y-124925000D01*
X154000000Y-124925000D02*
X149750000Y-120675000D01*
%TO.N,/3.3V_PWR_SW*%
D30*
X175176041Y-107500000D02*
X175176041Y-109323959D01*
X175176041Y-109323959D02*
X155500000Y-129000000D01*
X155500000Y-129000000D02*
X155500000Y-134750000D01*
X155500000Y-134750000D02*
X156500000Y-135750000D01*
%TO.N,/3.3V_PWR*%
X169185000Y-140275000D02*
X162477944Y-140275000D01*
X162477944Y-140275000D02*
X159000000Y-136797056D01*
X159000000Y-136797056D02*
X159000000Y-135750000D01*
%TO.N,Net-(U1-D14)*%
D29*
X169185000Y-137735000D02*
X171690000Y-135230000D01*
X171690000Y-135230000D02*
X171690000Y-117000000D01*
%TO.N,/RPM_GND*%
D30*
X187500000Y-139000000D02*
X187500000Y-139316852D01*
X177316522Y-137735000D02*
X176805000Y-137735000D01*
X187500000Y-139316852D02*
X186041852Y-140775000D01*
X186041852Y-140775000D02*
X180356522Y-140775000D01*
X180356522Y-140775000D02*
X177316522Y-137735000D01*
%TO.N,/RPM_PWR_DIODE*%
X185000000Y-139000000D02*
X180420000Y-139000000D01*
X180420000Y-139000000D02*
X175000000Y-133580000D01*
%TO.N,/RPM_PWR*%
X174772994Y-131120000D02*
X173100000Y-132792994D01*
X186300000Y-131120000D02*
X174772994Y-131120000D01*
X187500000Y-132320000D02*
X186300000Y-131120000D01*
X173100000Y-132792994D02*
X173100000Y-136570000D01*
X173100000Y-136570000D02*
X176805000Y-140275000D01*
%TO.N,/RPM_PWR_RESISTOR*%
X187500000Y-112000000D02*
X176080000Y-123420000D01*
X176080000Y-123420000D02*
X175000000Y-123420000D01*
%TO.N,Net-(U1-D34)*%
D29*
X186190000Y-107500000D02*
X173500000Y-94810000D01*
X173500000Y-94810000D02*
X173500000Y-94620000D01*
%TO.N,/12V_PWR*%
D30*
X173500000Y-87000000D02*
X171500000Y-87000000D01*
X171500000Y-87000000D02*
X168500000Y-84000000D01*
X179000000Y-85920000D02*
X174580000Y-85920000D01*
X174580000Y-85920000D02*
X173500000Y-87000000D01*
%TO.N,/12V_PWR_BATT*%
X197000000Y-87000000D02*
X187920000Y-96080000D01*
X187920000Y-96080000D02*
X179000000Y-96080000D01*
%TO.N,Net-(J1-12V_SWITCH)*%
D29*
X196500000Y-103000000D02*
X191000000Y-97500000D01*
X196500000Y-112500000D02*
X196500000Y-103000000D01*
X191000000Y-97500000D02*
X186700000Y-97500000D01*
X186700000Y-97500000D02*
X185000000Y-99200000D01*
%TO.N,/12V_GND*%
D30*
X196500000Y-118500000D02*
X198875000Y-116125000D01*
X198875000Y-116125000D02*
X198875000Y-101075000D01*
X198875000Y-101075000D02*
X197000000Y-99200000D01*
%TO.N,/12V_PWR_Relay*%
X196500000Y-124500000D02*
X190950000Y-118950000D01*
X190950000Y-118950000D02*
X190950000Y-101150000D01*
%TD*%
M02*
