M48
; DRILL file KiCad 10.0.4 date 2026-06-27T20:48:15
; FORMAT={-:-/ absolute / metric / decimal}
; #@! TF.CreationDate,2026-06-27T20:48:15+07:00
; #@! TF.GenerationSoftware,Kicad,Pcbnew,10.0.4
; #@! TF.FileFunction,Plated,1,2,PTH
FMAT,2
METRIC
; #@! TA.AperFunction,Plated,PTH,ViaDrill
T1C0.300
; #@! TA.AperFunction,Plated,PTH,ComponentDrill
T2C0.800
; #@! TA.AperFunction,Plated,PTH,ComponentDrill
T3C0.950
; #@! TA.AperFunction,Plated,PTH,ComponentDrill
T4C1.000
; #@! TA.AperFunction,Plated,PTH,ComponentDrill
T5C1.020
; #@! TA.AperFunction,Plated,PTH,ComponentDrill
T6C1.100
; #@! TA.AperFunction,Plated,PTH,ComponentDrill
T7C1.200
; #@! TA.AperFunction,Plated,PTH,ComponentDrill
T8C2.150
%
G90
G05
T1
X99.326Y-113.674
X100.174Y-112.826
X118.964Y-140.536
X150.5Y-103.0
X151.91Y-103.0
T2
X108.19Y-138.23
X108.19Y-140.77
X115.81Y-138.23
X115.81Y-140.77
X124.5Y-144.19
X124.5Y-151.81
X140.0Y-83.0
X140.0Y-96.0
X143.69Y-101.0
X151.31Y-101.0
X156.19Y-101.5
X163.81Y-101.5
X185.0Y-83.0
X185.0Y-96.0
T3
X98.0Y-86.5
X98.0Y-89.0
X98.0Y-91.5
X98.0Y-94.0
X98.0Y-96.5
X98.0Y-99.0
X98.0Y-101.5
X98.0Y-104.0
X98.0Y-111.5
X98.0Y-114.0
X98.0Y-116.5
X98.0Y-119.0
X98.0Y-126.75
X98.0Y-129.25
X98.0Y-136.5
X98.0Y-139.0
T4
X110.34Y-106.0
X112.88Y-106.0
X115.42Y-106.0
X117.96Y-106.0
X120.5Y-106.0
X123.04Y-106.0
T5
X129.6Y-109.14
X129.6Y-111.68
X129.6Y-114.22
X129.6Y-116.76
X129.6Y-119.3
X129.6Y-121.84
X129.6Y-124.38
X129.6Y-126.92
X129.6Y-129.46
X129.6Y-132.0
X129.6Y-134.54
X129.6Y-137.08
X129.6Y-139.62
X129.6Y-142.16
X129.6Y-144.7
X155.0Y-109.14
X155.0Y-111.68
X155.0Y-114.22
X155.0Y-116.76
X155.0Y-119.3
X155.0Y-121.84
X155.0Y-124.38
X155.0Y-126.92
X155.0Y-129.46
X155.0Y-132.0
X155.0Y-134.54
X155.0Y-137.08
X155.0Y-139.62
X155.0Y-142.16
X155.0Y-144.7
T6
X96.92Y-145.0
X107.08Y-145.0
X160.0Y-107.42
X160.0Y-117.58
T7
X94.84Y-151.5
X115.16Y-151.5
X120.176Y-92.5
X125.176Y-92.5
T8
X165.175Y-109.1
X165.175Y-116.9
M30
