%TF.GenerationSoftware,KiCad,Pcbnew,10.0.4*%
%TF.CreationDate,2026-06-30T16:14:24+07:00*%
%TF.ProjectId,Control Unit,436f6e74-726f-46c2-9055-6e69742e6b69,rev?*%
%TF.SameCoordinates,Original*%
%TF.FileFunction,Legend,Top*%
%TF.FilePolarity,Positive*%
%FSLAX46Y46*%
G04 Gerber Fmt 4.6, Leading zero omitted, Abs format (unit mm)*
G04 Created by KiCad (PCBNEW 10.0.4) date 2026-06-30 16:14:24*
%MOMM*%
%LPD*%
G01*
G04 APERTURE LIST*
%ADD10C,0.250000*%
%ADD11C,0.150000*%
%ADD12C,0.100000*%
%ADD13C,0.120000*%
G04 APERTURE END LIST*
D10*
X130523333Y-52449619D02*
X130190000Y-51973428D01*
X129951905Y-52449619D02*
X129951905Y-51449619D01*
X129951905Y-51449619D02*
X130332857Y-51449619D01*
X130332857Y-51449619D02*
X130428095Y-51497238D01*
X130428095Y-51497238D02*
X130475714Y-51544857D01*
X130475714Y-51544857D02*
X130523333Y-51640095D01*
X130523333Y-51640095D02*
X130523333Y-51782952D01*
X130523333Y-51782952D02*
X130475714Y-51878190D01*
X130475714Y-51878190D02*
X130428095Y-51925809D01*
X130428095Y-51925809D02*
X130332857Y-51973428D01*
X130332857Y-51973428D02*
X129951905Y-51973428D01*
X130856667Y-51449619D02*
X131475714Y-51449619D01*
X131475714Y-51449619D02*
X131142381Y-51830571D01*
X131142381Y-51830571D02*
X131285238Y-51830571D01*
X131285238Y-51830571D02*
X131380476Y-51878190D01*
X131380476Y-51878190D02*
X131428095Y-51925809D01*
X131428095Y-51925809D02*
X131475714Y-52021047D01*
X131475714Y-52021047D02*
X131475714Y-52259142D01*
X131475714Y-52259142D02*
X131428095Y-52354380D01*
X131428095Y-52354380D02*
X131380476Y-52402000D01*
X131380476Y-52402000D02*
X131285238Y-52449619D01*
X131285238Y-52449619D02*
X130999524Y-52449619D01*
X130999524Y-52449619D02*
X130904286Y-52402000D01*
X130904286Y-52402000D02*
X130856667Y-52354380D01*
X147449619Y-75833333D02*
X148163904Y-75833333D01*
X148163904Y-75833333D02*
X148306761Y-75880952D01*
X148306761Y-75880952D02*
X148402000Y-75976190D01*
X148402000Y-75976190D02*
X148449619Y-76119047D01*
X148449619Y-76119047D02*
X148449619Y-76214285D01*
X148449619Y-74833333D02*
X148449619Y-75404761D01*
X148449619Y-75119047D02*
X147449619Y-75119047D01*
X147449619Y-75119047D02*
X147592476Y-75214285D01*
X147592476Y-75214285D02*
X147687714Y-75309523D01*
X147687714Y-75309523D02*
X147735333Y-75404761D01*
X116833333Y-79949619D02*
X116500000Y-79473428D01*
X116261905Y-79949619D02*
X116261905Y-78949619D01*
X116261905Y-78949619D02*
X116642857Y-78949619D01*
X116642857Y-78949619D02*
X116738095Y-78997238D01*
X116738095Y-78997238D02*
X116785714Y-79044857D01*
X116785714Y-79044857D02*
X116833333Y-79140095D01*
X116833333Y-79140095D02*
X116833333Y-79282952D01*
X116833333Y-79282952D02*
X116785714Y-79378190D01*
X116785714Y-79378190D02*
X116738095Y-79425809D01*
X116738095Y-79425809D02*
X116642857Y-79473428D01*
X116642857Y-79473428D02*
X116261905Y-79473428D01*
X117214286Y-79044857D02*
X117261905Y-78997238D01*
X117261905Y-78997238D02*
X117357143Y-78949619D01*
X117357143Y-78949619D02*
X117595238Y-78949619D01*
X117595238Y-78949619D02*
X117690476Y-78997238D01*
X117690476Y-78997238D02*
X117738095Y-79044857D01*
X117738095Y-79044857D02*
X117785714Y-79140095D01*
X117785714Y-79140095D02*
X117785714Y-79235333D01*
X117785714Y-79235333D02*
X117738095Y-79378190D01*
X117738095Y-79378190D02*
X117166667Y-79949619D01*
X117166667Y-79949619D02*
X117785714Y-79949619D01*
X130796116Y-39238094D02*
X129796116Y-39238094D01*
X129796116Y-39238094D02*
X129796116Y-38999999D01*
X129796116Y-38999999D02*
X129843735Y-38857142D01*
X129843735Y-38857142D02*
X129938973Y-38761904D01*
X129938973Y-38761904D02*
X130034211Y-38714285D01*
X130034211Y-38714285D02*
X130224687Y-38666666D01*
X130224687Y-38666666D02*
X130367544Y-38666666D01*
X130367544Y-38666666D02*
X130558020Y-38714285D01*
X130558020Y-38714285D02*
X130653258Y-38761904D01*
X130653258Y-38761904D02*
X130748497Y-38857142D01*
X130748497Y-38857142D02*
X130796116Y-38999999D01*
X130796116Y-38999999D02*
X130796116Y-39238094D01*
X130796116Y-37714285D02*
X130796116Y-38285713D01*
X130796116Y-37999999D02*
X129796116Y-37999999D01*
X129796116Y-37999999D02*
X129938973Y-38095237D01*
X129938973Y-38095237D02*
X130034211Y-38190475D01*
X130034211Y-38190475D02*
X130081830Y-38285713D01*
X128296116Y-33681904D02*
X127296116Y-33681904D01*
X128296116Y-33110476D02*
X127724687Y-33539047D01*
X127296116Y-33110476D02*
X127867544Y-33681904D01*
X141179830Y-55449619D02*
X140846497Y-54973428D01*
X140608402Y-55449619D02*
X140608402Y-54449619D01*
X140608402Y-54449619D02*
X140989354Y-54449619D01*
X140989354Y-54449619D02*
X141084592Y-54497238D01*
X141084592Y-54497238D02*
X141132211Y-54544857D01*
X141132211Y-54544857D02*
X141179830Y-54640095D01*
X141179830Y-54640095D02*
X141179830Y-54782952D01*
X141179830Y-54782952D02*
X141132211Y-54878190D01*
X141132211Y-54878190D02*
X141084592Y-54925809D01*
X141084592Y-54925809D02*
X140989354Y-54973428D01*
X140989354Y-54973428D02*
X140608402Y-54973428D01*
X142036973Y-54782952D02*
X142036973Y-55449619D01*
X141798878Y-54402000D02*
X141560783Y-55116285D01*
X141560783Y-55116285D02*
X142179830Y-55116285D01*
X65763163Y-81549619D02*
X65763163Y-82263904D01*
X65763163Y-82263904D02*
X65715544Y-82406761D01*
X65715544Y-82406761D02*
X65620306Y-82502000D01*
X65620306Y-82502000D02*
X65477449Y-82549619D01*
X65477449Y-82549619D02*
X65382211Y-82549619D01*
X66144116Y-81549619D02*
X66763163Y-81549619D01*
X66763163Y-81549619D02*
X66429830Y-81930571D01*
X66429830Y-81930571D02*
X66572687Y-81930571D01*
X66572687Y-81930571D02*
X66667925Y-81978190D01*
X66667925Y-81978190D02*
X66715544Y-82025809D01*
X66715544Y-82025809D02*
X66763163Y-82121047D01*
X66763163Y-82121047D02*
X66763163Y-82359142D01*
X66763163Y-82359142D02*
X66715544Y-82454380D01*
X66715544Y-82454380D02*
X66667925Y-82502000D01*
X66667925Y-82502000D02*
X66572687Y-82549619D01*
X66572687Y-82549619D02*
X66286973Y-82549619D01*
X66286973Y-82549619D02*
X66191735Y-82502000D01*
X66191735Y-82502000D02*
X66144116Y-82454380D01*
X142949619Y-70666666D02*
X142473428Y-70999999D01*
X142949619Y-71238094D02*
X141949619Y-71238094D01*
X141949619Y-71238094D02*
X141949619Y-70857142D01*
X141949619Y-70857142D02*
X141997238Y-70761904D01*
X141997238Y-70761904D02*
X142044857Y-70714285D01*
X142044857Y-70714285D02*
X142140095Y-70666666D01*
X142140095Y-70666666D02*
X142282952Y-70666666D01*
X142282952Y-70666666D02*
X142378190Y-70714285D01*
X142378190Y-70714285D02*
X142425809Y-70761904D01*
X142425809Y-70761904D02*
X142473428Y-70857142D01*
X142473428Y-70857142D02*
X142473428Y-71238094D01*
X142949619Y-69714285D02*
X142949619Y-70285713D01*
X142949619Y-69999999D02*
X141949619Y-69999999D01*
X141949619Y-69999999D02*
X142092476Y-70095237D01*
X142092476Y-70095237D02*
X142187714Y-70190475D01*
X142187714Y-70190475D02*
X142235333Y-70285713D01*
X137263163Y-81549619D02*
X137263163Y-82263904D01*
X137263163Y-82263904D02*
X137215544Y-82406761D01*
X137215544Y-82406761D02*
X137120306Y-82502000D01*
X137120306Y-82502000D02*
X136977449Y-82549619D01*
X136977449Y-82549619D02*
X136882211Y-82549619D01*
X138167925Y-81549619D02*
X137977449Y-81549619D01*
X137977449Y-81549619D02*
X137882211Y-81597238D01*
X137882211Y-81597238D02*
X137834592Y-81644857D01*
X137834592Y-81644857D02*
X137739354Y-81787714D01*
X137739354Y-81787714D02*
X137691735Y-81978190D01*
X137691735Y-81978190D02*
X137691735Y-82359142D01*
X137691735Y-82359142D02*
X137739354Y-82454380D01*
X137739354Y-82454380D02*
X137786973Y-82502000D01*
X137786973Y-82502000D02*
X137882211Y-82549619D01*
X137882211Y-82549619D02*
X138072687Y-82549619D01*
X138072687Y-82549619D02*
X138167925Y-82502000D01*
X138167925Y-82502000D02*
X138215544Y-82454380D01*
X138215544Y-82454380D02*
X138263163Y-82359142D01*
X138263163Y-82359142D02*
X138263163Y-82121047D01*
X138263163Y-82121047D02*
X138215544Y-82025809D01*
X138215544Y-82025809D02*
X138167925Y-81978190D01*
X138167925Y-81978190D02*
X138072687Y-81930571D01*
X138072687Y-81930571D02*
X137882211Y-81930571D01*
X137882211Y-81930571D02*
X137786973Y-81978190D01*
X137786973Y-81978190D02*
X137739354Y-82025809D01*
X137739354Y-82025809D02*
X137691735Y-82121047D01*
X132333333Y-56354380D02*
X132285714Y-56402000D01*
X132285714Y-56402000D02*
X132142857Y-56449619D01*
X132142857Y-56449619D02*
X132047619Y-56449619D01*
X132047619Y-56449619D02*
X131904762Y-56402000D01*
X131904762Y-56402000D02*
X131809524Y-56306761D01*
X131809524Y-56306761D02*
X131761905Y-56211523D01*
X131761905Y-56211523D02*
X131714286Y-56021047D01*
X131714286Y-56021047D02*
X131714286Y-55878190D01*
X131714286Y-55878190D02*
X131761905Y-55687714D01*
X131761905Y-55687714D02*
X131809524Y-55592476D01*
X131809524Y-55592476D02*
X131904762Y-55497238D01*
X131904762Y-55497238D02*
X132047619Y-55449619D01*
X132047619Y-55449619D02*
X132142857Y-55449619D01*
X132142857Y-55449619D02*
X132285714Y-55497238D01*
X132285714Y-55497238D02*
X132333333Y-55544857D01*
X133285714Y-56449619D02*
X132714286Y-56449619D01*
X133000000Y-56449619D02*
X133000000Y-55449619D01*
X133000000Y-55449619D02*
X132904762Y-55592476D01*
X132904762Y-55592476D02*
X132809524Y-55687714D01*
X132809524Y-55687714D02*
X132714286Y-55735333D01*
X109013164Y-86402000D02*
X109156021Y-86449619D01*
X109156021Y-86449619D02*
X109394116Y-86449619D01*
X109394116Y-86449619D02*
X109489354Y-86402000D01*
X109489354Y-86402000D02*
X109536973Y-86354380D01*
X109536973Y-86354380D02*
X109584592Y-86259142D01*
X109584592Y-86259142D02*
X109584592Y-86163904D01*
X109584592Y-86163904D02*
X109536973Y-86068666D01*
X109536973Y-86068666D02*
X109489354Y-86021047D01*
X109489354Y-86021047D02*
X109394116Y-85973428D01*
X109394116Y-85973428D02*
X109203640Y-85925809D01*
X109203640Y-85925809D02*
X109108402Y-85878190D01*
X109108402Y-85878190D02*
X109060783Y-85830571D01*
X109060783Y-85830571D02*
X109013164Y-85735333D01*
X109013164Y-85735333D02*
X109013164Y-85640095D01*
X109013164Y-85640095D02*
X109060783Y-85544857D01*
X109060783Y-85544857D02*
X109108402Y-85497238D01*
X109108402Y-85497238D02*
X109203640Y-85449619D01*
X109203640Y-85449619D02*
X109441735Y-85449619D01*
X109441735Y-85449619D02*
X109584592Y-85497238D01*
X109917926Y-85449619D02*
X110156021Y-86449619D01*
X110156021Y-86449619D02*
X110346497Y-85735333D01*
X110346497Y-85735333D02*
X110536973Y-86449619D01*
X110536973Y-86449619D02*
X110775069Y-85449619D01*
X111679830Y-86449619D02*
X111108402Y-86449619D01*
X111394116Y-86449619D02*
X111394116Y-85449619D01*
X111394116Y-85449619D02*
X111298878Y-85592476D01*
X111298878Y-85592476D02*
X111203640Y-85687714D01*
X111203640Y-85687714D02*
X111108402Y-85735333D01*
X129261905Y-80449619D02*
X129261905Y-79449619D01*
X129261905Y-79449619D02*
X129500000Y-79449619D01*
X129500000Y-79449619D02*
X129642857Y-79497238D01*
X129642857Y-79497238D02*
X129738095Y-79592476D01*
X129738095Y-79592476D02*
X129785714Y-79687714D01*
X129785714Y-79687714D02*
X129833333Y-79878190D01*
X129833333Y-79878190D02*
X129833333Y-80021047D01*
X129833333Y-80021047D02*
X129785714Y-80211523D01*
X129785714Y-80211523D02*
X129738095Y-80306761D01*
X129738095Y-80306761D02*
X129642857Y-80402000D01*
X129642857Y-80402000D02*
X129500000Y-80449619D01*
X129500000Y-80449619D02*
X129261905Y-80449619D01*
X130214286Y-79544857D02*
X130261905Y-79497238D01*
X130261905Y-79497238D02*
X130357143Y-79449619D01*
X130357143Y-79449619D02*
X130595238Y-79449619D01*
X130595238Y-79449619D02*
X130690476Y-79497238D01*
X130690476Y-79497238D02*
X130738095Y-79544857D01*
X130738095Y-79544857D02*
X130785714Y-79640095D01*
X130785714Y-79640095D02*
X130785714Y-79735333D01*
X130785714Y-79735333D02*
X130738095Y-79878190D01*
X130738095Y-79878190D02*
X130166667Y-80449619D01*
X130166667Y-80449619D02*
X130785714Y-80449619D01*
X124658095Y-78349619D02*
X124658095Y-77349619D01*
X125229523Y-78349619D02*
X124800952Y-77778190D01*
X125229523Y-77349619D02*
X124658095Y-77921047D01*
X144246116Y-37888094D02*
X143246116Y-37888094D01*
X144246116Y-37316666D02*
X143674687Y-37745237D01*
X143246116Y-37316666D02*
X143817544Y-37888094D01*
X144246116Y-36364285D02*
X144246116Y-36935713D01*
X144246116Y-36649999D02*
X143246116Y-36649999D01*
X143246116Y-36649999D02*
X143388973Y-36745237D01*
X143388973Y-36745237D02*
X143484211Y-36840475D01*
X143484211Y-36840475D02*
X143531830Y-36935713D01*
D11*
X114106666Y-75914819D02*
X114106666Y-76629104D01*
X114106666Y-76629104D02*
X114059047Y-76771961D01*
X114059047Y-76771961D02*
X113963809Y-76867200D01*
X113963809Y-76867200D02*
X113820952Y-76914819D01*
X113820952Y-76914819D02*
X113725714Y-76914819D01*
X114535238Y-76010057D02*
X114582857Y-75962438D01*
X114582857Y-75962438D02*
X114678095Y-75914819D01*
X114678095Y-75914819D02*
X114916190Y-75914819D01*
X114916190Y-75914819D02*
X115011428Y-75962438D01*
X115011428Y-75962438D02*
X115059047Y-76010057D01*
X115059047Y-76010057D02*
X115106666Y-76105295D01*
X115106666Y-76105295D02*
X115106666Y-76200533D01*
X115106666Y-76200533D02*
X115059047Y-76343390D01*
X115059047Y-76343390D02*
X114487619Y-76914819D01*
X114487619Y-76914819D02*
X115106666Y-76914819D01*
D10*
X96263163Y-81549619D02*
X96263163Y-82263904D01*
X96263163Y-82263904D02*
X96215544Y-82406761D01*
X96215544Y-82406761D02*
X96120306Y-82502000D01*
X96120306Y-82502000D02*
X95977449Y-82549619D01*
X95977449Y-82549619D02*
X95882211Y-82549619D01*
X97167925Y-81882952D02*
X97167925Y-82549619D01*
X96929830Y-81502000D02*
X96691735Y-82216285D01*
X96691735Y-82216285D02*
X97310782Y-82216285D01*
X83263163Y-81549619D02*
X83263163Y-82263904D01*
X83263163Y-82263904D02*
X83215544Y-82406761D01*
X83215544Y-82406761D02*
X83120306Y-82502000D01*
X83120306Y-82502000D02*
X82977449Y-82549619D01*
X82977449Y-82549619D02*
X82882211Y-82549619D01*
X83644116Y-81549619D02*
X84310782Y-81549619D01*
X84310782Y-81549619D02*
X83882211Y-82549619D01*
X87634592Y-55199619D02*
X87634592Y-56009142D01*
X87634592Y-56009142D02*
X87682211Y-56104380D01*
X87682211Y-56104380D02*
X87729830Y-56152000D01*
X87729830Y-56152000D02*
X87825068Y-56199619D01*
X87825068Y-56199619D02*
X88015544Y-56199619D01*
X88015544Y-56199619D02*
X88110782Y-56152000D01*
X88110782Y-56152000D02*
X88158401Y-56104380D01*
X88158401Y-56104380D02*
X88206020Y-56009142D01*
X88206020Y-56009142D02*
X88206020Y-55199619D01*
X89206020Y-56199619D02*
X88634592Y-56199619D01*
X88920306Y-56199619D02*
X88920306Y-55199619D01*
X88920306Y-55199619D02*
X88825068Y-55342476D01*
X88825068Y-55342476D02*
X88729830Y-55437714D01*
X88729830Y-55437714D02*
X88634592Y-55485333D01*
X123584592Y-85949619D02*
X123584592Y-86759142D01*
X123584592Y-86759142D02*
X123632211Y-86854380D01*
X123632211Y-86854380D02*
X123679830Y-86902000D01*
X123679830Y-86902000D02*
X123775068Y-86949619D01*
X123775068Y-86949619D02*
X123965544Y-86949619D01*
X123965544Y-86949619D02*
X124060782Y-86902000D01*
X124060782Y-86902000D02*
X124108401Y-86854380D01*
X124108401Y-86854380D02*
X124156020Y-86759142D01*
X124156020Y-86759142D02*
X124156020Y-85949619D01*
X124584592Y-86044857D02*
X124632211Y-85997238D01*
X124632211Y-85997238D02*
X124727449Y-85949619D01*
X124727449Y-85949619D02*
X124965544Y-85949619D01*
X124965544Y-85949619D02*
X125060782Y-85997238D01*
X125060782Y-85997238D02*
X125108401Y-86044857D01*
X125108401Y-86044857D02*
X125156020Y-86140095D01*
X125156020Y-86140095D02*
X125156020Y-86235333D01*
X125156020Y-86235333D02*
X125108401Y-86378190D01*
X125108401Y-86378190D02*
X124536973Y-86949619D01*
X124536973Y-86949619D02*
X125156020Y-86949619D01*
X71256116Y-32833333D02*
X71970401Y-32833333D01*
X71970401Y-32833333D02*
X72113258Y-32880952D01*
X72113258Y-32880952D02*
X72208497Y-32976190D01*
X72208497Y-32976190D02*
X72256116Y-33119047D01*
X72256116Y-33119047D02*
X72256116Y-33214285D01*
X71256116Y-31880952D02*
X71256116Y-32357142D01*
X71256116Y-32357142D02*
X71732306Y-32404761D01*
X71732306Y-32404761D02*
X71684687Y-32357142D01*
X71684687Y-32357142D02*
X71637068Y-32261904D01*
X71637068Y-32261904D02*
X71637068Y-32023809D01*
X71637068Y-32023809D02*
X71684687Y-31928571D01*
X71684687Y-31928571D02*
X71732306Y-31880952D01*
X71732306Y-31880952D02*
X71827544Y-31833333D01*
X71827544Y-31833333D02*
X72065639Y-31833333D01*
X72065639Y-31833333D02*
X72160877Y-31880952D01*
X72160877Y-31880952D02*
X72208497Y-31928571D01*
X72208497Y-31928571D02*
X72256116Y-32023809D01*
X72256116Y-32023809D02*
X72256116Y-32261904D01*
X72256116Y-32261904D02*
X72208497Y-32357142D01*
X72208497Y-32357142D02*
X72160877Y-32404761D01*
%TO.C,R3*%
D12*
X127420000Y-53370000D02*
X133960000Y-53370000D01*
X133960000Y-53370000D02*
X133960000Y-53040000D01*
X127420000Y-53040000D02*
X127420000Y-53370000D01*
X127420000Y-50960000D02*
X127420000Y-50630000D01*
X127420000Y-50630000D02*
X133960000Y-50630000D01*
X133960000Y-50630000D02*
X133960000Y-50960000D01*
%TO.C,R2*%
X113730000Y-78130000D02*
X113730000Y-78460000D01*
X113730000Y-80870000D02*
X113730000Y-80540000D01*
X120270000Y-78130000D02*
X113730000Y-78130000D01*
X120270000Y-78460000D02*
X120270000Y-78130000D01*
X120270000Y-80540000D02*
X120270000Y-80870000D01*
X120270000Y-80870000D02*
X113730000Y-80870000D01*
%TO.C,D1*%
X130346497Y-34760000D02*
X130346497Y-35780000D01*
X130346497Y-42240000D02*
X130346497Y-41220000D01*
X131816497Y-36560000D02*
X128876497Y-36560000D01*
X131816497Y-36680000D02*
X128876497Y-36680000D01*
X131816497Y-36800000D02*
X128876497Y-36800000D01*
X128876497Y-35780000D02*
X131816497Y-35780000D01*
X131816497Y-41220000D01*
X128876497Y-41220000D01*
X128876497Y-35780000D01*
%TO.C,R4*%
X138076497Y-53630000D02*
X138076497Y-53960000D01*
X138076497Y-56370000D02*
X138076497Y-56040000D01*
X144616497Y-53630000D02*
X138076497Y-53630000D01*
X144616497Y-53960000D02*
X144616497Y-53630000D01*
X144616497Y-56040000D02*
X144616497Y-56370000D01*
X144616497Y-56370000D02*
X138076497Y-56370000D01*
%TO.C,J3*%
X54436497Y-82890000D02*
X54436497Y-84140000D01*
X54736497Y-83190000D02*
X54736497Y-89810000D01*
X54736497Y-86500000D02*
X55746497Y-86500000D01*
X54736497Y-89810000D02*
X77456497Y-89810000D01*
X55686497Y-82890000D02*
X54436497Y-82890000D01*
X55746497Y-84800000D02*
X55746497Y-89100000D01*
X55746497Y-89100000D02*
X76446497Y-89100000D01*
X57036497Y-83190000D02*
X54736497Y-83190000D01*
X57036497Y-84190000D02*
X57036497Y-83190000D01*
X61296497Y-83190000D02*
X61296497Y-84190000D01*
X61296497Y-84190000D02*
X57036497Y-84190000D01*
X63396497Y-83190000D02*
X61296497Y-83190000D01*
X63396497Y-84190000D02*
X63396497Y-83190000D01*
X65296497Y-83590000D02*
X65296497Y-84190000D01*
X65296497Y-84190000D02*
X63396497Y-84190000D01*
X66896497Y-83590000D02*
X65296497Y-83590000D01*
X66896497Y-84190000D02*
X66896497Y-83590000D01*
X68796497Y-83190000D02*
X68796497Y-84190000D01*
X68796497Y-84190000D02*
X66896497Y-84190000D01*
X70896497Y-83190000D02*
X68796497Y-83190000D01*
X70896497Y-84190000D02*
X70896497Y-83190000D01*
X75156497Y-83190000D02*
X75156497Y-84190000D01*
X75156497Y-84190000D02*
X70896497Y-84190000D01*
X76446497Y-84800000D02*
X55746497Y-84800000D01*
X76446497Y-89100000D02*
X76446497Y-84800000D01*
X77456497Y-83190000D02*
X75156497Y-83190000D01*
X77456497Y-86500000D02*
X76446497Y-86500000D01*
X77456497Y-89810000D02*
X77456497Y-83190000D01*
%TO.C,R1*%
X142500000Y-61780000D02*
X142500000Y-62630000D01*
X142500000Y-79220000D02*
X142500000Y-78370000D01*
X139880000Y-62630000D02*
X145120000Y-62630000D01*
X145120000Y-78370000D01*
X139880000Y-78370000D01*
X139880000Y-62630000D01*
%TO.C,J6*%
X133436497Y-82890000D02*
X133436497Y-84140000D01*
X133736497Y-83190000D02*
X133736497Y-89810000D01*
X133736497Y-86500000D02*
X134746497Y-86500000D01*
X133736497Y-89810000D02*
X141456497Y-89810000D01*
X134686497Y-82890000D02*
X133436497Y-82890000D01*
X134746497Y-84800000D02*
X134746497Y-89100000D01*
X134746497Y-89100000D02*
X140446497Y-89100000D01*
X135996497Y-83190000D02*
X133736497Y-83190000D01*
X135996497Y-84190000D02*
X135996497Y-83190000D01*
X137196497Y-83590000D02*
X137196497Y-84190000D01*
X137196497Y-84190000D02*
X135996497Y-84190000D01*
X137996497Y-83590000D02*
X137196497Y-83590000D01*
X137996497Y-84190000D02*
X137996497Y-83590000D01*
X139196497Y-83190000D02*
X139196497Y-84190000D01*
X139196497Y-84190000D02*
X137996497Y-84190000D01*
X140446497Y-84800000D02*
X134746497Y-84800000D01*
X140446497Y-89100000D02*
X140446497Y-84800000D01*
X141456497Y-83190000D02*
X139196497Y-83190000D01*
X141456497Y-86500000D02*
X140446497Y-86500000D01*
X141456497Y-89810000D02*
X141456497Y-83190000D01*
%TO.C,C1*%
X125682918Y-59925000D02*
X126932918Y-59925000D01*
X126307918Y-59300000D02*
X126307918Y-60550000D01*
X132500000Y-57170000D02*
X132500000Y-69830000D01*
X132540000Y-57170000D02*
X132540000Y-69830000D01*
X132580000Y-57171000D02*
X132580000Y-69829000D01*
X132620000Y-57171000D02*
X132620000Y-69829000D01*
X132660000Y-57172000D02*
X132660000Y-69828000D01*
X132700000Y-57173000D02*
X132700000Y-69827000D01*
X132740000Y-57175000D02*
X132740000Y-69825000D01*
X132780000Y-57176000D02*
X132780000Y-69824000D01*
X132820000Y-57178000D02*
X132820000Y-69822000D01*
X132860000Y-57180000D02*
X132860000Y-69820000D01*
X132900000Y-57183000D02*
X132900000Y-69817000D01*
X132940000Y-57185000D02*
X132940000Y-69815000D01*
X132980000Y-57188000D02*
X132980000Y-69812000D01*
X133020000Y-57191000D02*
X133020000Y-69809000D01*
X133060000Y-57195000D02*
X133060000Y-69805000D01*
X133100000Y-57198000D02*
X133100000Y-69802000D01*
X133140000Y-57202000D02*
X133140000Y-69798000D01*
X133180000Y-57206000D02*
X133180000Y-69794000D01*
X133220000Y-57211000D02*
X133220000Y-69789000D01*
X133260000Y-57216000D02*
X133260000Y-69784000D01*
X133300000Y-57220000D02*
X133300000Y-69780000D01*
X133340000Y-57226000D02*
X133340000Y-69774000D01*
X133380000Y-57231000D02*
X133380000Y-69769000D01*
X133420000Y-57237000D02*
X133420000Y-69763000D01*
X133460000Y-57243000D02*
X133460000Y-69757000D01*
X133500000Y-57249000D02*
X133500000Y-69751000D01*
X133540000Y-57255000D02*
X133540000Y-69745000D01*
X133580000Y-57262000D02*
X133580000Y-62060000D01*
X133580000Y-64940000D02*
X133580000Y-69738000D01*
X133620000Y-57269000D02*
X133620000Y-62060000D01*
X133620000Y-64940000D02*
X133620000Y-69731000D01*
X133660000Y-57277000D02*
X133660000Y-62060000D01*
X133660000Y-64940000D02*
X133660000Y-69723000D01*
X133700000Y-57284000D02*
X133700000Y-62060000D01*
X133700000Y-64940000D02*
X133700000Y-69716000D01*
X133740000Y-57292000D02*
X133740000Y-62060000D01*
X133740000Y-64940000D02*
X133740000Y-69708000D01*
X133780000Y-57300000D02*
X133780000Y-62060000D01*
X133780000Y-64940000D02*
X133780000Y-69700000D01*
X133820000Y-57308000D02*
X133820000Y-62060000D01*
X133820000Y-64940000D02*
X133820000Y-69692000D01*
X133860000Y-57317000D02*
X133860000Y-62060000D01*
X133860000Y-64940000D02*
X133860000Y-69683000D01*
X133900000Y-57326000D02*
X133900000Y-62060000D01*
X133900000Y-64940000D02*
X133900000Y-69674000D01*
X133940000Y-57335000D02*
X133940000Y-62060000D01*
X133940000Y-64940000D02*
X133940000Y-69665000D01*
X133980000Y-57344000D02*
X133980000Y-62060000D01*
X133980000Y-64940000D02*
X133980000Y-69656000D01*
X134020000Y-57354000D02*
X134020000Y-62060000D01*
X134020000Y-64940000D02*
X134020000Y-69646000D01*
X134060000Y-57364000D02*
X134060000Y-62060000D01*
X134060000Y-64940000D02*
X134060000Y-69636000D01*
X134100000Y-57374000D02*
X134100000Y-62060000D01*
X134100000Y-64940000D02*
X134100000Y-69626000D01*
X134140000Y-57385000D02*
X134140000Y-62060000D01*
X134140000Y-64940000D02*
X134140000Y-69615000D01*
X134180000Y-57396000D02*
X134180000Y-62060000D01*
X134180000Y-64940000D02*
X134180000Y-69604000D01*
X134220000Y-57407000D02*
X134220000Y-62060000D01*
X134220000Y-64940000D02*
X134220000Y-69593000D01*
X134260000Y-57418000D02*
X134260000Y-62060000D01*
X134260000Y-64940000D02*
X134260000Y-69582000D01*
X134300000Y-57430000D02*
X134300000Y-62060000D01*
X134300000Y-64940000D02*
X134300000Y-69570000D01*
X134340000Y-57442000D02*
X134340000Y-62060000D01*
X134340000Y-64940000D02*
X134340000Y-69558000D01*
X134380000Y-57454000D02*
X134380000Y-62060000D01*
X134380000Y-64940000D02*
X134380000Y-69546000D01*
X134420000Y-57466000D02*
X134420000Y-62060000D01*
X134420000Y-64940000D02*
X134420000Y-69534000D01*
X134460000Y-57479000D02*
X134460000Y-62060000D01*
X134460000Y-64940000D02*
X134460000Y-69521000D01*
X134500000Y-57492000D02*
X134500000Y-62060000D01*
X134500000Y-64940000D02*
X134500000Y-69508000D01*
X134540000Y-57505000D02*
X134540000Y-62060000D01*
X134540000Y-64940000D02*
X134540000Y-69495000D01*
X134580000Y-57519000D02*
X134580000Y-62060000D01*
X134580000Y-64940000D02*
X134580000Y-69481000D01*
X134620000Y-57533000D02*
X134620000Y-62060000D01*
X134620000Y-64940000D02*
X134620000Y-69467000D01*
X134660000Y-57547000D02*
X134660000Y-62060000D01*
X134660000Y-64940000D02*
X134660000Y-69453000D01*
X134700000Y-57562000D02*
X134700000Y-62060000D01*
X134700000Y-64940000D02*
X134700000Y-69438000D01*
X134740000Y-57577000D02*
X134740000Y-62060000D01*
X134740000Y-64940000D02*
X134740000Y-69423000D01*
X134780000Y-57592000D02*
X134780000Y-62060000D01*
X134780000Y-64940000D02*
X134780000Y-69408000D01*
X134820000Y-57608000D02*
X134820000Y-62060000D01*
X134820000Y-64940000D02*
X134820000Y-69392000D01*
X134860000Y-57623000D02*
X134860000Y-62060000D01*
X134860000Y-64940000D02*
X134860000Y-69377000D01*
X134900000Y-57639000D02*
X134900000Y-62060000D01*
X134900000Y-64940000D02*
X134900000Y-69361000D01*
X134940000Y-57656000D02*
X134940000Y-62060000D01*
X134940000Y-64940000D02*
X134940000Y-69344000D01*
X134980000Y-57673000D02*
X134980000Y-62060000D01*
X134980000Y-64940000D02*
X134980000Y-69327000D01*
X135020000Y-57690000D02*
X135020000Y-62060000D01*
X135020000Y-64940000D02*
X135020000Y-69310000D01*
X135060000Y-57707000D02*
X135060000Y-62060000D01*
X135060000Y-64940000D02*
X135060000Y-69293000D01*
X135100000Y-57725000D02*
X135100000Y-62060000D01*
X135100000Y-64940000D02*
X135100000Y-69275000D01*
X135140000Y-57743000D02*
X135140000Y-62060000D01*
X135140000Y-64940000D02*
X135140000Y-69257000D01*
X135180000Y-57761000D02*
X135180000Y-62060000D01*
X135180000Y-64940000D02*
X135180000Y-69239000D01*
X135220000Y-57780000D02*
X135220000Y-62060000D01*
X135220000Y-64940000D02*
X135220000Y-69220000D01*
X135260000Y-57799000D02*
X135260000Y-62060000D01*
X135260000Y-64940000D02*
X135260000Y-69201000D01*
X135300000Y-57818000D02*
X135300000Y-62060000D01*
X135300000Y-64940000D02*
X135300000Y-69182000D01*
X135340000Y-57838000D02*
X135340000Y-62060000D01*
X135340000Y-64940000D02*
X135340000Y-69162000D01*
X135380000Y-57858000D02*
X135380000Y-62060000D01*
X135380000Y-64940000D02*
X135380000Y-69142000D01*
X135420000Y-57879000D02*
X135420000Y-62060000D01*
X135420000Y-64940000D02*
X135420000Y-69121000D01*
X135460000Y-57899000D02*
X135460000Y-62060000D01*
X135460000Y-64940000D02*
X135460000Y-69101000D01*
X135500000Y-57921000D02*
X135500000Y-62060000D01*
X135500000Y-64940000D02*
X135500000Y-69079000D01*
X135540000Y-57942000D02*
X135540000Y-62060000D01*
X135540000Y-64940000D02*
X135540000Y-69058000D01*
X135580000Y-57964000D02*
X135580000Y-62060000D01*
X135580000Y-64940000D02*
X135580000Y-69036000D01*
X135620000Y-57986000D02*
X135620000Y-62060000D01*
X135620000Y-64940000D02*
X135620000Y-69014000D01*
X135660000Y-58009000D02*
X135660000Y-62060000D01*
X135660000Y-64940000D02*
X135660000Y-68991000D01*
X135700000Y-58032000D02*
X135700000Y-62060000D01*
X135700000Y-64940000D02*
X135700000Y-68968000D01*
X135740000Y-58056000D02*
X135740000Y-62060000D01*
X135740000Y-64940000D02*
X135740000Y-68944000D01*
X135780000Y-58079000D02*
X135780000Y-62060000D01*
X135780000Y-64940000D02*
X135780000Y-68921000D01*
X135820000Y-58104000D02*
X135820000Y-62060000D01*
X135820000Y-64940000D02*
X135820000Y-68896000D01*
X135860000Y-58128000D02*
X135860000Y-62060000D01*
X135860000Y-64940000D02*
X135860000Y-68872000D01*
X135900000Y-58153000D02*
X135900000Y-62060000D01*
X135900000Y-64940000D02*
X135900000Y-68847000D01*
X135940000Y-58179000D02*
X135940000Y-62060000D01*
X135940000Y-64940000D02*
X135940000Y-68821000D01*
X135980000Y-58205000D02*
X135980000Y-62060000D01*
X135980000Y-64940000D02*
X135980000Y-68795000D01*
X136020000Y-58231000D02*
X136020000Y-62060000D01*
X136020000Y-64940000D02*
X136020000Y-68769000D01*
X136060000Y-58258000D02*
X136060000Y-62060000D01*
X136060000Y-64940000D02*
X136060000Y-68742000D01*
X136100000Y-58285000D02*
X136100000Y-62060000D01*
X136100000Y-64940000D02*
X136100000Y-68715000D01*
X136140000Y-58312000D02*
X136140000Y-62060000D01*
X136140000Y-64940000D02*
X136140000Y-68688000D01*
X136180000Y-58341000D02*
X136180000Y-62060000D01*
X136180000Y-64940000D02*
X136180000Y-68659000D01*
X136220000Y-58369000D02*
X136220000Y-62060000D01*
X136220000Y-64940000D02*
X136220000Y-68631000D01*
X136260000Y-58398000D02*
X136260000Y-62060000D01*
X136260000Y-64940000D02*
X136260000Y-68602000D01*
X136300000Y-58428000D02*
X136300000Y-62060000D01*
X136300000Y-64940000D02*
X136300000Y-68572000D01*
X136340000Y-58458000D02*
X136340000Y-62060000D01*
X136340000Y-64940000D02*
X136340000Y-68542000D01*
X136380000Y-58488000D02*
X136380000Y-62060000D01*
X136380000Y-64940000D02*
X136380000Y-68512000D01*
X136420000Y-58519000D02*
X136420000Y-62060000D01*
X136420000Y-64940000D02*
X136420000Y-68481000D01*
X136460000Y-58550000D02*
X136460000Y-68450000D01*
X136500000Y-58582000D02*
X136500000Y-68418000D01*
X136540000Y-58615000D02*
X136540000Y-68385000D01*
X136580000Y-58648000D02*
X136580000Y-68352000D01*
X136620000Y-58682000D02*
X136620000Y-68318000D01*
X136660000Y-58716000D02*
X136660000Y-68284000D01*
X136700000Y-58751000D02*
X136700000Y-68249000D01*
X136740000Y-58786000D02*
X136740000Y-68214000D01*
X136780000Y-58822000D02*
X136780000Y-68178000D01*
X136820000Y-58859000D02*
X136820000Y-68141000D01*
X136860000Y-58896000D02*
X136860000Y-68104000D01*
X136900000Y-58934000D02*
X136900000Y-68066000D01*
X136940000Y-58972000D02*
X136940000Y-68028000D01*
X136980000Y-59012000D02*
X136980000Y-67988000D01*
X137020000Y-59052000D02*
X137020000Y-67948000D01*
X137060000Y-59092000D02*
X137060000Y-67908000D01*
X137100000Y-59134000D02*
X137100000Y-67866000D01*
X137140000Y-59176000D02*
X137140000Y-67824000D01*
X137180000Y-59219000D02*
X137180000Y-67781000D01*
X137220000Y-59262000D02*
X137220000Y-67738000D01*
X137260000Y-59307000D02*
X137260000Y-67693000D01*
X137300000Y-59352000D02*
X137300000Y-67648000D01*
X137340000Y-59399000D02*
X137340000Y-67601000D01*
X137380000Y-59446000D02*
X137380000Y-67554000D01*
X137420000Y-59494000D02*
X137420000Y-67506000D01*
X137460000Y-59543000D02*
X137460000Y-67457000D01*
X137500000Y-59593000D02*
X137500000Y-67407000D01*
X137540000Y-59644000D02*
X137540000Y-67356000D01*
X137580000Y-59697000D02*
X137580000Y-67303000D01*
X137620000Y-59750000D02*
X137620000Y-67250000D01*
X137660000Y-59805000D02*
X137660000Y-67195000D01*
X137700000Y-59861000D02*
X137700000Y-67139000D01*
X137740000Y-59918000D02*
X137740000Y-67082000D01*
X137780000Y-59977000D02*
X137780000Y-67023000D01*
X137820000Y-60037000D02*
X137820000Y-66963000D01*
X137860000Y-60098000D02*
X137860000Y-66902000D01*
X137900000Y-60161000D02*
X137900000Y-66839000D01*
X137940000Y-60226000D02*
X137940000Y-66774000D01*
X137980000Y-60292000D02*
X137980000Y-66708000D01*
X138020000Y-60361000D02*
X138020000Y-66639000D01*
X138060000Y-60431000D02*
X138060000Y-66569000D01*
X138100000Y-60504000D02*
X138100000Y-66496000D01*
X138140000Y-60579000D02*
X138140000Y-66421000D01*
X138180000Y-60657000D02*
X138180000Y-66343000D01*
X138220000Y-60737000D02*
X138220000Y-66263000D01*
X138260000Y-60820000D02*
X138260000Y-66180000D01*
X138300000Y-60906000D02*
X138300000Y-66094000D01*
X138340000Y-60996000D02*
X138340000Y-66004000D01*
X138380000Y-61090000D02*
X138380000Y-65910000D01*
X138420000Y-61188000D02*
X138420000Y-65812000D01*
X138460000Y-61292000D02*
X138460000Y-65708000D01*
X138500000Y-61401000D02*
X138500000Y-65599000D01*
X138540000Y-61516000D02*
X138540000Y-65484000D01*
X138580000Y-61640000D02*
X138580000Y-65360000D01*
X138620000Y-61773000D02*
X138620000Y-65227000D01*
X138660000Y-61918000D02*
X138660000Y-65082000D01*
X138700000Y-62078000D02*
X138700000Y-64922000D01*
X138740000Y-62260000D02*
X138740000Y-64740000D01*
X138780000Y-62473000D02*
X138780000Y-64527000D01*
X138820000Y-62743000D02*
X138820000Y-64257000D01*
X138860000Y-63183000D02*
X138860000Y-63817000D01*
X138870000Y-63500000D02*
G75*
G02*
X126130000Y-63500000I-6370000J0D01*
G01*
X126130000Y-63500000D02*
G75*
G02*
X138870000Y-63500000I6370000J0D01*
G01*
%TO.C,SW1*%
X105746497Y-84100000D02*
X106946497Y-84100000D01*
X105746497Y-86400000D02*
X105746497Y-84100000D01*
X109446497Y-84100000D02*
X108746497Y-84100000D01*
X111946497Y-84100000D02*
X111246497Y-84100000D01*
X113746497Y-84100000D02*
X114946497Y-84100000D01*
X114946497Y-84100000D02*
X114946497Y-86400000D01*
%TO.C,D2*%
X126260000Y-80000000D02*
X127280000Y-80000000D01*
X128060000Y-78530000D02*
X128060000Y-81470000D01*
X128180000Y-78530000D02*
X128180000Y-81470000D01*
X128300000Y-78530000D02*
X128300000Y-81470000D01*
X133740000Y-80000000D02*
X132720000Y-80000000D01*
X127280000Y-78530000D02*
X132720000Y-78530000D01*
X132720000Y-81470000D01*
X127280000Y-81470000D01*
X127280000Y-78530000D01*
%TO.C,K1*%
X134496497Y-30250000D02*
X150096497Y-30250000D01*
X134496497Y-50050000D02*
X134496497Y-30250000D01*
X134496497Y-50050000D02*
X141096497Y-50050000D01*
X136346497Y-42600000D02*
X136346497Y-45100000D01*
X136346497Y-42600000D02*
X140546497Y-42600000D01*
X138096497Y-34500000D02*
X140596497Y-34500000D01*
X140546497Y-40600000D02*
X144146497Y-40600000D01*
X140546497Y-44600000D02*
X140546497Y-40600000D01*
X142346497Y-37700000D02*
X139846497Y-33100000D01*
X142346497Y-39200000D02*
X142346497Y-37700000D01*
X142346497Y-39200000D02*
X145946497Y-39200000D01*
X142346497Y-46000000D02*
X142346497Y-46800000D01*
X142346497Y-46000000D02*
X145946497Y-46000000D01*
X143496497Y-50050000D02*
X150096497Y-50050000D01*
X144146497Y-40600000D02*
X140546497Y-44600000D01*
X144146497Y-40600000D02*
X144146497Y-44600000D01*
X144146497Y-42600000D02*
X148346497Y-42600000D01*
X144146497Y-44600000D02*
X140546497Y-44600000D01*
X145946497Y-39200000D02*
X145946497Y-46000000D01*
X146496497Y-34500000D02*
X144046497Y-34500000D01*
X148346497Y-45100000D02*
X148346497Y-42600000D01*
X150096497Y-30250000D02*
X150096497Y-50050000D01*
%TO.C,J2*%
D13*
X103440000Y-30560000D02*
X103440000Y-75560000D01*
X103440000Y-75560000D02*
X111773334Y-75560000D01*
X111773334Y-75310000D02*
X111773334Y-75560000D01*
X111773334Y-75310000D02*
X117106666Y-75310000D01*
X117106666Y-75310000D02*
X117106666Y-75560000D01*
X117106666Y-75560000D02*
X125440000Y-75560000D01*
X125440000Y-30560000D02*
X103440000Y-30560000D01*
X125440000Y-75560000D02*
X125440000Y-30560000D01*
%TO.C,J4*%
D12*
X89936497Y-82890000D02*
X89936497Y-84140000D01*
X90236497Y-83190000D02*
X90236497Y-89810000D01*
X90236497Y-86500000D02*
X91246497Y-86500000D01*
X90236497Y-89810000D02*
X102956497Y-89810000D01*
X91186497Y-82890000D02*
X89936497Y-82890000D01*
X91246497Y-84800000D02*
X91246497Y-89100000D01*
X91246497Y-89100000D02*
X101946497Y-89100000D01*
X93896497Y-83190000D02*
X90236497Y-83190000D01*
X93896497Y-84190000D02*
X93896497Y-83190000D01*
X95796497Y-83590000D02*
X95796497Y-84190000D01*
X95796497Y-84190000D02*
X93896497Y-84190000D01*
X97396497Y-83590000D02*
X95796497Y-83590000D01*
X97396497Y-84190000D02*
X97396497Y-83590000D01*
X99296497Y-83190000D02*
X99296497Y-84190000D01*
X99296497Y-84190000D02*
X97396497Y-84190000D01*
X101946497Y-84800000D02*
X91246497Y-84800000D01*
X101946497Y-89100000D02*
X101946497Y-84800000D01*
X102956497Y-83190000D02*
X99296497Y-83190000D01*
X102956497Y-86500000D02*
X101946497Y-86500000D01*
X102956497Y-89810000D02*
X102956497Y-83190000D01*
%TO.C,J7*%
X79436497Y-82890000D02*
X79436497Y-84140000D01*
X79736497Y-83190000D02*
X79736497Y-89810000D01*
X79736497Y-86500000D02*
X80746497Y-86500000D01*
X79736497Y-89810000D02*
X87456497Y-89810000D01*
X80686497Y-82890000D02*
X79436497Y-82890000D01*
X80746497Y-84800000D02*
X80746497Y-89100000D01*
X80746497Y-89100000D02*
X86446497Y-89100000D01*
X81996497Y-83190000D02*
X79736497Y-83190000D01*
X81996497Y-84190000D02*
X81996497Y-83190000D01*
X83196497Y-83590000D02*
X83196497Y-84190000D01*
X83196497Y-84190000D02*
X81996497Y-84190000D01*
X83996497Y-83590000D02*
X83196497Y-83590000D01*
X83996497Y-84190000D02*
X83996497Y-83590000D01*
X85196497Y-83190000D02*
X85196497Y-84190000D01*
X85196497Y-84190000D02*
X83996497Y-84190000D01*
X86446497Y-84800000D02*
X80746497Y-84800000D01*
X86446497Y-89100000D02*
X86446497Y-84800000D01*
X87456497Y-83190000D02*
X85196497Y-83190000D01*
X87456497Y-86500000D02*
X86446497Y-86500000D01*
X87456497Y-89810000D02*
X87456497Y-83190000D01*
%TO.C,U1*%
X74116497Y-30275000D02*
X85185497Y-30275000D01*
X74116497Y-30275000D02*
X102626497Y-30275000D01*
X74116497Y-81225000D02*
X74116497Y-30275000D01*
X74116497Y-81225000D02*
X74116497Y-30275000D01*
X74116497Y-81225000D02*
X79486497Y-81225000D01*
X79486497Y-81225000D02*
X97176497Y-81225000D01*
X85185497Y-30275000D02*
X91896497Y-30275000D01*
X91896497Y-30275000D02*
X102626497Y-30275000D01*
X97176497Y-81225000D02*
X102626497Y-81225000D01*
X102626497Y-30275000D02*
X102626497Y-81225000D01*
X102626497Y-30275000D02*
X102626497Y-81225000D01*
X102626497Y-81225000D02*
X74116497Y-81225000D01*
X73646497Y-40235000D02*
G75*
G02*
X73446497Y-40235000I-100000J0D01*
G01*
X73446497Y-40235000D02*
G75*
G02*
X73646497Y-40235000I100000J0D01*
G01*
%TO.C,U2*%
X121691497Y-83905000D02*
X121691497Y-89105000D01*
X121691497Y-89105000D02*
X123341497Y-89105000D01*
X125341497Y-89105000D02*
X126991497Y-89105000D01*
X126991497Y-83905000D02*
X121691497Y-83905000D01*
X126991497Y-89105000D02*
X126991497Y-83905000D01*
X123341497Y-89105000D02*
G75*
G02*
X125341497Y-89105000I1000000J0D01*
G01*
%TO.C,J5*%
X55346497Y-31120000D02*
X55346497Y-33880000D01*
X68156497Y-31120000D02*
X55346497Y-31120000D01*
X68156497Y-31120000D02*
X68156497Y-33880000D01*
X68156497Y-33880000D02*
X55346497Y-33880000D01*
X69426497Y-31120000D02*
X70806497Y-31120000D01*
X70806497Y-31120000D02*
X70806497Y-32500000D01*
%TD*%
M02*
