%TF.GenerationSoftware,KiCad,Pcbnew,10.0.4*%
%TF.CreationDate,2026-06-29T18:05:19+07:00*%
%TF.ProjectId,Control Unit,436f6e74-726f-46c2-9055-6e69742e6b69,rev?*%
%TF.SameCoordinates,Original*%
%TF.FileFunction,Copper,L1,Top*%
%TF.FilePolarity,Positive*%
%FSLAX46Y46*%
G04 Gerber Fmt 4.6, Leading zero omitted, Abs format (unit mm)*
G04 Created by KiCad (PCBNEW 10.0.4) date 2026-06-29 18:05:19*
%MOMM*%
%LPD*%
G01*
G04 APERTURE LIST*
G04 Aperture macros list*
%AMRoundRect*
0 Rectangle with rounded corners*
0 $1 Rounding radius*
0 $2 $3 $4 $5 $6 $7 $8 $9 X,Y pos of 4 corners*
0 Add a 4 corners polygon primitive as box body*
4,1,4,$2,$3,$4,$5,$6,$7,$8,$9,$2,$3,0*
0 Add four circle primitives for the rounded corners*
1,1,$1+$1,$2,$3*
1,1,$1+$1,$4,$5*
1,1,$1+$1,$6,$7*
1,1,$1+$1,$8,$9*
0 Add four rect primitives between the rounded corners*
20,1,$1+$1,$2,$3,$4,$5,0*
20,1,$1+$1,$4,$5,$6,$7,0*
20,1,$1+$1,$6,$7,$8,$9,0*
20,1,$1+$1,$8,$9,$2,$3,0*%
G04 Aperture macros list end*
%TA.AperFunction,ComponentPad*%
%ADD10RoundRect,0.250000X1.325000X-1.325000X1.325000X1.325000X-1.325000X1.325000X-1.325000X-1.325000X0*%
%TD*%
%TA.AperFunction,ComponentPad*%
%ADD11C,3.150000*%
%TD*%
%TA.AperFunction,ComponentPad*%
%ADD12C,2.200000*%
%TD*%
%TA.AperFunction,ComponentPad*%
%ADD13RoundRect,0.249999X-0.850001X0.850001X-0.850001X-0.850001X0.850001X-0.850001X0.850001X0.850001X0*%
%TD*%
%TA.AperFunction,ComponentPad*%
%ADD14C,1.600000*%
%TD*%
%TA.AperFunction,ComponentPad*%
%ADD15RoundRect,0.250000X0.550000X0.550000X-0.550000X0.550000X-0.550000X-0.550000X0.550000X-0.550000X0*%
%TD*%
%TA.AperFunction,SMDPad,CuDef*%
%ADD16RoundRect,0.250000X-0.375000X-1.000000X0.375000X-1.000000X0.375000X1.000000X-0.375000X1.000000X0*%
%TD*%
%TA.AperFunction,ComponentPad*%
%ADD17R,2.000000X2.000000*%
%TD*%
%TA.AperFunction,ComponentPad*%
%ADD18C,2.000000*%
%TD*%
%TA.AperFunction,ComponentPad*%
%ADD19C,2.400000*%
%TD*%
%TA.AperFunction,ComponentPad*%
%ADD20C,3.000000*%
%TD*%
%TA.AperFunction,ComponentPad*%
%ADD21C,2.500000*%
%TD*%
%TA.AperFunction,ComponentPad*%
%ADD22RoundRect,0.250000X-0.600000X-0.725000X0.600000X-0.725000X0.600000X0.725000X-0.600000X0.725000X0*%
%TD*%
%TA.AperFunction,ComponentPad*%
%ADD23O,1.700000X1.950000*%
%TD*%
%TA.AperFunction,ComponentPad*%
%ADD24R,1.700000X1.700000*%
%TD*%
%TA.AperFunction,ComponentPad*%
%ADD25C,1.700000*%
%TD*%
%TA.AperFunction,ComponentPad*%
%ADD26O,2.000000X1.200000*%
%TD*%
%TA.AperFunction,ComponentPad*%
%ADD27RoundRect,0.250001X-0.949999X-0.949999X0.949999X-0.949999X0.949999X0.949999X-0.949999X0.949999X0*%
%TD*%
%TA.AperFunction,ViaPad*%
%ADD28C,0.600000*%
%TD*%
%TA.AperFunction,Conductor*%
%ADD29C,0.200000*%
%TD*%
%TA.AperFunction,Conductor*%
%ADD30C,1.000000*%
%TD*%
G04 APERTURE END LIST*
D10*
%TO.P,J1,1,12V_PWR_1*%
%TO.N,/12V_PWR_Relay*%
X201500000Y-125000000D03*
D11*
%TO.P,J1,2,GND_2*%
%TO.N,/12V_GND*%
X201500000Y-119000000D03*
%TO.P,J1,3,12V_SWITCH_3*%
%TO.N,Net-(J1-12V_SWITCH)*%
X201500000Y-113000000D03*
%TD*%
D12*
%TO.P,D2,2,A_2*%
%TO.N,/RPM_PWR_DIODE*%
X175000000Y-133580000D03*
D13*
%TO.P,D2,1,K_1*%
%TO.N,/RPM_PWR_RESISTOR*%
X175000000Y-123420000D03*
%TD*%
D14*
%TO.P,U2,4*%
%TO.N,/3.3V_PWR*%
X171880000Y-142540000D03*
%TO.P,U2,3*%
%TO.N,Net-(U1-D14)*%
X171880000Y-140000000D03*
%TO.P,U2,2*%
%TO.N,/RPM_GND*%
X179500000Y-140000000D03*
D15*
%TO.P,U2,1*%
%TO.N,/RPM_PWR*%
X179500000Y-142540000D03*
%TD*%
D16*
%TO.P,SW1,3*%
%TO.N,N/C*%
X164000000Y-137750000D03*
%TO.P,SW1,2,B_2*%
%TO.N,/3.3V_PWR*%
X161500000Y-137750000D03*
%TO.P,SW1,1,A_1*%
%TO.N,/3.3V_PWR_SW*%
X159000000Y-137750000D03*
%TD*%
D14*
%TO.P,R4,2*%
%TO.N,Net-(U1-D34)*%
X187880000Y-107500000D03*
%TO.P,R4,1*%
%TO.N,GNDREF*%
X195500000Y-107500000D03*
%TD*%
D17*
%TO.P,U1,1,3V3_1*%
%TO.N,/3.3V_PWR*%
X124350000Y-92735000D03*
D18*
%TO.P,U1,2,GND_2*%
%TO.N,GNDREF*%
X124350000Y-95275000D03*
%TO.P,U1,3,D15_3*%
%TO.N,Net-(J3-CS)*%
X124350000Y-97815000D03*
%TO.P,U1,4,D2_4*%
%TO.N,Net-(J3-DC)*%
X124350000Y-100355000D03*
%TO.P,U1,5,D4_5*%
%TO.N,Net-(J7-SIG)*%
X124350000Y-102895000D03*
%TO.P,U1,6,RX2_6*%
%TO.N,unconnected-(U1-RX2-Pad6)*%
X124350000Y-105435000D03*
%TO.P,U1,7,TX2_7*%
%TO.N,unconnected-(U1-TX2-Pad7)*%
X124350000Y-107975000D03*
%TO.P,U1,8,D5_8*%
%TO.N,unconnected-(U1-D5-Pad8)*%
X124350000Y-110515000D03*
%TO.P,U1,9,D18_9*%
%TO.N,Net-(J3-SCL)*%
X124350000Y-113055000D03*
%TO.P,U1,10,D19_10*%
%TO.N,unconnected-(U1-D19-Pad10)*%
X124350000Y-115595000D03*
%TO.P,U1,11,D21_11*%
%TO.N,Net-(J4-SDA)*%
X124350000Y-118135000D03*
%TO.P,U1,12,RX0_12*%
%TO.N,unconnected-(U1-RX0-Pad12)*%
X124350000Y-120675000D03*
%TO.P,U1,13,TX0_13*%
%TO.N,unconnected-(U1-TX0-Pad13)*%
X124350000Y-123215000D03*
%TO.P,U1,14,D22_14*%
%TO.N,Net-(J3-RES)*%
X124350000Y-125755000D03*
%TO.P,U1,15,D23_15*%
%TO.N,Net-(J3-SDA)*%
X124350000Y-128295000D03*
%TO.P,U1,30,VIN_30*%
%TO.N,unconnected-(U1-VIN-Pad30)*%
X149750000Y-92735000D03*
%TO.P,U1,29,GND_29*%
%TO.N,GNDREF*%
X149750000Y-95275000D03*
%TO.P,U1,28,D13_28*%
%TO.N,unconnected-(U1-D13-Pad28)*%
X149750000Y-97815000D03*
%TO.P,U1,27,D12_27*%
%TO.N,unconnected-(U1-D12-Pad27)*%
X149750000Y-100355000D03*
%TO.P,U1,26,D14_26*%
%TO.N,Net-(U1-D14)*%
X149750000Y-102895000D03*
%TO.P,U1,25,D27_25*%
%TO.N,unconnected-(U1-D27-Pad25)*%
X149750000Y-105435000D03*
%TO.P,U1,24,D26_24*%
%TO.N,Net-(J4-SCL)*%
X149750000Y-107975000D03*
%TO.P,U1,23,D25_23*%
%TO.N,unconnected-(U1-D25-Pad23)*%
X149750000Y-110515000D03*
%TO.P,U1,22,D33_22*%
%TO.N,unconnected-(U1-D33-Pad22)*%
X149750000Y-113055000D03*
%TO.P,U1,21,D32_21*%
%TO.N,unconnected-(U1-D32-Pad21)*%
X149750000Y-115595000D03*
%TO.P,U1,20,D35_20*%
%TO.N,unconnected-(U1-D35-Pad20)*%
X149750000Y-118135000D03*
%TO.P,U1,19,D34_19*%
%TO.N,Net-(U1-D34)*%
X149750000Y-120675000D03*
%TO.P,U1,18,VN_18*%
%TO.N,unconnected-(U1-VN-Pad18)*%
X149750000Y-123215000D03*
%TO.P,U1,17,VP_17*%
%TO.N,unconnected-(U1-VP-Pad17)*%
X149750000Y-125755000D03*
%TO.P,U1,16,EN_16*%
%TO.N,unconnected-(U1-EN-Pad16)*%
X149750000Y-128295000D03*
%TD*%
D14*
%TO.P,R3,1*%
%TO.N,/12V_PWR*%
X174500000Y-90690000D03*
%TO.P,R3,2*%
%TO.N,Net-(U1-D34)*%
X174500000Y-98310000D03*
%TD*%
%TO.P,R2,1*%
%TO.N,Net-(U1-D14)*%
X171690000Y-117000000D03*
%TO.P,R2,2*%
%TO.N,GNDREF*%
X179310000Y-117000000D03*
%TD*%
D19*
%TO.P,R1,1*%
%TO.N,/RPM_PWR_RESISTOR*%
X188500000Y-113340000D03*
%TO.P,R1,2*%
%TO.N,/RPM_PWR*%
X188500000Y-133660000D03*
%TD*%
D20*
%TO.P,K1,1*%
%TO.N,/12V_PWR_Relay*%
X201500000Y-95000000D03*
D21*
%TO.P,K1,2*%
%TO.N,/12V_GND*%
X199550000Y-88950000D03*
D20*
%TO.P,K1,3*%
%TO.N,/12V_PWR_BATT*%
X187350000Y-88950000D03*
%TO.P,K1,4*%
%TO.N,unconnected-(K1-Pad4)*%
X187300000Y-101000000D03*
D21*
%TO.P,K1,5*%
%TO.N,Net-(J1-12V_SWITCH)*%
X199550000Y-100950000D03*
%TD*%
D22*
%TO.P,J7,1,SIG_1*%
%TO.N,Net-(J7-SIG)*%
X131000000Y-141500000D03*
D23*
%TO.P,J7,2,Pin_2_2*%
%TO.N,GNDREF*%
X133500000Y-141500000D03*
%TD*%
D22*
%TO.P,J6,1,RPM_IN_1*%
%TO.N,/RPM_PWR_DIODE*%
X186500000Y-140500000D03*
D23*
%TO.P,J6,2,Pin_2_2*%
%TO.N,/RPM_GND*%
X189000000Y-140500000D03*
%TD*%
D24*
%TO.P,J5,1,GND_1*%
%TO.N,GNDREF*%
X118080000Y-85000000D03*
D25*
%TO.P,J5,2,Vcc_2*%
%TO.N,/3.3V_PWR*%
X115540000Y-85000000D03*
%TO.P,J5,3,SDA_3*%
%TO.N,Net-(J4-SDA)*%
X113000000Y-85000000D03*
%TO.P,J5,4,SCL_4*%
%TO.N,Net-(J4-SCL)*%
X110460000Y-85000000D03*
%TO.P,J5,5*%
%TO.N,N/C*%
X107920000Y-85000000D03*
%TO.P,J5,6*%
X105380000Y-85000000D03*
%TD*%
D22*
%TO.P,J4,1,Vcc_1*%
%TO.N,/3.3V_PWR*%
X143000000Y-141500000D03*
D23*
%TO.P,J4,2,SDA_2*%
%TO.N,Net-(J4-SDA)*%
X145500000Y-141500000D03*
%TO.P,J4,3,GND_3*%
%TO.N,GNDREF*%
X148000000Y-141500000D03*
%TO.P,J4,4,SCL_4*%
%TO.N,Net-(J4-SCL)*%
X150500000Y-141500000D03*
%TD*%
D22*
%TO.P,J3,1,GND_1*%
%TO.N,GNDREF*%
X105000000Y-141500000D03*
D23*
%TO.P,J3,2,Vcc_2*%
%TO.N,/3.3V_PWR*%
X107500000Y-141500000D03*
%TO.P,J3,3,SCL_3*%
%TO.N,Net-(J3-SCL)*%
X110000000Y-141500000D03*
%TO.P,J3,4,SDA_4*%
%TO.N,Net-(J3-SDA)*%
X112500000Y-141500000D03*
%TO.P,J3,5,RES_5*%
%TO.N,Net-(J3-RES)*%
X115000000Y-141500000D03*
%TO.P,J3,6,DC_6*%
%TO.N,Net-(J3-DC)*%
X117500000Y-141500000D03*
%TO.P,J3,7,CS_7*%
%TO.N,Net-(J3-CS)*%
X120000000Y-141500000D03*
%TO.P,J3,8,Pin_8_8*%
%TO.N,/3.3V_PWR*%
X122500000Y-141500000D03*
%TD*%
D26*
%TO.P,J2,1,12V_in_1*%
%TO.N,/12V_PWR*%
X168500000Y-84000000D03*
%TO.P,J2,2,12V_GND_2*%
%TO.N,/12V_GND*%
X155500000Y-84000000D03*
%TO.P,J2,3,3.3V_out_3*%
%TO.N,/3.3V_PWR_SW*%
X155500000Y-129000000D03*
%TO.P,J2,4,3.3V_GND_4*%
%TO.N,GNDREF*%
X168500000Y-129000000D03*
%TD*%
D13*
%TO.P,D1,1,K_1*%
%TO.N,/12V_PWR*%
X180500000Y-87920000D03*
D12*
%TO.P,D1,2,A_2*%
%TO.N,/12V_PWR_BATT*%
X180500000Y-98080000D03*
%TD*%
D27*
%TO.P,C1,1*%
%TO.N,/3.3V_PWR_SW*%
X175176041Y-107500000D03*
D19*
%TO.P,C1,2*%
%TO.N,GNDREF*%
X180176041Y-107500000D03*
%TD*%
D28*
%TO.N,Net-(J3-SDA)*%
X114400000Y-128500000D03*
%TO.N,Net-(J3-SCL)*%
X116500000Y-123500000D03*
%TO.N,Net-(J3-RES)*%
X116500000Y-126500000D03*
%TO.N,Net-(J3-DC)*%
X117500000Y-109000000D03*
X117500000Y-113500000D03*
X119000000Y-107500000D03*
X121000000Y-105500000D03*
%TO.N,Net-(J3-CS)*%
X120000000Y-111500000D03*
X120000000Y-117500000D03*
%TO.N,Net-(J4-SDA)*%
X130000000Y-137000000D03*
X124500000Y-137000000D03*
%TO.N,Net-(J4-SCL)*%
X111992182Y-83007818D03*
X115500000Y-82000000D03*
%TO.N,Net-(U1-D34)*%
X156500000Y-116500000D03*
%TO.N,Net-(U1-D14)*%
X165000000Y-121500000D03*
X160000000Y-121500000D03*
%TD*%
%TO.N,Net-(J3-SDA)*%
D29*
X114400000Y-128500000D02*
X112500000Y-130400000D01*
X112500000Y-130400000D02*
X112500000Y-141500000D01*
%TO.N,Net-(J3-SCL)*%
X116500000Y-123500000D02*
X110000000Y-130000000D01*
X110000000Y-130000000D02*
X110000000Y-141500000D01*
%TO.N,Net-(J3-RES)*%
X115000000Y-128000000D02*
X115000000Y-141500000D01*
X116500000Y-126500000D02*
X115000000Y-128000000D01*
%TO.N,Net-(J3-DC)*%
X121000000Y-105500000D02*
X121000000Y-103705000D01*
X121000000Y-103705000D02*
X124350000Y-100355000D01*
X117500000Y-141500000D02*
X117500000Y-113500000D01*
X117500000Y-109000000D02*
X119000000Y-107500000D01*
%TO.N,Net-(J3-CS)*%
X120000000Y-111500000D02*
X120000000Y-102165000D01*
X120000000Y-102165000D02*
X124350000Y-97815000D01*
X120000000Y-141500000D02*
X120000000Y-117500000D01*
%TO.N,Net-(J4-SDA)*%
X122000000Y-136000000D02*
X123000000Y-137000000D01*
X124350000Y-118135000D02*
X122000000Y-120485000D01*
X122000000Y-120485000D02*
X122000000Y-136000000D01*
X141000000Y-137000000D02*
X145500000Y-141500000D01*
X123000000Y-137000000D02*
X124500000Y-137000000D01*
X130000000Y-137000000D02*
X141000000Y-137000000D01*
%TO.N,Net-(J7-SIG)*%
X124350000Y-102895000D02*
X127000000Y-105545000D01*
X127000000Y-105545000D02*
X127000000Y-136000000D01*
X127000000Y-136000000D02*
X131000000Y-140000000D01*
X131000000Y-140000000D02*
X131000000Y-141500000D01*
%TO.N,Net-(J4-SDA)*%
X113000000Y-85000000D02*
X113000000Y-106785000D01*
X113000000Y-106785000D02*
X124350000Y-118135000D01*
%TO.N,Net-(J4-SCL)*%
X149750000Y-107975000D02*
X127000000Y-85225000D01*
X111500000Y-83500000D02*
X111500000Y-83960000D01*
X127000000Y-85225000D02*
X127000000Y-84388705D01*
X127000000Y-84388705D02*
X124611295Y-82000000D01*
X111500000Y-83960000D02*
X110460000Y-85000000D01*
X124611295Y-82000000D02*
X115500000Y-82000000D01*
X111992182Y-83007818D02*
X111500000Y-83500000D01*
%TO.N,/3.3V_PWR*%
D30*
X107500000Y-141500000D02*
X106650000Y-140650000D01*
X106650000Y-140650000D02*
X106650000Y-140333148D01*
X106650000Y-140333148D02*
X106041852Y-139725000D01*
X106041852Y-139725000D02*
X105725000Y-139725000D01*
X105725000Y-139725000D02*
X103000000Y-137000000D01*
X103000000Y-137000000D02*
X103000000Y-82500000D01*
X103000000Y-82500000D02*
X104000000Y-81500000D01*
X104000000Y-81500000D02*
X112040000Y-81500000D01*
X112040000Y-81500000D02*
X115540000Y-85000000D01*
%TO.N,Net-(J4-SCL)*%
D29*
X149750000Y-107975000D02*
X153000000Y-111225000D01*
X153000000Y-139000000D02*
X150500000Y-141500000D01*
X153000000Y-111225000D02*
X153000000Y-139000000D01*
%TO.N,Net-(U1-D34)*%
D30*
X156500000Y-116310000D02*
X156500000Y-116500000D01*
X174500000Y-98310000D02*
X156500000Y-116310000D01*
%TO.N,/3.3V_PWR*%
X161080000Y-144000000D02*
X143000000Y-144000000D01*
X143000000Y-141500000D02*
X143000000Y-144000000D01*
X143000000Y-144000000D02*
X122500000Y-144000000D01*
X122500000Y-141500000D02*
X122500000Y-144000000D01*
X122500000Y-144000000D02*
X108000000Y-144000000D01*
X162540000Y-142540000D02*
X161080000Y-144000000D01*
X108000000Y-144000000D02*
X107500000Y-143500000D01*
X107500000Y-143500000D02*
X107500000Y-141500000D01*
%TO.N,/3.3V_PWR_SW*%
X155500000Y-129000000D02*
X155500000Y-134250000D01*
X155500000Y-134250000D02*
X159000000Y-137750000D01*
%TO.N,Net-(U1-D14)*%
D29*
X156000000Y-121500000D02*
X154500000Y-120000000D01*
X160000000Y-121500000D02*
X156000000Y-121500000D01*
X154500000Y-120000000D02*
X154500000Y-107645000D01*
X166500000Y-121500000D02*
X165000000Y-121500000D01*
X171690000Y-117000000D02*
X171000000Y-117000000D01*
X154500000Y-107645000D02*
X149750000Y-102895000D01*
X171000000Y-117000000D02*
X166500000Y-121500000D01*
%TO.N,/3.3V_PWR_SW*%
D30*
X175176041Y-107500000D02*
X175176041Y-109323959D01*
X175176041Y-109323959D02*
X155500000Y-129000000D01*
%TO.N,Net-(U1-D14)*%
D29*
X171880000Y-140000000D02*
X171880000Y-117190000D01*
X171880000Y-117190000D02*
X171690000Y-117000000D01*
%TO.N,Net-(U1-D34)*%
D30*
X187880000Y-107500000D02*
X183690000Y-107500000D01*
X183690000Y-107500000D02*
X174500000Y-98310000D01*
%TO.N,/3.3V_PWR*%
X162540000Y-142540000D02*
X161500000Y-141500000D01*
X161500000Y-141500000D02*
X161500000Y-137750000D01*
X171880000Y-142540000D02*
X162540000Y-142540000D01*
%TO.N,/RPM_GND*%
X189000000Y-140500000D02*
X189000000Y-140816852D01*
X189000000Y-140816852D02*
X187541852Y-142275000D01*
X187541852Y-142275000D02*
X182906370Y-142275000D01*
X182906370Y-142275000D02*
X180631370Y-140000000D01*
X180631370Y-140000000D02*
X179500000Y-140000000D01*
%TO.N,/RPM_PWR*%
X188500000Y-133660000D02*
X186520000Y-131680000D01*
X186520000Y-131680000D02*
X174212994Y-131680000D01*
X174212994Y-131680000D02*
X173100000Y-132792994D01*
X173100000Y-132792994D02*
X173100000Y-136140000D01*
X173100000Y-136140000D02*
X179500000Y-142540000D01*
%TO.N,/RPM_PWR_RESISTOR*%
X175000000Y-123420000D02*
X178420000Y-123420000D01*
X178420000Y-123420000D02*
X188500000Y-113340000D01*
%TO.N,/RPM_PWR_DIODE*%
X186500000Y-140500000D02*
X179580000Y-133580000D01*
X179580000Y-133580000D02*
X175000000Y-133580000D01*
%TO.N,/12V_GND*%
X155500000Y-84000000D02*
X158000000Y-81500000D01*
X158000000Y-81500000D02*
X192100000Y-81500000D01*
X192100000Y-81500000D02*
X199550000Y-88950000D01*
%TO.N,/12V_PWR*%
X174500000Y-90690000D02*
X174500000Y-90000000D01*
X174500000Y-90000000D02*
X168500000Y-84000000D01*
X180500000Y-87920000D02*
X177270000Y-87920000D01*
X177270000Y-87920000D02*
X174500000Y-90690000D01*
%TO.N,/12V_PWR_BATT*%
X187350000Y-88950000D02*
X187350000Y-91230000D01*
X187350000Y-91230000D02*
X180500000Y-98080000D01*
%TO.N,/12V_GND*%
X201500000Y-119000000D02*
X204000000Y-116500000D01*
X204000000Y-116500000D02*
X204000000Y-93400000D01*
X204000000Y-93400000D02*
X199550000Y-88950000D01*
%TO.N,Net-(J1-12V_SWITCH)*%
D29*
X201500000Y-113000000D02*
X199550000Y-111050000D01*
X199550000Y-111050000D02*
X199550000Y-100950000D01*
%TO.N,/12V_PWR_Relay*%
D30*
X200000000Y-125000000D02*
X197500000Y-122500000D01*
X201500000Y-125000000D02*
X200000000Y-125000000D01*
X197500000Y-122500000D02*
X197500000Y-99000000D01*
X197500000Y-99000000D02*
X201500000Y-95000000D01*
%TO.N,/3.3V_PWR*%
X115540000Y-85000000D02*
X115540000Y-85760000D01*
X115540000Y-85760000D02*
X119280000Y-89500000D01*
X119280000Y-89500000D02*
X121000000Y-89500000D01*
X121000000Y-89500000D02*
X124235000Y-92735000D01*
X124235000Y-92735000D02*
X124350000Y-92735000D01*
%TD*%
M02*
