M48
; DRILL file KiCad 10.0.4 date 2026-06-29T18:05:24
; FORMAT={-:-/ absolute / metric / decimal}
; #@! TF.CreationDate,2026-06-29T18:05:24+07:00
; #@! TF.GenerationSoftware,Kicad,Pcbnew,10.0.4
; #@! TF.FileFunction,Plated,1,2,PTH
FMAT,2
METRIC
; #@! TA.AperFunction,Plated,PTH,ViaDrill
T1C0.300
; #@! TA.AperFunction,Plated,PTH,ComponentDrill
T2C0.800
; #@! TA.AperFunction,Plated,PTH,ComponentDrill
T3C0.950
; #@! TA.AperFunction,Plated,PTH,ComponentDrill
T4C1.000
; #@! TA.AperFunction,Plated,PTH,ComponentDrill
T5C1.020
; #@! TA.AperFunction,Plated,PTH,ComponentDrill
T6C1.100
; #@! TA.AperFunction,Plated,PTH,ComponentDrill
T7C1.200
; #@! TA.AperFunction,Plated,PTH,ComponentDrill
T8C1.300
; #@! TA.AperFunction,Plated,PTH,ComponentDrill
T9C2.150
%
G90
G05
T1
X111.992Y-83.008
X114.4Y-128.5
X115.5Y-82.0
X116.5Y-123.5
X116.5Y-126.5
X117.5Y-109.0
X117.5Y-113.5
X119.0Y-107.5
X120.0Y-111.5
X120.0Y-117.5
X121.0Y-105.5
X124.5Y-137.0
X130.0Y-137.0
X156.5Y-116.5
X160.0Y-121.5
X165.0Y-121.5
T2
X155.5Y-84.0
X155.5Y-129.0
X168.5Y-84.0
X168.5Y-129.0
X171.69Y-117.0
X171.88Y-140.0
X171.88Y-142.54
X174.5Y-90.69
X174.5Y-98.31
X179.31Y-117.0
X179.5Y-140.0
X179.5Y-142.54
X187.88Y-107.5
X195.5Y-107.5
T3
X105.0Y-141.5
X107.5Y-141.5
X110.0Y-141.5
X112.5Y-141.5
X115.0Y-141.5
X117.5Y-141.5
X120.0Y-141.5
X122.5Y-141.5
X131.0Y-141.5
X133.5Y-141.5
X143.0Y-141.5
X145.5Y-141.5
X148.0Y-141.5
X150.5Y-141.5
X186.5Y-140.5
X189.0Y-140.5
T4
X105.38Y-85.0
X107.92Y-85.0
X110.46Y-85.0
X113.0Y-85.0
X115.54Y-85.0
X118.08Y-85.0
X199.55Y-88.95
X199.55Y-100.95
T5
X124.35Y-92.735
X124.35Y-95.275
X124.35Y-97.815
X124.35Y-100.355
X124.35Y-102.895
X124.35Y-105.435
X124.35Y-107.975
X124.35Y-110.515
X124.35Y-113.055
X124.35Y-115.595
X124.35Y-118.135
X124.35Y-120.675
X124.35Y-123.215
X124.35Y-125.755
X124.35Y-128.295
X149.75Y-92.735
X149.75Y-95.275
X149.75Y-97.815
X149.75Y-100.355
X149.75Y-102.895
X149.75Y-105.435
X149.75Y-107.975
X149.75Y-110.515
X149.75Y-113.055
X149.75Y-115.595
X149.75Y-118.135
X149.75Y-120.675
X149.75Y-123.215
X149.75Y-125.755
X149.75Y-128.295
T6
X175.0Y-123.42
X175.0Y-133.58
X180.5Y-87.92
X180.5Y-98.08
T7
X175.176Y-107.5
X180.176Y-107.5
X188.5Y-113.34
X188.5Y-133.66
T8
X187.3Y-101.0
X187.35Y-88.95
X201.5Y-95.0
T9
X201.5Y-113.0
X201.5Y-119.0
X201.5Y-125.0
M30
